<?xml version="1.0" encoding="utf-8"?>
<!-- Generator: Adobe Illustrator 16.0.0, SVG Export Plug-In . SVG Version: 6.00 Build 0)  -->
<!DOCTYPE svg PUBLIC "-//W3C//DTD SVG 1.1//EN" "http://www.w3.org/Graphics/SVG/1.1/DTD/svg11.dtd">
<svg version="1.1" id="图层_1" xmlns="http://www.w3.org/2000/svg" xmlns:xlink="http://www.w3.org/1999/xlink" x="0px" y="0px"
	 width="74px" height="57px" viewBox="0 0 74 57" enable-background="new 0 0 74 57" xml:space="preserve">
<path fill="none" stroke="#fff" stroke-width="3" stroke-linecap="round" stroke-linejoin="round" stroke-miterlimit="10" d="
	M31.009,49.5c-0.528,0-0.942-0.418-0.942-0.953c0-5.393-2.897-7.588-5.7-9.709c-3.479-2.643-7.077-5.379-7.077-12.945V8.454
	c0-0.525,0.433-0.953,0.964-0.953c0.224,0,0.453,0.09,0.647,0.254l10.758,8.082l0.283-0.072c0.899-0.232,1.913-0.434,3.099-0.619
	c1.305-0.186,2.635-0.279,3.947-0.279c1.331,0,2.665,0.094,3.965,0.281c1.186,0.184,2.195,0.387,3.078,0.617l0.285,0.074
	l10.865-8.15c0.158-0.118,0.35-0.182,0.553-0.182c0.303,0,0.582,0.141,0.762,0.387c0.158,0.204,0.191,0.415,0.191,0.561v0.608h0.023
	v16.831c0,7.541-3.592,10.279-7.064,12.928c-2.824,2.145-5.715,4.344-5.715,9.727c0,0.535-0.414,0.953-0.943,0.953H31.009z"/>
<path fill="none" stroke="#fff" stroke-width="3" stroke-linecap="round" stroke-linejoin="round" stroke-miterlimit="10" d="
	M32.151,35.703c0.615,0.615,1.445,0.953,2.335,0.953c0.495,0,0.947-0.094,1.344-0.281l0.832-0.377l-0.664-0.607
	c-0.042-0.041-0.071-0.078-0.105-0.119l-0.649-0.891c-0.118-0.178-0.2-0.404-0.238-0.67v-0.039
	c-0.015-0.236,0.047-0.498,0.168-0.717c0.123-0.236,0.295-0.414,0.522-0.543c0.242-0.129,0.517-0.209,0.74-0.209h1.174
	c0.212,0,0.426,0.053,0.67,0.166l0.055,0.037l0.029,0.016c0.221,0.117,0.379,0.279,0.516,0.529c0.119,0.201,0.174,0.451,0.16,0.688
	l-0.002,0.072c-0.016,0.238-0.096,0.471-0.24,0.674l-0.561,0.797c-0.039,0.047-0.072,0.09-0.105,0.131
	c-0.021,0.027-0.041,0.055-0.064,0.078l-0.712,0.635l0.898,0.357c0.412,0.18,0.871,0.273,1.326,0.273
	c0.863,0,1.684-0.336,2.309-0.949"/>
<path fill="none" stroke="#fff" stroke-width="3" stroke-linecap="round" stroke-linejoin="round" stroke-miterlimit="10" d="
	M44.439,31.877c-0.26,0-0.521-0.02-0.777-0.055c-1.229-0.158-2.404-0.736-3.314-1.625c-0.037-0.035-0.082-0.09-0.131-0.221
	c-0.314-1.156-0.232-2.48,0.248-3.68c0.471-1.146,1.34-2.135,2.443-2.779c0.867-0.506,1.859-0.771,2.873-0.771
	c1.525,0,3.006,0.609,4.062,1.672c0.09,0.082,0.107,0.127,0.117,0.166c0.348,1.221,0.264,2.539-0.227,3.734
	C48.857,30.447,46.729,31.877,44.439,31.877z"/>
<path fill="none" stroke="#fff" stroke-width="3" stroke-linecap="round" stroke-linejoin="round" stroke-miterlimit="10" d="
	M29.549,31.877c-2.306,0-4.438-1.43-5.308-3.557c-0.475-1.182-0.557-2.504-0.229-3.721c0.014-0.047,0.057-0.111,0.139-0.201
	c0.886-0.885,2.055-1.461,3.272-1.6c0.276-0.039,0.542-0.057,0.804-0.057c2.324,0,4.403,1.398,5.297,3.561
	c0.486,1.211,0.566,2.533,0.223,3.717c-0.019,0.057-0.058,0.121-0.103,0.162c-0.896,0.904-2.063,1.48-3.312,1.641
	C30.071,31.857,29.808,31.877,29.549,31.877z"/>
<path fill="none" stroke="#fff" stroke-width="3" stroke-linecap="round" stroke-linejoin="round" stroke-miterlimit="10" d="
	M26.75,24.471v-0.533l-0.505-0.863l-2.021,1.031l-0.087,1.377l0.612,0.566c0,0,1.127,1.693,2.001,1.256c0,0,0.9-0.184,1.099-1.283
	c0,0,0.007-1.119-1.06-1.395L26.75,24.471z"/>
<path fill="none" stroke="#fff" stroke-width="3" stroke-linecap="round" stroke-linejoin="round" stroke-miterlimit="10" d="
	M41.361,26.592c0.021,0.062,1.332,1.502,2.283,0.297c0,0,1.268-1.227-0.592-2.305l-0.338-0.947l-1.906,1.967L41.361,26.592z"/>
</svg>
