<?xml version="1.0" encoding="utf-8"?>
<!-- Generator: Adobe Illustrator 16.0.0, SVG Export Plug-In . SVG Version: 6.00 Build 0)  -->
<!DOCTYPE svg PUBLIC "-//W3C//DTD SVG 1.1//EN" "http://www.w3.org/Graphics/SVG/1.1/DTD/svg11.dtd">
<svg version="1.1" id="图层_1" xmlns="http://www.w3.org/2000/svg" xmlns:xlink="http://www.w3.org/1999/xlink" x="0px" y="0px"
	 width="74px" height="57px" viewBox="0 0 74 57" enable-background="new 0 0 74 57" xml:space="preserve">
<path fill="none" stroke="#B5B4B5" stroke-width="3" stroke-linecap="round" stroke-linejoin="round" stroke-miterlimit="10" d="
	M43.402,35.449h3.979v-0.014c5.463-0.123,9.854-4.59,9.854-10.082c0-5.432-4.293-9.859-9.672-10.078
	C45.398,11.242,41.141,8.5,36.243,8.5c-5.283,0-9.82,3.191-11.79,7.752c-4.392,0.928-7.688,4.828-7.688,9.496
	c0,5.361,4.346,9.709,9.708,9.709c0.123,0,0.246-0.004,0.368-0.008H38.07H43.402z"/>
<path fill="none" stroke="#B5B4B5" stroke-linecap="round" stroke-linejoin="round" stroke-miterlimit="10" d="M38.07,35.449
	l-0.457,0.264c-0.622,0.365-0.835,1.164-0.473,1.791c0.362,0.625,1.16,0.842,1.787,0.484h0.001l0.531-0.307v0.535
	c0.005,0.721,0.591,1.305,1.313,1.305c0.724,0,1.31-0.584,1.314-1.305v-0.492l0.45,0.26c0.627,0.357,1.426,0.143,1.786-0.484
	c0.363-0.627,0.15-1.426-0.473-1.791l-0.449-0.26"/>
<path fill="none" stroke="#B5B4B5" stroke-linecap="round" stroke-linejoin="round" stroke-miterlimit="10" d="M31.822,38.119
	c-0.291-0.504-0.935-0.678-1.44-0.391l-0.363,0.209v-0.484c-0.004-0.58-0.477-1.051-1.059-1.051c-0.583,0-1.055,0.471-1.059,1.051
	v0.52l-0.429-0.248c-0.505-0.287-1.149-0.113-1.441,0.393c-0.291,0.504-0.12,1.146,0.382,1.441l0.398,0.23l-0.397,0.229
	c-0.502,0.295-0.673,0.939-0.382,1.443c0.292,0.504,0.935,0.678,1.441,0.393l0.428-0.248v0.43c0.004,0.582,0.476,1.053,1.059,1.053
	c0.582,0,1.055-0.471,1.059-1.053v-0.395l0.362,0.209c0.505,0.287,1.149,0.113,1.44-0.391c0.292-0.506,0.12-1.15-0.381-1.443
	l-0.393-0.227l0.394-0.227C31.942,39.266,32.114,38.623,31.822,38.119z"/>
<path fill="none" stroke="#B5B4B5" stroke-linecap="round" stroke-linejoin="round" stroke-miterlimit="10" d="M38.641,44.367
	c-0.242-0.42-0.777-0.564-1.198-0.326l-0.302,0.174v-0.4c-0.003-0.484-0.396-0.875-0.881-0.875c-0.484,0-0.877,0.391-0.88,0.875
	v0.43l-0.357-0.205l0,0c-0.421-0.238-0.956-0.094-1.198,0.326c-0.242,0.418-0.1,0.955,0.317,1.199l0.332,0.191l-0.331,0.191
	c-0.418,0.244-0.56,0.781-0.317,1.199c0.242,0.42,0.777,0.564,1.197,0.324h0.001l0.356-0.203v0.357
	c0.003,0.484,0.396,0.875,0.88,0.875c0.485,0,0.878-0.391,0.881-0.875v-0.33l0.301,0.176v-0.002c0.421,0.24,0.956,0.096,1.199-0.324
	c0.242-0.42,0.1-0.955-0.318-1.199l-0.327-0.189l0.329-0.189C38.74,45.322,38.883,44.787,38.641,44.367z"/>
<path fill="none" stroke="#B5B4B5" stroke-linecap="round" stroke-linejoin="round" stroke-miterlimit="10" d="M47.547,42.053
	c-0.242-0.418-0.777-0.564-1.198-0.324l-0.302,0.174V41.5c-0.003-0.482-0.396-0.873-0.881-0.873s-0.877,0.391-0.881,0.873l0,0v0.432
	l-0.356-0.207v0.002c-0.421-0.24-0.956-0.096-1.198,0.324s-0.1,0.955,0.317,1.201l0.331,0.189l-0.33,0.191
	c-0.418,0.246-0.561,0.781-0.316,1.201c0.241,0.42,0.776,0.562,1.196,0.324l0.356-0.205v0.357l0,0
	c0.004,0.484,0.396,0.875,0.881,0.875s0.878-0.391,0.881-0.875v-0.328l0.301,0.174l0,0c0.422,0.238,0.956,0.094,1.198-0.324
	c0.242-0.42,0.101-0.955-0.317-1.201l-0.326-0.189l0.328-0.188C47.646,43.01,47.789,42.473,47.547,42.053z"/>
</svg>
