<?xml version="1.0" encoding="utf-8"?>
<!-- Generator: Adobe Illustrator 16.0.0, SVG Export Plug-In . SVG Version: 6.00 Build 0)  -->
<!DOCTYPE svg PUBLIC "-//W3C//DTD SVG 1.1//EN" "http://www.w3.org/Graphics/SVG/1.1/DTD/svg11.dtd">
<svg version="1.1" id="图层_1" xmlns="http://www.w3.org/2000/svg" xmlns:xlink="http://www.w3.org/1999/xlink" x="0px" y="0px"
	 width="74px" height="57px" viewBox="0 0 74 57" enable-background="new 0 0 74 57" xml:space="preserve">
<path fill="none" stroke="#050101" stroke-miterlimit="10" d="M45.455,18.872c0.35-1.02,0.539-2.117,0.539-3.256
	c0-5.547-4.496-10.044-10.044-10.044c-5.547,0-10.044,4.497-10.044,10.044 M25.906,15.616c0,2.08,0.633,4.012,1.716,5.615"/>
<path fill="none" stroke="#212222" stroke-miterlimit="10" d="M44.645,44.295c-2.406,2.121-5.465,3.275-8.693,3.275
	c-3.517,0-6.822-1.365-9.309-3.854c-2.489-2.488-3.855-5.793-3.855-9.309c0-3.484,1.341-6.761,3.785-9.24"/>
<path fill="none" stroke="#212222" stroke-miterlimit="10" d="M42.691,25.985H28.373c-1.323,0-2.396-1.076-2.396-2.395
	c0-1.078,0.715-1.988,1.693-2.289c0.222-0.07,0.459-0.107,0.703-0.107h7.578h6.346"/>
<path fill="none" stroke="#050101" stroke-miterlimit="10" d="M49.113,26.731v17.138c-0.004,0.244-0.201,0.441-0.439,0.441H44.76
	c-0.246,0-0.441-0.197-0.441-0.441V27.317"/>
<path fill="none" stroke="#212222" stroke-miterlimit="10" d="M46.262,27.76c-1.457,0-2.75-0.697-3.568-1.775
	c-0.572-0.752-0.912-1.688-0.912-2.705c0-0.752,0.186-1.461,0.516-2.084c0.75-1.424,2.246-2.396,3.965-2.396
	c2.473,0,4.48,2.01,4.48,4.48C50.742,25.752,48.727,27.76,46.262,27.76z"/>
<path fill-rule="evenodd" clip-rule="evenodd" fill="#E34240" d="M45.994,43.891v-3.479V43.891z"/>
<path fill-rule="evenodd" clip-rule="evenodd" fill="#E34240" d="M47.443,43.891v-3.479V43.891z"/>
<path fill="none" stroke="#212222" stroke-linecap="round" stroke-miterlimit="10" d="M33.479,16.28c0,0,2.376,2.949,4.927-0.012"/>
<line fill="none" stroke="#050101" stroke-linecap="round" stroke-miterlimit="10" x1="45.994" y1="40.086" x2="45.994" y2="44.309"/>
<line fill="none" stroke="#050101" stroke-linecap="round" stroke-miterlimit="10" x1="47.443" y1="44.309" x2="47.443" y2="40.086"/>
<path fill="none" stroke="#fff" stroke-width="3" stroke-linecap="round" stroke-linejoin="round" stroke-miterlimit="10" d="
	M45.455,18.872c0.35-1.02,0.539-2.117,0.539-3.256c0-5.547-4.496-10.044-10.044-10.044c-5.547,0-10.044,4.497-10.044,10.044
	 M25.906,15.616c0,2.08,0.633,4.012,1.716,5.615"/>
<path fill="none" stroke="#fff" stroke-width="3" stroke-linecap="round" stroke-linejoin="round" stroke-miterlimit="10" d="
	M44.645,44.295c-2.406,2.121-5.465,3.275-8.693,3.275c-3.517,0-6.822-1.365-9.309-3.854c-2.489-2.488-3.855-5.793-3.855-9.309
	c0-3.484,1.341-6.761,3.785-9.24"/>
<path fill="none" stroke="#fff" stroke-width="3" stroke-linecap="round" stroke-linejoin="round" stroke-miterlimit="10" d="
	M42.691,25.985H28.373c-1.323,0-2.396-1.076-2.396-2.395c0-1.078,0.715-1.988,1.693-2.289c0.222-0.07,0.459-0.107,0.703-0.107h7.578
	h6.346"/>
<path fill="none" stroke="#fff" stroke-width="3" stroke-linecap="round" stroke-linejoin="round" stroke-miterlimit="10" d="
	M49.113,26.731v17.138c-0.004,0.244-0.201,0.441-0.439,0.441H44.76c-0.246,0-0.441-0.197-0.441-0.441V27.317"/>
<path fill="none" stroke="#fff" stroke-width="3" stroke-linecap="round" stroke-linejoin="round" stroke-miterlimit="10" d="
	M46.262,27.76c-1.457,0-2.75-0.697-3.568-1.775c-0.572-0.752-0.912-1.688-0.912-2.705c0-0.752,0.186-1.461,0.516-2.084
	c0.75-1.424,2.246-2.396,3.965-2.396c2.473,0,4.48,2.01,4.48,4.48C50.742,25.752,48.727,27.76,46.262,27.76z"/>
<path fill="none" stroke="#fff" stroke-width="3" stroke-linecap="round" stroke-linejoin="round" stroke-miterlimit="10" d="
	M45.994,43.891v-3.479V43.891z"/>
<path fill="none" stroke="#fff" stroke-width="3" stroke-linecap="round" stroke-linejoin="round" stroke-miterlimit="10" d="
	M47.443,43.891v-3.479V43.891z"/>
<path fill="none" stroke="#fff" stroke-width="3" stroke-linecap="round" stroke-linejoin="round" stroke-miterlimit="10" d="
	M33.479,16.28c0,0,2.376,2.949,4.927-0.012"/>
<line fill="none" stroke="#fff" stroke-width="3" stroke-linecap="round" stroke-linejoin="round" stroke-miterlimit="10" x1="45.994" y1="40.086" x2="45.994" y2="44.309"/>
<line fill="none" stroke="#fff" stroke-width="3" stroke-linecap="round" stroke-linejoin="round" stroke-miterlimit="10" x1="47.443" y1="44.309" x2="47.443" y2="40.086"/>
</svg>
