<?xml version="1.0" encoding="utf-8"?>
<!-- Generator: Adobe Illustrator 16.0.0, SVG Export Plug-In . SVG Version: 6.00 Build 0)  -->
<!DOCTYPE svg PUBLIC "-//W3C//DTD SVG 1.1//EN" "http://www.w3.org/Graphics/SVG/1.1/DTD/svg11.dtd">
<svg version="1.1" id="图层_1" xmlns="http://www.w3.org/2000/svg" xmlns:xlink="http://www.w3.org/1999/xlink" x="0px" y="0px"
	 width="74px" height="57px" viewBox="0 0 74 57" enable-background="new 0 0 74 57" xml:space="preserve">
<path fill="none" stroke="#fff" stroke-width="3" stroke-linecap="round" stroke-linejoin="round" stroke-miterlimit="10" d="
	M19.699,33.818c0-2.317,1.884-4.202,4.201-4.202c2.317,0,4.201,1.885,4.201,4.202c0,2.316-1.884,4.201-4.201,4.201
	C21.583,38.02,19.699,36.135,19.699,33.818z"/>
<path fill="none" stroke="#fff" stroke-width="3" stroke-linecap="round" stroke-linejoin="round" stroke-miterlimit="10" d="
	M31.492,37.881c0-3.043,2.264-5.954,6.375-8.196c4.066-2.217,9.417-3.494,15.162-3.631v12.142H31.443
	C31.475,38.094,31.492,37.988,31.492,37.881z"/>
<line fill="none" stroke="#fff" stroke-width="3" stroke-linecap="round" stroke-linejoin="round" stroke-miterlimit="10" x1="16.356" y1="26.052" x2="16.356" y2="50.639"/>
<line fill="none" stroke="#fff" stroke-width="3" stroke-linecap="round" stroke-linejoin="round" stroke-miterlimit="10" x1="16.356" y1="40.346" x2="56.586" y2="40.346"/>
<line fill="none" stroke="#fff" stroke-width="3" stroke-linecap="round" stroke-linejoin="round" stroke-miterlimit="10" x1="56.586" y1="35.99" x2="56.586" y2="50.639"/>
<line fill="none" stroke="#fff" stroke-width="3" stroke-linecap="round" stroke-linejoin="round" stroke-miterlimit="10" x1="16.356" y1="47.863" x2="56.586" y2="47.863"/>
<path fill="none" stroke="#fff" stroke-width="2" stroke-linecap="round" stroke-linejoin="round" stroke-miterlimit="10" d="
	M27.887,19.319h5.609c0.331,0,0.469,0.424,0.201,0.619l-5.584,4.057c-0.268,0.195-0.131,0.619,0.201,0.619h5.424"/>
<path fill="none" stroke="#fff" stroke-width="2" stroke-linecap="round" stroke-linejoin="round" stroke-miterlimit="10" d="
	M37.56,12.981h4.407c0.26,0,0.369,0.333,0.158,0.487l-4.388,3.189c-0.211,0.152-0.103,0.486,0.158,0.486h4.263"/>
<path fill="none" stroke="#fff" stroke-width="2" stroke-linecap="round" stroke-linejoin="round" stroke-miterlimit="10" d="
	M47.381,10.637h2.484c0.145,0,0.207,0.188,0.088,0.274l-2.471,1.796c-0.119,0.086-0.059,0.274,0.088,0.274h2.4"/>
</svg>
