<?xml version="1.0" encoding="utf-8"?>
<!-- Generator: Adobe Illustrator 16.0.0, SVG Export Plug-In . SVG Version: 6.00 Build 0)  -->
<!DOCTYPE svg PUBLIC "-//W3C//DTD SVG 1.1//EN" "http://www.w3.org/Graphics/SVG/1.1/DTD/svg11.dtd">
<svg version="1.1" id="图层_1" xmlns="http://www.w3.org/2000/svg" xmlns:xlink="http://www.w3.org/1999/xlink" x="0px" y="0px"
	 width="74px" height="57px" viewBox="0 0 74 57" enable-background="new 0 0 74 57" xml:space="preserve">
<path fill="none" stroke="#040000" stroke-miterlimit="10" d="M55.896,22.914c-0.067,0-0.131,0.018-0.197,0.02
	c-1.029-3.479-2.994-6.611-5.781-9.069c-8.068-7.123-20.429-6.353-27.553,1.717c-1.938,2.195-3.271,4.715-4.052,7.354
	c-0.071-0.004-0.138-0.021-0.21-0.021c-2.693,0-4.885,2.191-4.885,4.885c0,1.305,0.508,2.531,1.431,3.455
	c0.889,0.889,2.062,1.381,3.312,1.418c0.854,3.918,2.893,7.611,6.123,10.463c8.068,7.123,20.429,6.352,27.553-1.717
	c2.235-2.533,3.732-5.537,4.43-8.75c1.24-0.043,2.402-0.531,3.284-1.414c0.923-0.924,1.431-2.15,1.431-3.455
	C60.781,25.105,58.59,22.914,55.896,22.914z"/>
<path fill="none" stroke="#040000" stroke-miterlimit="10" d="M30.47,25.047c1.394,0.199,2.681-0.768,2.877-2.156
	s-0.773-2.68-2.164-2.877c-1.389-0.199-2.679,0.766-2.874,2.156C28.11,23.561,29.08,24.848,30.47,25.047z"/>
<path fill="none" stroke="#040000" stroke-miterlimit="10" d="M41.373,25.014c1.391,0.199,2.677-0.764,2.875-2.154
	c0.197-1.393-0.771-2.678-2.164-2.875c-1.39-0.203-2.677,0.764-2.876,2.154C39.012,23.529,39.98,24.818,41.373,25.014z"/>
<path fill="none" stroke="#040000" stroke-linecap="round" stroke-miterlimit="10" d="M25.708,30.168
	c1.815,5.285,6.224,8.65,11.254,8.605c0.03-0.002,0.064-0.002,0.098-0.004c5.021-0.092,9.135-3.473,10.739-8.822"/>
<path fill="none" stroke="#fff" stroke-width="3" stroke-linecap="round" stroke-linejoin="round" stroke-miterlimit="10" d="
	M55.896,22.914c-0.067,0-0.131,0.018-0.197,0.02c-1.029-3.479-2.994-6.611-5.781-9.069c-8.068-7.123-20.429-6.353-27.553,1.717
	c-1.938,2.195-3.271,4.715-4.052,7.354c-0.071-0.004-0.138-0.021-0.21-0.021c-2.693,0-4.885,2.191-4.885,4.885
	c0,1.305,0.508,2.531,1.431,3.455c0.889,0.889,2.062,1.381,3.312,1.418c0.854,3.918,2.893,7.611,6.123,10.463
	c8.068,7.123,20.429,6.352,27.553-1.717c2.235-2.533,3.732-5.537,4.43-8.75c1.24-0.043,2.402-0.531,3.284-1.414
	c0.923-0.924,1.431-2.15,1.431-3.455C60.781,25.105,58.59,22.914,55.896,22.914z"/>
<path fill="none" stroke="#fff" stroke-width="3" stroke-linecap="round" stroke-linejoin="round" stroke-miterlimit="10" d="
	M30.47,25.047c1.394,0.199,2.681-0.768,2.877-2.156s-0.773-2.68-2.164-2.877c-1.389-0.199-2.679,0.766-2.874,2.156
	C28.11,23.561,29.08,24.848,30.47,25.047z"/>
<path fill="none" stroke="#fff" stroke-width="3" stroke-linecap="round" stroke-linejoin="round" stroke-miterlimit="10" d="
	M41.373,25.014c1.391,0.199,2.677-0.764,2.875-2.154c0.197-1.393-0.771-2.678-2.164-2.875c-1.39-0.203-2.677,0.764-2.876,2.154
	C39.012,23.529,39.98,24.818,41.373,25.014z"/>
<path fill="none" stroke="#fff" stroke-width="3" stroke-linecap="round" stroke-linejoin="round" stroke-miterlimit="10" d="
	M25.708,30.168c1.815,5.285,6.224,8.65,11.254,8.605c0.03-0.002,0.064-0.002,0.098-0.004c5.021-0.092,9.135-3.473,10.739-8.822"/>
</svg>
