<?xml version="1.0" encoding="utf-8"?>
<!-- Generator: Adobe Illustrator 16.0.0, SVG Export Plug-In . SVG Version: 6.00 Build 0)  -->
<!DOCTYPE svg PUBLIC "-//W3C//DTD SVG 1.1//EN" "http://www.w3.org/Graphics/SVG/1.1/DTD/svg11.dtd">
<svg version="1.1" id="图层_1" xmlns="http://www.w3.org/2000/svg" xmlns:xlink="http://www.w3.org/1999/xlink" x="0px" y="0px"
	 width="74px" height="57px" viewBox="0 0 74 57" enable-background="new 0 0 74 57" xml:space="preserve">
<path fill="none" stroke="#2C2C2C" stroke-linecap="round" stroke-linejoin="round" stroke-miterlimit="10" d="M32.412,38.684v2
	c0,0.662,0.537,1.199,1.199,1.199h5.599c0.662,0,1.199-0.535,1.199-1.199v-2"/>
<path fill="none" stroke="#2C2C2C" stroke-linecap="round" stroke-linejoin="round" stroke-miterlimit="10" d="M32.412,33.889V31.09
	c0-0.662,0.537-1.201,1.199-1.201h5.599c0.662,0,1.199,0.539,1.199,1.201v2.799"/>
<path fill="none" stroke="#2C2C2C" stroke-linecap="round" stroke-linejoin="round" stroke-miterlimit="10" d="M44.408,13.093v-1.6
	c0-3.713-2.531-4.009-5.962-4.009c-0.65,0-1.332,0.011-2.035,0.011s-1.386-0.011-2.035-0.011c-3.432,0-5.963,0.296-5.963,4.009v1.6"
	/>
<path fill="none" stroke="#2C2C2C" stroke-linecap="round" stroke-linejoin="round" stroke-miterlimit="10" d="M58.804,36.945
	c0.932-0.33,1.6-1.215,1.6-2.26V15.492c-0.001-1.325-1.075-2.4-2.399-2.4H44.407H28.412H14.818c-1.326,0-2.399,1.075-2.399,2.4
	v19.193c0,1.045,0.668,1.93,1.6,2.26"/>
<path fill="none" stroke="#2C2C2C" stroke-linecap="round" stroke-linejoin="round" stroke-miterlimit="10" d="M14.019,36.945v8.141
	c0,1.323,1.074,2.398,2.399,2.398h39.986c1.325,0,2.399-1.075,2.399-2.398v-8.141H14.019z"/>
<path fill="none" stroke="#B5B4B5" stroke-width="3" stroke-linecap="round" stroke-linejoin="round" stroke-miterlimit="10" d="
	M32.412,38.684v2c0,0.662,0.537,1.199,1.199,1.199h5.599c0.662,0,1.199-0.535,1.199-1.199v-2"/>
<path fill="none" stroke="#B5B4B5" stroke-width="3" stroke-linecap="round" stroke-linejoin="round" stroke-miterlimit="10" d="
	M32.412,33.889V31.09c0-0.662,0.537-1.201,1.199-1.201h5.599c0.662,0,1.199,0.539,1.199,1.201v2.799"/>
<path fill="none" stroke="#B5B4B5" stroke-width="3" stroke-linecap="round" stroke-linejoin="round" stroke-miterlimit="10" d="
	M44.408,13.093v-1.6c0-3.713-2.531-4.009-5.962-4.009c-0.65,0-1.332,0.011-2.035,0.011s-1.386-0.011-2.035-0.011
	c-3.432,0-5.963,0.296-5.963,4.009v1.6"/>
<path fill="none" stroke="#B5B4B5" stroke-width="3" stroke-linecap="round" stroke-linejoin="round" stroke-miterlimit="10" d="
	M58.804,36.945c0.932-0.33,1.6-1.215,1.6-2.26V15.492c-0.001-1.325-1.075-2.4-2.399-2.4H44.407H28.412H14.818
	c-1.326,0-2.399,1.075-2.399,2.4v19.193c0,1.045,0.668,1.93,1.6,2.26"/>
<path fill="none" stroke="#B5B4B5" stroke-width="3" stroke-linecap="round" stroke-linejoin="round" stroke-miterlimit="10" d="
	M14.019,36.945v8.141c0,1.323,1.074,2.398,2.399,2.398h39.986c1.325,0,2.399-1.075,2.399-2.398v-8.141H14.019z"/>
</svg>
