<?xml version="1.0" encoding="utf-8"?>
<!-- Generator: Adobe Illustrator 16.0.0, SVG Export Plug-In . SVG Version: 6.00 Build 0)  -->
<!DOCTYPE svg PUBLIC "-//W3C//DTD SVG 1.1//EN" "http://www.w3.org/Graphics/SVG/1.1/DTD/svg11.dtd">
<svg version="1.1" id="图层_1" xmlns="http://www.w3.org/2000/svg" xmlns:xlink="http://www.w3.org/1999/xlink" x="0px" y="0px"
	 width="74px" height="57px" viewBox="0 0 74 57" enable-background="new 0 0 74 57" xml:space="preserve">
<path fill="none" stroke="#B5B4B5" stroke-width="3" stroke-linecap="round" stroke-linejoin="round" stroke-miterlimit="10" d="
	M45.801,40.499H32.6H15.8v-20c0-6.627,5.373-12,12-12s7.606,6.582,11.549,10.143S47.709,21.3,48.6,21.3
	c5.303,0,9.601,4.299,9.601,9.6v9.6H45.801z"/>
<path fill="none" stroke="#B5B4B5" stroke-width="3" stroke-linecap="round" stroke-linejoin="round" stroke-miterlimit="10" d="
	M45.801,40.499H32.6H15.8v-20c0-6.627,5.373-12,12-12s7.605,6.582,11.549,10.143c3.943,3.561,8.359,2.658,9.25,2.658
	c5.303,0,9.601,4.299,9.601,9.6v9.6H45.801z"/>
<line fill="none" stroke="#B5B4B5" stroke-width="2" stroke-linecap="round" stroke-linejoin="round" stroke-miterlimit="10" x1="32.6" y1="40.507" x2="32.6" y2="45.302"/>
<line fill="none" stroke="#B5B4B5" stroke-width="2" stroke-linecap="round" stroke-linejoin="round" stroke-miterlimit="10" x1="39.801" y1="40.507" x2="39.801" y2="45.302"/>
<line fill="none" stroke="#B5B4B5" stroke-width="2" stroke-linecap="round" stroke-linejoin="round" stroke-miterlimit="10" x1="21.4" y1="40.507" x2="21.4" y2="45.302"/>
<line fill="none" stroke="#B5B4B5" stroke-width="2" stroke-linecap="round" stroke-linejoin="round" stroke-miterlimit="10" x1="35" y1="40.507" x2="35" y2="45.302"/>
<line fill="none" stroke="#B5B4B5" stroke-width="2" stroke-linecap="round" stroke-linejoin="round" stroke-miterlimit="10" x1="42.2" y1="40.507" x2="42.2" y2="45.302"/>
<line fill="none" stroke="#B5B4B5" stroke-width="2" stroke-linecap="round" stroke-linejoin="round" stroke-miterlimit="10" x1="47.801" y1="40.507" x2="47.801" y2="45.302"/>
<line fill="none" stroke="#B5B4B5" stroke-width="2" stroke-linecap="round" stroke-linejoin="round" stroke-miterlimit="10" x1="50.2" y1="40.507" x2="50.2" y2="45.302"/>
<line fill="none" stroke="#B5B4B5" stroke-width="2" stroke-linecap="round" stroke-linejoin="round" stroke-miterlimit="10" x1="23.8" y1="40.507" x2="23.8" y2="45.302"/>
<line fill="none" stroke="#B5B4B5" stroke-width="2" stroke-linecap="round" stroke-linejoin="round" stroke-miterlimit="10" x1="52.6" y1="40.507" x2="52.6" y2="45.302"/>
<line fill="none" stroke="#B5B4B5" stroke-width="2" stroke-linecap="round" stroke-linejoin="round" stroke-miterlimit="10" x1="26.2" y1="40.507" x2="26.2" y2="45.302"/>
<path fill="none" stroke="#B5B4B5" stroke-width="3" stroke-linecap="round" stroke-linejoin="round" stroke-miterlimit="10" d="
	M21.19,15.61c-1.063,1.256-1.704,2.879-1.704,4.652v0.801v6.398"/>
<rect x="17.333" y="40.507" fill="none" stroke="#B5B4B5" stroke-width="3" stroke-linecap="round" stroke-linejoin="round" stroke-miterlimit="10" width="39.2" height="7.994"/>
</svg>
