<?xml version="1.0" encoding="utf-8"?>
<!-- Generator: Adobe Illustrator 16.0.0, SVG Export Plug-In . SVG Version: 6.00 Build 0)  -->
<!DOCTYPE svg PUBLIC "-//W3C//DTD SVG 1.1//EN" "http://www.w3.org/Graphics/SVG/1.1/DTD/svg11.dtd">
<svg version="1.1" id="图层_1" xmlns="http://www.w3.org/2000/svg" xmlns:xlink="http://www.w3.org/1999/xlink" x="0px" y="0px"
	 width="74px" height="57px" viewBox="0 0 74 57" enable-background="new 0 0 74 57" xml:space="preserve">
<path fill="none" stroke="#2C2C2C" stroke-linecap="round" stroke-linejoin="round" stroke-miterlimit="10" d="M45.725,21.012
	c1.996,2.182,3.211,5.086,3.211,8.274c0,6.772-5.491,12.267-12.265,12.267c-6.776,0-12.265-5.494-12.265-12.267
	c0-3.177,1.205-6.069,3.186-8.247"/>
<line fill="none" stroke="#2C2C2C" stroke-linecap="round" stroke-linejoin="round" stroke-miterlimit="10" x1="36.671" y1="15.45" x2="36.671" y2="26.568"/>
<circle fill="none" stroke="#2C2C2C" stroke-linecap="round" stroke-linejoin="round" stroke-miterlimit="10" cx="36.671" cy="28.5" r="20"/>
<path fill="none" stroke="#fff" stroke-width="3" stroke-linecap="round" stroke-linejoin="round" stroke-miterlimit="10" d="
	M45.725,21.012c1.996,2.182,3.211,5.086,3.211,8.274c0,6.772-5.491,12.267-12.265,12.267c-6.776,0-12.265-5.494-12.265-12.267
	c0-3.177,1.205-6.069,3.186-8.247"/>
<line fill="none" stroke="#fff" stroke-width="3" stroke-linecap="round" stroke-linejoin="round" stroke-miterlimit="10" x1="36.671" y1="15.45" x2="36.671" y2="26.568"/>
<circle fill="none" stroke="#fff" stroke-width="3" stroke-linecap="round" stroke-linejoin="round" stroke-miterlimit="10" cx="36.671" cy="28.5" r="20"/>
</svg>
