<?xml version="1.0" encoding="utf-8"?>
<!-- Generator: Adobe Illustrator 16.0.0, SVG Export Plug-In . SVG Version: 6.00 Build 0)  -->
<!DOCTYPE svg PUBLIC "-//W3C//DTD SVG 1.1//EN" "http://www.w3.org/Graphics/SVG/1.1/DTD/svg11.dtd">
<svg version="1.1" id="图层_1" xmlns="http://www.w3.org/2000/svg" xmlns:xlink="http://www.w3.org/1999/xlink" x="0px" y="0px"
	 width="74px" height="57px" viewBox="0 0 74 57" enable-background="new 0 0 74 57" xml:space="preserve">
<path fill="none" stroke="#B5B4B5" stroke-width="3" stroke-linecap="round" stroke-linejoin="round" stroke-miterlimit="10" d="
	M59.159,25.026H15.816c-0.028-0.001-0.057-0.001-0.086,0c-0.028-0.001-0.056-0.001-0.085,0c-0.434,0.083-0.744,0.465-0.736,0.906
	v3.344c-0.087,0.312,0,0.648,0.227,0.879v0.027c0.058,0.066,0.124,0.123,0.199,0.172c0.019,0.01,0.037,0.02,0.055,0.027
	c0.01,0.01,0.021,0.02,0.029,0.028c0.019,0.001,0.038,0.001,0.055,0c0.011,0.011,0.021,0.019,0.029,0.028
	c0.02,0.001,0.038,0.001,0.056,0c0.076,0.02,0.153,0.027,0.229,0.027h0.028c1.078,0,1.812,0.734,1.812,1.813v4.534
	c0,4.518,3.057,8.363,7.197,9.576c-0.193,0.797-0.856,1.304-1.757,1.304c-0.501-0.007-0.912,0.394-0.919,0.894
	c-0.008,0.5,0.393,0.912,0.894,0.92h0.025c1.712,0,3.132-1.183,3.514-2.776c0.333,0.032,0.677,0.056,1.02,0.056h19.946
	c0.342,0,0.687-0.023,1.021-0.056c0.382,1.594,1.802,2.776,3.514,2.776c0.5,0.006,0.912-0.395,0.919-0.895
	c0.007-0.501-0.393-0.912-0.894-0.919h-0.025c-0.901,0-1.563-0.507-1.758-1.304c4.141-1.213,7.197-5.059,7.197-9.576v-4.534
	c0-1.079,0.734-1.813,1.813-1.813"/>
<line fill="none" stroke="#B5B4B5" stroke-width="3" stroke-linecap="round" stroke-linejoin="round" stroke-miterlimit="10" x1="15.816" y1="30.466" x2="59.066" y2="30.466"/>
<path fill="none" stroke="#B5B4B5" stroke-width="3" stroke-linecap="round" stroke-linejoin="round" stroke-miterlimit="10" d="
	M46.613,14.509v-0.822c0-2.455,2.009-4.465,4.464-4.465c2.456,0,4.465,2.01,4.465,4.465v0.822c0,0.334-0.271,0.604-0.604,0.604
	h-7.721C46.884,15.113,46.613,14.843,46.613,14.509z"/>
<path fill="none" stroke="#B5B4B5" stroke-width="3" stroke-linecap="round" stroke-linejoin="round" stroke-miterlimit="10" d="
	M51.077,8.817c0-2.271,1.858-4.129,4.13-4.129c2.271,0,4.129,1.858,4.129,4.129v21.533"/>
<line fill="none" stroke="#B5B4B5" stroke-linecap="round" stroke-linejoin="round" stroke-miterlimit="10" x1="46.95" y1="22.017" x2="46.49" y2="23.372"/>
<line fill="none" stroke="#B5B4B5" stroke-linecap="round" stroke-linejoin="round" stroke-miterlimit="10" x1="47.728" y1="19.237" x2="47.277" y2="20.743"/>
<line fill="none" stroke="#B5B4B5" stroke-linecap="round" stroke-linejoin="round" stroke-miterlimit="10" x1="48.519" y1="16.597" x2="48.104" y2="17.798"/>
<line fill="none" stroke="#B5B4B5" stroke-linecap="round" stroke-linejoin="round" stroke-miterlimit="10" x1="54.057" y1="17.812" x2="53.637" y2="16.597"/>
<line fill="none" stroke="#B5B4B5" stroke-linecap="round" stroke-linejoin="round" stroke-miterlimit="10" x1="54.88" y1="20.749" x2="54.427" y2="19.237"/>
<line fill="none" stroke="#B5B4B5" stroke-linecap="round" stroke-linejoin="round" stroke-miterlimit="10" x1="55.665" y1="23.372" x2="55.207" y2="22.021"/>
<line fill="none" stroke="#B5B4B5" stroke-linecap="round" stroke-linejoin="round" stroke-miterlimit="10" x1="51.077" y1="22.091" x2="51.077" y2="23.231"/>
<line fill="none" stroke="#B5B4B5" stroke-linecap="round" stroke-linejoin="round" stroke-miterlimit="10" x1="51.077" y1="19.467" x2="51.077" y2="20.741"/>
<line fill="none" stroke="#B5B4B5" stroke-linecap="round" stroke-linejoin="round" stroke-miterlimit="10" x1="51.077" y1="16.597" x2="51.077" y2="17.796"/>
</svg>
