<?xml version="1.0" encoding="utf-8"?>
<!-- Generator: Adobe Illustrator 16.0.0, SVG Export Plug-In . SVG Version: 6.00 Build 0)  -->
<!DOCTYPE svg PUBLIC "-//W3C//DTD SVG 1.1//EN" "http://www.w3.org/Graphics/SVG/1.1/DTD/svg11.dtd">
<svg version="1.1" id="图层_1" xmlns="http://www.w3.org/2000/svg" xmlns:xlink="http://www.w3.org/1999/xlink" x="0px" y="0px"
	 width="74px" height="57px" viewBox="0 0 74 57" enable-background="new 0 0 74 57" xml:space="preserve">
<path fill="none" stroke="#B5B4B5" stroke-width="3" stroke-linecap="round" stroke-linejoin="round" stroke-miterlimit="10" d="
	M19.092,25.764v20.342c-0.117,2.004,1.664,2.394,2.692,2.394h14.061h2.394h14.06c1.969,0,2.692-1.327,2.692-2.394V25.764"/>
<path fill="none" stroke="#B5B4B5" stroke-width="3" stroke-linecap="round" stroke-linejoin="round" stroke-miterlimit="10" d="
	M47.811,16.19c2.232-0.491,3.068-0.843,3.357-2.708c0.338-2.13-2.28-5.357-5.446-4.947c-3.79,0.508-6.568,5.15-8.528,7.655
	c-1.944-2.457-4.481-6.74-8.112-7.573c-3.518-0.803-5.927,2.719-5.862,4.896c0.063,1.851,0.758,2.187,3.052,2.677"/>
<path fill="none" stroke="#B5B4B5" stroke-width="3" stroke-linecap="round" stroke-linejoin="round" stroke-miterlimit="10" d="
	M38.238,25.764h19.146v-6.812c0-1.164-0.612-2.646-2.394-2.763h-7.18H26.272h-7.18c-1.143,0-2.393,1.6-2.393,2.764v6.811h19.146
	H38.238z"/>
<line fill="none" stroke="#B5B4B5" stroke-width="3" stroke-linecap="round" stroke-linejoin="round" stroke-miterlimit="10" x1="37.039" y1="16.19" x2="37.039" y2="48.5"/>
</svg>
