<?xml version="1.0" encoding="utf-8"?>
<!-- Generator: Adobe Illustrator 16.0.0, SVG Export Plug-In . SVG Version: 6.00 Build 0)  -->
<!DOCTYPE svg PUBLIC "-//W3C//DTD SVG 1.1//EN" "http://www.w3.org/Graphics/SVG/1.1/DTD/svg11.dtd">
<svg version="1.1" id="图层_1" xmlns="http://www.w3.org/2000/svg" xmlns:xlink="http://www.w3.org/1999/xlink" x="0px" y="0px"
	 width="74px" height="57px" viewBox="0 0 74 57" enable-background="new 0 0 74 57" xml:space="preserve">
<circle fill="none" stroke="#040000" stroke-linecap="round" stroke-linejoin="round" stroke-miterlimit="10" cx="37" cy="30.092" r="7.973"/>
<path fill="none" stroke="#040000" stroke-linecap="round" stroke-linejoin="round" stroke-miterlimit="10" d="M59.273,42.818
	c0,1.758-1.426,3.182-3.182,3.182H17.909c-1.758,0-3.182-1.424-3.182-3.182V20.547c0-1.758,1.424-3.182,3.182-3.182h6.328
	c1.471,0,4.668-6.365,6.35-6.365h12.701c1.676,0,4.873,6.365,6.344,6.365h6.461c1.756,0,3.182,1.424,3.182,3.182V42.818z"/>
<line fill="none" stroke="#040000" stroke-linecap="round" stroke-linejoin="round" stroke-miterlimit="10" x1="51.105" y1="13.822" x2="56.621" y2="13.822"/>
<circle fill="none" stroke="#fff" stroke-width="3" stroke-linecap="round" stroke-linejoin="round" stroke-miterlimit="10" cx="37" cy="30.092" r="7.973"/>
<path fill="none" stroke="#fff" stroke-width="3" stroke-linecap="round" stroke-linejoin="round" stroke-miterlimit="10" d="
	M59.273,42.818c0,1.758-1.426,3.182-3.182,3.182H17.909c-1.758,0-3.182-1.424-3.182-3.182V20.547c0-1.758,1.424-3.182,3.182-3.182
	h6.328c1.471,0,4.668-6.365,6.35-6.365h12.701c1.676,0,4.873,6.365,6.344,6.365h6.461c1.756,0,3.182,1.424,3.182,3.182V42.818z"/>
<line fill="none" stroke="#fff" stroke-width="3" stroke-linecap="round" stroke-linejoin="round" stroke-miterlimit="10" x1="51.105" y1="13.822" x2="56.621" y2="13.822"/>
</svg>
