<?xml version="1.0" encoding="utf-8"?>
<!-- Generator: Adobe Illustrator 16.0.0, SVG Export Plug-In . SVG Version: 6.00 Build 0)  -->
<!DOCTYPE svg PUBLIC "-//W3C//DTD SVG 1.1//EN" "http://www.w3.org/Graphics/SVG/1.1/DTD/svg11.dtd">
<svg version="1.1" id="图层_1" xmlns="http://www.w3.org/2000/svg" xmlns:xlink="http://www.w3.org/1999/xlink" x="0px" y="0px"
	 width="74px" height="57px" viewBox="0 0 74 57" enable-background="new 0 0 74 57" xml:space="preserve">
<circle fill="none" stroke="#B5B4B5" stroke-width="3" stroke-linecap="round" stroke-linejoin="round" stroke-miterlimit="10" cx="27.391" cy="23.928" r="2.591"/>
<path fill="none" stroke="#B5B4B5" stroke-width="3" stroke-linecap="round" stroke-linejoin="round" stroke-miterlimit="10" d="
	M36.261,31.215v0.967c0,1.262-1.686,1.449-2.69,1.449c-1.412,0-2.498-0.636-2.704-1.582"/>
<path fill="none" stroke="#B5B4B5" stroke-width="3" stroke-linecap="round" stroke-linejoin="round" stroke-miterlimit="10" d="
	M41.658,32.051c-0.204,0.944-1.291,1.58-2.703,1.58c-1.005,0-2.689-0.188-2.689-1.449v-0.967"/>
<path fill="none" stroke="#B5B4B5" stroke-width="3" stroke-linecap="round" stroke-linejoin="round" stroke-miterlimit="10" d="
	M33.112,33.568v3.592c0,1.74,1.415,3.154,3.154,3.154c1.739,0,3.154-1.414,3.154-3.154v-3.569"/>
<path fill="none" stroke="#B5B4B5" stroke-width="3" stroke-linecap="round" stroke-linejoin="round" stroke-miterlimit="10" d="
	M36.261,47.484c-11.029,0-20-8.973-20-20s8.971-20,20-20c11.028,0,20,8.972,20,20S47.289,47.484,36.261,47.484z"/>
<path fill="none" stroke="#B5B4B5" stroke-width="3" stroke-linecap="round" stroke-linejoin="round" stroke-miterlimit="10" d="
	M65.058,28.171c0-6.97-10.028-16.949-17.031-16.949c-0.038,0-0.073,0.018-0.11,0.025c-3.284-2.365-7.309-3.763-11.655-3.763
	c-4.347,0-8.371,1.398-11.656,3.763c-0.037-0.007-0.072-0.025-0.11-0.025c-7.004,0-17.031,9.979-17.031,16.949
	c0,8.351,6.553,9.335,11.503,9.339c3.467,5.957,9.919,9.975,17.294,9.975s13.825-4.018,17.293-9.975
	C58.504,37.506,65.058,36.521,65.058,28.171z"/>
<circle fill="none" stroke="#B5B4B5" stroke-width="3" stroke-linecap="round" stroke-linejoin="round" stroke-miterlimit="10" cx="45.129" cy="23.928" r="2.592"/>
<circle fill="none" stroke="#B5B4B5" stroke-width="3" stroke-linecap="round" stroke-linejoin="round" stroke-miterlimit="10" cx="36.266" cy="28.994" r="2.22"/>
</svg>
