<?xml version="1.0" encoding="utf-8"?>
<!-- Generator: Adobe Illustrator 16.0.0, SVG Export Plug-In . SVG Version: 6.00 Build 0)  -->
<!DOCTYPE svg PUBLIC "-//W3C//DTD SVG 1.1//EN" "http://www.w3.org/Graphics/SVG/1.1/DTD/svg11.dtd">
<svg version="1.1" id="图层_1" xmlns="http://www.w3.org/2000/svg" xmlns:xlink="http://www.w3.org/1999/xlink" x="0px" y="0px"
	 width="74px" height="57px" viewBox="0 0 74 57" enable-background="new 0 0 74 57" xml:space="preserve">
<path fill="none" stroke="#040000" stroke-linecap="round" stroke-linejoin="round" stroke-miterlimit="10" d="M37.979,18.994
	c2.312,2.383,6.038,2.359,8.323-0.049c2.284-2.406,2.265-6.293-0.05-8.676c-1.089-1.123-2.528-1.74-4.028-1.77"/>
<path fill="none" stroke="#040000" stroke-linecap="round" stroke-linejoin="round" stroke-miterlimit="10" d="M28.94,31.859
	c1.374,0,2.488-1.164,2.488-2.598c0-0.725-0.285-1.383-0.744-1.852c-0.451-0.455-1.065-0.744-1.744-0.744
	c-1.375,0-2.488,1.164-2.488,2.596C26.452,30.695,27.565,31.859,28.94,31.859z"/>
<path fill="none" stroke="#040000" stroke-linecap="round" stroke-linejoin="round" stroke-miterlimit="10" d="M25.509,36.107
	c2.024,4.209,6.151,6.924,10.746,6.924c4.357,0,8.311-2.438,10.433-6.309"/>
<path fill="none" stroke="#040000" stroke-linecap="round" stroke-linejoin="round" stroke-miterlimit="10" d="M46.272,29.262
	c0-0.725-0.288-1.383-0.748-1.852c-0.447-0.455-1.062-0.744-1.74-0.744c-1.378,0-2.492,1.164-2.492,2.596
	c0,1.436,1.114,2.598,2.492,2.598C45.155,31.859,46.272,30.697,46.272,29.262z"/>
<path fill="none" stroke="#040000" stroke-linecap="round" stroke-linejoin="round" stroke-miterlimit="10" d="M38.495,11.518
	c-0.65-0.076-1.31-0.113-1.978-0.113c-9.313,0-16.994,7.477-17.734,17.035c-1.735,1.053-2.858,3.002-2.858,5.168
	c0,3.168,2.371,5.758,5.363,5.939c3.19,5.502,8.921,8.953,15.229,8.953c6.255,0,11.942-3.395,15.15-8.818
	c2.781-0.398,4.916-2.891,4.916-5.895c0.004-1.908-0.87-3.66-2.297-4.766c-0.175-3.623-1.352-7.062-3.371-9.953"/>
<path fill="none" stroke="#fff" stroke-width="3" stroke-linecap="round" stroke-linejoin="round" stroke-miterlimit="10" d="
	M37.979,18.994c2.312,2.383,6.038,2.359,8.323-0.049c2.284-2.406,2.265-6.293-0.05-8.676c-1.089-1.123-2.528-1.74-4.028-1.77"/>
<path fill="none" stroke="#fff" stroke-width="3" stroke-linecap="round" stroke-linejoin="round" stroke-miterlimit="10" d="
	M28.94,31.859c1.374,0,2.488-1.164,2.488-2.598c0-0.725-0.285-1.383-0.744-1.852c-0.451-0.455-1.065-0.744-1.744-0.744
	c-1.375,0-2.488,1.164-2.488,2.596C26.452,30.695,27.565,31.859,28.94,31.859z"/>
<path fill="none" stroke="#fff" stroke-width="3" stroke-linecap="round" stroke-linejoin="round" stroke-miterlimit="10" d="
	M25.509,36.107c2.024,4.209,6.151,6.924,10.746,6.924c4.357,0,8.311-2.438,10.433-6.309"/>
<path fill="none" stroke="#fff" stroke-width="3" stroke-linecap="round" stroke-linejoin="round" stroke-miterlimit="10" d="
	M46.272,29.262c0-0.725-0.288-1.383-0.748-1.852c-0.447-0.455-1.062-0.744-1.74-0.744c-1.378,0-2.492,1.164-2.492,2.596
	c0,1.436,1.114,2.598,2.492,2.598C45.155,31.859,46.272,30.697,46.272,29.262z"/>
<path fill="none" stroke="#fff" stroke-width="3" stroke-linecap="round" stroke-linejoin="round" stroke-miterlimit="10" d="
	M38.495,11.518c-0.65-0.076-1.31-0.113-1.978-0.113c-9.313,0-16.994,7.477-17.734,17.035c-1.735,1.053-2.858,3.002-2.858,5.168
	c0,3.168,2.371,5.758,5.363,5.939c3.19,5.502,8.921,8.953,15.229,8.953c6.255,0,11.942-3.395,15.15-8.818
	c2.781-0.398,4.916-2.891,4.916-5.895c0.004-1.908-0.87-3.66-2.297-4.766c-0.175-3.623-1.352-7.062-3.371-9.953"/>
</svg>
