<?xml version="1.0" encoding="utf-8"?>
<!-- Generator: Adobe Illustrator 16.0.0, SVG Export Plug-In . SVG Version: 6.00 Build 0)  -->
<!DOCTYPE svg PUBLIC "-//W3C//DTD SVG 1.1//EN" "http://www.w3.org/Graphics/SVG/1.1/DTD/svg11.dtd">
<svg version="1.1" id="图层_1" xmlns="http://www.w3.org/2000/svg" xmlns:xlink="http://www.w3.org/1999/xlink" x="0px" y="0px"
	 width="74px" height="57px" viewBox="0 0 74 57" enable-background="new 0 0 74 57" xml:space="preserve">
<path fill="none" stroke="#040000" stroke-linecap="round" stroke-linejoin="round" stroke-miterlimit="10" d="M37.007,48.5
	c-4.945,0-9.581-1.924-13.055-5.416l-0.168-0.17h-0.019c-3.383-3.479-5.242-8.049-5.242-12.898c0-4.887,1.894-9.492,5.334-12.98
	l0.095-0.084c3.478-3.488,8.113-5.409,13.055-5.409c4.917,0,9.545,1.907,13.038,5.372l0.062,0.09l0.037,0.039
	c3.449,3.469,5.346,8.076,5.346,12.973c0,4.828-1.857,9.4-5.242,12.898h-0.055l-0.182,0.229C46.52,46.598,41.902,48.5,37.007,48.5z"
	/>
<path fill="none" stroke="#040000" stroke-linecap="round" stroke-linejoin="round" stroke-miterlimit="10" d="M45.33,30.908h-8.323
	c-0.494,0-0.882-0.393-0.882-0.893V16.887"/>
<path fill="none" stroke="#040000" stroke-linecap="round" stroke-linejoin="round" stroke-miterlimit="10" d="M17.632,16.963
	c0.418-0.617,0.869-1.217,1.342-1.789c0.444-0.533,0.931-1.072,1.532-1.695c0.539-0.539,1.076-1.026,1.636-1.484
	c0.688-0.561,1.258-0.981,1.789-1.324c0.667-0.458,1.286-0.84,1.902-1.175l0.073-0.021l0.058-0.032
	c0.633-0.345,1.287-0.661,1.946-0.94"/>
<path fill="none" stroke="#040000" stroke-linecap="round" stroke-linejoin="round" stroke-miterlimit="10" d="M46.102,8.5
	c0.695,0.297,1.395,0.634,2.023,0.975c0.625,0.318,1.27,0.713,1.93,1.182c0.648,0.412,1.244,0.887,1.799,1.339
	c0.623,0.517,1.17,1.006,1.668,1.495c0.41,0.428,0.963,1.014,1.496,1.67c0.402,0.494,0.92,1.146,1.35,1.795"/>
<path fill="none" stroke="#fff" stroke-width="3" stroke-linecap="round" stroke-linejoin="round" stroke-miterlimit="10" d="
	M37.007,48.5c-4.945,0-9.581-1.924-13.055-5.416l-0.168-0.17h-0.019c-3.383-3.479-5.242-8.049-5.242-12.898
	c0-4.887,1.894-9.492,5.334-12.98l0.095-0.084c3.478-3.488,8.113-5.409,13.055-5.409c4.917,0,9.545,1.907,13.038,5.372l0.062,0.09
	l0.037,0.039c3.449,3.469,5.346,8.076,5.346,12.973c0,4.828-1.857,9.4-5.242,12.898h-0.055l-0.182,0.229
	C46.52,46.598,41.902,48.5,37.007,48.5z"/>
<path fill="none" stroke="#fff" stroke-width="3" stroke-linecap="round" stroke-linejoin="round" stroke-miterlimit="10" d="
	M45.33,30.908h-8.323c-0.494,0-0.882-0.393-0.882-0.893V16.887"/>
<path fill="none" stroke="#fff" stroke-width="3" stroke-linecap="round" stroke-linejoin="round" stroke-miterlimit="10" d="
	M17.632,16.963c0.418-0.617,0.869-1.217,1.342-1.789c0.444-0.533,0.931-1.072,1.532-1.695c0.539-0.539,1.076-1.026,1.636-1.484
	c0.688-0.561,1.258-0.981,1.789-1.324c0.667-0.458,1.286-0.84,1.902-1.175l0.073-0.021l0.058-0.032
	c0.633-0.345,1.287-0.661,1.946-0.94"/>
<path fill="none" stroke="#fff" stroke-width="3" stroke-linecap="round" stroke-linejoin="round" stroke-miterlimit="10" d="
	M46.102,8.5c0.695,0.297,1.395,0.634,2.023,0.975c0.625,0.318,1.27,0.713,1.93,1.182c0.648,0.412,1.244,0.887,1.799,1.339
	c0.623,0.517,1.17,1.006,1.668,1.495c0.41,0.428,0.963,1.014,1.496,1.67c0.402,0.494,0.92,1.146,1.35,1.795"/>
</svg>
