<?xml version="1.0" encoding="utf-8"?>
<!-- Generator: Adobe Illustrator 16.0.0, SVG Export Plug-In . SVG Version: 6.00 Build 0)  -->
<!DOCTYPE svg PUBLIC "-//W3C//DTD SVG 1.1//EN" "http://www.w3.org/Graphics/SVG/1.1/DTD/svg11.dtd">
<svg version="1.1" id="图层_1" xmlns="http://www.w3.org/2000/svg" xmlns:xlink="http://www.w3.org/1999/xlink" x="0px" y="0px"
	 width="74px" height="57px" viewBox="0 0 74 57" enable-background="new 0 0 74 57" xml:space="preserve">
<path fill="none" stroke="#040000" stroke-linecap="round" stroke-linejoin="round" stroke-miterlimit="10" d="M36.4,42.308
	c-3.231,0-6.271-1.26-8.556-3.545c-2.285-2.273-3.543-5.307-3.543-8.543c0-3.26,1.258-6.309,3.541-8.58
	c2.286-2.285,5.326-3.543,8.558-3.543c3.252,0,6.295,1.256,8.567,3.541c2.294,2.295,3.558,5.342,3.558,8.582
	c0,3.215-1.264,6.25-3.557,8.543C42.695,41.05,39.653,42.308,36.4,42.308z"/>
<line fill="none" stroke="#2C2C2C" stroke-linecap="round" stroke-linejoin="round" stroke-miterlimit="10" x1="36.413" y1="14.422" x2="36.413" y2="9.202"/>
<line fill="none" stroke="#2C2C2C" stroke-linecap="round" stroke-linejoin="round" stroke-miterlimit="10" x1="36.413" y1="51.2" x2="36.413" y2="45.979"/>
<line fill="none" stroke="#2C2C2C" stroke-linecap="round" stroke-linejoin="round" stroke-miterlimit="10" x1="25.256" y1="19.044" x2="21.564" y2="15.352"/>
<line fill="none" stroke="#2C2C2C" stroke-linecap="round" stroke-linejoin="round" stroke-miterlimit="10" x1="51.263" y1="45.05" x2="47.571" y2="41.358"/>
<line fill="none" stroke="#2C2C2C" stroke-linecap="round" stroke-linejoin="round" stroke-miterlimit="10" x1="20.635" y1="30.2" x2="15.413" y2="30.2"/>
<line fill="none" stroke="#2C2C2C" stroke-linecap="round" stroke-linejoin="round" stroke-miterlimit="10" x1="57.413" y1="30.2" x2="52.192" y2="30.2"/>
<line fill="none" stroke="#2C2C2C" stroke-linecap="round" stroke-linejoin="round" stroke-miterlimit="10" x1="25.256" y1="41.358" x2="21.564" y2="45.052"/>
<line fill="none" stroke="#2C2C2C" stroke-linecap="round" stroke-linejoin="round" stroke-miterlimit="10" x1="51.263" y1="15.352" x2="47.571" y2="19.044"/>
<path fill="none" stroke="#fff" stroke-width="3" stroke-linecap="round" stroke-linejoin="round" stroke-miterlimit="10" d="
	M36.4,42.308c-3.231,0-6.271-1.26-8.556-3.545c-2.285-2.273-3.543-5.307-3.543-8.543c0-3.26,1.258-6.309,3.541-8.58
	c2.286-2.285,5.326-3.543,8.558-3.543c3.252,0,6.295,1.256,8.567,3.541c2.294,2.295,3.558,5.342,3.558,8.582
	c0,3.215-1.264,6.25-3.557,8.543C42.695,41.05,39.653,42.308,36.4,42.308z"/>
<line fill="none" stroke="#fff" stroke-width="3" stroke-linecap="round" stroke-linejoin="round" stroke-miterlimit="10" x1="36.413" y1="14.422" x2="36.413" y2="9.202"/>
<line fill="none" stroke="#fff" stroke-width="3" stroke-linecap="round" stroke-linejoin="round" stroke-miterlimit="10" x1="36.413" y1="51.2" x2="36.413" y2="45.979"/>
<line fill="none" stroke="#fff" stroke-width="3" stroke-linecap="round" stroke-linejoin="round" stroke-miterlimit="10" x1="25.256" y1="19.044" x2="21.564" y2="15.352"/>
<line fill="none" stroke="#fff" stroke-width="3" stroke-linecap="round" stroke-linejoin="round" stroke-miterlimit="10" x1="51.263" y1="45.05" x2="47.571" y2="41.358"/>
<line fill="none" stroke="#fff" stroke-width="3" stroke-linecap="round" stroke-linejoin="round" stroke-miterlimit="10" x1="20.635" y1="30.2" x2="15.413" y2="30.2"/>
<line fill="none" stroke="#fff" stroke-width="3" stroke-linecap="round" stroke-linejoin="round" stroke-miterlimit="10" x1="57.413" y1="30.2" x2="52.192" y2="30.2"/>
<line fill="none" stroke="#fff" stroke-width="3" stroke-linecap="round" stroke-linejoin="round" stroke-miterlimit="10" x1="25.256" y1="41.358" x2="21.564" y2="45.052"/>
<line fill="none" stroke="#fff" stroke-width="3" stroke-linecap="round" stroke-linejoin="round" stroke-miterlimit="10" x1="51.263" y1="15.352" x2="47.571" y2="19.044"/>
</svg>
