<?xml version="1.0" encoding="utf-8"?>
<!-- Generator: Adobe Illustrator 16.0.0, SVG Export Plug-In . SVG Version: 6.00 Build 0)  -->
<!DOCTYPE svg PUBLIC "-//W3C//DTD SVG 1.1//EN" "http://www.w3.org/Graphics/SVG/1.1/DTD/svg11.dtd">
<svg version="1.1" id="图层_1" xmlns="http://www.w3.org/2000/svg" xmlns:xlink="http://www.w3.org/1999/xlink" x="0px" y="0px"
	 width="74px" height="57px" viewBox="0 0 74 57" enable-background="new 0 0 74 57" xml:space="preserve">
<path fill="none" stroke="#fff" stroke-width="3" stroke-linecap="round" stroke-linejoin="round" stroke-miterlimit="10" d="
	M37.943,48.5c-1.114,0-2.241-0.096-3.352-0.281c-2.572-0.434-4.997-1.344-7.208-2.703c-2.29-1.41-4.248-3.244-5.82-5.453
	c-1.573-2.209-2.666-4.658-3.249-7.283c-0.563-2.535-0.629-5.125-0.197-7.697c0.433-2.57,1.343-4.996,2.704-7.207
	c1.41-2.291,3.244-4.248,5.452-5.82c2.631-1.874,5.704-3.098,8.886-3.536c0.046-0.006,0.171-0.02,0.346-0.02
	c0.492,0,1.395,0.106,1.901,0.817c0.316,0.444,0.393,1.023,0.217,1.628c-0.117,0.403-0.311,0.699-0.32,0.711l-0.025,0.039
	l-0.032,0.038c-2.029,2.4-3.231,5.464-3.383,8.625c-0.157,3.258,0.763,6.389,2.66,9.053c1.896,2.664,4.553,4.557,7.685,5.475
	c1.318,0.387,2.689,0.582,4.073,0.582c1.792,0,3.537-0.322,5.185-0.959l0.061-0.021c0.186-0.057,0.593-0.164,1.04-0.164
	c0.593,0,1.012,0.182,1.278,0.555c0.31,0.436,0.394,1.027,0.25,1.756c-0.092,0.469-0.248,0.836-0.254,0.852l-0.03,0.066
	c-1.448,2.846-3.608,5.348-6.24,7.223c-2.208,1.572-4.659,2.664-7.283,3.248C40.858,48.34,39.396,48.5,37.943,48.5z"/>
</svg>
