<?xml version="1.0" encoding="utf-8"?>
<!-- Generator: Adobe Illustrator 16.0.0, SVG Export Plug-In . SVG Version: 6.00 Build 0)  -->
<!DOCTYPE svg PUBLIC "-//W3C//DTD SVG 1.1//EN" "http://www.w3.org/Graphics/SVG/1.1/DTD/svg11.dtd">
<svg version="1.1" id="图层_1" xmlns="http://www.w3.org/2000/svg" xmlns:xlink="http://www.w3.org/1999/xlink" x="0px" y="0px"
	 width="74px" height="57px" viewBox="0 0 74 57" enable-background="new 0 0 74 57" xml:space="preserve">
<path fill="none" stroke="#B5B4B5" stroke-width="3" stroke-linecap="round" stroke-linejoin="round" stroke-miterlimit="10" d="
	M27.781,48.5h-1.564c-0.545,0-0.986-0.44-0.986-0.985V10.537c0-0.543,0.441-0.986,0.986-0.986h1.564
	c0.544,0,0.985,0.443,0.985,0.986v36.978C28.767,48.06,28.325,48.5,27.781,48.5z"/>
<rect x="28.767" y="10.537" fill="none" stroke="#B5B4B5" stroke-width="3" stroke-linecap="round" stroke-linejoin="round" stroke-miterlimit="10" width="5.488" height="13.604"/>
<line fill="none" stroke="#B5B4B5" stroke-width="2" stroke-linecap="round" stroke-linejoin="round" stroke-miterlimit="10" x1="28.767" y1="14.052" x2="34.255" y2="14.052"/>
<line fill="none" stroke="#B5B4B5" stroke-width="2" stroke-linecap="round" stroke-linejoin="round" stroke-miterlimit="10" x1="28.767" y1="17.338" x2="34.255" y2="17.338"/>
<line fill="none" stroke="#B5B4B5" stroke-width="2" stroke-linecap="round" stroke-linejoin="round" stroke-miterlimit="10" x1="28.767" y1="20.614" x2="34.255" y2="20.614"/>
<path fill="none" stroke="#B5B4B5" stroke-width="3" stroke-linecap="round" stroke-linejoin="round" stroke-miterlimit="10" d="
	M41.896,13.311h8.162c0.532,0,0.975,0.408,1.017,0.938L53.686,47.4c0.047,0.594-0.422,1.1-1.018,1.1H39.307
	c-0.596,0-1.062-0.506-1.017-1.1l2.589-33.15C40.92,13.721,41.363,13.311,41.896,13.311z"/>
<path fill="none" stroke="#B5B4B5" stroke-width="3" stroke-linecap="round" stroke-linejoin="round" stroke-miterlimit="10" d="
	M44.139,8.5h3.688c0.241,0,0.441,0.186,0.459,0.424l1.182,3.789c0.021,0.269-0.19,0.498-0.46,0.498h-6.038
	c-0.269,0-0.48-0.229-0.459-0.498l1.17-3.787C43.698,8.686,43.898,8.5,44.139,8.5z"/>
<line fill="none" stroke="#B5B4B5" stroke-width="3" stroke-linecap="round" stroke-linejoin="round" stroke-miterlimit="10" x1="38.582" y1="43.658" x2="53.391" y2="43.658"/>
</svg>
