<?xml version="1.0" encoding="utf-8"?>
<!-- Generator: Adobe Illustrator 16.0.0, SVG Export Plug-In . SVG Version: 6.00 Build 0)  -->
<!DOCTYPE svg PUBLIC "-//W3C//DTD SVG 1.1//EN" "http://www.w3.org/Graphics/SVG/1.1/DTD/svg11.dtd">
<svg version="1.1" id="图层_1" xmlns="http://www.w3.org/2000/svg" xmlns:xlink="http://www.w3.org/1999/xlink" x="0px" y="0px"
	 width="74px" height="57px" viewBox="0 0 74 57" enable-background="new 0 0 74 57" xml:space="preserve">
<path fill="none" stroke="#B5B4B5" stroke-width="3" stroke-linecap="round" stroke-linejoin="round" stroke-miterlimit="10" d="
	M38.604,10.102l3.347,10.299c0.31,0.955,1.2,1.603,2.205,1.603h10.829c2.246,0,3.18,2.873,1.362,4.194l-8.761,6.365
	c-0.812,0.59-1.152,1.639-0.842,2.592l3.346,10.301c0.694,2.135-1.751,3.912-3.567,2.592l-8.762-6.365
	c-0.812-0.59-1.912-0.59-2.726,0l-8.761,6.365c-1.817,1.32-4.262-0.457-3.567-2.592l3.346-10.301
	c0.311-0.953-0.029-2.002-0.842-2.592l-8.762-6.365c-1.816-1.321-0.883-4.194,1.363-4.194h10.829c1.005,0,1.895-0.647,2.205-1.603
	l3.347-10.299C34.888,7.966,37.909,7.966,38.604,10.102z"/>
</svg>
