<?xml version="1.0" encoding="utf-8"?>
<!-- Generator: Adobe Illustrator 16.0.0, SVG Export Plug-In . SVG Version: 6.00 Build 0)  -->
<!DOCTYPE svg PUBLIC "-//W3C//DTD SVG 1.1//EN" "http://www.w3.org/Graphics/SVG/1.1/DTD/svg11.dtd">
<svg version="1.1" id="图层_1" xmlns="http://www.w3.org/2000/svg" xmlns:xlink="http://www.w3.org/1999/xlink" x="0px" y="0px"
	 width="74px" height="57px" viewBox="0 0 74 57" enable-background="new 0 0 74 57" xml:space="preserve">
<path fill="none" stroke="#2C2C2C" stroke-linecap="round" stroke-linejoin="round" stroke-miterlimit="10" d="M48.427,47.692
	H22.105c-1.281,0-2.32-1.169-2.32-2.612V22.335"/>
<polyline fill="none" stroke="#2C2C2C" stroke-linecap="round" stroke-linejoin="round" stroke-miterlimit="10" points="
	53.24,22.178 36.488,7.692 16.345,25.282 "/>
<line fill="none" stroke="#2C2C2C" stroke-linecap="round" stroke-linejoin="round" stroke-miterlimit="10" x1="48.27" y1="12.552" x2="48.27" y2="17.638"/>
<line fill="none" stroke="#2C2C2C" stroke-linecap="round" stroke-linejoin="round" stroke-miterlimit="10" x1="57.408" y1="35.456" x2="32.38" y2="35.456"/>
<line fill="none" stroke="#2C2C2C" stroke-linecap="round" stroke-linejoin="round" stroke-miterlimit="10" x1="57.487" y1="16.661" x2="57.487" y2="35.348"/>
<polyline fill="none" stroke="#2C2C2C" stroke-linecap="round" stroke-linejoin="round" stroke-miterlimit="10" points="
	38.953,42.6 31.698,35.342 38.666,28.373 "/>
<path fill="none" stroke="#B5B4B5" stroke-width="3" stroke-linecap="round" stroke-linejoin="round" stroke-miterlimit="10" d="
	M48.427,47.692H22.105c-1.281,0-2.32-1.169-2.32-2.612V22.335"/>
<polyline fill="none" stroke="#B5B4B5" stroke-width="3" stroke-linecap="round" stroke-linejoin="round" stroke-miterlimit="10" points="
	53.24,22.178 36.488,7.692 16.345,25.282 "/>
<line fill="none" stroke="#B5B4B5" stroke-width="3" stroke-linecap="round" stroke-linejoin="round" stroke-miterlimit="10" x1="48.27" y1="12.552" x2="48.27" y2="17.638"/>
<line fill="none" stroke="#B5B4B5" stroke-width="3" stroke-linecap="round" stroke-linejoin="round" stroke-miterlimit="10" x1="57.408" y1="35.456" x2="32.38" y2="35.456"/>
<line fill="none" stroke="#B5B4B5" stroke-width="3" stroke-linecap="round" stroke-linejoin="round" stroke-miterlimit="10" x1="57.487" y1="16.661" x2="57.487" y2="35.348"/>
<polyline fill="none" stroke="#B5B4B5" stroke-width="3" stroke-linecap="round" stroke-linejoin="round" stroke-miterlimit="10" points="
	38.953,42.6 31.698,35.342 38.666,28.373 "/>
</svg>
