<?xml version="1.0" encoding="utf-8"?>
<!-- Generator: Adobe Illustrator 16.0.0, SVG Export Plug-In . SVG Version: 6.00 Build 0)  -->
<!DOCTYPE svg PUBLIC "-//W3C//DTD SVG 1.1//EN" "http://www.w3.org/Graphics/SVG/1.1/DTD/svg11.dtd">
<svg version="1.1" id="图层_1" xmlns="http://www.w3.org/2000/svg" xmlns:xlink="http://www.w3.org/1999/xlink" x="0px" y="0px"
	 width="74px" height="57px" viewBox="0 0 74 57" enable-background="new 0 0 74 57" xml:space="preserve">
<path fill="none" stroke="#B5B4B5" stroke-width="3" stroke-linecap="round" stroke-linejoin="round" stroke-miterlimit="10" d="
	M54.021,15.712c-0.096-0.047-0.991-0.461-3.258-0.401c-1.727,0.045-3.502,1.016-4.356,1.552c-0.112-0.707-0.21-1.498-0.294-2.391
	c-0.357-3.796-1.048-4.828-1.587-4.999c-2.265-0.889-6.757-0.412-8.471-0.008c-0.021-0.049-0.046-0.091-0.073-0.13
	c-0.763-1.113-1.937-1.786-10.137-0.295c-0.218,0.04-0.385,0.216-0.412,0.436c-0.017,0.132-1.668,13.231-3.269,16.35
	c-1.743,3.398-2.047,7.896-1.964,9.801c0.083,1.91-0.528,5.321-1.693,7.725c-0.717,1.479-0.768,2.785-0.143,3.686
	c0.628,0.902,1.754,1.143,2.773,1.143c0.241,0,0.476-0.014,0.696-0.035c1.574-0.151,3.053-1.041,4.167-2.508
	c1.199-1.58,1.897-3.721,2.019-6.189c0.097-1.98,0.858-3.529,2.261-4.604c1.26-0.963,2.512-1.143,2.525-1.145
	c0.54-0.068,2.077-0.74,2.676-2.006c0.263-0.555,0.435-1.439-0.235-2.502c-0.509-0.809-1.196-1.473-1.86-2.114
	c-1.359-1.313-2.17-2.184-1.739-3.521c0.084-0.259,0.203-0.602,0.348-1.008c0.279,0.602,0.677,1.177,1.187,1.706
	c0.116,0.122,0.232,0.243,0.348,0.363c1.538,1.606,2.2,2.268,2.72,2.268c0.091,0,0.177-0.02,0.263-0.059
	c0.125-0.056,0.41-0.241,0.368-0.742c-0.019-0.23-0.07-0.536-0.13-0.89c-0.075-0.447-0.238-1.419-0.195-1.83
	c0.054,0.006,0.109,0.013,0.162,0.019c0.55,0.064,1.07,0.125,1.366-0.265c0.119-0.16,0.225-0.442,0.041-0.879l-0.037-0.094
	c-0.325-0.791-1.187-2.888-3.489-2.888H34.58c-0.55,0.002-1.051,0.112-1.475,0.257c0.684-1.861,1.475-4.03,2.067-5.836
	c0.154-0.467,0.285-0.882,0.396-1.25c0.37,1.055,0.91,2.381,1.433,3.666c0.408,1,0.829,2.034,1.162,2.919
	c0.516,1.376,0.826,3.937,1.127,6.414c0.441,3.63,0.857,7.058,1.93,8.488c0.214,0.284,0.441,0.574,0.66,0.854
	c1.608,2.058,3.271,4.185,2.744,7.729c-0.379,2.559,0.102,4.451,1.32,5.194c0.301,0.183,0.697,0.327,1.206,0.327
	c0.711,0,1.64-0.282,2.823-1.133c1.459-1.049,2.193-2.836,2.123-5.17c-0.051-1.703-0.508-3.094-0.527-3.152
	c-0.002-0.005-0.003-0.01-0.005-0.016c-1.806-4.938-0.396-7.483,1.397-9.5c0.998-1.123,1.002-2.152,0.83-2.818
	c-0.354-1.375-1.828-2.643-3.945-3.391c-1.172-0.415-2.033-1.342-2.633-2.835c-0.028-0.07-0.056-0.141-0.084-0.213
	c0.264,0.266,0.565,0.535,0.91,0.787c1.025,0.749,2.392,1.05,3.383,1.05c0.547,0,0.981-0.091,1.181-0.251
	c0.147-0.118,0.228-0.299,0.219-0.496c-0.007-0.165-0.021-0.471-1.026-1.527c-0.241-0.253-0.539-0.545-0.789-0.773
	c0.533-0.419,1.742-1.209,3.047-1.981c0.16-0.094,0.255-0.268,0.248-0.454C54.295,15.962,54.188,15.795,54.021,15.712z"/>
</svg>
