<?xml version="1.0" encoding="utf-8"?>
<!-- Generator: Adobe Illustrator 16.0.0, SVG Export Plug-In . SVG Version: 6.00 Build 0)  -->
<!DOCTYPE svg PUBLIC "-//W3C//DTD SVG 1.1//EN" "http://www.w3.org/Graphics/SVG/1.1/DTD/svg11.dtd">
<svg version="1.1" id="图层_1" xmlns="http://www.w3.org/2000/svg" xmlns:xlink="http://www.w3.org/1999/xlink" x="0px" y="0px"
	 width="74px" height="57px" viewBox="0 0 74 57" enable-background="new 0 0 74 57" xml:space="preserve">
<path fill="none" stroke="#B5B4B5" stroke-width="3" stroke-linecap="round" stroke-linejoin="round" stroke-miterlimit="10" d="
	M39.185,15.602L39.185,15.602c11.024,0.874,19.659,8.344,19.659,17.363c0,9.637-9.801,17.479-21.849,17.479
	c-12.05,0-21.85-7.842-21.85-17.479c0-9.043,8.635-16.502,19.659-17.387L39.185,15.602z"/>
<path fill="none" stroke="#B5B4B5" stroke-width="3" stroke-linecap="round" stroke-linejoin="round" stroke-miterlimit="10" d="
	M43.914,24.449c1.213,0,2.18,0.979,2.18,2.189c0,1.212-0.979,2.191-2.18,2.191c-1.211,0-2.19-0.979-2.19-2.191
	C41.724,25.428,42.715,24.449,43.914,24.449z"/>
<path fill="none" stroke="#B5B4B5" stroke-width="3" stroke-linecap="round" stroke-linejoin="round" stroke-miterlimit="10" d="
	M30.805,24.449c1.212,0,2.19,0.979,2.19,2.189c0,1.212-0.978,2.191-2.19,2.191s-2.191-0.979-2.191-2.191
	C28.614,25.428,29.605,24.449,30.805,24.449z"/>
<path fill="none" stroke="#B5B4B5" stroke-width="3" stroke-linecap="round" stroke-linejoin="round" stroke-miterlimit="10" d="
	M27.088,34.184l4.879,4.734c0,0,0.873,0.693,2.069,0l3.33-3.184l2.82,2.82c0,0,1.303,1.297,3.1,0l4.587-4.629"/>
<path fill="none" stroke="#B5B4B5" stroke-width="3" stroke-linecap="round" stroke-linejoin="round" stroke-miterlimit="10" d="
	M44.559,6.73c0,0-3.468-1.162-5.928,2.512c0,0-1.72,2.795-1.634,6.062"/>
</svg>
