<?xml version="1.0" encoding="utf-8"?>
<!-- Generator: Adobe Illustrator 16.0.0, SVG Export Plug-In . SVG Version: 6.00 Build 0)  -->
<!DOCTYPE svg PUBLIC "-//W3C//DTD SVG 1.1//EN" "http://www.w3.org/Graphics/SVG/1.1/DTD/svg11.dtd">
<svg version="1.1" id="图层_1" xmlns="http://www.w3.org/2000/svg" xmlns:xlink="http://www.w3.org/1999/xlink" x="0px" y="0px"
	 width="74px" height="57px" viewBox="0 0 74 57" enable-background="new 0 0 74 57" xml:space="preserve">
<path fill="none" stroke="#000000" stroke-linecap="round" stroke-linejoin="round" stroke-miterlimit="10" d="M31.549,49.367
	c-0.345,0-0.691-0.012-1.035-0.037c-1.601-0.096-3.175-0.426-4.558-0.953c-1.858-0.705-3.71-1.877-5.356-3.385
	c-1.666-1.523-3.029-3.273-4.05-5.201c-2.049-3.832-2.886-8.162-2.421-12.521c0.475-4.346,2.284-8.604,5.09-11.99
	c2.18-2.616,5.132-4.753,8.538-6.183c2.733-1.131,5.708-1.729,8.596-1.729c0.6,0,1.203,0.024,1.795,0.076
	c5.525,0.546,10.598,3.166,14.273,7.376c3.707,4.227,5.746,9.734,5.746,15.505c0,3.725-0.559,6.156-1.76,7.646
	c-0.941,1.158-2.158,1.723-3.717,1.723h-0.002c-1.104,0-2.406-0.287-3.869-0.854l-0.057-0.021l-0.072-0.012l-0.885-0.35
	c-1.465-0.594-2.854-1.158-3.895-1.158c-0.049,0-0.098,0-0.146,0.004c-0.607,0.027-0.941,0.344-1.113,0.604
	c-0.422,0.633-0.668,1.621-0.754,3.02c-0.074,1.057-0.262,1.945-0.566,2.711c-0.785,2.092-2.283,3.648-4.46,4.643
	C35.307,48.992,33.466,49.367,31.549,49.367z"/>
<path fill="none" stroke="#000000" stroke-linecap="round" stroke-linejoin="round" stroke-miterlimit="10" d="M33.47,42.307
	c-2.318,0-4.205-1.885-4.205-4.203c0-2.316,1.887-4.203,4.205-4.203c2.303,0,4.177,1.887,4.177,4.203
	C37.646,40.422,35.772,42.307,33.47,42.307z"/>
<path fill="none" stroke="#000000" stroke-linecap="round" stroke-linejoin="round" stroke-miterlimit="10" d="M23.66,34.578
	c-1.132,0-2.236-0.453-3.029-1.246c-0.805-0.805-1.249-1.885-1.249-3.041c0-1.15,0.444-2.229,1.249-3.031l0.076-0.088
	c0.806-0.746,1.88-1.174,2.953-1.174c1.125,0,2.208,0.449,3.049,1.268c0.805,0.804,1.253,1.88,1.253,3.025
	c0,1.148-0.448,2.229-1.26,3.041C25.887,34.135,24.805,34.578,23.66,34.578z"/>
<path fill="none" stroke="#000000" stroke-linecap="round" stroke-linejoin="round" stroke-miterlimit="10" d="M47.885,29.947
	c-1.145,0-2.229-0.443-3.047-1.25c-0.795-0.811-1.254-1.916-1.254-3.027c0-1.125,0.459-2.229,1.258-3.029
	c0.812-0.812,1.895-1.26,3.043-1.26c1.145,0,2.215,0.445,3.016,1.256c0.805,0.783,1.262,1.885,1.262,3.033
	c0,1.152-0.447,2.226-1.256,3.027C50.096,29.504,49.025,29.947,47.885,29.947z"/>
<path fill="none" stroke="#000000" stroke-linecap="round" stroke-linejoin="round" stroke-miterlimit="10" d="M28.589,24.524
	c-1.125,0-2.197-0.453-3.017-1.273c-0.822-0.811-1.273-1.887-1.273-3.029c0-1.125,0.452-2.197,1.273-3.02l0.048-0.047
	c0.8-0.789,1.855-1.225,2.969-1.225c1.134,0,2.21,0.453,3.03,1.271c0.813,0.812,1.261,1.885,1.261,3.02
	c0,1.152-0.447,2.227-1.258,3.027C30.799,24.071,29.723,24.524,28.589,24.524z"/>
<path fill="none" stroke="#000000" stroke-linecap="round" stroke-linejoin="round" stroke-miterlimit="10" d="M40.256,21.823
	c-1.133,0-2.236-0.455-3.03-1.248c-0.806-0.805-1.248-1.885-1.248-3.041c0-1.154,0.44-2.221,1.241-3
	c0.807-0.816,1.91-1.279,3.037-1.279c1.141,0,2.221,0.453,3.041,1.273c0.805,0.805,1.248,1.873,1.248,3.006
	s-0.445,2.217-1.254,3.047C42.484,21.379,41.402,21.823,40.256,21.823z"/>
<path fill="none" stroke="#fff" stroke-width="3" stroke-linecap="round" stroke-linejoin="round" stroke-miterlimit="10" d="
	M31.549,49.367c-0.345,0-0.691-0.012-1.035-0.037c-1.601-0.096-3.175-0.426-4.558-0.953c-1.858-0.705-3.71-1.877-5.356-3.385
	c-1.666-1.523-3.029-3.273-4.05-5.201c-2.049-3.832-2.886-8.162-2.421-12.521c0.475-4.346,2.284-8.604,5.09-11.99
	c2.18-2.616,5.132-4.753,8.538-6.183c2.733-1.131,5.708-1.729,8.596-1.729c0.6,0,1.203,0.024,1.795,0.076
	c5.525,0.546,10.598,3.166,14.273,7.376c3.707,4.227,5.746,9.734,5.746,15.505c0,3.725-0.559,6.156-1.76,7.646
	c-0.941,1.158-2.158,1.723-3.717,1.723h-0.002c-1.104,0-2.406-0.287-3.869-0.854l-0.057-0.021l-0.072-0.012l-0.885-0.35
	c-1.465-0.594-2.854-1.158-3.895-1.158c-0.049,0-0.098,0-0.146,0.004c-0.607,0.027-0.941,0.344-1.113,0.604
	c-0.422,0.633-0.668,1.621-0.754,3.02c-0.074,1.057-0.262,1.945-0.566,2.711c-0.785,2.092-2.283,3.648-4.46,4.643
	C35.307,48.992,33.466,49.367,31.549,49.367z"/>
<path fill="none" stroke="#fff" stroke-width="3" stroke-linecap="round" stroke-linejoin="round" stroke-miterlimit="10" d="
	M33.47,42.307c-2.318,0-4.205-1.885-4.205-4.203c0-2.316,1.887-4.203,4.205-4.203c2.303,0,4.177,1.887,4.177,4.203
	C37.646,40.422,35.772,42.307,33.47,42.307z"/>
<path fill="none" stroke="#fff" stroke-width="3" stroke-linecap="round" stroke-linejoin="round" stroke-miterlimit="10" d="
	M23.66,34.578c-1.132,0-2.236-0.453-3.029-1.246c-0.805-0.805-1.249-1.885-1.249-3.041c0-1.15,0.444-2.229,1.249-3.031l0.076-0.088
	c0.806-0.746,1.88-1.174,2.953-1.174c1.125,0,2.208,0.449,3.049,1.268c0.805,0.804,1.253,1.88,1.253,3.025
	c0,1.148-0.448,2.229-1.26,3.041C25.887,34.135,24.805,34.578,23.66,34.578z"/>
<path fill="none" stroke="#fff" stroke-width="3" stroke-linecap="round" stroke-linejoin="round" stroke-miterlimit="10" d="
	M47.885,29.947c-1.145,0-2.229-0.443-3.047-1.25c-0.795-0.811-1.254-1.916-1.254-3.027c0-1.125,0.459-2.229,1.258-3.029
	c0.812-0.812,1.895-1.26,3.043-1.26c1.145,0,2.215,0.445,3.016,1.256c0.805,0.783,1.262,1.885,1.262,3.033
	c0,1.152-0.447,2.226-1.256,3.027C50.096,29.504,49.025,29.947,47.885,29.947z"/>
<path fill="none" stroke="#fff" stroke-width="3" stroke-linecap="round" stroke-linejoin="round" stroke-miterlimit="10" d="
	M28.589,24.524c-1.125,0-2.197-0.453-3.017-1.273c-0.822-0.811-1.273-1.887-1.273-3.029c0-1.125,0.452-2.197,1.273-3.02l0.048-0.047
	c0.8-0.789,1.855-1.225,2.969-1.225c1.134,0,2.21,0.453,3.03,1.271c0.813,0.812,1.261,1.885,1.261,3.02
	c0,1.152-0.447,2.227-1.258,3.027C30.799,24.071,29.723,24.524,28.589,24.524z"/>
<path fill="none" stroke="#fff" stroke-width="3" stroke-linecap="round" stroke-linejoin="round" stroke-miterlimit="10" d="
	M40.256,21.823c-1.133,0-2.236-0.455-3.03-1.248c-0.806-0.805-1.248-1.885-1.248-3.041c0-1.154,0.44-2.221,1.241-3
	c0.807-0.816,1.91-1.279,3.037-1.279c1.141,0,2.221,0.453,3.041,1.273c0.805,0.805,1.248,1.873,1.248,3.006
	s-0.445,2.217-1.254,3.047C42.484,21.379,41.402,21.823,40.256,21.823z"/>
</svg>
