<?xml version="1.0" encoding="utf-8"?>
<!-- Generator: Adobe Illustrator 16.0.0, SVG Export Plug-In . SVG Version: 6.00 Build 0)  -->
<!DOCTYPE svg PUBLIC "-//W3C//DTD SVG 1.1//EN" "http://www.w3.org/Graphics/SVG/1.1/DTD/svg11.dtd">
<svg version="1.1" id="图层_1" xmlns="http://www.w3.org/2000/svg" xmlns:xlink="http://www.w3.org/1999/xlink" x="0px" y="0px"
	 width="74px" height="57px" viewBox="0 0 74 57" enable-background="new 0 0 74 57" xml:space="preserve">
<path fill="none" stroke="#040000" stroke-linecap="round" stroke-linejoin="round" stroke-miterlimit="10" d="M36.243,14.227h9.585
	c6.119,0,11.099,4.979,11.101,11.1v12.928c0,5.41-1.925,8.514-5.281,8.514h-0.116c-4.559,0-6.963-2.133-10.109-5.387
	c-1.592-1.645-3.045-2.412-4.57-2.412c-1.515,0-3.054,0.785-4.705,2.402c-2.858,2.795-5.557,5.434-9.395,5.434
	c-0.259,0-0.527-0.012-0.794-0.037c-4.404-0.393-5.328-4.846-5.328-8.514V25.326c0-6.121,4.979-11.1,11.098-11.1h6.996H36.243z"/>
<path fill="none" stroke="#040000" stroke-linecap="round" stroke-linejoin="round" stroke-miterlimit="10" d="M45.828,31.252
	c-1.844,0-3.343-1.498-3.343-3.342c0-1.842,1.499-3.342,3.343-3.342c1.842,0,3.342,1.5,3.342,3.342
	C49.17,29.754,47.67,31.252,45.828,31.252z"/>
<line fill="none" stroke="#040000" stroke-linecap="round" stroke-linejoin="round" stroke-miterlimit="10" x1="24.386" y1="27.91" x2="31.07" y2="27.91"/>
<line fill="none" stroke="#040000" stroke-linecap="round" stroke-linejoin="round" stroke-miterlimit="10" x1="27.728" y1="24.568" x2="27.728" y2="31.254"/>
<path fill="none" stroke="#040000" stroke-linecap="round" stroke-linejoin="round" stroke-miterlimit="10" d="M35.359,14.227
	c0,0-0.879-8.078,6.24-7.378"/>
<path fill="none" stroke="#fff" stroke-width="3" stroke-linecap="round" stroke-linejoin="round" stroke-miterlimit="10" d="
	M36.243,14.227h9.585c6.119,0,11.099,4.979,11.101,11.1v12.928c0,5.41-1.925,8.514-5.281,8.514h-0.116
	c-4.559,0-6.963-2.133-10.109-5.387c-1.592-1.645-3.045-2.412-4.57-2.412c-1.515,0-3.054,0.785-4.705,2.402
	c-2.858,2.795-5.557,5.434-9.395,5.434c-0.259,0-0.527-0.012-0.794-0.037c-4.404-0.393-5.328-4.846-5.328-8.514V25.326
	c0-6.121,4.979-11.1,11.098-11.1h6.996H36.243z"/>
<path fill="none" stroke="#fff" stroke-width="3" stroke-linecap="round" stroke-linejoin="round" stroke-miterlimit="10" d="
	M45.828,31.252c-1.844,0-3.343-1.498-3.343-3.342c0-1.842,1.499-3.342,3.343-3.342c1.842,0,3.342,1.5,3.342,3.342
	C49.17,29.754,47.67,31.252,45.828,31.252z"/>
<line fill="none" stroke="#fff" stroke-width="3" stroke-linecap="round" stroke-linejoin="round" stroke-miterlimit="10" x1="24.386" y1="27.91" x2="31.07" y2="27.91"/>
<line fill="none" stroke="#fff" stroke-width="3" stroke-linecap="round" stroke-linejoin="round" stroke-miterlimit="10" x1="27.728" y1="24.568" x2="27.728" y2="31.254"/>
<path fill="none" stroke="#fff" stroke-width="3" stroke-linecap="round" stroke-linejoin="round" stroke-miterlimit="10" d="
	M35.359,14.227c0,0-0.879-8.078,6.24-7.378"/>
</svg>
