<?xml version="1.0" encoding="utf-8"?>
<!-- Generator: Adobe Illustrator 16.0.0, SVG Export Plug-In . SVG Version: 6.00 Build 0)  -->
<!DOCTYPE svg PUBLIC "-//W3C//DTD SVG 1.1//EN" "http://www.w3.org/Graphics/SVG/1.1/DTD/svg11.dtd">
<svg version="1.1" id="图层_1" xmlns="http://www.w3.org/2000/svg" xmlns:xlink="http://www.w3.org/1999/xlink" x="0px" y="0px"
	 width="74px" height="57px" viewBox="0 0 74 57" enable-background="new 0 0 74 57" xml:space="preserve">
<path fill="none" stroke="#040000" stroke-linecap="round" stroke-linejoin="round" stroke-miterlimit="10" d="M34.392,45.529
	c-2.899,0-5.661-1.15-7.778-3.24c-2.103-2.104-3.263-4.873-3.263-7.799v-6.979c0-0.682,0.57-1.258,1.244-1.258h22.172
	c0.65,0,1.186,0.525,1.223,1.195l0.025,0.488h1.92c1.365,0,2.664,0.533,3.654,1.5c0.951,0.949,1.477,2.236,1.477,3.621
	c0,1.375-0.527,2.672-1.486,3.654c-0.98,0.957-2.279,1.49-3.645,1.49h-2.566l-0.129,0.32c-0.584,1.449-1.422,2.707-2.486,3.736
	l-0.156,0.152v0.025c-2.082,1.996-4.783,3.092-7.626,3.092H34.392z"/>
<path fill="none" stroke="#040000" stroke-linecap="round" stroke-linejoin="round" stroke-miterlimit="10" d="M32.981,23.979
	c-0.302-0.74-0.498-1.373-0.615-1.986c-0.145-0.648-0.214-1.33-0.214-2.096c0-0.75,0.069-1.428,0.211-2.072
	c0.145-0.74,0.35-1.408,0.614-1.994"/>
<path fill="none" stroke="#040000" stroke-linecap="round" stroke-linejoin="round" stroke-miterlimit="10" d="M29.417,23.979
	c-0.284-0.666-0.492-1.334-0.616-1.986c-0.143-0.689-0.215-1.393-0.215-2.098c0-0.693,0.07-1.373,0.214-2.078
	c0.131-0.678,0.344-1.365,0.616-1.992c0.258-0.615,0.444-1.217,0.557-1.789c0.113-0.559,0.172-1.189,0.172-1.869
	c0-0.689-0.057-1.302-0.173-1.872c-0.109-0.585-0.297-1.191-0.555-1.794"/>
<line fill="none" stroke="#040000" stroke-linecap="round" stroke-linejoin="round" stroke-miterlimit="10" x1="20.809" y1="48.5" x2="50.543" y2="48.5"/>
<path fill="none" stroke="#fff" stroke-width="3" stroke-linecap="round" stroke-linejoin="round" stroke-miterlimit="10" d="
	M34.392,45.529c-2.899,0-5.661-1.15-7.778-3.24c-2.103-2.104-3.263-4.873-3.263-7.799v-6.979c0-0.682,0.57-1.258,1.244-1.258h22.172
	c0.65,0,1.186,0.525,1.223,1.195l0.025,0.488h1.92c1.365,0,2.664,0.533,3.654,1.5c0.951,0.949,1.477,2.236,1.477,3.621
	c0,1.375-0.527,2.672-1.486,3.654c-0.98,0.957-2.279,1.49-3.645,1.49h-2.566l-0.129,0.32c-0.584,1.449-1.422,2.707-2.486,3.736
	l-0.156,0.152v0.025c-2.082,1.996-4.783,3.092-7.626,3.092H34.392z"/>
<path fill="none" stroke="#fff" stroke-width="3" stroke-linecap="round" stroke-linejoin="round" stroke-miterlimit="10" d="
	M32.981,23.979c-0.302-0.74-0.498-1.373-0.615-1.986c-0.145-0.648-0.214-1.33-0.214-2.096c0-0.75,0.069-1.428,0.211-2.072
	c0.145-0.74,0.35-1.408,0.614-1.994"/>
<path fill="none" stroke="#fff" stroke-width="3" stroke-linecap="round" stroke-linejoin="round" stroke-miterlimit="10" d="
	M29.417,23.979c-0.284-0.666-0.492-1.334-0.616-1.986c-0.143-0.689-0.215-1.393-0.215-2.098c0-0.693,0.07-1.373,0.214-2.078
	c0.131-0.678,0.344-1.365,0.616-1.992c0.258-0.615,0.444-1.217,0.557-1.789c0.113-0.559,0.172-1.189,0.172-1.869
	c0-0.689-0.057-1.302-0.173-1.872c-0.109-0.585-0.297-1.191-0.555-1.794"/>
<line fill="none" stroke="#fff" stroke-width="3" stroke-linecap="round" stroke-linejoin="round" stroke-miterlimit="10" x1="20.809" y1="48.5" x2="50.543" y2="48.5"/>
</svg>
