<?xml version="1.0" encoding="utf-8"?>
<!-- Generator: Adobe Illustrator 16.0.0, SVG Export Plug-In . SVG Version: 6.00 Build 0)  -->
<!DOCTYPE svg PUBLIC "-//W3C//DTD SVG 1.1//EN" "http://www.w3.org/Graphics/SVG/1.1/DTD/svg11.dtd">
<svg version="1.1" id="图层_1" xmlns="http://www.w3.org/2000/svg" xmlns:xlink="http://www.w3.org/1999/xlink" x="0px" y="0px"
	 width="74px" height="57px" viewBox="0 0 74 57" enable-background="new 0 0 74 57" xml:space="preserve">
<path fill="none" stroke="#B5B4B5" stroke-width="3" stroke-linecap="round" stroke-linejoin="round" stroke-miterlimit="10" d="
	M46.098,29.861c0.001-0.057,0.002-0.113,0.002-0.172c0-7.357-5.987-13.346-13.345-13.346c-6.326,0-11.673,4.348-13.014,10.449
	c-0.509-0.084-1.014-0.125-1.509-0.125c-5.33,0-9.667,4.336-9.667,9.666S12.901,46,18.233,46h7.212h20.608
	c4.45,0,8.069-3.619,8.069-8.07C54.123,33.496,50.527,29.885,46.098,29.861z"/>
<path fill="none" stroke="#B5B4B5" stroke-width="3" stroke-linecap="round" stroke-linejoin="round" stroke-miterlimit="10" d="
	M56.69,40.607c0.026,0,0.054,0,0.082-0.004c4.938-0.51,8.663-4.645,8.663-9.615c0-5.33-4.336-9.666-9.666-9.666
	c-0.495,0-1,0.041-1.51,0.125C52.92,15.346,47.572,11,41.246,11c-2.756,0-5.4,0.832-7.646,2.407"/>
</svg>
