<?xml version="1.0" encoding="utf-8"?>
<!-- Generator: Adobe Illustrator 16.0.0, SVG Export Plug-In . SVG Version: 6.00 Build 0)  -->
<!DOCTYPE svg PUBLIC "-//W3C//DTD SVG 1.1//EN" "http://www.w3.org/Graphics/SVG/1.1/DTD/svg11.dtd">
<svg version="1.1" id="图层_1" xmlns="http://www.w3.org/2000/svg" xmlns:xlink="http://www.w3.org/1999/xlink" x="0px" y="0px"
	 width="74px" height="57px" viewBox="0 0 74 57" enable-background="new 0 0 74 57" xml:space="preserve">
<path fill="none" stroke="#040000" stroke-linecap="round" stroke-linejoin="round" stroke-miterlimit="10" d="M22.711,28.645
	L22.711,28.645c0.98-0.48,2.051-0.785,3.121-0.918c0.37-0.043,0.697-0.186,0.959-0.371c0.251-0.174,0.47-0.457,0.611-0.785
	c1.123-2.531,3.503-4.408,6.361-4.529c1.397-0.064,2.848,0.285,4.245,0.949l8.489-8.486v-0.373c0-0.457,0.195-0.873,0.523-1.157
	l4.004-4.016C51.332,8.665,51.734,8.5,52.118,8.5h1.429c0.448,0,0.873,0.22,1.146,0.547l2.498,2.487
	c0.306,0.307,0.459,0.698,0.448,1.091h0.011v1.42c0,0.459-0.197,0.883-0.535,1.166l-4.004,4.004
	c-0.307,0.33-0.742,0.471-1.157,0.449h-0.307l-8.478,8.479c0.666,1.418,1.015,2.848,0.949,4.256
	c-0.108,2.859-1.996,5.238-4.527,6.361c-0.328,0.141-0.601,0.348-0.786,0.609c-0.186,0.264-0.327,0.604-0.36,0.961
	c-0.142,1.092-0.447,2.141-0.927,3.121c-1.638,3.371-5.097,5.619-9.014,4.922c-4.747-0.873-9.843-5.969-10.716-10.717
	C17.081,33.75,19.339,30.281,22.711,28.645z"/>
<path fill="none" stroke="#040000" stroke-linecap="round" stroke-linejoin="round" stroke-miterlimit="10" d="M34.932,27.848
	L34.932,27.848c1.877,0,3.383,1.527,3.383,3.383c0,1.865-1.506,3.393-3.383,3.393c-1.866,0-3.383-1.527-3.383-3.393
	C31.549,29.375,33.065,27.848,34.932,27.848z"/>
<line fill="none" stroke="#040000" stroke-linecap="round" stroke-linejoin="round" stroke-miterlimit="10" x1="26.049" y1="35.322" x2="30.851" y2="40.113"/>
<path fill="none" stroke="#fff" stroke-width="3" stroke-linecap="round" stroke-linejoin="round" stroke-miterlimit="10" d="
	M22.711,28.645L22.711,28.645c0.98-0.48,2.051-0.785,3.121-0.918c0.37-0.043,0.697-0.186,0.959-0.371
	c0.251-0.174,0.47-0.457,0.611-0.785c1.123-2.531,3.503-4.408,6.361-4.529c1.397-0.064,2.848,0.285,4.245,0.949l8.489-8.486v-0.373
	c0-0.457,0.195-0.873,0.523-1.157l4.004-4.016C51.332,8.665,51.734,8.5,52.118,8.5h1.429c0.448,0,0.873,0.22,1.146,0.547
	l2.498,2.487c0.306,0.307,0.459,0.698,0.448,1.091h0.011v1.42c0,0.459-0.197,0.883-0.535,1.166l-4.004,4.004
	c-0.307,0.33-0.742,0.471-1.157,0.449h-0.307l-8.478,8.479c0.666,1.418,1.015,2.848,0.949,4.256
	c-0.108,2.859-1.996,5.238-4.527,6.361c-0.328,0.141-0.601,0.348-0.786,0.609c-0.186,0.264-0.327,0.604-0.36,0.961
	c-0.142,1.092-0.447,2.141-0.927,3.121c-1.638,3.371-5.097,5.619-9.014,4.922c-4.747-0.873-9.843-5.969-10.716-10.717
	C17.081,33.75,19.339,30.281,22.711,28.645z"/>
<path fill="none" stroke="#fff" stroke-width="3" stroke-linecap="round" stroke-linejoin="round" stroke-miterlimit="10" d="
	M34.932,27.848L34.932,27.848c1.877,0,3.383,1.527,3.383,3.383c0,1.865-1.506,3.393-3.383,3.393c-1.866,0-3.383-1.527-3.383-3.393
	C31.549,29.375,33.065,27.848,34.932,27.848z"/>
<line fill="none" stroke="#fff" stroke-width="3" stroke-linecap="round" stroke-linejoin="round" stroke-miterlimit="10" x1="26.049" y1="35.322" x2="30.851" y2="40.113"/>
</svg>
