<?xml version="1.0" encoding="utf-8"?>
<!-- Generator: Adobe Illustrator 16.0.0, SVG Export Plug-In . SVG Version: 6.00 Build 0)  -->
<!DOCTYPE svg PUBLIC "-//W3C//DTD SVG 1.1//EN" "http://www.w3.org/Graphics/SVG/1.1/DTD/svg11.dtd">
<svg version="1.1" id="图层_1" xmlns="http://www.w3.org/2000/svg" xmlns:xlink="http://www.w3.org/1999/xlink" x="0px" y="0px"
	 width="74px" height="57px" viewBox="0 0 74 57" enable-background="new 0 0 74 57" xml:space="preserve">
<path fill="none" stroke="#2C2C2C" stroke-linecap="round" stroke-linejoin="round" stroke-miterlimit="10" d="M56.349,20.326
	c-1.058-2.5-2.571-4.746-4.5-6.674c-1.929-1.93-4.174-3.443-6.675-4.5C42.584,8.055,39.834,7.5,37,7.5
	c-2.835,0-5.586,0.556-8.175,1.652c-2.501,1.057-4.747,2.57-6.675,4.5c-1.929,1.928-3.442,4.174-4.5,6.674
	C16.555,22.916,16,25.666,16,28.5c0,2.836,0.555,5.586,1.65,8.174c1.058,2.502,2.571,4.748,4.5,6.676
	c1.928,1.93,4.174,3.443,6.675,4.5c2.589,1.096,5.34,1.65,8.175,1.65c2.834,0,5.585-0.555,8.174-1.65
	c2.501-1.057,4.746-2.57,6.675-4.5c1.929-1.928,3.442-4.174,4.501-6.676C57.444,34.086,58,31.336,58,28.5
	C58,25.666,57.444,22.916,56.349,20.326L56.349,20.326z"/>
<polygon fill="none" stroke="#2C2C2C" stroke-linecap="round" stroke-linejoin="round" stroke-miterlimit="10" points="
	42.394,36.902 31.605,36.902 28.271,26.64 36.998,20.298 45.728,26.64 "/>
<path fill="none" stroke="#2C2C2C" stroke-linecap="round" stroke-linejoin="round" stroke-miterlimit="10" d="M52.153,26.228
	l5.761,4.184c-0.194,2.16-0.718,4.26-1.564,6.262c-0.979,2.314-2.35,4.41-4.077,6.238h-6.773l-1.782,5.492
	c-2.155,0.727-4.408,1.096-6.718,1.096c-2.309,0-4.562-0.369-6.717-1.096l-1.784-5.492h-6.771c-1.728-1.828-3.099-3.924-4.077-6.238
	c-0.847-2.002-1.37-4.102-1.564-6.262l5.801-4.217l-0.066-0.115l-2.762-8.501c0.867-1.421,1.899-2.735,3.093-3.929
	c1.929-1.928,4.175-3.442,6.675-4.5c0.29-0.123,0.582-0.237,0.875-0.346l7.299,5.301l7.3-5.301c0.293,0.108,0.585,0.223,0.876,0.346
	c2.5,1.058,4.745,2.572,6.674,4.5c1.192,1.193,2.227,2.509,3.093,3.929L52.153,26.228z"/>
<line fill="none" stroke="#2C2C2C" stroke-linecap="round" stroke-linejoin="round" stroke-miterlimit="10" x1="36.999" y1="20.298" x2="36.999" y2="14.105"/>
<line fill="none" stroke="#2C2C2C" stroke-linecap="round" stroke-linejoin="round" stroke-miterlimit="10" x1="45.728" y1="26.64" x2="52.153" y2="26.227"/>
<line fill="none" stroke="#2C2C2C" stroke-linecap="round" stroke-linejoin="round" stroke-miterlimit="10" x1="28.271" y1="26.64" x2="21.886" y2="26.195"/>
<line fill="none" stroke="#2C2C2C" stroke-linecap="round" stroke-linejoin="round" stroke-miterlimit="10" x1="31.605" y1="36.902" x2="28.498" y2="42.912"/>
<line fill="none" stroke="#2C2C2C" stroke-linecap="round" stroke-linejoin="round" stroke-miterlimit="10" x1="42.394" y1="36.902" x2="45.498" y2="42.912"/>
<path fill="none" stroke="#fff" stroke-width="3" stroke-linecap="round" stroke-linejoin="round" stroke-miterlimit="10" d="
	M56.349,20.326c-1.058-2.5-2.571-4.746-4.5-6.674c-1.929-1.93-4.174-3.443-6.675-4.5C42.584,8.055,39.834,7.5,37,7.5
	c-2.835,0-5.586,0.556-8.175,1.652c-2.501,1.057-4.747,2.57-6.675,4.5c-1.929,1.928-3.442,4.174-4.5,6.674
	C16.555,22.916,16,25.666,16,28.5c0,2.836,0.555,5.586,1.65,8.174c1.058,2.502,2.571,4.748,4.5,6.676
	c1.928,1.93,4.174,3.443,6.675,4.5c2.589,1.096,5.34,1.65,8.175,1.65c2.834,0,5.585-0.555,8.174-1.65
	c2.501-1.057,4.746-2.57,6.675-4.5c1.929-1.928,3.442-4.174,4.501-6.676C57.444,34.086,58,31.336,58,28.5
	C58,25.666,57.444,22.916,56.349,20.326L56.349,20.326z"/>
<polygon fill="none" stroke="#fff" stroke-width="3" stroke-linecap="round" stroke-linejoin="round" stroke-miterlimit="10" points="
	42.394,36.902 31.605,36.902 28.271,26.64 36.998,20.298 45.728,26.64 "/>
<path fill="none" stroke="#fff" stroke-width="3" stroke-linecap="round" stroke-linejoin="round" stroke-miterlimit="10" d="
	M52.153,26.228l5.761,4.184c-0.194,2.16-0.718,4.26-1.564,6.262c-0.979,2.314-2.35,4.41-4.077,6.238h-6.773l-1.782,5.492
	c-2.155,0.727-4.408,1.096-6.718,1.096c-2.309,0-4.562-0.369-6.717-1.096l-1.784-5.492h-6.771c-1.728-1.828-3.099-3.924-4.077-6.238
	c-0.847-2.002-1.37-4.102-1.564-6.262l5.801-4.217l-0.066-0.115l-2.762-8.501c0.867-1.421,1.899-2.735,3.093-3.929
	c1.929-1.928,4.175-3.442,6.675-4.5c0.29-0.123,0.582-0.237,0.875-0.346l7.299,5.301l7.3-5.301c0.293,0.108,0.585,0.223,0.876,0.346
	c2.5,1.058,4.745,2.572,6.674,4.5c1.192,1.193,2.227,2.509,3.093,3.929L52.153,26.228z"/>
<line fill="none" stroke="#fff" stroke-width="3" stroke-linecap="round" stroke-linejoin="round" stroke-miterlimit="10" x1="36.999" y1="20.298" x2="36.999" y2="14.105"/>
<line fill="none" stroke="#fff" stroke-width="3" stroke-linecap="round" stroke-linejoin="round" stroke-miterlimit="10" x1="45.728" y1="26.64" x2="52.153" y2="26.227"/>
<line fill="none" stroke="#fff" stroke-width="3" stroke-linecap="round" stroke-linejoin="round" stroke-miterlimit="10" x1="28.271" y1="26.64" x2="21.886" y2="26.195"/>
<line fill="none" stroke="#fff" stroke-width="3" stroke-linecap="round" stroke-linejoin="round" stroke-miterlimit="10" x1="31.605" y1="36.902" x2="28.498" y2="42.912"/>
<line fill="none" stroke="#fff" stroke-width="3" stroke-linecap="round" stroke-linejoin="round" stroke-miterlimit="10" x1="42.394" y1="36.902" x2="45.498" y2="42.912"/>
</svg>
