<?xml version="1.0" encoding="utf-8"?>
<!-- Generator: Adobe Illustrator 16.0.0, SVG Export Plug-In . SVG Version: 6.00 Build 0)  -->
<!DOCTYPE svg PUBLIC "-//W3C//DTD SVG 1.1//EN" "http://www.w3.org/Graphics/SVG/1.1/DTD/svg11.dtd">
<svg version="1.1" id="图层_1" xmlns="http://www.w3.org/2000/svg" xmlns:xlink="http://www.w3.org/1999/xlink" x="0px" y="0px"
	 width="74px" height="57px" viewBox="0 0 74 57" enable-background="new 0 0 74 57" xml:space="preserve">
<path fill="none" stroke="#000000" stroke-linecap="round" stroke-linejoin="round" stroke-miterlimit="10" d="M20.457,48.404
	c-0.628,0-1.139-0.502-1.139-1.115v-9.154l-0.361-0.123c-0.826-0.279-1.488-0.684-2.027-1.242c-0.948-0.928-1.486-2.217-1.486-3.551
	v-2.742c0-2.738,2.306-5.049,5.036-5.049h11.269v-5.359c0-0.248,0.209-0.457,0.458-0.457h3.828v-1.471l-0.2-0.16
	c-1.526-1.225-2.367-2.867-2.367-4.623c0-1.902,0.997-3.678,2.737-4.87c0.081-0.057,0.166-0.084,0.257-0.084
	c0.091,0,0.184,0.027,0.268,0.076l0.121,0.102l0.047,0.003c1.649,1.21,2.595,2.942,2.595,4.773c0,1.724-0.834,3.359-2.349,4.605
	l-0.195,0.158v1.49h3.781c0.261,0,0.479,0.209,0.479,0.457v5.359h11.271c2.724,0,5.022,2.311,5.022,5.049v2.742
	c0,1.326-0.541,2.617-1.485,3.539c-0.578,0.598-1.236,1.004-2.024,1.252l-0.373,0.117v9.162c0,0.613-0.506,1.115-1.127,1.115H20.457
	z"/>
<path fill="none" stroke="#000000" stroke-linecap="round" stroke-linejoin="round" stroke-miterlimit="10" d="M19.318,38.135
	c0,0,1.489,1.42,6.738-2.299c0,0,1.701-3.453,5.213,0c0,0,5.351,5.619,11.049-0.012c0,0,1.828-1.871,4.516,0
	c0,0,2.631,3.062,6.786,2.303"/>
<path fill="none" stroke="#000000" stroke-linecap="round" stroke-linejoin="round" stroke-miterlimit="10" d="M37.035,19.898H36
	v-5.562c0-0.287,0.232-0.518,0.518-0.518c0.286,0,0.517,0.23,0.517,0.518V19.898z"/>
<path fill="none" stroke="#B5B4B5" stroke-width="3" stroke-linecap="round" stroke-linejoin="round" stroke-miterlimit="10" d="
	M20.457,48.404c-0.628,0-1.139-0.502-1.139-1.115v-9.154l-0.361-0.123c-0.826-0.279-1.488-0.684-2.027-1.242
	c-0.948-0.928-1.486-2.217-1.486-3.551v-2.742c0-2.738,2.306-5.049,5.036-5.049h11.269v-5.359c0-0.248,0.209-0.457,0.458-0.457
	h3.828v-1.471l-0.2-0.16c-1.526-1.225-2.367-2.867-2.367-4.623c0-1.902,0.997-3.678,2.737-4.87c0.081-0.057,0.166-0.084,0.257-0.084
	c0.091,0,0.184,0.027,0.268,0.076l0.121,0.102l0.047,0.003c1.649,1.21,2.595,2.942,2.595,4.773c0,1.724-0.834,3.359-2.349,4.605
	l-0.195,0.158v1.49h3.781c0.261,0,0.479,0.209,0.479,0.457v5.359h11.271c2.724,0,5.022,2.311,5.022,5.049v2.742
	c0,1.326-0.541,2.617-1.485,3.539c-0.578,0.598-1.236,1.004-2.024,1.252l-0.373,0.117v9.162c0,0.613-0.506,1.115-1.127,1.115H20.457
	z"/>
<path fill="none" stroke="#B5B4B5" stroke-width="3" stroke-linecap="round" stroke-linejoin="round" stroke-miterlimit="10" d="
	M19.318,38.135c0,0,1.489,1.42,6.738-2.299c0,0,1.701-3.453,5.213,0c0,0,5.351,5.619,11.049-0.012c0,0,1.828-1.871,4.516,0
	c0,0,2.631,3.062,6.786,2.303"/>
<path fill="none" stroke="#B5B4B5" stroke-width="3" stroke-linecap="round" stroke-linejoin="round" stroke-miterlimit="10" d="
	M37.035,19.898H36v-5.562c0-0.287,0.232-0.518,0.518-0.518c0.286,0,0.517,0.23,0.517,0.518V19.898z"/>
</svg>
