<?xml version="1.0" encoding="utf-8"?>
<!-- Generator: Adobe Illustrator 16.0.0, SVG Export Plug-In . SVG Version: 6.00 Build 0)  -->
<!DOCTYPE svg PUBLIC "-//W3C//DTD SVG 1.1//EN" "http://www.w3.org/Graphics/SVG/1.1/DTD/svg11.dtd">
<svg version="1.1" id="图层_1" xmlns="http://www.w3.org/2000/svg" xmlns:xlink="http://www.w3.org/1999/xlink" x="0px" y="0px"
	 width="74px" height="57px" viewBox="0 0 74 57" enable-background="new 0 0 74 57" xml:space="preserve">
<path fill="none" stroke="#B5B4B5" stroke-width="3" stroke-linecap="round" stroke-linejoin="round" stroke-miterlimit="10" d="
	M35.402,47.968c-11.028,0-20-8.973-20-20s8.972-20,20-20s20,8.973,20,20S46.431,47.968,35.402,47.968z"/>
<path fill="none" stroke="#B5B4B5" stroke-width="3" stroke-linecap="round" stroke-linejoin="round" stroke-miterlimit="10" d="
	M35.402,40.577c-2.906,0-5.271-2.568-5.271-5.727c0-3.156,2.365-5.727,5.271-5.727s5.271,2.57,5.271,5.727
	C40.673,38.009,38.309,40.577,35.402,40.577z"/>
<path fill="none" stroke="#B5B4B5" stroke-width="3" stroke-linecap="round" stroke-linejoin="round" stroke-miterlimit="10" d="
	M23.042,20.534c0,2.742,2.23,4.973,4.972,4.973s4.972-2.23,4.972-4.973"/>
<path fill="none" stroke="#B5B4B5" stroke-width="3" stroke-linecap="round" stroke-linejoin="round" stroke-miterlimit="10" d="
	M38.123,20.534c0,2.742,2.229,4.973,4.971,4.973s4.972-2.23,4.972-4.973"/>
<polyline fill="none" stroke="#B5B4B5" stroke-width="2" stroke-linecap="round" stroke-linejoin="round" stroke-miterlimit="10" points="
	50.141,8.133 54.305,8.133 50.473,13.296 55.108,13.296 "/>
<polyline fill="none" stroke="#B5B4B5" stroke-width="2" stroke-linecap="round" stroke-linejoin="round" stroke-miterlimit="10" points="
	54.856,15.212 57.993,15.212 55.106,19.103 58.599,19.103 "/>
</svg>
