<?xml version="1.0" encoding="utf-8"?>
<!-- Generator: Adobe Illustrator 16.0.0, SVG Export Plug-In . SVG Version: 6.00 Build 0)  -->
<!DOCTYPE svg PUBLIC "-//W3C//DTD SVG 1.1//EN" "http://www.w3.org/Graphics/SVG/1.1/DTD/svg11.dtd">
<svg version="1.1" id="图层_1" xmlns="http://www.w3.org/2000/svg" xmlns:xlink="http://www.w3.org/1999/xlink" x="0px" y="0px"
	 width="74px" height="57px" viewBox="0 0 74 57" enable-background="new 0 0 74 57" xml:space="preserve">
<path fill="none" stroke="#fff" stroke-width="3" stroke-linecap="round" stroke-linejoin="round" stroke-miterlimit="10" d="
	M33.58,49.578c-0.263,0-0.511-0.105-0.698-0.297c-0.107-0.1-0.178-0.207-0.21-0.307l-0.013-0.039l-4.145-8.627l-8.947-4.42
	c-0.237-0.115-0.411-0.312-0.497-0.562c-0.087-0.256-0.069-0.529,0.052-0.77c0.051-0.123,0.106-0.201,0.169-0.254l3.887-3.896
	c0.18-0.18,0.424-0.281,0.669-0.281c0.053,0,0.105,0.004,0.157,0.014l7.298,1.057l5.263-5.235l-15.363-6.201
	c-0.249-0.1-0.443-0.289-0.548-0.531s-0.107-0.512-0.009-0.758c0.057-0.131,0.119-0.229,0.184-0.281l0.506-0.404l-0.069-0.068
	l3.192-3.183c0.186-0.185,0.427-0.292,0.661-0.292c0.057,0,0.114,0.006,0.169,0.02l0.031,0.007l20.517,2.373l5.717-5.669
	l0.087-0.047l0.075-0.126c0.837-0.799,1.809-1.221,2.815-1.221c1.711,0,3.403,1.202,4.115,2.924
	c0.651,1.571,0.307,3.192-0.946,4.444l-5.778,5.779l2.413,20.563c0.039,0.301-0.069,0.607-0.298,0.854l-3.578,3.59
	c-0.185,0.18-0.439,0.283-0.71,0.283c-0.264,0-0.516-0.098-0.713-0.273c-0.128-0.156-0.204-0.289-0.229-0.395l-0.011-0.045
	l-6.172-15.256l-5.237,5.225l1.076,7.271c0.04,0.324-0.08,0.666-0.323,0.9l-3.846,3.824C34.096,49.471,33.845,49.578,33.58,49.578z"
	/>
</svg>
