<?xml version="1.0" encoding="utf-8"?>
<!-- Generator: Adobe Illustrator 16.0.0, SVG Export Plug-In . SVG Version: 6.00 Build 0)  -->
<!DOCTYPE svg PUBLIC "-//W3C//DTD SVG 1.1//EN" "http://www.w3.org/Graphics/SVG/1.1/DTD/svg11.dtd">
<svg version="1.1" id="图层_1" xmlns="http://www.w3.org/2000/svg" xmlns:xlink="http://www.w3.org/1999/xlink" x="0px" y="0px"
	 width="74px" height="57px" viewBox="0 0 74 57" enable-background="new 0 0 74 57" xml:space="preserve">
<path fill="none" stroke="#B5B4B5" stroke-width="3" stroke-linecap="round" stroke-linejoin="round" stroke-miterlimit="10" d="
	M52.822,31.392h4.289c1.609,0,1.898,0.407,1.918,1.323c0.016,0.705,0.037,1.492-0.26,1.824c-0.592,0.668-1.924,0.556-3.072-0.48
	c-0.715-0.646-2.006-0.73-2.875-0.704v11.114c0,2.607-2.135,4.742-4.742,4.742H24.371c-2.608,0-4.742-2.135-4.742-4.742V33.356
	c-0.87-0.03-2.188,0.048-2.915,0.702c-1.146,1.036-2.48,1.148-3.071,0.48c-0.297-0.332-0.328-1.123-0.259-1.824
	c0.108-1.068,0.426-1.323,2.105-1.323h4.14h1.047h31.061H52.822"/>
<line fill="none" stroke="#B5B4B5" stroke-width="3" stroke-linecap="round" stroke-linejoin="round" stroke-miterlimit="10" x1="41.611" y1="15.08" x2="41.611" y2="15.08"/>
<path fill="none" stroke="#B5B4B5" stroke-width="3" stroke-linecap="round" stroke-linejoin="round" stroke-miterlimit="10" d="
	M42.51,16.363c1.471-0.924,1.025-1.9,0.561-2.922c-0.779-1.703-1.584-3.469-0.023-5.652"/>
<line fill="none" stroke="#B5B4B5" stroke-width="3" stroke-linecap="round" stroke-linejoin="round" stroke-miterlimit="10" x1="33.75" y1="15.08" x2="33.75" y2="15.08"/>
<path fill="none" stroke="#B5B4B5" stroke-width="3" stroke-linecap="round" stroke-linejoin="round" stroke-miterlimit="10" d="
	M34.649,16.363c1.47-0.924,1.025-1.9,0.56-2.922c-0.78-1.703-1.586-3.469-0.025-5.652"/>
<line fill="none" stroke="#B5B4B5" stroke-width="3" stroke-linecap="round" stroke-linejoin="round" stroke-miterlimit="10" x1="25.408" y1="15.08" x2="25.408" y2="15.08"/>
<path fill="none" stroke="#B5B4B5" stroke-width="3" stroke-linecap="round" stroke-linejoin="round" stroke-miterlimit="10" d="
	M26.306,16.363c1.47-0.924,1.024-1.9,0.558-2.922c-0.777-1.703-1.584-3.469-0.022-5.652"/>
<path fill="none" stroke="#B5B4B5" stroke-width="3" stroke-linecap="round" stroke-linejoin="round" stroke-miterlimit="10" d="
	M24.371,23.635h10.072l-0.665-2.656c-0.177-0.713,0.602-1.336,1.333-1.336h1.85c0.734,0,1.512,0.623,1.334,1.336l-0.666,2.656H48.08
	c2.408,0,4.41,1.817,4.705,4.148H19.665C19.958,25.452,21.962,23.635,24.371,23.635z"/>
</svg>
