<?xml version="1.0" encoding="utf-8"?>
<!-- Generator: Adobe Illustrator 16.0.0, SVG Export Plug-In . SVG Version: 6.00 Build 0)  -->
<!DOCTYPE svg PUBLIC "-//W3C//DTD SVG 1.1//EN" "http://www.w3.org/Graphics/SVG/1.1/DTD/svg11.dtd">
<svg version="1.1" id="图层_1" xmlns="http://www.w3.org/2000/svg" xmlns:xlink="http://www.w3.org/1999/xlink" x="0px" y="0px"
	 width="74px" height="57px" viewBox="0 0 74 57" enable-background="new 0 0 74 57" xml:space="preserve">
<path fill="none" stroke="#2C2C2C" stroke-linecap="round" stroke-linejoin="round" stroke-miterlimit="10" d="M55.008,21.408
	L42.222,47.148c-0.505,1.016-1.873,1.879-3.033,1.879H26.543c-1.146,0-2.1-0.941-2.1-2.102v-2.111c0-1.172,0.934-2.104,2.086-2.104
	h10.548l12.159-24.245L55.008,21.408z"/>
<path fill="none" stroke="#2C2C2C" stroke-linecap="round" stroke-linejoin="round" stroke-miterlimit="10" d="M56.506,18.466
	l3.131-6.303c0.574-1.154,0.116-2.556-1.035-3.136l-1.597-0.806c-1.146-0.576-2.537-0.121-3.104,1.01l-3.158,6.298L56.506,18.466z"
	/>
<circle fill="none" stroke="#2C2C2C" stroke-linecap="round" stroke-linejoin="round" stroke-miterlimit="10" cx="32.865" cy="35.342" r="3.158"/>
<path fill="none" stroke="#B5B4B5" stroke-width="3" stroke-linecap="round" stroke-linejoin="round" stroke-miterlimit="10" d="
	M55.008,21.408L42.222,47.148c-0.505,1.016-1.873,1.879-3.033,1.879H26.543c-1.146,0-2.1-0.941-2.1-2.102v-2.111
	c0-1.172,0.934-2.104,2.086-2.104h10.548l12.159-24.245L55.008,21.408z"/>
<path fill="none" stroke="#B5B4B5" stroke-width="3" stroke-linecap="round" stroke-linejoin="round" stroke-miterlimit="10" d="
	M56.506,18.466l3.131-6.303c0.574-1.154,0.116-2.556-1.035-3.136l-1.597-0.806c-1.146-0.576-2.537-0.121-3.104,1.01l-3.158,6.298
	L56.506,18.466z"/>
<circle fill="none" stroke="#B5B4B5" stroke-width="3" stroke-linecap="round" stroke-linejoin="round" stroke-miterlimit="10" cx="32.865" cy="35.342" r="3.158"/>
</svg>
