<?xml version="1.0" encoding="utf-8"?>
<!-- Generator: Adobe Illustrator 16.0.0, SVG Export Plug-In . SVG Version: 6.00 Build 0)  -->
<!DOCTYPE svg PUBLIC "-//W3C//DTD SVG 1.1//EN" "http://www.w3.org/Graphics/SVG/1.1/DTD/svg11.dtd">
<svg version="1.1" id="图层_1" xmlns="http://www.w3.org/2000/svg" xmlns:xlink="http://www.w3.org/1999/xlink" x="0px" y="0px"
	 width="74px" height="57px" viewBox="0 0 74 57" enable-background="new 0 0 74 57" xml:space="preserve">
<path fill="none" stroke="#2C2C2C" stroke-linecap="round" stroke-linejoin="round" stroke-miterlimit="10" d="M35.513,42.198H16.54
	c-2.843,0-5.156-2.313-5.156-5.157V12.64c0-2.843,2.313-5.156,5.156-5.156h40.671c2.844,0,5.156,2.313,5.156,5.156v24.401
	c0,2.844-2.312,5.157-5.156,5.157H37.687H35.513z"/>
<line fill="none" stroke="#2C2C2C" stroke-linecap="round" stroke-linejoin="round" stroke-miterlimit="10" x1="36.875" y1="42.198" x2="36.875" y2="47.484"/>
<line fill="none" stroke="#2C2C2C" stroke-linecap="round" stroke-linejoin="round" stroke-miterlimit="10" x1="26.477" y1="47.484" x2="47.273" y2="47.484"/>
<path fill="none" stroke="#fff" stroke-width="3" stroke-linecap="round" stroke-linejoin="round" stroke-miterlimit="10" d="
	M35.513,42.198H16.54c-2.843,0-5.156-2.313-5.156-5.157V12.64c0-2.843,2.313-5.156,5.156-5.156h40.671
	c2.844,0,5.156,2.313,5.156,5.156v24.401c0,2.844-2.312,5.157-5.156,5.157H37.687H35.513z"/>
<line fill="none" stroke="#fff" stroke-width="3" stroke-linecap="round" stroke-linejoin="round" stroke-miterlimit="10" x1="36.875" y1="42.198" x2="36.875" y2="47.484"/>
<line fill="none" stroke="#fff" stroke-width="3" stroke-linecap="round" stroke-linejoin="round" stroke-miterlimit="10" x1="26.477" y1="47.484" x2="47.273" y2="47.484"/>
</svg>
