<?xml version="1.0" encoding="utf-8"?>
<!-- Generator: Adobe Illustrator 16.0.0, SVG Export Plug-In . SVG Version: 6.00 Build 0)  -->
<!DOCTYPE svg PUBLIC "-//W3C//DTD SVG 1.1//EN" "http://www.w3.org/Graphics/SVG/1.1/DTD/svg11.dtd">
<svg version="1.1" id="图层_1" xmlns="http://www.w3.org/2000/svg" xmlns:xlink="http://www.w3.org/1999/xlink" x="0px" y="0px"
	 width="74px" height="57px" viewBox="0 0 74 57" enable-background="new 0 0 74 57" xml:space="preserve">
<path fill="none" stroke="#050101" stroke-miterlimit="10" d="M51.149,17.103c-0.733,0-1.467,0.078-2.184,0.231
	C46.675,12.035,41.332,8.5,35.55,8.5c-7.216,0-13.216,5.08-14.411,12.135h-0.05c-4.718,0-8.558,3.837-8.558,8.552
	c0,4.717,3.839,8.552,8.556,8.552h30.062c5.69,0,10.32-4.629,10.32-10.318S56.839,17.103,51.149,17.103L51.149,17.103z"/>
<line fill="none" stroke="#050101" stroke-linecap="round" stroke-miterlimit="10" x1="21.6" y1="42.129" x2="25.168" y2="48.5"/>
<line fill="none" stroke="#050101" stroke-linecap="round" stroke-miterlimit="10" x1="31.342" y1="42.129" x2="34.911" y2="48.5"/>
<line fill="none" stroke="#050101" stroke-linecap="round" stroke-miterlimit="10" x1="41.583" y1="42.129" x2="45.151" y2="48.5"/>
<line fill="none" stroke="#050101" stroke-linecap="round" stroke-miterlimit="10" x1="51.479" y1="42.129" x2="55.049" y2="48.5"/>
<path fill="none" stroke="#fff" stroke-width="3" stroke-linecap="round" stroke-linejoin="round" stroke-miterlimit="10" d="
	M51.149,17.103c-0.733,0-1.467,0.078-2.184,0.231C46.675,12.035,41.332,8.5,35.55,8.5c-7.216,0-13.216,5.08-14.411,12.135h-0.05
	c-4.718,0-8.558,3.837-8.558,8.552c0,4.717,3.839,8.552,8.556,8.552h30.062c5.69,0,10.32-4.629,10.32-10.318
	S56.839,17.103,51.149,17.103L51.149,17.103z"/>
<line fill="none" stroke="#fff" stroke-width="3" stroke-linecap="round" stroke-linejoin="round" stroke-miterlimit="10" x1="21.6" y1="42.129" x2="25.168" y2="48.5"/>
<line fill="none" stroke="#fff" stroke-width="3" stroke-linecap="round" stroke-linejoin="round" stroke-miterlimit="10" x1="31.342" y1="42.129" x2="34.911" y2="48.5"/>
<line fill="none" stroke="#fff" stroke-width="3" stroke-linecap="round" stroke-linejoin="round" stroke-miterlimit="10" x1="41.583" y1="42.129" x2="45.151" y2="48.5"/>
<line fill="none" stroke="#fff" stroke-width="3" stroke-linecap="round" stroke-linejoin="round" stroke-miterlimit="10" x1="51.479" y1="42.129" x2="55.049" y2="48.5"/>
</svg>
