<?xml version="1.0" encoding="utf-8"?>
<!-- Generator: Adobe Illustrator 16.0.0, SVG Export Plug-In . SVG Version: 6.00 Build 0)  -->
<!DOCTYPE svg PUBLIC "-//W3C//DTD SVG 1.1//EN" "http://www.w3.org/Graphics/SVG/1.1/DTD/svg11.dtd">
<svg version="1.1" id="图层_1" xmlns="http://www.w3.org/2000/svg" xmlns:xlink="http://www.w3.org/1999/xlink" x="0px" y="0px"
	 width="74px" height="57px" viewBox="0 0 74 57" enable-background="new 0 0 74 57" xml:space="preserve">
<path fill="#FFFFFF" d="M56.506,18.466l3.131-6.303c0.574-1.154,0.116-2.556-1.035-3.136l-1.597-0.806
	c-1.146-0.576-2.537-0.121-3.104,1.01l-3.158,6.298L56.506,18.466z"/>
<path fill="#FFFFFF" d="M56.506,18.466l3.131-6.303c0.574-1.154,0.116-2.556-1.035-3.136l-1.597-0.806
	c-1.146-0.576-2.537-0.121-3.104,1.01l-3.158,6.298L56.506,18.466z"/>
<polyline fill="none" stroke="#2C2C2C" stroke-linecap="round" stroke-linejoin="round" stroke-miterlimit="10" points="
	27.384,34.557 31.733,34.557 35.408,28.501 38.518,39.174 42.125,34.557 46.604,34.557 "/>
<path fill="none" stroke="#2C2C2C" stroke-linecap="round" stroke-linejoin="round" stroke-miterlimit="10" d="M52.088,28.234h5.822
	c0.969,0,1.756,0.787,1.756,1.758V42.21c0,0.97-0.787,1.756-1.756,1.756h-4.066c-0.971,0-1.756-0.784-1.756-1.755V28.129
	c0-8.303-6.793-15.094-15.094-15.094c-8.303,0-15.094,6.791-15.094,15.094v14.082c0,0.971-0.787,1.755-1.756,1.755h-4.066
	c-0.969,0-1.756-0.786-1.756-1.756V29.992c0-0.971,0.787-1.758,1.756-1.758H21.9"/>
<polyline fill="none" stroke="#fff" stroke-width="3" stroke-linecap="round" stroke-linejoin="round" stroke-miterlimit="10" points="
	27.384,34.557 31.733,34.557 35.408,28.501 38.518,39.174 42.125,34.557 46.604,34.557 "/>
<path fill="none" stroke="#fff" stroke-width="3" stroke-linecap="round" stroke-linejoin="round" stroke-miterlimit="10" d="
	M52.088,28.234h5.822c0.969,0,1.756,0.787,1.756,1.758V42.21c0,0.97-0.787,1.756-1.756,1.756h-4.066
	c-0.971,0-1.756-0.784-1.756-1.755V28.129c0-8.303-6.793-15.094-15.094-15.094c-8.303,0-15.094,6.791-15.094,15.094v14.082
	c0,0.971-0.787,1.755-1.756,1.755h-4.066c-0.969,0-1.756-0.786-1.756-1.756V29.992c0-0.971,0.787-1.758,1.756-1.758H21.9"/>
</svg>
