<?xml version="1.0" encoding="utf-8"?>
<!-- Generator: Adobe Illustrator 16.0.0, SVG Export Plug-In . SVG Version: 6.00 Build 0)  -->
<!DOCTYPE svg PUBLIC "-//W3C//DTD SVG 1.1//EN" "http://www.w3.org/Graphics/SVG/1.1/DTD/svg11.dtd">
<svg version="1.1" id="图层_1" xmlns="http://www.w3.org/2000/svg" xmlns:xlink="http://www.w3.org/1999/xlink" x="0px" y="0px"
	 width="74px" height="57px" viewBox="0 0 74 57" enable-background="new 0 0 74 57" xml:space="preserve">
<line fill="none" stroke="#fff" stroke-width="2" stroke-linecap="round" stroke-linejoin="round" stroke-miterlimit="10" x1="35.128" y1="10.058" x2="36.979" y2="10.058"/>
<line fill="none" stroke="#fff" stroke-width="2" stroke-linecap="round" stroke-linejoin="round" stroke-miterlimit="10" x1="35.128" y1="12.585" x2="36.979" y2="12.585"/>
<line fill="none" stroke="#fff" stroke-width="2" stroke-linecap="round" stroke-linejoin="round" stroke-miterlimit="10" x1="38.719" y1="9.866" x2="40.569" y2="9.866"/>
<line fill="none" stroke="#fff" stroke-width="2" stroke-linecap="round" stroke-linejoin="round" stroke-miterlimit="10" x1="38.87" y1="12.392" x2="40.72" y2="12.392"/>
<line fill="none" stroke="#fff" stroke-width="2" stroke-linecap="round" stroke-linejoin="round" stroke-miterlimit="10" x1="36.94" y1="14.858" x2="38.789" y2="14.858"/>
<polyline fill="none" stroke="#fff" stroke-width="2" stroke-linecap="round" stroke-linejoin="round" stroke-miterlimit="10" points="
	36.747,23.571 36.747,30.636 39.022,30.636 38.966,23.579 "/>
<line fill="none" stroke="#fff" stroke-width="3" stroke-linecap="round" stroke-linejoin="round" stroke-miterlimit="10" x1="31.274" y1="34.069" x2="19.149" y2="46.194"/>
<path fill="none" stroke="#fff" stroke-width="3" stroke-linecap="round" stroke-linejoin="round" stroke-miterlimit="10" d="
	M55.2,12.706c-0.95-0.529-2.173-0.391-2.98,0.418L41.386,23.958"/>
<line fill="none" stroke="#fff" stroke-linecap="round" stroke-linejoin="round" stroke-miterlimit="10" x1="43.505" y1="25.815" x2="55.929" y2="13.47"/>
<polyline fill="none" stroke="#fff" stroke-linecap="round" stroke-linejoin="round" stroke-miterlimit="10" points="
	23.661,43.173 24.897,44.308 32.695,36.56 "/>
<path fill="none" stroke="#fff" stroke-width="3" stroke-linecap="round" stroke-linejoin="round" stroke-miterlimit="10" d="
	M43.142,37.294c0-1.686,0.845-3.158,2.101-3.951v-2.758c0-3.631-2.747-6.619-6.276-7.006l-0.254-15.4l1.075-2.08l-0.974-1.578H37
	l-1.074,1.678L37,8.212l-0.253,15.359c-3.569,0.346-6.36,3.354-6.36,7.014v2.758c1.255,0.793,2.1,2.266,2.1,3.951
	c0,2.32-1.595,4.234-3.66,4.529v3.285c0,4.072,3.3,7.371,7.372,7.371h3.231c4.07,0,7.371-3.299,7.371-7.371v-3.285
	C44.737,41.528,43.142,39.614,43.142,37.294z"/>
<path fill="none" stroke="#fff" stroke-width="2" stroke-linecap="round" stroke-linejoin="round" stroke-miterlimit="10" d="
	M36.068,38.29c0,0-1.208-0.102-1.477,0.906c-0.269,1.006,0,3.861,0,3.861s-0.033,0.738-1.041,0.906"/>
<path fill="none" stroke="#fff" stroke-width="2" stroke-linecap="round" stroke-linejoin="round" stroke-miterlimit="10" d="
	M39.476,38.29c0,0,1.207-0.102,1.477,0.906c0.27,1.006,0,3.861,0,3.861s0.034,0.738,1.041,0.906"/>
</svg>
