<?xml version="1.0" encoding="utf-8"?>
<!-- Generator: Adobe Illustrator 16.0.0, SVG Export Plug-In . SVG Version: 6.00 Build 0)  -->
<!DOCTYPE svg PUBLIC "-//W3C//DTD SVG 1.1//EN" "http://www.w3.org/Graphics/SVG/1.1/DTD/svg11.dtd">
<svg version="1.1" id="图层_1" xmlns="http://www.w3.org/2000/svg" xmlns:xlink="http://www.w3.org/1999/xlink" x="0px" y="0px"
	 width="74px" height="57px" viewBox="0 0 74 57" enable-background="new 0 0 74 57" xml:space="preserve">
<line fill="none" stroke="#2C2C2C" stroke-linecap="round" stroke-linejoin="round" stroke-miterlimit="10" x1="19.589" y1="8.5" x2="52.802" y2="8.5"/>
<polygon fill="none" stroke="#2C2C2C" stroke-linecap="round" stroke-linejoin="round" stroke-miterlimit="10" points="37.807,28.5 
	34.014,28.5 25.645,8.5 46.176,8.5 "/>
<line fill="none" stroke="#2C2C2C" stroke-linecap="round" stroke-linejoin="round" stroke-miterlimit="10" x1="19.589" y1="48.5" x2="52.802" y2="48.5"/>
<polygon fill="none" stroke="#2C2C2C" stroke-linecap="round" stroke-linejoin="round" stroke-miterlimit="10" points="37.807,28.5 
	34.014,28.5 25.645,48.5 46.176,48.5 "/>
<path fill="none" stroke="#2C2C2C" stroke-linecap="round" stroke-linejoin="round" stroke-miterlimit="10" d="M29.327,17.3
	c0,0,0.682-1.79,3.315-1.615c2.636,0.174,3.717,2.49,6.209,2.501c2.495,0.011,3.797-1.257,3.797-1.257"/>
<line fill="none" stroke="#2C2C2C" stroke-linecap="round" stroke-linejoin="round" stroke-miterlimit="10" x1="33.701" y1="21.555" x2="35.211" y2="20.965"/>
<line fill="none" stroke="#2C2C2C" stroke-linecap="round" stroke-linejoin="round" stroke-miterlimit="10" x1="34.5" y1="24.199" x2="35.921" y2="24.199"/>
<line fill="none" stroke="#2C2C2C" stroke-linecap="round" stroke-linejoin="round" stroke-miterlimit="10" x1="34.232" y1="40.773" x2="35.396" y2="41.955"/>
<line fill="none" stroke="#2C2C2C" stroke-linecap="round" stroke-linejoin="round" stroke-miterlimit="10" x1="31.84" y1="45.383" x2="31.84" y2="48.5"/>
<line fill="none" stroke="#B5B4B5" stroke-width="3" stroke-linecap="round" stroke-linejoin="round" stroke-miterlimit="10" x1="19.589" y1="8.5" x2="52.802" y2="8.5"/>
<polygon fill="none" stroke="#B5B4B5" stroke-width="3" stroke-linecap="round" stroke-linejoin="round" stroke-miterlimit="10" points="
	37.807,28.5 34.014,28.5 25.645,8.5 46.176,8.5 "/>
<line fill="none" stroke="#B5B4B5" stroke-width="3" stroke-linecap="round" stroke-linejoin="round" stroke-miterlimit="10" x1="19.589" y1="48.5" x2="52.802" y2="48.5"/>
<polygon fill="none" stroke="#B5B4B5" stroke-width="3" stroke-linecap="round" stroke-linejoin="round" stroke-miterlimit="10" points="
	37.807,28.5 34.014,28.5 25.645,48.5 46.176,48.5 "/>
<path fill="none" stroke="#B5B4B5" stroke-width="3" stroke-linecap="round" stroke-linejoin="round" stroke-miterlimit="10" d="
	M29.327,17.3c0,0,0.682-1.79,3.315-1.615c2.636,0.174,3.717,2.49,6.209,2.501c2.495,0.011,3.797-1.257,3.797-1.257"/>
<line fill="none" stroke="#B5B4B5" stroke-width="3" stroke-linecap="round" stroke-linejoin="round" stroke-miterlimit="10" x1="33.701" y1="21.555" x2="35.211" y2="20.965"/>
<line fill="none" stroke="#B5B4B5" stroke-width="3" stroke-linecap="round" stroke-linejoin="round" stroke-miterlimit="10" x1="34.5" y1="24.199" x2="35.921" y2="24.199"/>
<line fill="none" stroke="#B5B4B5" stroke-width="3" stroke-linecap="round" stroke-linejoin="round" stroke-miterlimit="10" x1="34.232" y1="40.773" x2="35.396" y2="41.955"/>
<line fill="none" stroke="#B5B4B5" stroke-width="3" stroke-linecap="round" stroke-linejoin="round" stroke-miterlimit="10" x1="31.84" y1="45.383" x2="31.84" y2="48.5"/>
</svg>
