<?xml version="1.0" encoding="utf-8"?>
<!-- Generator: Adobe Illustrator 16.0.0, SVG Export Plug-In . SVG Version: 6.00 Build 0)  -->
<!DOCTYPE svg PUBLIC "-//W3C//DTD SVG 1.1//EN" "http://www.w3.org/Graphics/SVG/1.1/DTD/svg11.dtd">
<svg version="1.1" id="图层_1" xmlns="http://www.w3.org/2000/svg" xmlns:xlink="http://www.w3.org/1999/xlink" x="0px" y="0px"
	 width="74px" height="57px" viewBox="0 0 74 57" enable-background="new 0 0 74 57" xml:space="preserve">
<line fill="none" stroke="#2C2C2C" stroke-linecap="round" stroke-linejoin="round" stroke-miterlimit="10" x1="37.001" y1="13.28" x2="37.001" y2="6.166"/>
<line fill="none" stroke="#2C2C2C" stroke-linecap="round" stroke-linejoin="round" stroke-miterlimit="10" x1="25.085" y1="18.216" x2="20.055" y2="13.185"/>
<line fill="none" stroke="#2C2C2C" stroke-linecap="round" stroke-linejoin="round" stroke-miterlimit="10" x1="20.149" y1="30.13" x2="13.035" y2="30.13"/>
<line fill="none" stroke="#2C2C2C" stroke-linecap="round" stroke-linejoin="round" stroke-miterlimit="10" x1="60.966" y1="30.13" x2="53.853" y2="30.13"/>
<line fill="none" stroke="#2C2C2C" stroke-linecap="round" stroke-linejoin="round" stroke-miterlimit="10" x1="53.947" y1="13.185" x2="48.916" y2="18.216"/>
<path fill="none" stroke="#2C2C2C" stroke-linecap="round" stroke-linejoin="round" stroke-miterlimit="10" d="M25.414,35.36
	c-0.722-1.594-1.123-3.365-1.123-5.229c0-7.021,5.69-12.711,12.71-12.711S49.71,23.11,49.71,30.132c0,1.859-0.4,3.625-1.116,5.217"
	/>
<line fill="none" stroke="#2C2C2C" stroke-linecap="round" stroke-linejoin="round" stroke-miterlimit="10" x1="11.217" y1="35.349" x2="62.784" y2="35.349"/>
<path fill="none" stroke="#2C2C2C" stroke-linecap="round" stroke-linejoin="round" stroke-miterlimit="10" d="M44.438,46.165
	l-6.094-6.094c-0.741-0.742-1.944-0.742-2.687,0l-6.094,6.094"/>
<line fill="none" stroke="#fff" stroke-width="3" stroke-linecap="round" stroke-linejoin="round" stroke-miterlimit="10" x1="37.001" y1="13.28" x2="37.001" y2="6.166"/>
<line fill="none" stroke="#fff" stroke-width="3" stroke-linecap="round" stroke-linejoin="round" stroke-miterlimit="10" x1="25.085" y1="18.216" x2="20.055" y2="13.185"/>
<line fill="none" stroke="#fff" stroke-width="3" stroke-linecap="round" stroke-linejoin="round" stroke-miterlimit="10" x1="20.149" y1="30.13" x2="13.035" y2="30.13"/>
<line fill="none" stroke="#fff" stroke-width="3" stroke-linecap="round" stroke-linejoin="round" stroke-miterlimit="10" x1="60.966" y1="30.13" x2="53.853" y2="30.13"/>
<line fill="none" stroke="#fff" stroke-width="3" stroke-linecap="round" stroke-linejoin="round" stroke-miterlimit="10" x1="53.947" y1="13.185" x2="48.916" y2="18.216"/>
<path fill="none" stroke="#fff" stroke-width="3" stroke-linecap="round" stroke-linejoin="round" stroke-miterlimit="10" d="
	M25.414,35.36c-0.722-1.594-1.123-3.365-1.123-5.229c0-7.021,5.69-12.711,12.71-12.711S49.71,23.11,49.71,30.132
	c0,1.859-0.4,3.625-1.116,5.217"/>
<line fill="none" stroke="#fff" stroke-width="3" stroke-linecap="round" stroke-linejoin="round" stroke-miterlimit="10" x1="11.217" y1="35.349" x2="62.784" y2="35.349"/>
<path fill="none" stroke="#fff" stroke-width="3" stroke-linecap="round" stroke-linejoin="round" stroke-miterlimit="10" d="
	M44.438,46.165l-6.094-6.094c-0.741-0.742-1.944-0.742-2.687,0l-6.094,6.094"/>
</svg>
