<?xml version="1.0" encoding="utf-8"?>
<!-- Generator: Adobe Illustrator 16.0.0, SVG Export Plug-In . SVG Version: 6.00 Build 0)  -->
<!DOCTYPE svg PUBLIC "-//W3C//DTD SVG 1.1//EN" "http://www.w3.org/Graphics/SVG/1.1/DTD/svg11.dtd">
<svg version="1.1" id="图层_1" xmlns="http://www.w3.org/2000/svg" xmlns:xlink="http://www.w3.org/1999/xlink" x="0px" y="0px"
	 width="74px" height="57px" viewBox="0 0 74 57" enable-background="new 0 0 74 57" xml:space="preserve">
<path fill="none" stroke="#fff" stroke-width="3" stroke-linecap="round" stroke-linejoin="round" stroke-miterlimit="10" d="
	M45.591,9.495c-1.783,0-3.578,0.446-5.188,1.298c-1.593,0.838-3.021,2.077-4.131,3.578l-0.213,0.288l-0.214-0.288
	c-1.11-1.501-2.539-2.74-4.129-3.578c-1.612-0.852-3.405-1.298-5.191-1.298c-6.617,0-11.998,5.896-11.998,13.142
	c0,4.336,1.948,7.392,3.512,9.849c4.58,7.184,16.116,16.141,16.606,16.517c0.416,0.323,0.906,0.493,1.413,0.493
	c0.509,0,0.997-0.17,1.413-0.493c0.488-0.376,12.017-9.316,16.604-16.517c1.567-2.457,3.514-5.513,3.514-9.849
	C57.588,15.391,52.207,9.495,45.591,9.495z"/>
</svg>
