<?xml version="1.0" encoding="utf-8"?>
<!-- Generator: Adobe Illustrator 16.0.0, SVG Export Plug-In . SVG Version: 6.00 Build 0)  -->
<!DOCTYPE svg PUBLIC "-//W3C//DTD SVG 1.1//EN" "http://www.w3.org/Graphics/SVG/1.1/DTD/svg11.dtd">
<svg version="1.1" id="图层_1" xmlns="http://www.w3.org/2000/svg" xmlns:xlink="http://www.w3.org/1999/xlink" x="0px" y="0px"
	 width="74px" height="57px" viewBox="0 0 74 57" enable-background="new 0 0 74 57" xml:space="preserve">
<circle fill="none" stroke="#fff" stroke-width="3" stroke-linecap="round" stroke-linejoin="round" stroke-miterlimit="10" cx="36.407" cy="29.283" r="9.83"/>
<path fill="none" stroke="#fff" stroke-width="3" stroke-linecap="round" stroke-linejoin="round" stroke-miterlimit="10" d="
	M43.415,11.385c7.146,2.799,12.207,9.758,12.207,17.898c0,10.613-8.603,19.217-19.215,19.217c-10.613,0-19.217-8.604-19.217-19.217
	c0-8.144,5.066-15.105,12.219-17.902"/>
<path fill="none" stroke="#fff" stroke-width="2" stroke-linecap="round" stroke-linejoin="round" stroke-miterlimit="10" d="
	M34.212,10.192c0.72-0.082,1.453-0.125,2.195-0.125c0.695,0,1.382,0.037,2.059,0.109"/>
<path fill="#fff" d="M25.155,22.262c0,0.32-0.261,0.582-0.582,0.582c-0.322,0-0.582-0.262-0.582-0.582
	c0-0.322,0.26-0.582,0.582-0.582C24.894,21.68,25.155,21.94,25.155,22.262"/>
<path fill="#fff" d="M23.991,23.612c0,0.32-0.261,0.582-0.582,0.582s-0.582-0.262-0.582-0.582c0-0.322,0.261-0.582,0.582-0.582
	S23.991,23.29,23.991,23.612"/>
<path fill="#fff" d="M24.739,25.191c0,0.321-0.26,0.582-0.582,0.582c-0.321,0-0.582-0.261-0.582-0.582s0.261-0.582,0.582-0.582
	C24.479,24.609,24.739,24.87,24.739,25.191"/>
<path fill="#fff" d="M26.901,24.776c0,0.32-0.261,0.582-0.582,0.582c-0.322,0-0.582-0.262-0.582-0.582
	c0-0.322,0.26-0.582,0.582-0.582C26.64,24.194,26.901,24.454,26.901,24.776"/>
<path fill="#fff" d="M26.901,22.844c0,0.32-0.261,0.582-0.582,0.582c-0.322,0-0.582-0.262-0.582-0.582
	c0-0.322,0.26-0.582,0.582-0.582C26.64,22.262,26.901,22.522,26.901,22.844"/>
<path fill="#fff" d="M47.731,19.717c-0.101,0.307-0.43,0.473-0.734,0.373c-0.307-0.101-0.473-0.429-0.372-0.734
	c0.1-0.305,0.428-0.473,0.733-0.372C47.665,19.084,47.831,19.413,47.731,19.717"/>
<path fill="#fff" d="M46.205,20.638c-0.101,0.306-0.429,0.472-0.733,0.372c-0.307-0.1-0.473-0.428-0.373-0.734
	c0.101-0.305,0.429-0.472,0.734-0.371C46.14,20.004,46.306,20.333,46.205,20.638"/>
<path fill="#fff" d="M46.425,22.373c-0.1,0.306-0.429,0.472-0.733,0.372c-0.306-0.1-0.474-0.43-0.372-0.734
	c0.1-0.305,0.428-0.472,0.734-0.371C46.358,21.739,46.525,22.067,46.425,22.373"/>
<path fill="#fff" d="M48.608,22.649c-0.1,0.307-0.428,0.473-0.733,0.373c-0.306-0.101-0.472-0.429-0.372-0.734
	c0.1-0.305,0.429-0.473,0.734-0.372S48.709,22.343,48.608,22.649"/>
<path fill="#fff" d="M49.21,20.814c-0.101,0.306-0.43,0.472-0.734,0.372c-0.307-0.1-0.473-0.43-0.372-0.734
	s0.428-0.472,0.733-0.371C49.144,20.18,49.31,20.508,49.21,20.814"/>
<path fill="#fff" d="M46.421,35.031c0.009,0.32-0.244,0.588-0.564,0.598c-0.322,0.01-0.59-0.244-0.6-0.564
	c-0.008-0.322,0.245-0.59,0.566-0.598C46.144,34.457,46.412,34.709,46.421,35.031"/>
<path fill="#fff" d="M45.257,37.133c0.009,0.32-0.244,0.59-0.564,0.598c-0.322,0.01-0.59-0.244-0.6-0.564
	c-0.008-0.322,0.245-0.59,0.566-0.598C44.979,36.559,45.248,36.812,45.257,37.133"/>
<path fill="#fff" d="M46.798,38.109c0.008,0.32-0.244,0.588-0.565,0.598c-0.322,0.01-0.589-0.244-0.599-0.564
	c-0.009-0.322,0.244-0.59,0.565-0.598C46.521,37.535,46.788,37.789,46.798,38.109"/>
<path fill="#fff" d="M48.311,37.412c0.009,0.32-0.244,0.588-0.565,0.598c-0.322,0.008-0.589-0.244-0.599-0.566
	c-0.008-0.32,0.245-0.59,0.565-0.598C48.034,36.836,48.302,37.09,48.311,37.412"/>
<path fill="#fff" d="M48.311,35.703c0.009,0.32-0.244,0.588-0.565,0.598c-0.322,0.008-0.589-0.244-0.599-0.566
	c-0.008-0.32,0.245-0.588,0.565-0.598C48.034,35.129,48.302,35.381,48.311,35.703"/>
<path fill="#fff" d="M52.604,26.764c0.008,0.32-0.246,0.588-0.567,0.597c-0.322,0.008-0.589-0.246-0.597-0.567
	c-0.008-0.322,0.246-0.589,0.567-0.597C52.329,26.188,52.596,26.443,52.604,26.764"/>
<path fill="#fff" d="M50.654,27.088c0.008,0.322-0.246,0.588-0.567,0.598c-0.322,0.007-0.589-0.246-0.597-0.568
	c-0.008-0.32,0.246-0.588,0.567-0.596C50.38,26.514,50.646,26.768,50.654,27.088"/>
<path fill="#fff" d="M50.654,29.047c0.008,0.322-0.246,0.588-0.567,0.596c-0.322,0.01-0.589-0.244-0.597-0.566
	c-0.008-0.32,0.246-0.588,0.567-0.596C50.38,28.473,50.646,28.727,50.654,29.047"/>
<path fill="#fff" d="M52.214,29.85c0.008,0.322-0.246,0.588-0.567,0.598c-0.321,0.008-0.588-0.246-0.597-0.568
	c-0.008-0.32,0.246-0.588,0.567-0.596S52.206,29.529,52.214,29.85"/>
<path fill="#fff" d="M53.495,28.465c0.008,0.322-0.246,0.588-0.566,0.596c-0.322,0.01-0.589-0.244-0.598-0.566
	c-0.008-0.32,0.246-0.587,0.566-0.595C53.22,27.891,53.487,28.145,53.495,28.465"/>
<path fill="#fff" d="M21.284,31.844c0.115,0.301-0.034,0.637-0.334,0.752c-0.3,0.117-0.637-0.033-0.752-0.334
	c-0.116-0.299,0.034-0.637,0.334-0.752C20.832,31.395,21.168,31.545,21.284,31.844"/>
<path fill="#fff" d="M20.931,33.771c0.115,0.299-0.035,0.637-0.334,0.752c-0.3,0.115-0.637-0.035-0.752-0.336
	c-0.116-0.299,0.034-0.635,0.334-0.75C20.479,33.32,20.815,33.471,20.931,33.771"/>
<path fill="#fff" d="M22.9,34.533c0.116,0.301-0.034,0.637-0.334,0.752c-0.3,0.117-0.637-0.033-0.752-0.334
	c-0.116-0.299,0.034-0.637,0.334-0.752S22.785,34.232,22.9,34.533"/>
<path fill="#fff" d="M23.594,33.369c0.116,0.301-0.034,0.637-0.334,0.752c-0.3,0.117-0.637-0.033-0.752-0.334
	c-0.116-0.299,0.034-0.637,0.334-0.752C23.142,32.92,23.479,33.068,23.594,33.369"/>
<path fill="#fff" d="M22.9,31.566c0.116,0.301-0.034,0.637-0.334,0.752s-0.637-0.033-0.752-0.334
	c-0.116-0.299,0.034-0.637,0.334-0.752S22.785,31.268,22.9,31.566"/>
<path fill="#fff" d="M31.788,42.061c0.115,0.299-0.035,0.637-0.334,0.752c-0.3,0.115-0.637-0.035-0.752-0.336
	c-0.116-0.299,0.034-0.635,0.334-0.75C31.336,41.609,31.672,41.76,31.788,42.061"/>
<path fill="#fff" d="M29.855,41.729c0.115,0.301-0.035,0.637-0.334,0.752c-0.301,0.117-0.637-0.033-0.753-0.334
	c-0.115-0.299,0.035-0.637,0.335-0.752S29.739,41.428,29.855,41.729"/>
<path fill="#fff" d="M32.823,40.564c0.115,0.299-0.034,0.637-0.334,0.752c-0.3,0.115-0.637-0.035-0.752-0.334
	c-0.116-0.301,0.034-0.637,0.334-0.752C32.371,40.113,32.708,40.264,32.823,40.564"/>
<path fill="#fff" d="M29.719,39.982c0.115,0.299-0.035,0.637-0.334,0.752c-0.301,0.115-0.637-0.035-0.753-0.334
	c-0.115-0.301,0.035-0.637,0.335-0.752C29.267,39.531,29.603,39.682,29.719,39.982"/>
<path fill="#fff" d="M31.49,39.08c0.116,0.301-0.034,0.637-0.334,0.752c-0.3,0.117-0.637-0.033-0.752-0.334
	c-0.116-0.299,0.034-0.637,0.334-0.752S31.375,38.781,31.49,39.08"/>
<path fill="#fff" d="M38.439,42.967c0.116,0.301-0.034,0.639-0.334,0.752c-0.3,0.117-0.637-0.033-0.752-0.334
	c-0.116-0.299,0.034-0.637,0.334-0.752C37.987,42.518,38.324,42.668,38.439,42.967"/>
<path fill="#fff" d="M41.385,42.385c0.116,0.301-0.034,0.637-0.334,0.752s-0.638-0.033-0.752-0.334
	c-0.116-0.299,0.034-0.637,0.334-0.752S41.27,42.086,41.385,42.385"/>
<path fill="#fff" d="M39.751,41.611c0.116,0.299-0.033,0.637-0.334,0.752c-0.3,0.115-0.637-0.035-0.752-0.334
	c-0.115-0.301,0.034-0.639,0.334-0.752C39.3,41.16,39.636,41.311,39.751,41.611"/>
<path fill="#fff" d="M41.385,44.174c0.116,0.299-0.034,0.637-0.334,0.752s-0.638-0.035-0.752-0.334
	c-0.116-0.301,0.034-0.637,0.334-0.752C40.933,43.723,41.27,43.873,41.385,44.174"/>
<path fill="#fff" d="M39.417,44.756c0.116,0.299-0.034,0.637-0.334,0.752s-0.637-0.035-0.752-0.334
	c-0.116-0.301,0.034-0.637,0.334-0.752C38.965,44.305,39.302,44.455,39.417,44.756"/>
<rect x="34.214" y="10.203" fill="none" stroke="#fff" stroke-width="3" stroke-linecap="round" stroke-linejoin="round" stroke-miterlimit="10" width="4.25" height="3.657"/>
<path fill="none" stroke="#fff" stroke-width="3" stroke-linecap="round" stroke-linejoin="round" stroke-miterlimit="10" d="
	M34.213,10.202c0,0-1.663-1.773-2.586-1.699c0,0-2.403-0.148-2.218,1.699v3.912c0,0.082,0.02,0.162,0.06,0.234
	c0.244,0.447,1.24,1.929,3.081,0.436l1.58-0.877c0.021-0.012,0.044,0.012,0.031,0.031c-0.265,0.395-1.462,2.193-1.802,3.01
	c-0.075,0.178-0.086,0.373-0.031,0.557c0.208,0.707,1.059,2.607,3.959,1.201c0.207-0.101,0.454-0.059,0.616,0.104
	c0.208,0.209,0.535,0.465,0.932,0.538c0,0,2.825,0.488,3.534-1.586c0.065-0.189,0.023-0.4-0.101-0.559
	c-0.549-0.699-2.145-2.715-2.747-3.289c-0.009-0.008,0-0.022,0.011-0.018c0.376,0.202,2.197,1.161,2.924,1.294
	c0,0,1.885,0.813,1.959-2.364v-2.625c0,0-0.369-2.254-2.55-1.367l-2.401,1.367H34.213z"/>
<line fill="none" stroke="#fff" stroke-width="3" stroke-linecap="round" stroke-linejoin="round" stroke-miterlimit="10" x1="36.407" y1="13.86" x2="36.593" y2="18.657"/>
<line fill="none" stroke="#fff" stroke-width="3" stroke-linecap="round" stroke-linejoin="round" stroke-miterlimit="10" x1="38.464" y1="12.032" x2="39.571" y2="12.032"/>
<line fill="none" stroke="#fff" stroke-width="3" stroke-linecap="round" stroke-linejoin="round" stroke-miterlimit="10" x1="33.105" y1="12.032" x2="34.213" y2="12.032"/>
</svg>
