<?xml version="1.0" encoding="utf-8"?>
<!-- Generator: Adobe Illustrator 16.0.0, SVG Export Plug-In . SVG Version: 6.00 Build 0)  -->
<!DOCTYPE svg PUBLIC "-//W3C//DTD SVG 1.1//EN" "http://www.w3.org/Graphics/SVG/1.1/DTD/svg11.dtd">
<svg version="1.1" id="图层_1" xmlns="http://www.w3.org/2000/svg" xmlns:xlink="http://www.w3.org/1999/xlink" x="0px" y="0px"
	 width="74px" height="57px" viewBox="0 0 74 57" enable-background="new 0 0 74 57" xml:space="preserve">
<path fill="none" stroke="#000000" stroke-linecap="round" stroke-linejoin="round" stroke-miterlimit="10" d="M21.466,48.5
	c-0.556,0-1.009-0.453-1.009-1.01V27.354c0-0.168,0.026-0.248,0.069-0.33l0.117-0.225l-0.132-0.361l-2.145-7.021
	c-0.076-0.256-0.051-0.529,0.073-0.768c0.122-0.234,0.326-0.404,0.576-0.479l31.545-9.621c0.105-0.033,0.209-0.05,0.312-0.05
	c0.441,0,0.821,0.285,0.947,0.708l2.155,7.066c0.158,0.531-0.141,1.086-0.684,1.264l-25.245,7.672l0.167,1.123h26.22
	c0.572,0,1.02,0.447,1.02,1.021V47.49c0,0.566-0.447,1.01-1.02,1.01H21.466z"/>
<line fill="none" stroke="#000000" stroke-linecap="round" stroke-linejoin="round" stroke-miterlimit="10" x1="23.235" y1="26.332" x2="25.63" y2="16.254"/>
<line fill="none" stroke="#000000" stroke-linecap="round" stroke-linejoin="round" stroke-miterlimit="10" x1="30.241" y1="24.451" x2="32.634" y2="14.125"/>
<line fill="none" stroke="#000000" stroke-linecap="round" stroke-linejoin="round" stroke-miterlimit="10" x1="37.245" y1="22.307" x2="39.639" y2="11.993"/>
<line fill="none" stroke="#000000" stroke-linecap="round" stroke-linejoin="round" stroke-miterlimit="10" x1="44.249" y1="20.162" x2="46.643" y2="9.848"/>
<line fill="none" stroke="#000000" stroke-linecap="round" stroke-linejoin="round" stroke-miterlimit="10" x1="27.799" y1="34.357" x2="48.113" y2="34.357"/>
<line fill="none" stroke="#000000" stroke-linecap="round" stroke-linejoin="round" stroke-miterlimit="10" x1="27.799" y1="40.475" x2="48.113" y2="40.475"/>
<line fill="none" stroke="#000000" stroke-linecap="round" stroke-linejoin="round" stroke-miterlimit="10" x1="28.213" y1="26.332" x2="20.512" y2="26.332"/>
<path fill="none" stroke="#fff" stroke-width="3" stroke-linecap="round" stroke-linejoin="round" stroke-miterlimit="10" d="
	M21.466,48.5c-0.556,0-1.009-0.453-1.009-1.01V27.354c0-0.168,0.026-0.248,0.069-0.33l0.117-0.225l-0.132-0.361l-2.145-7.021
	c-0.076-0.256-0.051-0.529,0.073-0.768c0.122-0.234,0.326-0.404,0.576-0.479l31.545-9.621c0.105-0.033,0.209-0.05,0.312-0.05
	c0.441,0,0.821,0.285,0.947,0.708l2.155,7.066c0.158,0.531-0.141,1.086-0.684,1.264l-25.245,7.672l0.167,1.123h26.22
	c0.572,0,1.02,0.447,1.02,1.021V47.49c0,0.566-0.447,1.01-1.02,1.01H21.466z"/>
<line fill="none" stroke="#fff" stroke-width="3" stroke-linecap="round" stroke-linejoin="round" stroke-miterlimit="10" x1="23.235" y1="26.332" x2="25.63" y2="16.254"/>
<line fill="none" stroke="#fff" stroke-width="3" stroke-linecap="round" stroke-linejoin="round" stroke-miterlimit="10" x1="30.241" y1="24.451" x2="32.634" y2="14.125"/>
<line fill="none" stroke="#fff" stroke-width="3" stroke-linecap="round" stroke-linejoin="round" stroke-miterlimit="10" x1="37.245" y1="22.307" x2="39.639" y2="11.993"/>
<line fill="none" stroke="#fff" stroke-width="3" stroke-linecap="round" stroke-linejoin="round" stroke-miterlimit="10" x1="44.249" y1="20.162" x2="46.643" y2="9.848"/>
<line fill="none" stroke="#fff" stroke-width="3" stroke-linecap="round" stroke-linejoin="round" stroke-miterlimit="10" x1="27.799" y1="34.357" x2="48.113" y2="34.357"/>
<line fill="none" stroke="#fff" stroke-width="3" stroke-linecap="round" stroke-linejoin="round" stroke-miterlimit="10" x1="27.799" y1="40.475" x2="48.113" y2="40.475"/>
<line fill="none" stroke="#fff" stroke-width="3" stroke-linecap="round" stroke-linejoin="round" stroke-miterlimit="10" x1="28.213" y1="26.332" x2="20.512" y2="26.332"/>
</svg>
