<?xml version="1.0" encoding="utf-8"?>
<!-- Generator: Adobe Illustrator 16.0.0, SVG Export Plug-In . SVG Version: 6.00 Build 0)  -->
<!DOCTYPE svg PUBLIC "-//W3C//DTD SVG 1.1//EN" "http://www.w3.org/Graphics/SVG/1.1/DTD/svg11.dtd">
<svg version="1.1" id="图层_1" xmlns="http://www.w3.org/2000/svg" xmlns:xlink="http://www.w3.org/1999/xlink" x="0px" y="0px"
	 width="74px" height="57px" viewBox="0 0 74 57" enable-background="new 0 0 74 57" xml:space="preserve">
<path fill="none" stroke="#B5B4B5" stroke-width="3" stroke-linecap="round" stroke-linejoin="round" stroke-miterlimit="10" d="
	M37.749,7.538c-5.096-0.299-10.312,1.223-14.566,4.719c-4.255,3.498-6.758,8.32-7.451,13.378
	c-0.767,5.599,0.691,11.485,4.561,16.194c3.869,4.705,9.353,7.297,14.989,7.633c5.1,0.304,10.323-1.242,14.583-4.743
	c4.259-3.501,6.787-8.328,7.477-13.392c0.762-5.594-0.72-11.476-4.587-16.181C48.884,10.438,43.391,7.868,37.749,7.538z"/>
<line fill="none" stroke="#B5B4B5" stroke-width="3" stroke-linecap="round" stroke-linejoin="round" stroke-miterlimit="10" x1="23.183" y1="12.257" x2="49.837" y2="44.685"/>
<line fill="none" stroke="#B5B4B5" stroke-width="3" stroke-linecap="round" stroke-linejoin="round" stroke-miterlimit="10" x1="52.724" y1="15.144" x2="20.296" y2="41.798"/>
<path fill="none" stroke="#B5B4B5" stroke-width="3" stroke-linecap="round" stroke-linejoin="round" stroke-miterlimit="10" d="
	M57.35,31.321c-5.106-0.309-10.336,1.236-14.6,4.741c-4.261,3.503-6.789,8.332-7.477,13.397"/>
<path fill="none" stroke="#B5B4B5" stroke-width="3" stroke-linecap="round" stroke-linejoin="round" stroke-miterlimit="10" d="
	M37.749,7.538c-0.693,5.057-3.197,9.879-7.451,13.375c-4.255,3.498-9.47,5.021-14.566,4.722"/>
</svg>
