<?xml version="1.0" encoding="utf-8"?>
<!-- Generator: Adobe Illustrator 16.0.0, SVG Export Plug-In . SVG Version: 6.00 Build 0)  -->
<!DOCTYPE svg PUBLIC "-//W3C//DTD SVG 1.1//EN" "http://www.w3.org/Graphics/SVG/1.1/DTD/svg11.dtd">
<svg version="1.1" id="图层_1" xmlns="http://www.w3.org/2000/svg" xmlns:xlink="http://www.w3.org/1999/xlink" x="0px" y="0px"
	 width="74px" height="57px" viewBox="0 0 74 57" enable-background="new 0 0 74 57" xml:space="preserve">
<path fill="none" stroke="#fff" stroke-width="3" stroke-linecap="round" stroke-linejoin="round" stroke-miterlimit="10" d="
	M45.599,49.5H30.558c-2.689,0-4.87-2.35-4.87-5.25v-31.5c0-2.898,2.181-5.25,4.87-5.25h15.041c2.688,0,4.869,2.352,4.869,5.25v31.5
	C50.468,47.15,48.287,49.5,45.599,49.5z"/>
<path fill-rule="evenodd" clip-rule="evenodd" fill="#fff" d="M38.078,47.32c-1.082,0-1.96-0.887-1.96-1.979
	c0-1.094,0.878-1.98,1.96-1.98s1.96,0.887,1.96,1.98C40.038,46.434,39.16,47.32,38.078,47.32"/>
<line fill="none" stroke="#fff" stroke-width="3" stroke-linecap="round" stroke-linejoin="round" stroke-miterlimit="10" x1="25.688" y1="13.188" x2="50.468" y2="13.188"/>
<line fill="none" stroke="#fff" stroke-width="3" stroke-linecap="round" stroke-linejoin="round" stroke-miterlimit="10" x1="25.688" y1="41.129" x2="50.468" y2="41.129"/>
</svg>
