<?xml version="1.0" encoding="utf-8"?>
<!-- Generator: Adobe Illustrator 16.0.0, SVG Export Plug-In . SVG Version: 6.00 Build 0)  -->
<!DOCTYPE svg PUBLIC "-//W3C//DTD SVG 1.1//EN" "http://www.w3.org/Graphics/SVG/1.1/DTD/svg11.dtd">
<svg version="1.1" id="图层_1" xmlns="http://www.w3.org/2000/svg" xmlns:xlink="http://www.w3.org/1999/xlink" x="0px" y="0px"
	 width="74px" height="57px" viewBox="0 0 74 57" enable-background="new 0 0 74 57" xml:space="preserve">
<path fill="none" stroke="#2C2C2C" stroke-linecap="round" stroke-linejoin="round" stroke-miterlimit="10" d="M53.955,18.258
	c0-4.873-3.85-10.758-8.631-10.758c-4.746,0-8.428,5.729-8.428,10.656c0,4.074,2.276,9.395,5.458,11.311L41.775,45.35
	c0,2.092,1.842,3.857,4.023,3.857c2.125,0,3.789-1.693,3.787-3.936l-0.861-15.811C51.891,27.559,53.955,22.41,53.955,18.258z"/>
<path fill="none" stroke="#2C2C2C" stroke-linecap="round" stroke-linejoin="round" stroke-miterlimit="10" d="M34.919,21.586
	l-0.79-12.461c-0.05-0.783-0.716-1.383-1.509-1.33c-0.783,0.051-1.379,0.727-1.329,1.51l0.717,11.262h-4.146
	c0.012-0.074,0.019-0.15,0.019-0.227L27.868,9.211c-0.001-0.783-0.637-1.418-1.421-1.418h-0.002c-0.785,0-1.422,0.637-1.42,1.424
	l0.013,11.127c0.001,0.074,0.007,0.15,0.019,0.223h-4.164l0.711-11.262c0.049-0.785-0.546-1.461-1.33-1.51
	c-0.795-0.055-1.457,0.547-1.508,1.33l-0.783,12.447c-0.039,0.131-0.062,0.271-0.062,0.416c0,0.082,0.008,0.164,0.021,0.242
	l-0.021,0.332c0,3.541,2.167,6.514,5.065,7.279l-0.627,14.834c-0.064,1.355,0.403,2.664,1.285,3.59
	c0.758,0.795,1.753,1.234,2.807,1.234c1.047,0,2.041-0.439,2.799-1.234c0.882-0.926,1.351-2.234,1.285-3.58l-0.626-14.84
	c1.224-0.32,2.34-1.035,3.234-2.092c1.185-1.4,1.836-3.25,1.832-5.293l-0.016-0.244c0.012-0.074,0.019-0.15,0.019-0.229
	C34.978,21.85,34.958,21.713,34.919,21.586z"/>
<path fill="none" stroke="#B5B4B5" stroke-width="3" stroke-linecap="round" stroke-linejoin="round" stroke-miterlimit="10" d="
	M53.955,18.258c0-4.873-3.85-10.758-8.631-10.758c-4.746,0-8.428,5.729-8.428,10.656c0,4.074,2.276,9.395,5.458,11.311L41.775,45.35
	c0,2.092,1.842,3.857,4.023,3.857c2.125,0,3.789-1.693,3.787-3.936l-0.861-15.811C51.891,27.559,53.955,22.41,53.955,18.258z"/>
<path fill="none" stroke="#B5B4B5" stroke-width="3" stroke-linecap="round" stroke-linejoin="round" stroke-miterlimit="10" d="
	M34.919,21.586l-0.79-12.461c-0.05-0.783-0.716-1.383-1.509-1.33c-0.783,0.051-1.379,0.727-1.329,1.51l0.717,11.262h-4.146
	c0.012-0.074,0.019-0.15,0.019-0.227L27.868,9.211c-0.001-0.783-0.637-1.418-1.421-1.418h-0.002c-0.785,0-1.422,0.637-1.42,1.424
	l0.013,11.127c0.001,0.074,0.007,0.15,0.019,0.223h-4.164l0.711-11.262c0.049-0.785-0.546-1.461-1.33-1.51
	c-0.795-0.055-1.457,0.547-1.508,1.33l-0.783,12.447c-0.039,0.131-0.062,0.271-0.062,0.416c0,0.082,0.008,0.164,0.021,0.242
	l-0.021,0.332c0,3.541,2.167,6.514,5.065,7.279l-0.627,14.834c-0.064,1.355,0.403,2.664,1.285,3.59
	c0.758,0.795,1.753,1.234,2.807,1.234c1.047,0,2.041-0.439,2.799-1.234c0.882-0.926,1.351-2.234,1.285-3.58l-0.626-14.84
	c1.224-0.32,2.34-1.035,3.234-2.092c1.185-1.4,1.836-3.25,1.832-5.293l-0.016-0.244c0.012-0.074,0.019-0.15,0.019-0.229
	C34.978,21.85,34.958,21.713,34.919,21.586z"/>
</svg>
