<?xml version="1.0" encoding="utf-8"?>
<!-- Generator: Adobe Illustrator 16.0.0, SVG Export Plug-In . SVG Version: 6.00 Build 0)  -->
<!DOCTYPE svg PUBLIC "-//W3C//DTD SVG 1.1//EN" "http://www.w3.org/Graphics/SVG/1.1/DTD/svg11.dtd">
<svg version="1.1" id="图层_1" xmlns="http://www.w3.org/2000/svg" xmlns:xlink="http://www.w3.org/1999/xlink" x="0px" y="0px"
	 width="74px" height="57px" viewBox="0 0 74 57" enable-background="new 0 0 74 57" xml:space="preserve">
<path fill="none" stroke="#221714" stroke-linecap="round" stroke-linejoin="round" stroke-miterlimit="10" d="M22.846,35.576
	l0.262-1.875c0.107-0.771,0.819-1.309,1.59-1.201c0.771,0.109,1.309,0.82,1.201,1.592l-0.262,1.873L22.846,35.576z"/>
<path fill="none" stroke="#221714" stroke-linecap="round" stroke-linejoin="round" stroke-miterlimit="10" d="M25.762,36.447
	c0.812,1.039,1.206,2.816,0.936,4.75c-0.404,2.895-3.4,4.869-3.885,4.801c-0.485-0.066-2.825-2.787-2.421-5.682
	c0.264-1.887,1.107-3.525,2.137-4.322L25.762,36.447z"/>
<path fill="none" stroke="#221714" stroke-linecap="round" stroke-linejoin="round" stroke-miterlimit="10" d="M47.697,36.213
	l-0.444-1.84c-0.184-0.756,0.281-1.518,1.038-1.701c0.756-0.182,1.518,0.283,1.7,1.039l0.445,1.84L47.697,36.213z"/>
<path fill="none" stroke="#221714" stroke-linecap="round" stroke-linejoin="round" stroke-miterlimit="10" d="M50.73,35.951
	c1.136,0.67,2.155,2.178,2.614,4.076c0.688,2.84-1.375,5.777-1.85,5.893c-0.476,0.113-3.651-1.555-4.339-4.396
	c-0.448-1.854-0.265-3.686,0.4-4.805L50.73,35.951z"/>
<path fill="none" stroke="#221714" stroke-linecap="round" stroke-linejoin="round" stroke-miterlimit="10" d="M61.184,25.34
	l-0.431,1.842c-0.177,0.758-0.935,1.23-1.692,1.053s-1.229-0.936-1.052-1.693l0.431-1.842L61.184,25.34z"/>
<path fill="none" stroke="#221714" stroke-linecap="round" stroke-linejoin="round" stroke-miterlimit="10" d="M58.357,24.207
	c-0.713-1.107-0.944-2.914-0.5-4.814c0.665-2.848,3.828-4.541,4.304-4.43c0.477,0.111,2.562,3.031,1.896,5.877
	c-0.435,1.857-1.423,3.41-2.521,4.111L58.357,24.207z"/>
<path fill="none" stroke="#221714" stroke-linecap="round" stroke-linejoin="round" stroke-miterlimit="10" d="M37.285,21.291
	l0.046,1.893c0.02,0.777-0.597,1.424-1.374,1.441c-0.778,0.02-1.424-0.596-1.443-1.375l-0.045-1.891L37.285,21.291z"/>
<path fill="none" stroke="#221714" stroke-linecap="round" stroke-linejoin="round" stroke-miterlimit="10" d="M34.267,20.904
	c-0.969-0.895-1.646-2.584-1.693-4.537c-0.071-2.92,2.565-5.356,3.055-5.367c0.488-0.012,3.239,2.292,3.31,5.214
	c0.047,1.906-0.521,3.658-1.407,4.611L34.267,20.904z"/>
<path fill="none" stroke="#221714" stroke-linecap="round" stroke-linejoin="round" stroke-miterlimit="10" d="M15.403,24.547
	l0.426,1.846c0.175,0.758-0.298,1.514-1.057,1.689c-0.758,0.174-1.516-0.299-1.689-1.057l-0.425-1.844L15.403,24.547z"/>
<path fill="none" stroke="#221714" stroke-linecap="round" stroke-linejoin="round" stroke-miterlimit="10" d="M12.368,24.777
	c-1.129-0.682-2.132-2.201-2.571-4.104c-0.657-2.848,1.437-5.764,1.913-5.873c0.475-0.109,3.635,1.594,4.291,4.441
	c0.429,1.859,0.227,3.689-0.451,4.801L12.368,24.777z"/>
<path fill="none" stroke="#221714" stroke-linecap="round" stroke-linejoin="round" stroke-miterlimit="10" d="M7.352,40.084
	c0,0,1.85-0.449,3.092-2.008c1.241-1.559-0.502-3.541,0-5.627c0.502-2.088,2.219-4.281,4.2-4.307
	c1.98-0.027,2.246-0.055,3.487,0.369c1.241,0.422,4.809,3.91,6.657,3.99c1.85,0.078,3.831-0.211,4.834-1.268
	c1.004-1.059,3.461-6.738,6.526-6.605c3.064,0.131,6.578,9.457,11.545,8.215c4.967-1.24,5.944-3.938,7.478-4.332
	c1.532-0.396,2.061-0.555,3.46-0.344c1.4,0.211,3.329,2.352,3.329,2.352s2.695,4.465,5.02,4.65"/>
<path fill="none" stroke="#B5B4B5" stroke-width="3" stroke-linecap="round" stroke-linejoin="round" stroke-miterlimit="10" d="
	M22.846,35.576l0.262-1.875c0.107-0.771,0.819-1.309,1.59-1.201c0.771,0.109,1.309,0.82,1.201,1.592l-0.262,1.873L22.846,35.576z"/>
<path fill="none" stroke="#B5B4B5" stroke-width="3" stroke-linecap="round" stroke-linejoin="round" stroke-miterlimit="10" d="
	M25.762,36.447c0.812,1.039,1.206,2.816,0.936,4.75c-0.404,2.895-3.4,4.869-3.885,4.801c-0.485-0.066-2.825-2.787-2.421-5.682
	c0.264-1.887,1.107-3.525,2.137-4.322L25.762,36.447z"/>
<path fill="none" stroke="#B5B4B5" stroke-width="3" stroke-linecap="round" stroke-linejoin="round" stroke-miterlimit="10" d="
	M47.697,36.213l-0.444-1.84c-0.184-0.756,0.281-1.518,1.038-1.701c0.756-0.182,1.518,0.283,1.7,1.039l0.445,1.84L47.697,36.213z"/>
<path fill="none" stroke="#B5B4B5" stroke-width="3" stroke-linecap="round" stroke-linejoin="round" stroke-miterlimit="10" d="
	M50.73,35.951c1.136,0.67,2.155,2.178,2.614,4.076c0.688,2.84-1.375,5.777-1.85,5.893c-0.476,0.113-3.651-1.555-4.339-4.396
	c-0.448-1.854-0.265-3.686,0.4-4.805L50.73,35.951z"/>
<path fill="none" stroke="#B5B4B5" stroke-width="3" stroke-linecap="round" stroke-linejoin="round" stroke-miterlimit="10" d="
	M61.184,25.34l-0.431,1.842c-0.177,0.758-0.935,1.23-1.692,1.053s-1.229-0.936-1.052-1.693l0.431-1.842L61.184,25.34z"/>
<path fill="none" stroke="#B5B4B5" stroke-width="3" stroke-linecap="round" stroke-linejoin="round" stroke-miterlimit="10" d="
	M58.357,24.207c-0.713-1.107-0.944-2.914-0.5-4.814c0.665-2.848,3.828-4.541,4.304-4.43c0.477,0.111,2.562,3.031,1.896,5.877
	c-0.435,1.857-1.423,3.41-2.521,4.111L58.357,24.207z"/>
<path fill="none" stroke="#B5B4B5" stroke-width="3" stroke-linecap="round" stroke-linejoin="round" stroke-miterlimit="10" d="
	M37.285,21.291l0.046,1.893c0.02,0.777-0.597,1.424-1.374,1.441c-0.778,0.02-1.424-0.596-1.443-1.375l-0.045-1.891L37.285,21.291z"
	/>
<path fill="none" stroke="#B5B4B5" stroke-width="3" stroke-linecap="round" stroke-linejoin="round" stroke-miterlimit="10" d="
	M34.267,20.904c-0.969-0.895-1.646-2.584-1.693-4.537c-0.071-2.92,2.565-5.356,3.055-5.367c0.488-0.012,3.239,2.292,3.31,5.214
	c0.047,1.906-0.521,3.658-1.407,4.611L34.267,20.904z"/>
<path fill="none" stroke="#B5B4B5" stroke-width="3" stroke-linecap="round" stroke-linejoin="round" stroke-miterlimit="10" d="
	M15.403,24.547l0.426,1.846c0.175,0.758-0.298,1.514-1.057,1.689c-0.758,0.174-1.516-0.299-1.689-1.057l-0.425-1.844L15.403,24.547z
	"/>
<path fill="none" stroke="#B5B4B5" stroke-width="3" stroke-linecap="round" stroke-linejoin="round" stroke-miterlimit="10" d="
	M12.368,24.777c-1.129-0.682-2.132-2.201-2.571-4.104c-0.657-2.848,1.437-5.764,1.913-5.873c0.475-0.109,3.635,1.594,4.291,4.441
	c0.429,1.859,0.227,3.689-0.451,4.801L12.368,24.777z"/>
<path fill="none" stroke="#B5B4B5" stroke-width="3" stroke-linecap="round" stroke-linejoin="round" stroke-miterlimit="10" d="
	M7.352,40.084c0,0,1.85-0.449,3.092-2.008c1.241-1.559-0.502-3.541,0-5.627c0.502-2.088,2.219-4.281,4.2-4.307
	c1.98-0.027,2.246-0.055,3.487,0.369c1.241,0.422,4.809,3.91,6.657,3.99c1.85,0.078,3.831-0.211,4.834-1.268
	c1.004-1.059,3.461-6.738,6.526-6.605c3.064,0.131,6.578,9.457,11.545,8.215c4.967-1.24,5.944-3.938,7.478-4.332
	c1.532-0.396,2.061-0.555,3.46-0.344c1.4,0.211,3.329,2.352,3.329,2.352s2.695,4.465,5.02,4.65"/>
</svg>
