<?xml version="1.0" encoding="utf-8"?>
<!-- Generator: Adobe Illustrator 16.0.0, SVG Export Plug-In . SVG Version: 6.00 Build 0)  -->
<!DOCTYPE svg PUBLIC "-//W3C//DTD SVG 1.1//EN" "http://www.w3.org/Graphics/SVG/1.1/DTD/svg11.dtd">
<svg version="1.1" id="图层_1" xmlns="http://www.w3.org/2000/svg" xmlns:xlink="http://www.w3.org/1999/xlink" x="0px" y="0px"
	 width="74px" height="57px" viewBox="0 0 74 57" enable-background="new 0 0 74 57" xml:space="preserve">
<path fill="none" stroke="#2C2C2C" stroke-linecap="round" stroke-linejoin="round" stroke-miterlimit="10" d="M20.444,45.167
	c0-1.837,1.495-3.333,3.333-3.333H46c1.838,0,3.333-1.496,3.333-3.334V11.834C49.333,9.996,47.838,8.5,46,8.5H23.777
	c-1.838,0-3.333,1.496-3.333,3.334V45.167"/>
<path fill="none" stroke="#2C2C2C" stroke-linecap="round" stroke-linejoin="round" stroke-miterlimit="10" d="M53.556,12.869
	v34.423c0,0.668-0.541,1.208-1.208,1.208H23.811c-1.858,0-3.366-1.506-3.366-3.366"/>
<line fill="#2B2D2D" x1="23.869" y1="45.167" x2="47.619" y2="45.167"/>
<path fill="none" stroke="#B5B4B5" stroke-width="3" stroke-linecap="round" stroke-linejoin="round" stroke-miterlimit="10" d="
	M20.444,45.167c0-1.837,1.495-3.333,3.333-3.333H46c1.838,0,3.333-1.496,3.333-3.334V11.834C49.333,9.996,47.838,8.5,46,8.5H23.777
	c-1.838,0-3.333,1.496-3.333,3.334V45.167"/>
<path fill="none" stroke="#B5B4B5" stroke-width="3" stroke-linecap="round" stroke-linejoin="round" stroke-miterlimit="10" d="
	M53.556,12.869v34.423c0,0.668-0.541,1.208-1.208,1.208H23.811c-1.858,0-3.366-1.506-3.366-3.366"/>
<line fill="none" stroke="#B5B4B5" stroke-width="3" stroke-linecap="round" stroke-linejoin="round" stroke-miterlimit="10" x1="23.869" y1="45.167" x2="47.619" y2="45.167"/>
</svg>
