<?xml version="1.0" encoding="utf-8"?>
<!-- Generator: Adobe Illustrator 16.0.0, SVG Export Plug-In . SVG Version: 6.00 Build 0)  -->
<!DOCTYPE svg PUBLIC "-//W3C//DTD SVG 1.1//EN" "http://www.w3.org/Graphics/SVG/1.1/DTD/svg11.dtd">
<svg version="1.1" id="图层_1" xmlns="http://www.w3.org/2000/svg" xmlns:xlink="http://www.w3.org/1999/xlink" x="0px" y="0px"
	 width="74px" height="57px" viewBox="0 0 74 57" enable-background="new 0 0 74 57" xml:space="preserve">
<path fill="none" stroke="#040000" stroke-linecap="round" stroke-linejoin="round" stroke-miterlimit="10" d="M52.482,31.401
	c0.074,0.717,0.032,1.053-0.163,1.754c-0.828,2.975-3.601,4.965-6.254,6.238c-0.65,0.312-1.317,0.564-1.988,0.83
	c-0.601,0.234-1.252,0.451-1.783,0.828c-0.331,0.236-0.523,0.549-0.622,0.941c-0.151,0.607-0.232,1.26-0.274,1.883
	c-0.048,0.699-0.033,1.4-0.06,2.1c-0.023,0.664-0.024,1.387-0.243,2.021c-0.351,1.023-1.687,1.441-2.634,1.648
	c-1.396,0.303-6.296,0.373-7.722,0.309c-1.161-0.051-2.414-0.121-3.518-0.52c-0.614-0.221-1.274-0.527-1.677-1.064
	c-0.328-0.439-0.407-0.979-0.43-1.514c-0.031-0.762-0.06-1.523-0.221-2.271c-0.2-0.928-0.604-1.758-1.148-2.531
	c-0.576-0.82-1.23-1.559-1.674-2.463c-0.447-0.914-0.771-1.867-0.941-2.869c-0.345-2.031-0.084-4.088,0.615-6.018"/>
<path fill="none" stroke="#040000" stroke-linecap="round" stroke-linejoin="round" stroke-miterlimit="10" d="M52.257,26.269
	H23.231c-0.972,0-2.252,1.154-2.252,2.576s1.28,2.574,2.252,2.574h29.025c1.231,0,2.313-1.152,2.313-2.574
	S53.488,26.269,52.257,26.269z"/>
<path fill="none" stroke="#040000" stroke-linecap="round" stroke-linejoin="round" stroke-miterlimit="10" d="M23.021,31.419
	L23.021,31.419c-1.479,0-2.688-1.209-2.688-2.688V9.714c0-1.479,1.21-2.689,2.688-2.689s2.688,1.211,2.688,2.689v19.018
	C25.709,30.21,24.5,31.419,23.021,31.419z"/>
<path fill="none" stroke="#B5B4B5" stroke-width="3" stroke-linecap="round" stroke-linejoin="round" stroke-miterlimit="10" d="
	M52.482,31.401c0.074,0.717,0.032,1.053-0.163,1.754c-0.828,2.975-3.601,4.965-6.254,6.238c-0.65,0.312-1.317,0.564-1.988,0.83
	c-0.601,0.234-1.252,0.451-1.783,0.828c-0.331,0.236-0.523,0.549-0.622,0.941c-0.151,0.607-0.232,1.26-0.274,1.883
	c-0.048,0.699-0.033,1.4-0.06,2.1c-0.023,0.664-0.024,1.387-0.243,2.021c-0.351,1.023-1.687,1.441-2.634,1.648
	c-1.396,0.303-6.296,0.373-7.722,0.309c-1.161-0.051-2.414-0.121-3.518-0.52c-0.614-0.221-1.274-0.527-1.677-1.064
	c-0.328-0.439-0.407-0.979-0.43-1.514c-0.031-0.762-0.06-1.523-0.221-2.271c-0.2-0.928-0.604-1.758-1.148-2.531
	c-0.576-0.82-1.23-1.559-1.674-2.463c-0.447-0.914-0.771-1.867-0.941-2.869c-0.345-2.031-0.084-4.088,0.615-6.018"/>
<path fill="none" stroke="#B5B4B5" stroke-width="3" stroke-linecap="round" stroke-linejoin="round" stroke-miterlimit="10" d="
	M52.257,26.269H23.231c-0.972,0-2.252,1.154-2.252,2.576s1.28,2.574,2.252,2.574h29.025c1.231,0,2.313-1.152,2.313-2.574
	S53.488,26.269,52.257,26.269z"/>
<path fill="none" stroke="#B5B4B5" stroke-width="3" stroke-linecap="round" stroke-linejoin="round" stroke-miterlimit="10" d="
	M23.021,31.419L23.021,31.419c-1.479,0-2.688-1.209-2.688-2.688V9.714c0-1.479,1.21-2.689,2.688-2.689s2.688,1.211,2.688,2.689
	v19.018C25.709,30.21,24.5,31.419,23.021,31.419z"/>
</svg>
