<?xml version="1.0" encoding="utf-8"?>
<!-- Generator: Adobe Illustrator 16.0.0, SVG Export Plug-In . SVG Version: 6.00 Build 0)  -->
<!DOCTYPE svg PUBLIC "-//W3C//DTD SVG 1.1//EN" "http://www.w3.org/Graphics/SVG/1.1/DTD/svg11.dtd">
<svg version="1.1" id="图层_1" xmlns="http://www.w3.org/2000/svg" xmlns:xlink="http://www.w3.org/1999/xlink" x="0px" y="0px"
	 width="74px" height="57px" viewBox="0 0 74 57" enable-background="new 0 0 74 57" xml:space="preserve">
<line fill="none" stroke="#2C2C2C" stroke-linecap="round" stroke-linejoin="round" stroke-miterlimit="10" x1="36.771" y1="14.598" x2="36.771" y2="7.484"/>
<line fill="none" stroke="#2C2C2C" stroke-linecap="round" stroke-linejoin="round" stroke-miterlimit="10" x1="24.854" y1="19.534" x2="19.824" y2="14.503"/>
<line fill="none" stroke="#2C2C2C" stroke-linecap="round" stroke-linejoin="round" stroke-miterlimit="10" x1="19.919" y1="31.449" x2="12.805" y2="31.449"/>
<line fill="none" stroke="#2C2C2C" stroke-linecap="round" stroke-linejoin="round" stroke-miterlimit="10" x1="60.735" y1="31.449" x2="53.621" y2="31.449"/>
<line fill="none" stroke="#2C2C2C" stroke-linecap="round" stroke-linejoin="round" stroke-miterlimit="10" x1="53.716" y1="14.503" x2="48.686" y2="19.533"/>
<path fill="none" stroke="#2C2C2C" stroke-linecap="round" stroke-linejoin="round" stroke-miterlimit="10" d="M25.184,36.68
	c-0.722-1.596-1.123-3.366-1.123-5.23c0-7.02,5.69-12.709,12.71-12.709c7.019,0,12.709,5.69,12.709,12.709
	c0,1.859-0.399,3.625-1.117,5.217"/>
<line fill="none" stroke="#2C2C2C" stroke-linecap="round" stroke-linejoin="round" stroke-miterlimit="10" x1="10.986" y1="36.668" x2="62.554" y2="36.668"/>
<path fill="none" stroke="#2C2C2C" stroke-linecap="round" stroke-linejoin="round" stroke-miterlimit="10" d="M44.207,40.834
	l-6.094,6.094c-0.742,0.742-1.944,0.742-2.687,0l-6.094-6.094"/>
<line fill="none" stroke="#fff" stroke-width="3" stroke-linecap="round" stroke-linejoin="round" stroke-miterlimit="10" x1="36.771" y1="14.598" x2="36.771" y2="7.484"/>
<line fill="none" stroke="#fff" stroke-width="3" stroke-linecap="round" stroke-linejoin="round" stroke-miterlimit="10" x1="24.854" y1="19.534" x2="19.824" y2="14.503"/>
<line fill="none" stroke="#fff" stroke-width="3" stroke-linecap="round" stroke-linejoin="round" stroke-miterlimit="10" x1="19.919" y1="31.449" x2="12.805" y2="31.449"/>
<line fill="none" stroke="#fff" stroke-width="3" stroke-linecap="round" stroke-linejoin="round" stroke-miterlimit="10" x1="60.735" y1="31.449" x2="53.621" y2="31.449"/>
<line fill="none" stroke="#fff" stroke-width="3" stroke-linecap="round" stroke-linejoin="round" stroke-miterlimit="10" x1="53.716" y1="14.503" x2="48.686" y2="19.533"/>
<path fill="none" stroke="#fff" stroke-width="3" stroke-linecap="round" stroke-linejoin="round" stroke-miterlimit="10" d="
	M25.184,36.68c-0.722-1.596-1.123-3.366-1.123-5.23c0-7.02,5.69-12.709,12.71-12.709c7.019,0,12.709,5.69,12.709,12.709
	c0,1.859-0.399,3.625-1.117,5.217"/>
<line fill="none" stroke="#fff" stroke-width="3" stroke-linecap="round" stroke-linejoin="round" stroke-miterlimit="10" x1="10.986" y1="36.668" x2="62.554" y2="36.668"/>
<path fill="none" stroke="#fff" stroke-width="3" stroke-linecap="round" stroke-linejoin="round" stroke-miterlimit="10" d="
	M44.207,40.834l-6.094,6.094c-0.742,0.742-1.944,0.742-2.687,0l-6.094-6.094"/>
</svg>
