<?xml version="1.0" encoding="utf-8"?>
<!-- Generator: Adobe Illustrator 16.0.0, SVG Export Plug-In . SVG Version: 6.00 Build 0)  -->
<!DOCTYPE svg PUBLIC "-//W3C//DTD SVG 1.1//EN" "http://www.w3.org/Graphics/SVG/1.1/DTD/svg11.dtd">
<svg version="1.1" id="图层_1" xmlns="http://www.w3.org/2000/svg" xmlns:xlink="http://www.w3.org/1999/xlink" x="0px" y="0px"
	 width="74px" height="57px" viewBox="0 0 74 57" enable-background="new 0 0 74 57" xml:space="preserve">
<path fill="none" stroke="#fff" stroke-width="3" stroke-linecap="round" stroke-linejoin="round" stroke-miterlimit="10" d="
	M36.146,20.725c-0.552-0.309-1.18-0.895-1.143-1.951c0.076-2.24,2.812-1.732,2.588-3.424c-0.183-1.379,2.782,3.625,1.188,5.229
	c1.692-0.49,2.515-1.84,2.388-3.951C40.955,13.045,37.773,7.5,36.908,7.5c-0.093,0-0.223,0.066-0.278,0.141
	c-0.105,0.146-0.099,0.357,0.028,0.754c0.541,1.68-0.187,2.486-1.196,3.602c-0.903,1-2.029,2.246-2.517,4.488
	c-0.268,1.238-0.106,2.24,0.484,2.973C34.103,20.291,35.212,20.611,36.146,20.725z"/>
<line fill="none" stroke="#fff" stroke-width="3" stroke-linecap="round" stroke-linejoin="round" stroke-miterlimit="10" x1="25.585" y1="49.5" x2="48.415" y2="49.5"/>
<path fill="none" stroke="#fff" stroke-width="3" stroke-linecap="round" stroke-linejoin="round" stroke-miterlimit="10" d="
	M43.132,49.5V26.031c0-1.203-0.979-2.182-2.183-2.182h-7.9c-1.201,0-2.181,0.979-2.181,2.182V49.5"/>
<line fill="none" stroke="#fff" stroke-width="3" stroke-linecap="round" stroke-linejoin="round" stroke-miterlimit="10" x1="34.471" y1="37.316" x2="34.471" y2="27.777"/>
</svg>
