<?xml version="1.0" encoding="utf-8"?>
<!-- Generator: Adobe Illustrator 16.0.0, SVG Export Plug-In . SVG Version: 6.00 Build 0)  -->
<!DOCTYPE svg PUBLIC "-//W3C//DTD SVG 1.1//EN" "http://www.w3.org/Graphics/SVG/1.1/DTD/svg11.dtd">
<svg version="1.1" id="图层_1" xmlns="http://www.w3.org/2000/svg" xmlns:xlink="http://www.w3.org/1999/xlink" x="0px" y="0px"
	 width="74px" height="57px" viewBox="0 0 74 57" enable-background="new 0 0 74 57" xml:space="preserve">
<path fill="none" stroke="#B5B4B5" stroke-width="3" stroke-linecap="round" stroke-linejoin="round" stroke-miterlimit="10" d="
	M33.325,21.621c0,0,1.116-0.084,1.726,0.15"/>
<path fill="none" stroke="#B5B4B5" stroke-width="3" stroke-linecap="round" stroke-linejoin="round" stroke-miterlimit="10" d="
	M52.163,24.734c0-5.396-4.342-9.787-9.68-9.787c-4.137,0-7.845,2.734-9.158,6.674c-4.252,0.047-7.856,3.043-8.789,7.176
	c-0.904-0.299-1.834-0.449-2.772-0.449c-4.964,0-9.159,4.355-9.159,9.508c0,5.154,4.195,9.508,9.159,9.508h19.98
	c4.964,0,9.157-4.354,9.157-9.508c0-2.17-0.775-4.178-2.01-5.799C50.97,30.195,52.163,27.557,52.163,24.734z"/>
<line fill="none" stroke="#B5B4B5" stroke-width="3" stroke-linecap="round" stroke-linejoin="round" stroke-miterlimit="10" x1="29.624" y1="13.09" x2="33.157" y2="16.662"/>
<line fill="none" stroke="#B5B4B5" stroke-width="3" stroke-linecap="round" stroke-linejoin="round" stroke-miterlimit="10" x1="42.16" y1="7.792" x2="42.16" y2="12.844"/>
<line fill="none" stroke="#B5B4B5" stroke-width="3" stroke-linecap="round" stroke-linejoin="round" stroke-miterlimit="10" x1="55.527" y1="13.09" x2="51.994" y2="16.662"/>
<line fill="none" stroke="#B5B4B5" stroke-width="3" stroke-linecap="round" stroke-linejoin="round" stroke-miterlimit="10" x1="55.48" y1="26.314" x2="60.475" y2="26.314"/>
<line fill="none" stroke="#B5B4B5" stroke-width="3" stroke-linecap="round" stroke-linejoin="round" stroke-miterlimit="10" x1="52.953" y1="33.314" x2="56.484" y2="36.887"/>
<path fill="none" stroke="#B5B4B5" stroke-width="3" stroke-linecap="round" stroke-linejoin="round" stroke-miterlimit="10" d="
	M48.892,32.057l-1.123-1.238c-1.513-1.402-3.432-2.332-5.537-2.455c-0.949-3.416-3.773-5.963-7.181-6.592"/>
</svg>
