<?xml version="1.0" encoding="utf-8"?>
<!-- Generator: Adobe Illustrator 16.0.0, SVG Export Plug-In . SVG Version: 6.00 Build 0)  -->
<!DOCTYPE svg PUBLIC "-//W3C//DTD SVG 1.1//EN" "http://www.w3.org/Graphics/SVG/1.1/DTD/svg11.dtd">
<svg version="1.1" id="图层_1" xmlns="http://www.w3.org/2000/svg" xmlns:xlink="http://www.w3.org/1999/xlink" x="0px" y="0px"
	 width="74px" height="57px" viewBox="0 0 74 57" enable-background="new 0 0 74 57" xml:space="preserve">
<path fill="none" stroke="#040000" stroke-linecap="round" stroke-linejoin="round" stroke-miterlimit="10" d="M50.946,35.728
	L50.794,35.8l-0.207,0.098c-0.777,0.369-1.607,0.557-2.469,0.557c-1.868,0-3.574-0.852-4.683-2.338l-7.413-9.871l-7.35,9.871
	c-0.939,1.248-2.311,2.061-3.864,2.283c-0.26,0.037-0.533,0.055-0.835,0.055c-0.855,0-1.683-0.188-2.46-0.557l-0.36-0.17"/>
<path fill="none" stroke="#040000" stroke-linecap="round" stroke-linejoin="round" stroke-miterlimit="10" d="M19.857,34.763
	l-0.262-0.297c-0.751-0.857-1.235-1.91-1.4-3.051c-0.213-1.545,0.185-3.09,1.123-4.346l10.073-13.405l0.01-0.011l0.037-0.052
	l2.308-3.069c0.153-0.202,0.389-0.319,0.646-0.319c0.175,0,0.341,0.055,0.482,0.159l3.176,2.392l3.18-2.395
	c0.137-0.102,0.303-0.156,0.479-0.156c0.257,0,0.493,0.117,0.648,0.32l2.328,3.097l0.023,0.023l10.074,13.416
	c0.938,1.256,1.337,2.801,1.123,4.35c-0.166,1.137-0.649,2.189-1.4,3.047l-0.261,0.297"/>
<line fill="none" stroke="#040000" stroke-linecap="round" stroke-linejoin="round" stroke-miterlimit="10" x1="19.814" y1="34.714" x2="21.238" y2="35.767"/>
<line fill="none" stroke="#040000" stroke-linecap="round" stroke-linejoin="round" stroke-miterlimit="10" x1="20.505" y1="35.245" x2="13.861" y2="44.13"/>
<line fill="none" stroke="#040000" stroke-linecap="round" stroke-linejoin="round" stroke-miterlimit="10" x1="10.369" y1="41.667" x2="17.142" y2="46.771"/>
<line fill="none" stroke="#040000" stroke-linecap="round" stroke-linejoin="round" stroke-miterlimit="10" x1="51.662" y1="35.261" x2="58.306" y2="44.146"/>
<line fill="none" stroke="#040000" stroke-linecap="round" stroke-linejoin="round" stroke-miterlimit="10" x1="61.8" y1="41.681" x2="55.026" y2="46.786"/>
<path fill="none" stroke="#040000" stroke-linecap="round" stroke-linejoin="round" stroke-miterlimit="10" d="M50.946,35.728
	c0,0,0.459-0.201,1.297-0.965"/>
<path fill="none" stroke="#fff" stroke-width="3" stroke-linecap="round" stroke-linejoin="round" stroke-miterlimit="10" d="
	M50.946,35.728L50.794,35.8l-0.207,0.098c-0.777,0.369-1.607,0.557-2.469,0.557c-1.868,0-3.574-0.852-4.683-2.338l-7.413-9.871
	l-7.35,9.871c-0.939,1.248-2.311,2.061-3.864,2.283c-0.26,0.037-0.533,0.055-0.835,0.055c-0.855,0-1.683-0.188-2.46-0.557
	l-0.36-0.17"/>
<path fill="none" stroke="#fff" stroke-width="3" stroke-linecap="round" stroke-linejoin="round" stroke-miterlimit="10" d="
	M19.857,34.763l-0.262-0.297c-0.751-0.857-1.235-1.91-1.4-3.051c-0.213-1.545,0.185-3.09,1.123-4.346l10.073-13.405l0.01-0.011
	l0.037-0.052l2.308-3.069c0.153-0.202,0.389-0.319,0.646-0.319c0.175,0,0.341,0.055,0.482,0.159l3.176,2.392l3.18-2.395
	c0.137-0.102,0.303-0.156,0.479-0.156c0.257,0,0.493,0.117,0.648,0.32l2.328,3.097l0.023,0.023l10.074,13.416
	c0.938,1.256,1.337,2.801,1.123,4.35c-0.166,1.137-0.649,2.189-1.4,3.047l-0.261,0.297"/>
<line fill="none" stroke="#fff" stroke-width="3" stroke-linecap="round" stroke-linejoin="round" stroke-miterlimit="10" x1="19.814" y1="34.714" x2="21.238" y2="35.767"/>
<line fill="none" stroke="#fff" stroke-width="3" stroke-linecap="round" stroke-linejoin="round" stroke-miterlimit="10" x1="20.505" y1="35.245" x2="13.861" y2="44.13"/>
<line fill="none" stroke="#fff" stroke-width="3" stroke-linecap="round" stroke-linejoin="round" stroke-miterlimit="10" x1="10.369" y1="41.667" x2="17.142" y2="46.771"/>
<line fill="none" stroke="#fff" stroke-width="3" stroke-linecap="round" stroke-linejoin="round" stroke-miterlimit="10" x1="51.662" y1="35.261" x2="58.306" y2="44.146"/>
<line fill="none" stroke="#fff" stroke-width="3" stroke-linecap="round" stroke-linejoin="round" stroke-miterlimit="10" x1="61.8" y1="41.681" x2="55.026" y2="46.786"/>
<path fill="none" stroke="#fff" stroke-width="3" stroke-linecap="round" stroke-linejoin="round" stroke-miterlimit="10" d="
	M50.946,35.728c0,0,0.459-0.201,1.297-0.965"/>
</svg>
