<?xml version="1.0" encoding="utf-8"?>
<!-- Generator: Adobe Illustrator 16.0.0, SVG Export Plug-In . SVG Version: 6.00 Build 0)  -->
<!DOCTYPE svg PUBLIC "-//W3C//DTD SVG 1.1//EN" "http://www.w3.org/Graphics/SVG/1.1/DTD/svg11.dtd">
<svg version="1.1" id="图层_1" xmlns="http://www.w3.org/2000/svg" xmlns:xlink="http://www.w3.org/1999/xlink" x="0px" y="0px"
	 width="110.666px" height="110px" viewBox="0 0 110.666 110" enable-background="new 0 0 110.666 110" xml:space="preserve">
<g>
	<path fill-rule="evenodd" clip-rule="evenodd" fill="none" stroke="#FFFFFF" stroke-width="4" stroke-miterlimit="10" d="
		M55.173,5.262c-27.78,0-50.312,22.533-50.312,50.312s22.531,50.311,50.312,50.311c27.787,0,50.312-22.531,50.312-50.311
		S82.96,5.262,55.173,5.262L55.173,5.262z"/>
	<path fill-rule="evenodd" clip-rule="evenodd" fill="#FFFFFF" d="M47.107,72.934c-0.369,0-0.717-0.144-0.981-0.404L30.57,56.975
		c-0.534-0.538-0.534-1.413,0-1.949c0.261-0.26,0.606-0.401,0.974-0.401c0.369,0,0.717,0.144,0.979,0.405l14.544,14.553
		l30.769-30.971c0.257-0.255,0.598-0.396,0.961-0.396c0.368,0,0.716,0.145,0.984,0.409c0.255,0.253,0.394,0.595,0.394,0.963
		s-0.141,0.712-0.398,0.968L48.335,72.19l-0.1,0.155c-0.031,0.048-0.064,0.103-0.1,0.139C47.831,72.785,47.488,72.934,47.107,72.934
		z"/>
</g>
</svg>
