<?xml version="1.0" encoding="utf-8"?>
<!-- Generator: Adobe Illustrator 16.0.0, SVG Export Plug-In . SVG Version: 6.00 Build 0)  -->
<!DOCTYPE svg PUBLIC "-//W3C//DTD SVG 1.1//EN" "http://www.w3.org/Graphics/SVG/1.1/DTD/svg11.dtd">
<svg version="1.1" id="图层_1" xmlns="http://www.w3.org/2000/svg" xmlns:xlink="http://www.w3.org/1999/xlink" x="0px" y="0px"
	 width="434.778px" height="341.714px" viewBox="0 0 434.778 341.714" enable-background="new 0 0 434.778 341.714"
	 xml:space="preserve">
<path fill="none" stroke="#FFFFFF" stroke-width="3" stroke-linecap="round" stroke-linejoin="round" stroke-miterlimit="10" d="
	M230.083,316.236c0,5.743-3.919,10.397-8.753,10.397h-69.406c-4.834,0-8.752-4.654-8.752-10.397l11.029-82.972
	c0-3.607,2.924-6.531,6.531-6.531h51.79c3.607,0,6.532,2.924,6.532,6.531L230.083,316.236z"/>
<line fill="none" stroke="#FFFFFF" stroke-width="3" stroke-linecap="round" stroke-linejoin="round" stroke-miterlimit="10" x1="219.054" y1="233.265" x2="230.083" y2="316.236"/>
<path fill="none" stroke="#FFFFFF" stroke-width="3" stroke-linecap="round" stroke-linejoin="round" stroke-miterlimit="10" d="
	M212.523,226.733c3.607,0,6.531,2.924,6.531,6.531"/>
<line fill="none" stroke="#FFFFFF" stroke-width="3" stroke-linecap="round" stroke-linejoin="round" stroke-miterlimit="10" x1="160.733" y1="226.733" x2="212.523" y2="226.733"/>
<path fill="none" stroke="#FFFFFF" stroke-width="3" stroke-linecap="round" stroke-linejoin="round" stroke-miterlimit="10" d="
	M154.202,233.265c0-3.607,2.924-6.531,6.531-6.531"/>
<line fill="none" stroke="#FFFFFF" stroke-width="3" stroke-linecap="round" stroke-linejoin="round" stroke-miterlimit="10" x1="143.172" y1="316.236" x2="154.201" y2="233.265"/>
<path fill="none" stroke="#FFFFFF" stroke-width="3" stroke-linecap="round" stroke-linejoin="round" stroke-miterlimit="10" d="
	M230.083,316.236v13.577c0,5.743-3.919,10.4-8.753,10.4h-69.406c-4.834,0-8.752-4.657-8.752-10.4v-13.577"/>
<polygon fill="none" stroke="#FFFFFF" stroke-width="3" stroke-linecap="round" stroke-linejoin="round" stroke-miterlimit="10" points="
	209.529,254.866 163.726,254.866 165.486,234.645 207.77,234.645 "/>
<line fill="none" stroke="#FFFFFF" stroke-width="3" stroke-linecap="round" stroke-linejoin="round" stroke-miterlimit="10" x1="153.31" y1="239.975" x2="165.064" y2="239.975"/>
<line fill="none" stroke="#FFFFFF" stroke-width="3" stroke-linecap="round" stroke-linejoin="round" stroke-miterlimit="10" x1="152.097" y1="249.096" x2="163.727" y2="249.096"/>
<line fill="none" stroke="#FFFFFF" stroke-width="3" stroke-linecap="round" stroke-linejoin="round" stroke-miterlimit="10" x1="209.431" y1="249.096" x2="221.186" y2="249.096"/>
<line fill="none" stroke="#FFFFFF" stroke-width="3" stroke-linecap="round" stroke-linejoin="round" stroke-miterlimit="10" x1="208.219" y1="239.975" x2="219.848" y2="239.975"/>
<path fill="#E7211A" d="M215.309,263.88c0,1.69-2.631,3.062-5.877,3.062c-3.247,0-5.878-1.371-5.878-3.062
	c0-1.691,2.631-3.062,5.878-3.062C212.677,260.818,215.309,262.188,215.309,263.88"/>
<g opacity="0.5">
	<g>
		<defs>
			<rect id="SVGID_1_" x="159.188" y="263.88" width="9.66" height="3.062"/>
		</defs>
		<clipPath id="SVGID_2_">
			<use xlink:href="#SVGID_1_"  overflow="visible"/>
		</clipPath>
		
			<rect x="159.187" y="263.879" clip-path="url(#SVGID_2_)" fill-rule="evenodd" clip-rule="evenodd" fill="#FFFFFF" width="9.659" height="3.062"/>
	</g>
</g>
<g opacity="0.5">
	<g>
		<defs>
			<rect id="SVGID_3_" x="176.968" y="263.88" width="9.66" height="3.062"/>
		</defs>
		<clipPath id="SVGID_4_">
			<use xlink:href="#SVGID_3_"  overflow="visible"/>
		</clipPath>
		
			<rect x="176.969" y="263.879" clip-path="url(#SVGID_4_)" fill-rule="evenodd" clip-rule="evenodd" fill="#FFFFFF" width="9.659" height="3.062"/>
	</g>
</g>
<g opacity="0.5">
	<g>
		<defs>
			<rect id="SVGID_5_" x="157.608" y="275.153" width="8.9" height="3.062"/>
		</defs>
		<clipPath id="SVGID_6_">
			<use xlink:href="#SVGID_5_"  overflow="visible"/>
		</clipPath>
		
			<rect x="157.608" y="275.153" clip-path="url(#SVGID_6_)" fill-rule="evenodd" clip-rule="evenodd" fill="#FFFFFF" width="8.903" height="3.062"/>
	</g>
</g>
<g opacity="0.5">
	<g>
		<defs>
			<rect id="SVGID_7_" x="173.998" y="275.153" width="8.9" height="3.062"/>
		</defs>
		<clipPath id="SVGID_8_">
			<use xlink:href="#SVGID_7_"  overflow="visible"/>
		</clipPath>
		
			<rect x="173.999" y="275.153" clip-path="url(#SVGID_8_)" fill-rule="evenodd" clip-rule="evenodd" fill="#FFFFFF" width="8.903" height="3.062"/>
	</g>
</g>
<g opacity="0.5">
	<g>
		<defs>
			<rect id="SVGID_9_" x="191.278" y="275.153" width="8.9" height="3.062"/>
		</defs>
		<clipPath id="SVGID_10_">
			<use xlink:href="#SVGID_9_"  overflow="visible"/>
		</clipPath>
		
			<rect x="191.274" y="275.153" clip-path="url(#SVGID_10_)" fill-rule="evenodd" clip-rule="evenodd" fill="#FFFFFF" width="8.902" height="3.062"/>
	</g>
</g>
<g opacity="0.5">
	<g>
		<defs>
			<rect id="SVGID_11_" x="207.667" y="275.153" width="8.9" height="3.062"/>
		</defs>
		<clipPath id="SVGID_12_">
			<use xlink:href="#SVGID_11_"  overflow="visible"/>
		</clipPath>
		
			<rect x="207.664" y="275.153" clip-path="url(#SVGID_12_)" fill-rule="evenodd" clip-rule="evenodd" fill="#FFFFFF" width="8.903" height="3.062"/>
	</g>
</g>
<g opacity="0.5">
	<g>
		<defs>
			<rect id="SVGID_13_" x="156.488" y="287.76" width="9.24" height="3.062"/>
		</defs>
		<clipPath id="SVGID_14_">
			<use xlink:href="#SVGID_13_"  overflow="visible"/>
		</clipPath>
		
			<rect x="156.487" y="287.759" clip-path="url(#SVGID_14_)" fill-rule="evenodd" clip-rule="evenodd" fill="#FFFFFF" width="9.242" height="3.062"/>
	</g>
</g>
<g opacity="0.5">
	<g>
		<defs>
			<rect id="SVGID_15_" x="173.498" y="287.76" width="9.24" height="3.062"/>
		</defs>
		<clipPath id="SVGID_16_">
			<use xlink:href="#SVGID_15_"  overflow="visible"/>
		</clipPath>
		
			<rect x="173.5" y="287.759" clip-path="url(#SVGID_16_)" fill-rule="evenodd" clip-rule="evenodd" fill="#FFFFFF" width="9.242" height="3.062"/>
	</g>
</g>
<g opacity="0.5">
	<g>
		<defs>
			<rect id="SVGID_17_" x="191.438" y="287.76" width="9.24" height="3.062"/>
		</defs>
		<clipPath id="SVGID_18_">
			<use xlink:href="#SVGID_17_"  overflow="visible"/>
		</clipPath>
		
			<rect x="191.433" y="287.759" clip-path="url(#SVGID_18_)" fill-rule="evenodd" clip-rule="evenodd" fill="#FFFFFF" width="9.241" height="3.062"/>
	</g>
</g>
<g opacity="0.5">
	<g>
		<defs>
			<rect id="SVGID_19_" x="208.448" y="287.76" width="9.24" height="3.062"/>
		</defs>
		<clipPath id="SVGID_20_">
			<use xlink:href="#SVGID_19_"  overflow="visible"/>
		</clipPath>
		
			<rect x="208.448" y="287.759" clip-path="url(#SVGID_20_)" fill-rule="evenodd" clip-rule="evenodd" fill="#FFFFFF" width="9.242" height="3.062"/>
	</g>
</g>
<g opacity="0.5">
	<g>
		<defs>
			<rect id="SVGID_21_" x="155.108" y="300.366" width="9.66" height="3.061"/>
		</defs>
		<clipPath id="SVGID_22_">
			<use xlink:href="#SVGID_21_"  overflow="visible"/>
		</clipPath>
		
			<rect x="155.105" y="300.366" clip-path="url(#SVGID_22_)" fill-rule="evenodd" clip-rule="evenodd" fill="#FFFFFF" width="9.659" height="3.062"/>
	</g>
</g>
<g opacity="0.5">
	<g>
		<defs>
			<rect id="SVGID_23_" x="172.888" y="300.366" width="9.66" height="3.061"/>
		</defs>
		<clipPath id="SVGID_24_">
			<use xlink:href="#SVGID_23_"  overflow="visible"/>
		</clipPath>
		
			<rect x="172.887" y="300.366" clip-path="url(#SVGID_24_)" fill-rule="evenodd" clip-rule="evenodd" fill="#FFFFFF" width="9.659" height="3.062"/>
	</g>
</g>
<g opacity="0.5">
	<g>
		<defs>
			<rect id="SVGID_25_" x="191.628" y="300.366" width="9.66" height="3.061"/>
		</defs>
		<clipPath id="SVGID_26_">
			<use xlink:href="#SVGID_25_"  overflow="visible"/>
		</clipPath>
		
			<rect x="191.629" y="300.366" clip-path="url(#SVGID_26_)" fill-rule="evenodd" clip-rule="evenodd" fill="#FFFFFF" width="9.659" height="3.062"/>
	</g>
</g>
<g opacity="0.5">
	<g>
		<defs>
			<rect id="SVGID_27_" x="209.408" y="300.366" width="9.66" height="3.061"/>
		</defs>
		<clipPath id="SVGID_28_">
			<use xlink:href="#SVGID_27_"  overflow="visible"/>
		</clipPath>
		
			<rect x="209.411" y="300.366" clip-path="url(#SVGID_28_)" fill-rule="evenodd" clip-rule="evenodd" fill="#FFFFFF" width="9.659" height="3.062"/>
	</g>
</g>
<g opacity="0.1">
	<g>
		<defs>
			<rect id="SVGID_29_" x="0.498" y="0.499" width="372.26" height="141.598"/>
		</defs>
		<clipPath id="SVGID_30_">
			<use xlink:href="#SVGID_29_"  overflow="visible"/>
		</clipPath>
		<path clip-path="url(#SVGID_30_)" fill="none" stroke="#A3A3A3" stroke-width="2" stroke-miterlimit="10" d="M371.755,134.565
			c0,3.606-2.924,6.531-6.531,6.531H8.031c-3.607,0-6.531-2.925-6.531-6.531V8.03c0-3.606,2.924-6.53,6.531-6.53h357.193
			c3.607,0,6.531,2.924,6.531,6.53V134.565z"/>
	</g>
</g>
<path fill="none" stroke="#FFFFFF" stroke-width="3" stroke-linecap="round" stroke-linejoin="round" stroke-miterlimit="10" d="
	M371.755,134.565c0,3.606-2.924,6.531-6.531,6.531H8.031c-3.607,0-6.531-2.925-6.531-6.531V8.03c0-3.606,2.924-6.53,6.531-6.53
	h357.193c3.607,0,6.531,2.924,6.531,6.53V134.565z"/>
<g opacity="0.1">
	<g>
		<defs>
			<rect id="SVGID_31_" x="39.088" y="102.811" width="295.08" height="37.123"/>
		</defs>
		<clipPath id="SVGID_32_">
			<use xlink:href="#SVGID_31_"  overflow="visible"/>
		</clipPath>
		<path clip-path="url(#SVGID_32_)" fill-rule="evenodd" clip-rule="evenodd" fill="#F7F9F9" d="M39.089,139.935v-30.791
			c0-3.498,2.924-6.333,6.531-6.333h282.014c3.607,0,6.532,2.835,6.532,6.333v30.791"/>
	</g>
</g>
<path fill="none" stroke="#FFFFFF" stroke-width="3" stroke-linecap="round" stroke-linejoin="round" stroke-miterlimit="10" d="
	M39.089,141.097v-31.755c0-3.607,2.924-6.531,6.531-6.531h282.014c3.607,0,6.532,2.924,6.532,6.531v31.755"/>
<rect x="121.544" y="74.883" fill="none" stroke="#FFFFFF" stroke-width="3" stroke-linecap="round" stroke-linejoin="round" stroke-miterlimit="10" width="130.165" height="21.228"/>
<path fill="#E7211A" d="M361.924,121.953c0,4.96-4.021,8.979-8.98,8.979c-4.96,0-8.981-4.019-8.981-8.979
	c0-4.959,4.021-8.98,8.981-8.98C357.903,112.973,361.924,116.994,361.924,121.953"/>
<polyline fill="none" stroke="#FFFFFF" stroke-width="3" stroke-linecap="round" stroke-linejoin="round" stroke-miterlimit="10" points="
	340.697,141.097 340.697,190.812 393.08,190.812 393.08,165.954 "/>
<path fill="none" stroke="#7F7A78" stroke-linecap="round" stroke-linejoin="round" stroke-miterlimit="10" d="M411.45,142.193
	c0-3.605-2.924-6.531-6.531-6.531h-13.063c-3.606,0-6.531,2.926-6.531,6.531v17.229c0,3.608,2.925,6.532,6.531,6.532h13.063
	c3.607,0,6.531-2.924,6.531-6.532V142.193z"/>
<path fill="none" stroke="#FFFFFF" stroke-width="3" stroke-linecap="round" stroke-linejoin="round" stroke-miterlimit="10" d="
	M411.45,142.193c0-3.605-2.924-6.531-6.531-6.531h-13.063c-3.606,0-6.531,2.926-6.531,6.531v17.229c0,3.608,2.925,6.532,6.531,6.532
	h13.063c3.607,0,6.531-2.924,6.531-6.532V142.193z"/>
<line fill="none" stroke="#FFFFFF" stroke-width="3" stroke-linecap="round" stroke-linejoin="round" stroke-miterlimit="10" x1="1.5" y1="15.015" x2="371.755" y2="15.015"/>
<line fill="none" stroke="#FFFFFF" stroke-width="3" stroke-linecap="round" stroke-linejoin="round" stroke-miterlimit="10" x1="1.5" y1="28.076" x2="371.755" y2="28.076"/>
<polyline fill="none" stroke="#FFFFFF" stroke-width="3" stroke-miterlimit="10" points="402.261,165.954 402.261,212.205 
	433.278,212.205 433.278,121.205 388.278,121.205 "/>
<rect x="382.559" y="118.272" fill="none" stroke="#E7211A" stroke-linecap="round" stroke-linejoin="round" stroke-miterlimit="10" width="5.825" height="5.12"/>
<path fill="none" stroke="#E7211A" stroke-linecap="round" stroke-linejoin="round" stroke-miterlimit="10" d="M382.559,122.307
	c-0.814,0-1.474-0.659-1.474-1.474s0.66-1.474,1.474-1.474"/>
</svg>
