<?xml version="1.0" encoding="utf-8"?>
<!-- Generator: Adobe Illustrator 16.0.0, SVG Export Plug-In . SVG Version: 6.00 Build 0)  -->
<!DOCTYPE svg PUBLIC "-//W3C//DTD SVG 1.1//EN" "http://www.w3.org/Graphics/SVG/1.1/DTD/svg11.dtd">
<svg version="1.1" id="图层_1" xmlns="http://www.w3.org/2000/svg" xmlns:xlink="http://www.w3.org/1999/xlink" x="0px" y="0px"
	 width="567.625px" height="180.833px" viewBox="0 0 567.625 180.833" enable-background="new 0 0 567.625 180.833"
	 xml:space="preserve">
<g opacity="0.1">
	<g>
		<defs>
			<rect id="SVGID_1_" x="240.253" y="47.496" width="6.78" height="41.167"/>
		</defs>
		<clipPath id="SVGID_2_">
			<use xlink:href="#SVGID_1_"  overflow="visible"/>
		</clipPath>
		<path clip-path="url(#SVGID_2_)" fill="#F6F6F6" d="M243.643,47.996c-1.673,0-2.891,3.285-2.891,3.285V68.08v16.797
			c0,0,1.218,3.286,2.891,3.286c1.672,0,2.894-3.365,2.894-3.365V68.08V51.359C246.537,51.359,245.315,47.996,243.643,47.996"/>
		<path clip-path="url(#SVGID_2_)" fill="none" stroke="#FDFEFE" stroke-miterlimit="10" d="M243.643,47.996
			c-1.673,0-2.891,3.285-2.891,3.285V68.08v16.797c0,0,1.218,3.286,2.891,3.286c1.672,0,2.894-3.365,2.894-3.365V68.08V51.359
			C246.537,51.359,245.315,47.996,243.643,47.996z"/>
	</g>
</g>
<path fill="#F6F6F6" d="M288.047,48.13c-1.674,0-2.892,3.287-2.892,3.287v16.796v16.796c0,0,1.218,3.288,2.892,3.288
	c1.672,0,2.892-3.362,2.892-3.362V68.213V51.493C290.939,51.493,289.719,48.13,288.047,48.13"/>
<path fill="none" stroke="#FFFEFE" stroke-miterlimit="10" d="M288.047,48.13c-1.674,0-2.892,3.287-2.892,3.287v16.796v16.796
	c0,0,1.218,3.288,2.892,3.288c1.672,0,2.892-3.362,2.892-3.362V68.213V51.493C290.939,51.493,289.719,48.13,288.047,48.13z"/>
<path fill="#F6F6F6" d="M246.401,45.239c0,1.674,3.287,2.892,3.287,2.892h16.797h16.797c0,0,3.287-1.218,3.287-2.892
	c0-1.672-3.363-2.892-3.363-2.892h-16.721h-16.721C249.764,42.347,246.401,43.567,246.401,45.239"/>
<path fill="none" stroke="#FFFEFE" stroke-miterlimit="10" d="M246.401,45.239c0,1.674,3.287,2.892,3.287,2.892h16.797h16.797
	c0,0,3.287-1.218,3.287-2.892c0-1.672-3.363-2.892-3.363-2.892h-16.721h-16.721C249.764,42.347,246.401,43.567,246.401,45.239z"/>
<path fill="#F6F6F6" d="M243.509,132.519c-1.673,0-2.892-3.284-2.892-3.284v-16.798V95.641c0,0,1.219-3.288,2.892-3.288
	c1.671,0,2.892,3.364,2.892,3.364v16.72v16.721C246.401,129.158,245.18,132.519,243.509,132.519"/>
<path fill="none" stroke="#FFFEFE" stroke-miterlimit="10" d="M243.509,132.519c-1.673,0-2.892-3.284-2.892-3.284v-16.798V95.641
	c0,0,1.219-3.288,2.892-3.288c1.671,0,2.892,3.364,2.892,3.364v16.72v16.721C246.401,129.158,245.18,132.519,243.509,132.519z"/>
<g opacity="0.1">
	<g>
		<defs>
			<rect id="SVGID_3_" x="284.793" y="91.718" width="6.78" height="41.165"/>
		</defs>
		<clipPath id="SVGID_4_">
			<use xlink:href="#SVGID_3_"  overflow="visible"/>
		</clipPath>
		<path clip-path="url(#SVGID_4_)" fill="#F6F6F6" d="M288.182,132.383c-1.674,0-2.893-3.285-2.893-3.285V112.3V95.504
			c0,0,1.219-3.286,2.893-3.286c1.672,0,2.891,3.363,2.891,3.363V112.3v16.721C291.073,129.021,289.854,132.383,288.182,132.383"/>
		<path clip-path="url(#SVGID_4_)" fill="none" stroke="#FDFEFE" stroke-miterlimit="10" d="M288.182,132.383
			c-1.674,0-2.893-3.285-2.893-3.285V112.3V95.504c0,0,1.219-3.286,2.893-3.286c1.672,0,2.891,3.363,2.891,3.363V112.3v16.721
			C291.073,129.021,289.854,132.383,288.182,132.383z"/>
	</g>
</g>
<path fill="#F6F6F6" d="M246.537,135.275c0-1.672,3.284-2.892,3.284-2.892h16.799h16.796c0,0,3.287,1.22,3.287,2.892
	c0,1.674-3.363,2.895-3.363,2.895h-16.72h-16.722C249.897,138.169,246.537,136.949,246.537,135.275"/>
<path fill="none" stroke="#FFFEFE" stroke-miterlimit="10" d="M246.537,135.275c0-1.672,3.284-2.892,3.284-2.892h16.799h16.796
	c0,0,3.287,1.22,3.287,2.892c0,1.674-3.363,2.895-3.363,2.895h-16.72h-16.722C249.897,138.169,246.537,136.949,246.537,135.275z"/>
<path fill="#F6F6F6" d="M245.612,90.514c0,1.671,3.286,2.89,3.286,2.89h16.798h16.797c0,0,3.286-1.219,3.286-2.89
	c0-1.673-3.361-2.893-3.361-2.893h-16.722h-16.722C248.974,87.622,245.612,88.841,245.612,90.514"/>
<path fill="none" stroke="#FFFEFE" stroke-miterlimit="10" d="M245.612,90.514c0,1.671,3.286,2.89,3.286,2.89h16.798h16.797
	c0,0,3.286-1.219,3.286-2.89c0-1.673-3.361-2.893-3.361-2.893h-16.722h-16.722C248.974,87.622,245.612,88.841,245.612,90.514z"/>
<path fill="#F6F6F6" d="M307.897,47.996c-1.672,0-2.889,3.285-2.889,3.285V68.08v16.797c0,0,1.217,3.286,2.889,3.286
	c1.673,0,2.893-3.365,2.893-3.365V68.08V51.359C310.79,51.359,309.57,47.996,307.897,47.996"/>
<path fill="none" stroke="#FFFEFE" stroke-miterlimit="10" d="M307.897,47.996c-1.672,0-2.889,3.285-2.889,3.285V68.08v16.797
	c0,0,1.217,3.286,2.889,3.286c1.673,0,2.893-3.365,2.893-3.365V68.08V51.359C310.79,51.359,309.57,47.996,307.897,47.996z"/>
<g opacity="0.1">
	<g>
		<defs>
			<rect id="SVGID_5_" x="349.043" y="47.496" width="6.79" height="41.167"/>
		</defs>
		<clipPath id="SVGID_6_">
			<use xlink:href="#SVGID_5_"  overflow="visible"/>
		</clipPath>
		<path clip-path="url(#SVGID_6_)" fill="#F6F6F6" d="M352.438,47.996c-1.674,0-2.893,3.285-2.893,3.285V68.08v16.797
			c0,0,1.219,3.286,2.893,3.286c1.67,0,2.891-3.365,2.891-3.365V68.08V51.359C355.329,51.359,354.108,47.996,352.438,47.996"/>
		<path clip-path="url(#SVGID_6_)" fill="none" stroke="#FDFEFE" stroke-miterlimit="10" d="M352.438,47.996
			c-1.674,0-2.893,3.285-2.893,3.285V68.08v16.797c0,0,1.219,3.286,2.893,3.286c1.67,0,2.891-3.365,2.891-3.365V68.08V51.359
			C355.329,51.359,354.108,47.996,352.438,47.996z"/>
	</g>
</g>
<path fill="#F6F6F6" d="M310.79,45.107c0,1.67,3.285,2.889,3.285,2.889h16.799h16.798c0,0,3.286-1.219,3.286-2.889
	c0-1.675-3.363-2.895-3.363-2.895h-16.721h-16.719C314.155,42.212,310.79,43.432,310.79,45.107"/>
<path fill="none" stroke="#FFFEFE" stroke-miterlimit="10" d="M310.79,45.107c0,1.67,3.285,2.889,3.285,2.889h16.799h16.798
	c0,0,3.286-1.219,3.286-2.889c0-1.675-3.363-2.895-3.363-2.895h-16.721h-16.719C314.155,42.212,310.79,43.432,310.79,45.107z"/>
<path fill="#F6F6F6" d="M307.897,132.383c-1.672,0-2.889-3.285-2.889-3.285V112.3V95.504c0,0,1.217-3.286,2.889-3.286
	c1.673,0,2.893,3.363,2.893,3.363V112.3v16.721C310.79,129.021,309.57,132.383,307.897,132.383"/>
<path fill="none" stroke="#FFFEFE" stroke-miterlimit="10" d="M307.897,132.383c-1.672,0-2.889-3.285-2.889-3.285V112.3V95.504
	c0,0,1.217-3.286,2.889-3.286c1.673,0,2.893,3.363,2.893,3.363V112.3v16.721C310.79,129.021,309.57,132.383,307.897,132.383z"/>
<path fill="#F6F6F6" d="M352.438,132.383c-1.674,0-2.893-3.285-2.893-3.285V112.3V95.504c0,0,1.219-3.286,2.893-3.286
	c1.67,0,2.891,3.363,2.891,3.363V112.3v16.721C355.329,129.021,354.108,132.383,352.438,132.383"/>
<path fill="none" stroke="#FFFEFE" stroke-miterlimit="10" d="M352.438,132.383c-1.674,0-2.893-3.285-2.893-3.285V112.3V95.504
	c0,0,1.219-3.286,2.893-3.286c1.67,0,2.891,3.363,2.891,3.363V112.3v16.721C355.329,129.021,354.108,132.383,352.438,132.383z"/>
<path fill="#F6F6F6" d="M310.79,135.275c0-1.672,3.285-2.892,3.285-2.892h16.799h16.798c0,0,3.286,1.22,3.286,2.892
	c0,1.674-3.363,2.895-3.363,2.895h-16.721h-16.719C314.155,138.169,310.79,136.949,310.79,135.275"/>
<path fill="none" stroke="#FFFEFE" stroke-miterlimit="10" d="M310.79,135.275c0-1.672,3.285-2.892,3.285-2.892h16.799h16.798
	c0,0,3.286,1.22,3.286,2.892c0,1.674-3.363,2.895-3.363,2.895h-16.721h-16.719C314.155,138.169,310.79,136.949,310.79,135.275z"/>
<path fill="#F6F6F6" d="M310.002,90.379c0,1.673,3.285,2.89,3.285,2.89h16.799h16.795c0,0,3.289-1.217,3.289-2.89
	c0-1.674-3.363-2.894-3.363-2.894h-16.721h-16.722C313.364,87.486,310.002,88.706,310.002,90.379"/>
<polyline fill="none" stroke="#FFFFFF" stroke-width="1.708" stroke-miterlimit="10" points="378.938,60.755 369.927,60.755 
	369.927,51.747 378.938,51.747 "/>
<rect x="364.14" y="43.792" fill="none" stroke="#FFFFFF" stroke-width="1.708" stroke-miterlimit="10" width="3.688" height="3.686"/>
<polygon fill="#FFFFFF" points="512.157,69.753 502.555,71.811 493.075,66.667 502.647,61.471 512.249,63.53 512.729,61.314 
	505.715,59.814 511.761,56.52 510.677,54.53 504.375,57.95 506.46,51.176 504.29,50.51 501.526,59.496 491.436,64.979 
	491.436,54.247 498.337,47.5 496.751,45.876 491.436,51.082 491.436,44.167 489.167,44.167 489.167,51.006 484.128,45.893 
	482.512,47.482 489.167,54.239 489.167,64.547 479.458,59.275 476.567,50.482 474.413,51.187 476.557,57.702 470.315,54.314 
	469.233,56.301 475.36,59.632 468.122,61.314 468.639,63.517 478.36,61.261 488.317,66.667 478.452,72.025 468.733,69.763 
	468.218,71.97 475.45,73.651 469.23,77.033 470.309,79.019 476.651,75.585 474.512,82.094 476.663,82.801 479.553,74.004 
	489.167,68.781 489.167,79.206 482.512,85.954 484.128,87.547 489.167,82.436 489.167,89.167 491.436,89.167 491.436,82.362 
	496.751,87.555 498.337,85.941 491.436,79.192 491.436,68.36 501.43,73.783 504.199,82.777 506.368,82.114 504.279,75.327 
	510.682,78.804 511.761,76.817 505.617,73.479 512.63,71.97 "/>
<text transform="matrix(1 0 0 1 468.3604 138.0845)" fill="#FFFFFF" font-family="'MicrosoftYaHei'" font-size="20">Cool</text>
<text transform="matrix(1 0 0 1 55.9604 138.0845)" fill="#FFFFFF" font-family="'MicrosoftYaHei'" font-size="20">Low Wind</text>
<path fill="none" stroke="#FFFFFF" stroke-width="3.17" stroke-linecap="round" stroke-miterlimit="10" d="M102.088,65.809
	c0,0-2.749-21.594,21.596-21.594"/>
<path fill="none" stroke="#FFFFFF" stroke-width="3.17" stroke-linecap="round" stroke-miterlimit="10" d="M103.739,65.898
	c0,0,21.596-2.749,21.596,21.594"/>
<path fill="none" stroke="#FFFFFF" stroke-width="3.17" stroke-linecap="round" stroke-miterlimit="10" d="M103.647,67.57
	c0,0,2.75,21.598-21.592,21.598"/>
<path fill="none" stroke="#FFFFFF" stroke-width="3.17" stroke-linecap="round" stroke-miterlimit="10" d="M103.694,65.76
	c0,0-21.596,2.752-21.596-21.593"/>
<rect x="1.674" y="1.627" fill="none" stroke="#FFFFFF" stroke-width="3" stroke-linecap="round" stroke-linejoin="round" stroke-miterlimit="10" width="565.335" height="177.081"/>
</svg>
