<?xml version="1.0" encoding="utf-8"?>
<!-- Generator: Adobe Illustrator 16.0.0, SVG Export Plug-In . SVG Version: 6.00 Build 0)  -->
<!DOCTYPE svg PUBLIC "-//W3C//DTD SVG 1.1//EN" "http://www.w3.org/Graphics/SVG/1.1/DTD/svg11.dtd">
<svg version="1.1" id="图层_1" xmlns="http://www.w3.org/2000/svg" xmlns:xlink="http://www.w3.org/1999/xlink" x="0px" y="0px"
	 width="201.333px" height="201.333px" viewBox="0 0 201.333 201.333" enable-background="new 0 0 201.333 201.333"
	 xml:space="preserve">
<g opacity="0.05">
	<g>
		<defs>
			<rect id="SVGID_1_" x="0.817" y="0.764" width="199.85" height="199.853"/>
		</defs>
		<clipPath id="SVGID_2_">
			<use xlink:href="#SVGID_1_"  overflow="visible"/>
		</clipPath>
		<path clip-path="url(#SVGID_2_)" fill="#B3B2B3" d="M200.67,100.691c0,55.188-44.738,99.925-99.926,99.925
			S0.817,155.878,0.817,100.691s44.74-99.927,99.928-99.927S200.67,45.503,200.67,100.691"/>
	</g>
</g>
<path fill-rule="evenodd" clip-rule="evenodd" fill="#B3B2B3" d="M100.745,50.731c-27.592,0-49.959,22.368-49.959,49.96
	c0,27.59,22.367,49.958,49.959,49.958c27.591,0,49.957-22.367,49.957-49.958C150.702,73.099,128.335,50.731,100.745,50.731"/>
<path fill-rule="evenodd" clip-rule="evenodd" fill="#FFFFFF" d="M78.128,80.946l3.649-3.65c0.945-0.945,2.477-0.945,3.422,0
	l39.004,39.005c0.945,0.945,0.945,2.477,0,3.421l-3.649,3.65c-0.944,0.945-2.476,0.945-3.421,0L78.128,84.367
	C77.183,83.421,77.183,81.89,78.128,80.946"/>
<path fill-rule="evenodd" clip-rule="evenodd" fill="#FFFFFF" d="M81.779,123.372l-3.65-3.65c-0.946-0.944-0.946-2.476,0-3.421
	l39.004-39.005c0.946-0.944,2.478-0.944,3.421,0l3.651,3.65c0.944,0.944,0.944,2.476,0,3.421L85.2,123.372
	C84.254,124.317,82.723,124.317,81.779,123.372"/>
</svg>
