<?xml version="1.0" encoding="utf-8"?>
<!-- Generator: Adobe Illustrator 16.0.0, SVG Export Plug-In . SVG Version: 6.00 Build 0)  -->
<!DOCTYPE svg PUBLIC "-//W3C//DTD SVG 1.1//EN" "http://www.w3.org/Graphics/SVG/1.1/DTD/svg11.dtd">
<svg version="1.1" id="图层_1" xmlns="http://www.w3.org/2000/svg" xmlns:xlink="http://www.w3.org/1999/xlink" x="0px" y="0px"
	 width="636px" height="240px" viewBox="0 0 636 240" enable-background="new 0 0 636 240" xml:space="preserve">
<path fill="none" stroke="#B2B2B2" stroke-width="3" stroke-linecap="round" stroke-linejoin="round" stroke-miterlimit="10" d="
	M398.762,227.444c0,5.093-4.129,9.222-9.222,9.222H14.962c-5.093,0-9.222-4.129-9.222-9.222V13.682c0-5.092,4.129-9.221,9.222-9.221
	H389.54c5.093,0,9.222,4.129,9.222,9.221V227.444z"/>
<g opacity="0.05">
	<g>
		<defs>
			<rect id="SVGID_1_" x="250.697" y="38.506" width="113.939" height="163.36"/>
		</defs>
		<clipPath id="SVGID_2_">
			<use xlink:href="#SVGID_1_"  overflow="visible"/>
		</clipPath>
		<polyline clip-path="url(#SVGID_2_)" fill="#7F7A78" points="250.694,38.503 364.638,38.503 364.638,201.869 250.694,201.869 		
			"/>
	</g>
</g>
<path fill="none" stroke="#FFFFFF" stroke-width="3" stroke-linecap="round" stroke-linejoin="round" stroke-miterlimit="10" d="
	M398.762,227.444c0,5.093-4.129,9.222-9.222,9.222H14.962c-5.093,0-9.222-4.129-9.222-9.222V13.682c0-5.092,4.129-9.221,9.222-9.221
	H389.54c5.093,0,9.222,4.129,9.222,9.221V227.444z"/>
<rect x="250.696" y="38.88" fill="none" stroke="#FFFFFF" stroke-width="3" stroke-linecap="round" stroke-linejoin="round" stroke-miterlimit="10" width="113.943" height="163.366"/>
<path fill="#E7211A" d="M398.762,130.298h2.259c5.093,0,9.222-4.13,9.222-9.222v-1.025c0-5.095-4.129-9.223-9.222-9.223h-2.259"/>
<line fill="none" stroke="#FFFFFF" stroke-width="3" stroke-linecap="round" stroke-linejoin="round" stroke-miterlimit="10" x1="279.182" y1="4.46" x2="279.182" y2="38.88"/>
<line fill="none" stroke="#FFFFFF" stroke-width="3" stroke-linecap="round" stroke-linejoin="round" stroke-miterlimit="10" x1="250.696" y1="4.46" x2="250.696" y2="38.88"/>
<line fill="none" stroke="#FFFFFF" stroke-width="3" stroke-linecap="round" stroke-linejoin="round" stroke-miterlimit="10" x1="307.667" y1="4.46" x2="307.667" y2="38.88"/>
<line fill="none" stroke="#FFFFFF" stroke-width="3" stroke-linecap="round" stroke-linejoin="round" stroke-miterlimit="10" x1="336.153" y1="4.46" x2="336.153" y2="38.88"/>
<line fill="none" stroke="#FFFFFF" stroke-width="3" stroke-linecap="round" stroke-linejoin="round" stroke-miterlimit="10" x1="364.639" y1="4.46" x2="364.639" y2="38.88"/>
<line fill="none" stroke="#FFFFFF" stroke-width="3" stroke-linecap="round" stroke-linejoin="round" stroke-miterlimit="10" x1="279.182" y1="201.493" x2="279.182" y2="235.913"/>
<line fill="none" stroke="#FFFFFF" stroke-width="3" stroke-linecap="round" stroke-linejoin="round" stroke-miterlimit="10" x1="250.696" y1="201.493" x2="250.696" y2="235.913"/>
<line fill="none" stroke="#FFFFFF" stroke-width="3" stroke-linecap="round" stroke-linejoin="round" stroke-miterlimit="10" x1="307.667" y1="201.493" x2="307.667" y2="235.913"/>
<line fill="none" stroke="#FFFFFF" stroke-width="3" stroke-linecap="round" stroke-linejoin="round" stroke-miterlimit="10" x1="336.153" y1="201.493" x2="336.153" y2="235.913"/>
<line fill="none" stroke="#FFFFFF" stroke-width="3" stroke-linecap="round" stroke-linejoin="round" stroke-miterlimit="10" x1="364.639" y1="201.493" x2="364.639" y2="235.913"/>
<g opacity="0.5">
	<g>
		<defs>
			<rect id="SVGID_3_" x="196.457" y="38.876" width="28.36" height="62.25"/>
		</defs>
		<clipPath id="SVGID_4_">
			<use xlink:href="#SVGID_3_"  overflow="visible"/>
		</clipPath>
		<path clip-path="url(#SVGID_4_)" fill-rule="evenodd" clip-rule="evenodd" fill="#FFFFFF" d="M196.453,38.88
			c15.667,0,28.368,13.935,28.368,31.124s-12.701,31.123-28.368,31.123"/>
	</g>
</g>
<g opacity="0.5">
	<g>
		<defs>
			<rect id="SVGID_5_" x="155.617" y="38.876" width="28.37" height="62.25"/>
		</defs>
		<clipPath id="SVGID_6_">
			<use xlink:href="#SVGID_5_"  overflow="visible"/>
		</clipPath>
		<path clip-path="url(#SVGID_6_)" fill-rule="evenodd" clip-rule="evenodd" fill="#FFFFFF" d="M183.982,101.127
			c-15.667,0-28.367-13.934-28.367-31.123s12.7-31.124,28.367-31.124"/>
	</g>
</g>
<g opacity="0.5">
	<g>
		<defs>
			<rect id="SVGID_7_" x="101.407" y="165.157" width="17.29" height="36.34"/>
		</defs>
		<clipPath id="SVGID_8_">
			<use xlink:href="#SVGID_7_"  overflow="visible"/>
		</clipPath>
		
			<rect x="101.403" y="165.161" clip-path="url(#SVGID_8_)" fill-rule="evenodd" clip-rule="evenodd" fill="#FFFFFF" width="17.291" height="36.332"/>
	</g>
</g>
<g opacity="0.5">
	<g>
		<defs>
			<rect id="SVGID_9_" x="101.407" y="38.876" width="17.29" height="36.34"/>
		</defs>
		<clipPath id="SVGID_10_">
			<use xlink:href="#SVGID_9_"  overflow="visible"/>
		</clipPath>
		
			<rect x="101.403" y="38.88" clip-path="url(#SVGID_10_)" fill-rule="evenodd" clip-rule="evenodd" fill="#FFFFFF" width="17.291" height="36.333"/>
	</g>
</g>
<g opacity="0.5">
	<g>
		<defs>
			<rect id="SVGID_11_" x="101.407" y="102.016" width="17.29" height="36.34"/>
		</defs>
		<clipPath id="SVGID_12_">
			<use xlink:href="#SVGID_11_"  overflow="visible"/>
		</clipPath>
		
			<rect x="101.403" y="102.02" clip-path="url(#SVGID_12_)" fill-rule="evenodd" clip-rule="evenodd" fill="#FFFFFF" width="17.291" height="36.334"/>
	</g>
</g>
<g opacity="0.5">
	<g>
		<defs>
			<rect id="SVGID_13_" x="51.836" y="165.157" width="17.29" height="36.34"/>
		</defs>
		<clipPath id="SVGID_14_">
			<use xlink:href="#SVGID_13_"  overflow="visible"/>
		</clipPath>
		
			<rect x="51.834" y="165.161" clip-path="url(#SVGID_14_)" fill-rule="evenodd" clip-rule="evenodd" fill="#FFFFFF" width="17.291" height="36.332"/>
	</g>
</g>
<g opacity="0.5">
	<g>
		<defs>
			<rect id="SVGID_15_" x="51.836" y="38.876" width="17.29" height="36.34"/>
		</defs>
		<clipPath id="SVGID_16_">
			<use xlink:href="#SVGID_15_"  overflow="visible"/>
		</clipPath>
		
			<rect x="51.834" y="38.88" clip-path="url(#SVGID_16_)" fill-rule="evenodd" clip-rule="evenodd" fill="#FFFFFF" width="17.291" height="36.333"/>
	</g>
</g>
<g opacity="0.5">
	<g>
		<defs>
			<rect id="SVGID_17_" x="51.836" y="102.016" width="17.29" height="36.34"/>
		</defs>
		<clipPath id="SVGID_18_">
			<use xlink:href="#SVGID_17_"  overflow="visible"/>
		</clipPath>
		
			<rect x="51.834" y="102.02" clip-path="url(#SVGID_18_)" fill-rule="evenodd" clip-rule="evenodd" fill="#FFFFFF" width="17.291" height="36.334"/>
	</g>
</g>
<g opacity="0.6">
	<g>
		<defs>
			<rect id="SVGID_19_" x="203.146" y="69.506" width="14.98" height="1"/>
		</defs>
		<clipPath id="SVGID_20_">
			<use xlink:href="#SVGID_19_"  overflow="visible"/>
		</clipPath>
		
			<line clip-path="url(#SVGID_20_)" fill="none" stroke="#FFFFFF" stroke-miterlimit="10" x1="203.144" y1="70.004" x2="218.13" y2="70.004"/>
	</g>
</g>
<g opacity="0.6">
	<g>
		<defs>
			<rect id="SVGID_21_" x="169.296" y="62.506" width="1" height="14.99"/>
		</defs>
		<clipPath id="SVGID_22_">
			<use xlink:href="#SVGID_21_"  overflow="visible"/>
		</clipPath>
		
			<line clip-path="url(#SVGID_22_)" fill="none" stroke="#FFFFFF" stroke-miterlimit="10" x1="169.798" y1="62.51" x2="169.798" y2="77.498"/>
	</g>
</g>
<g opacity="0.6">
	<g>
		<defs>
			<rect id="SVGID_23_" x="210.136" y="62.506" width="1" height="14.99"/>
		</defs>
		<clipPath id="SVGID_24_">
			<use xlink:href="#SVGID_23_"  overflow="visible"/>
		</clipPath>
		
			<line clip-path="url(#SVGID_24_)" fill="none" stroke="#FFFFFF" stroke-miterlimit="10" x1="210.637" y1="77.498" x2="210.637" y2="62.51"/>
	</g>
</g>
<path fill="#E7211A" d="M208.391,179.175c0,10.287-8.338,18.625-18.625,18.625c-10.287,0-18.625-8.338-18.625-18.625
	c0-10.286,8.338-18.625,18.625-18.625C200.052,160.55,208.391,168.889,208.391,179.175"/>
<path fill="none" stroke="#FFFFFF" stroke-width="3" stroke-linecap="round" stroke-linejoin="round" stroke-miterlimit="10" d="
	M561.092,147.103c0,5.094-4.129,9.222-9.222,9.222h-72.622c-5.093,0-9.221-4.128-9.221-9.222V94.022
	c0-5.093,4.128-9.222,9.221-9.222h72.622c5.093,0,9.222,4.129,9.222,9.222V147.103z"/>
<path fill="#E7211A" d="M470.026,130.298h-8.572c-5.093,0-9.223-4.13-9.223-9.222v-1.025c0-5.095,4.129-9.223,9.223-9.223
	l8.572-0.001"/>
<line fill="none" stroke="#FFFFFF" stroke-width="3" stroke-linecap="round" stroke-linejoin="round" stroke-miterlimit="10" x1="561.092" y1="120.562" x2="632.094" y2="120.562"/>
<line fill="none" stroke="#FFFFFF" stroke-linecap="round" stroke-linejoin="round" stroke-miterlimit="10" x1="409.792" y1="112.167" x2="409.792" y2="128.167"/>
<line fill="none" stroke="#FFFFFF" stroke-linecap="round" stroke-linejoin="round" stroke-miterlimit="10" x1="451.792" y1="112.167" x2="451.792" y2="128.167"/>
<line fill="none" stroke="#FFFFFF" stroke-linecap="round" stroke-linejoin="round" x1="418.852" y1="120.167" x2="442.731" y2="120.167"/>
<polygon fill="#FFFFFF" points="411.792,120.167 421.741,124.232 419.379,120.167 421.741,116.102 "/>
<polygon fill="#FFFFFF" points="449.792,120.167 439.842,124.232 442.204,120.167 439.842,116.102 "/>
<text transform="matrix(1 0 0 1 409.4146 157.6665)" fill="#FFFFFF" font-family="'DroidSansFallback'" font-size="25">1cm</text>
</svg>
