<?xml version="1.0" encoding="utf-8"?>
<!-- Generator: Adobe Illustrator 16.0.0, SVG Export Plug-In . SVG Version: 6.00 Build 0)  -->
<!DOCTYPE svg PUBLIC "-//W3C//DTD SVG 1.1//EN" "http://www.w3.org/Graphics/SVG/1.1/DTD/svg11.dtd">
<svg version="1.1" id="图层_1" xmlns="http://www.w3.org/2000/svg" xmlns:xlink="http://www.w3.org/1999/xlink" x="0px" y="0px"
	 width="110px" height="114.667px" viewBox="0 0 110 114.667" enable-background="new 0 0 110 114.667"
	 xml:space="preserve">
<g>
	<g>
		<circle fill="#F7F7F7" stroke="#C7C8C8" stroke-miterlimit="10" cx="11.939" cy="54.875" r="88.8"/>
	</g>
</g>
<g>
	<g>
		<defs>
			<rect id="SVGID_3_" x="2.012" y="16.569" width="80.744" height="81.642"/>
		</defs>
		<g>
			<linearGradient id="SVGID_5_" gradientUnits="userSpaceOnUse" x1="11.5737" y1="55.269" x2="33.3408" y2="55.269">
				<stop  offset="0" style="stop-color:#EFC12C"/>
				<stop  offset="1" style="stop-color:#D7382D"/>
			</linearGradient>
			<path fill="url(#SVGID_5_)" d="M33.341,55.267c0,6.014-4.866,10.887-10.882,10.887c-6.01,0-10.885-4.873-10.885-10.887
				c0-6.006,4.875-10.882,10.885-10.882C28.475,44.385,33.341,49.261,33.341,55.267"/>
		</g>
	</g>
</g>
<linearGradient id="SVGID_6_" gradientUnits="userSpaceOnUse" x1="43.063" y1="28.269" x2="47.7402" y2="28.269">
	<stop  offset="0" style="stop-color:#EFC12C"/>
	<stop  offset="1" style="stop-color:#D7382D"/>
</linearGradient>
<path fill="url(#SVGID_6_)" d="M47.74,28.269c0,1.292-1.046,2.339-2.338,2.339c-1.292,0-2.339-1.047-2.339-2.339
	c0-1.29,1.047-2.338,2.339-2.338C46.694,25.931,47.74,26.979,47.74,28.269"/>
<linearGradient id="SVGID_7_" gradientUnits="userSpaceOnUse" x1="19.8857" y1="20.019" x2="24.563" y2="20.019">
	<stop  offset="0" style="stop-color:#EFC12C"/>
	<stop  offset="1" style="stop-color:#D7382D"/>
</linearGradient>
<path fill="url(#SVGID_7_)" d="M24.563,20.019c0,1.292-1.046,2.339-2.338,2.339c-1.292,0-2.339-1.047-2.339-2.339
	c0-1.29,1.047-2.338,2.339-2.338C23.517,17.681,24.563,18.729,24.563,20.019"/>
<linearGradient id="SVGID_8_" gradientUnits="userSpaceOnUse" x1="55.6357" y1="49.519" x2="60.313" y2="49.519">
	<stop  offset="0" style="stop-color:#EFC12C"/>
	<stop  offset="1" style="stop-color:#D7382D"/>
</linearGradient>
<path fill="url(#SVGID_8_)" d="M60.313,49.519c0,1.292-1.046,2.339-2.338,2.339c-1.292,0-2.339-1.047-2.339-2.339
	c0-1.29,1.047-2.338,2.339-2.338C59.267,47.181,60.313,48.229,60.313,49.519"/>
<linearGradient id="SVGID_9_" gradientUnits="userSpaceOnUse" x1="50.9585" y1="74.019" x2="55.6357" y2="74.019">
	<stop  offset="0" style="stop-color:#EFC12C"/>
	<stop  offset="1" style="stop-color:#D7382D"/>
</linearGradient>
<path fill="url(#SVGID_9_)" d="M55.636,74.019c0,1.292-1.046,2.339-2.338,2.339c-1.292,0-2.339-1.047-2.339-2.339
	c0-1.29,1.047-2.338,2.339-2.338C54.59,71.681,55.636,72.729,55.636,74.019"/>
<linearGradient id="SVGID_10_" gradientUnits="userSpaceOnUse" x1="32.2656" y1="89.6162" x2="36.9429" y2="89.6162">
	<stop  offset="0" style="stop-color:#EFC12C"/>
	<stop  offset="1" style="stop-color:#D7382D"/>
</linearGradient>
<path fill="url(#SVGID_10_)" d="M36.943,89.616c0,1.291-1.046,2.338-2.338,2.338c-1.292,0-2.339-1.047-2.339-2.338
	c0-1.291,1.047-2.338,2.339-2.338C35.897,87.278,36.943,88.326,36.943,89.616"/>
<linearGradient id="SVGID_11_" gradientUnits="userSpaceOnUse" x1="8.8696" y1="90.6162" x2="13.5469" y2="90.6162">
	<stop  offset="0" style="stop-color:#EFC12C"/>
	<stop  offset="1" style="stop-color:#D7382D"/>
</linearGradient>
<path fill="url(#SVGID_11_)" d="M13.547,90.616c0,1.292-1.046,2.339-2.338,2.339c-1.292,0-2.339-1.047-2.339-2.339
	c0-1.29,1.047-2.338,2.339-2.338C12.501,88.278,13.547,89.326,13.547,90.616"/>
<linearGradient id="SVGID_12_" gradientUnits="userSpaceOnUse" x1="28.1284" y1="34.769" x2="32.1533" y2="34.769">
	<stop  offset="0" style="stop-color:#EFC12C"/>
	<stop  offset="1" style="stop-color:#D7382D"/>
</linearGradient>
<path fill="url(#SVGID_12_)" d="M32.153,34.769c0,1.112-0.9,2.013-2.012,2.013c-1.111,0-2.013-0.901-2.013-2.013
	c0-1.11,0.901-2.012,2.013-2.012C31.253,32.756,32.153,33.658,32.153,34.769"/>
<linearGradient id="SVGID_13_" gradientUnits="userSpaceOnUse" x1="12.6035" y1="34.769" x2="16.6284" y2="34.769">
	<stop  offset="0" style="stop-color:#EFC12C"/>
	<stop  offset="1" style="stop-color:#D7382D"/>
</linearGradient>
<path fill="url(#SVGID_13_)" d="M16.628,34.769c0,1.112-0.9,2.013-2.012,2.013c-1.111,0-2.013-0.901-2.013-2.013
	c0-1.11,0.901-2.012,2.013-2.012C15.729,32.756,16.628,33.658,16.628,34.769"/>
<linearGradient id="SVGID_14_" gradientUnits="userSpaceOnUse" x1="0" y1="44.269" x2="4.0249" y2="44.269">
	<stop  offset="0" style="stop-color:#EFC12C"/>
	<stop  offset="1" style="stop-color:#D7382D"/>
</linearGradient>
<path fill="url(#SVGID_14_)" d="M4.025,44.269c0,1.112-0.9,2.013-2.012,2.013C0.901,46.282,0,45.38,0,44.269
	c0-1.11,0.901-2.012,2.013-2.012C3.125,42.256,4.025,43.158,4.025,44.269"/>
<linearGradient id="SVGID_15_" gradientUnits="userSpaceOnUse" x1="40.3716" y1="45.168" x2="44.3965" y2="45.168">
	<stop  offset="0" style="stop-color:#EFC12C"/>
	<stop  offset="1" style="stop-color:#D7382D"/>
</linearGradient>
<path fill="url(#SVGID_15_)" d="M44.396,45.167c0,1.112-0.9,2.013-2.012,2.013c-1.111,0-2.013-0.901-2.013-2.013
	c0-1.11,0.901-2.012,2.013-2.012C43.497,43.155,44.396,44.057,44.396,45.167"/>
<linearGradient id="SVGID_16_" gradientUnits="userSpaceOnUse" x1="43.3892" y1="60.7944" x2="47.4141" y2="60.7944">
	<stop  offset="0" style="stop-color:#EFC12C"/>
	<stop  offset="1" style="stop-color:#D7382D"/>
</linearGradient>
<path fill="url(#SVGID_16_)" d="M47.414,60.794c0,1.112-0.9,2.013-2.012,2.013c-1.111,0-2.013-0.901-2.013-2.013
	c0-1.11,0.901-2.012,2.013-2.012C46.514,58.782,47.414,59.684,47.414,60.794"/>
<linearGradient id="SVGID_17_" gradientUnits="userSpaceOnUse" x1="34.9307" y1="74.019" x2="38.9556" y2="74.019">
	<stop  offset="0" style="stop-color:#EFC12C"/>
	<stop  offset="1" style="stop-color:#D7382D"/>
</linearGradient>
<path fill="url(#SVGID_17_)" d="M38.956,74.019c0,1.112-0.9,2.013-2.012,2.013c-1.111,0-2.013-0.901-2.013-2.013
	c0-1.11,0.901-2.012,2.013-2.012C38.056,72.006,38.956,72.908,38.956,74.019"/>
<linearGradient id="SVGID_18_" gradientUnits="userSpaceOnUse" x1="20.5381" y1="79.769" x2="24.563" y2="79.769">
	<stop  offset="0" style="stop-color:#EFC12C"/>
	<stop  offset="1" style="stop-color:#D7382D"/>
</linearGradient>
<path fill="url(#SVGID_18_)" d="M24.563,79.769c0,1.112-0.9,2.013-2.012,2.013c-1.111,0-2.013-0.901-2.013-2.013
	c0-1.11,0.901-2.012,2.013-2.012C23.663,77.756,24.563,78.658,24.563,79.769"/>
<linearGradient id="SVGID_19_" gradientUnits="userSpaceOnUse" x1="5.1709" y1="74.019" x2="9.1958" y2="74.019">
	<stop  offset="0" style="stop-color:#EFC12C"/>
	<stop  offset="1" style="stop-color:#D7382D"/>
</linearGradient>
<path fill="url(#SVGID_19_)" d="M9.196,74.019c0,1.112-0.9,2.013-2.012,2.013c-1.111,0-2.013-0.901-2.013-2.013
	c0-1.11,0.901-2.012,2.013-2.012C8.296,72.006,9.196,72.908,9.196,74.019"/>
</svg>
