<?xml version="1.0" encoding="utf-8"?>
<!-- Generator: Adobe Illustrator 16.0.0, SVG Export Plug-In . SVG Version: 6.00 Build 0)  -->
<!DOCTYPE svg PUBLIC "-//W3C//DTD SVG 1.1//EN" "http://www.w3.org/Graphics/SVG/1.1/DTD/svg11.dtd">
<svg version="1.1" id="图层_1" xmlns="http://www.w3.org/2000/svg" xmlns:xlink="http://www.w3.org/1999/xlink" x="0px" y="0px"
	 width="110.667px" height="118.667px" viewBox="0 0 110.667 118.667" enable-background="new 0 0 110.667 118.667"
	 xml:space="preserve">
<g>
	<g>
		<circle fill="#F7F7F7" stroke="#C7C8C8" stroke-miterlimit="10" cx="11.939" cy="54.875" r="88.799"/>
	</g>
</g>
<g>
	<g>
		
			<linearGradient id="SVGID_1_" gradientUnits="userSpaceOnUse" x1="12.1025" y1="14.2715" x2="12.1025" y2="19.8018" gradientTransform="matrix(1 0 0 -1 0.1401 117.7217)">
			<stop  offset="0" style="stop-color:#B4B4B5"/>
			<stop  offset="1" style="stop-color:#B4B4B5"/>
		</linearGradient>
		<path fill="url(#SVGID_1_)" d="M22.613,97.92H1.874c-1.456,0-2.641,1.24-2.641,2.766c0,1.522,1.185,2.765,2.641,2.765h20.739
			c1.456,0,2.641-1.242,2.641-2.765C25.254,99.161,24.069,97.92,22.613,97.92z"/>
		
			<linearGradient id="SVGID_2_" gradientUnits="userSpaceOnUse" x1="12.103" y1="4.3643" x2="12.103" y2="9.8936" gradientTransform="matrix(1 0 0 -1 0.1401 117.7217)">
			<stop  offset="0" style="stop-color:#B4B4B5"/>
			<stop  offset="1" style="stop-color:#B4B4B5"/>
		</linearGradient>
		<path fill="url(#SVGID_2_)" d="M17.829,107.829H6.659c-1.456,0-2.641,1.239-2.641,2.764c0,1.523,1.185,2.766,2.641,2.766h11.17
			c1.456,0,2.64-1.242,2.64-2.766C20.469,109.068,19.285,107.829,17.829,107.829z"/>
		
			<linearGradient id="SVGID_3_" gradientUnits="userSpaceOnUse" x1="27.1113" y1="114.9155" x2="27.1113" y2="21.6743" gradientTransform="matrix(1 0 0 -1 0.1401 117.7217)">
			<stop  offset="0" style="stop-color:#B4B4B5"/>
			<stop  offset="0.2085" style="stop-color:#B4B4B5"/>
			<stop  offset="1" style="stop-color:#B4B4B5"/>
		</linearGradient>
		<path fill="url(#SVGID_3_)" d="M52.411,36.387c-3.938,0-7.601,1.223-10.688,3.303c0.316-1.82,0.484-3.666,0.484-5.525
			c0-17.292-13.441-31.359-29.963-31.359s-29.963,14.067-29.963,31.359c0,3.823,0.65,7.558,1.932,11.101
			c0.087,0.24,0.187,0.491,0.345,0.891l0.174,0.431L-4.197,91.79c0.299,1.223,1.351,2.077,2.558,2.077h27.393
			c1.197,0,2.246-0.847,2.552-2.055l6.301-24.868l6.69,27.315c0.257,1.053,1.163,1.788,2.202,1.788h17.583
			c1.03,0,1.936-0.728,2.198-1.771l7.368-29.095c1.044-2.588,1.574-5.299,1.574-8.061C72.222,45.688,63.335,36.387,52.411,36.387z
			 M-11.234,42.158c-0.798-2.568-1.202-5.257-1.202-7.993c0-14.243,11.071-25.831,24.681-25.831
			c13.61,0,24.681,11.586,24.681,25.831c0,2.727-0.409,5.417-1.215,7.995l-0.212,0.679h-46.521L-11.234,42.158z M23.721,88.336H0.41
			l-9.792-39.97h43.225L23.721,88.336z M59.333,91.289h-14.07l-5.988-24.446h26.249L59.333,91.289z M66.925,62.064l-0.008,0.02
			H37.896l-0.005-0.019c-0.494-1.59-0.743-3.252-0.743-4.944c0-0.083,0.011-0.165,0.012-0.249l1.89-7.458
			c2.603-4.924,7.615-8.27,13.362-8.27c8.417,0,15.263,7.167,15.263,15.977C67.673,58.808,67.421,60.47,66.925,62.064z"/>
		
			<linearGradient id="SVGID_4_" gradientUnits="userSpaceOnUse" x1="52.2695" y1="15.5234" x2="52.2695" y2="20.2822" gradientTransform="matrix(1 0 0 -1 0.1401 117.7217)">
			<stop  offset="0" style="stop-color:#B4B4B5"/>
			<stop  offset="1" style="stop-color:#B4B4B5"/>
		</linearGradient>
		<path fill="url(#SVGID_4_)" d="M59.067,97.44H45.754c-1.253,0-2.273,1.066-2.273,2.379c0,1.312,1.02,2.38,2.273,2.38h13.313
			c1.252,0,2.272-1.068,2.272-2.38C61.339,98.506,60.319,97.44,59.067,97.44z"/>
		
			<linearGradient id="SVGID_5_" gradientUnits="userSpaceOnUse" x1="52.2705" y1="9.167" x2="52.2705" y2="13.9238" gradientTransform="matrix(1 0 0 -1 0.1401 117.7217)">
			<stop  offset="0" style="stop-color:#B4B4B5"/>
			<stop  offset="1" style="stop-color:#B4B4B5"/>
		</linearGradient>
		<path fill="url(#SVGID_5_)" d="M55.996,103.798h-7.169c-1.253,0-2.273,1.068-2.273,2.378c0,1.312,1.02,2.379,2.273,2.379h7.169
			c1.254,0,2.272-1.068,2.272-2.379C58.269,104.867,57.25,103.798,55.996,103.798z"/>
	</g>
</g>
</svg>
