<?xml version="1.0" encoding="utf-8"?>
<!-- Generator: Adobe Illustrator 16.0.0, SVG Export Plug-In . SVG Version: 6.00 Build 0)  -->
<!DOCTYPE svg PUBLIC "-//W3C//DTD SVG 1.1//EN" "http://www.w3.org/Graphics/SVG/1.1/DTD/svg11.dtd">
<svg version="1.1" id="图层_1" xmlns="http://www.w3.org/2000/svg" xmlns:xlink="http://www.w3.org/1999/xlink" x="0px" y="0px"
	 width="110px" height="114.667px" viewBox="0 0 110 114.667" enable-background="new 0 0 110 114.667" xml:space="preserve">
<g>
	<g>
		<circle fill="#F7F7F7" stroke="#EEEEEF" stroke-miterlimit="10" cx="11.939" cy="54.875" r="88.8"/>
	</g>
</g>
<g>
	<g>
		<path fill="#B4B4B5" d="M78.353,57.297H65.921c-5.169,0-9.374,4.205-9.374,9.377v12.43c0,5.169,4.205,9.374,9.374,9.374h12.432
			c5.17,0,9.375-4.204,9.375-9.374v-12.43C87.726,61.502,83.522,57.297,78.353,57.297z M85.741,79.104
			c0,4.073-3.314,7.388-7.389,7.388H65.921c-4.074,0-7.388-3.314-7.388-7.388v-12.43c0-4.077,3.313-7.39,7.388-7.39h12.432
			c4.074,0,7.389,3.312,7.389,7.39V79.104z"/>
		<path fill="#B4B4B5" d="M78.228,75.396c-0.547,0-0.993-0.445-0.993-0.992v-7.605c0-0.548,0.446-0.992,0.993-0.992
			c0.548,0,0.993,0.444,0.993,0.992v7.605C79.221,74.951,78.775,75.396,78.228,75.396z"/>
		<path fill="#B4B4B5" d="M66.047,75.396c-0.548,0-0.993-0.445-0.993-0.992v-7.605c0-0.548,0.445-0.992,0.993-0.992
			c0.547,0,0.993,0.444,0.993,0.992v7.605C67.04,74.951,66.594,75.396,66.047,75.396z"/>
		<path fill="#B4B4B5" d="M70.792,80.204c-0.547,0-0.992-0.446-0.992-0.994v-1.331c0-1.29,1.048-2.338,2.338-2.338
			c1.289,0,2.337,1.048,2.337,2.338v1.331c0,0.548-0.445,0.994-0.992,0.994H70.792z M72.138,77.563
			c-0.202,0-0.353,0.136-0.353,0.315v0.339h0.703v-0.339C72.488,77.696,72.341,77.563,72.138,77.563z"/>
	</g>
	<g>
		<path fill="#B4B4B5" d="M78.353,57.297H65.921c-5.169,0-9.374,4.205-9.374,9.377v12.43c0,5.169,4.205,9.374,9.374,9.374h12.432
			c5.17,0,9.375-4.204,9.375-9.374v-12.43C87.726,61.502,83.522,57.297,78.353,57.297z M85.741,79.104
			c0,4.073-3.314,7.388-7.389,7.388H65.921c-4.074,0-7.388-3.314-7.388-7.388v-12.43c0-4.077,3.313-7.39,7.388-7.39h12.432
			c4.074,0,7.389,3.312,7.389,7.39V79.104z"/>
		<path fill="#B4B4B5" d="M78.228,75.396c-0.547,0-0.993-0.445-0.993-0.992v-7.605c0-0.548,0.446-0.992,0.993-0.992
			c0.548,0,0.993,0.444,0.993,0.992v7.605C79.221,74.951,78.775,75.396,78.228,75.396z"/>
		<path fill="#B4B4B5" d="M66.047,75.396c-0.548,0-0.993-0.445-0.993-0.992v-7.605c0-0.548,0.445-0.992,0.993-0.992
			c0.547,0,0.993,0.444,0.993,0.992v7.605C67.04,74.951,66.594,75.396,66.047,75.396z"/>
		<path fill="#B4B4B5" d="M70.792,80.204c-0.547,0-0.992-0.446-0.992-0.994v-1.331c0-1.29,1.048-2.338,2.338-2.338
			c1.289,0,2.337,1.048,2.337,2.338v1.331c0,0.548-0.445,0.994-0.992,0.994H70.792z M72.138,77.563
			c-0.202,0-0.353,0.136-0.353,0.315v0.339h0.703v-0.339C72.488,77.696,72.341,77.563,72.138,77.563z"/>
	</g>
</g>
<g>
	<g>
		<path fill="#B4B4B5" d="M35.465,16H2.5c-13.702,0-24.85,11.151-24.85,24.858v32.959c0,13.703,11.147,24.85,24.85,24.85h32.965
			c13.706,0,24.853-11.146,24.853-24.85V40.858C60.318,27.151,49.169,16,35.465,16z M55.053,73.818
			c0,10.799-8.788,19.584-19.588,19.584H2.5c-10.799,0-19.584-8.785-19.584-19.584V40.858c0-10.805,8.786-19.594,19.584-19.594
			h32.965c10.801,0,19.588,8.789,19.588,19.594V73.818z"/>
		<path fill="#B4B4B5" d="M35.134,63.986c-1.452,0-2.633-1.182-2.633-2.631V41.192c0-1.453,1.181-2.635,2.633-2.635
			c1.452,0,2.633,1.182,2.633,2.635v20.163C37.767,62.804,36.584,63.986,35.134,63.986z"/>
		<path fill="#B4B4B5" d="M2.836,63.986c-1.452,0-2.632-1.182-2.632-2.631V41.192c0-1.453,1.18-2.635,2.632-2.635
			c1.451,0,2.632,1.182,2.632,2.635v20.163C5.469,62.804,4.288,63.986,2.836,63.986z"/>
		<path fill="#B4B4B5" d="M15.418,76.73c-1.452,0-2.633-1.182-2.633-2.633v-3.529c0-3.42,2.781-6.199,6.2-6.199
			c3.418,0,6.199,2.779,6.199,6.199v3.529c0,1.451-1.181,2.633-2.632,2.633H15.418z M18.985,69.732
			c-0.533,0-0.935,0.357-0.935,0.836v0.896h1.869v-0.896C19.919,70.083,19.526,69.732,18.985,69.732z"/>
	</g>
	<g>
		<path fill="#B4B4B5" d="M35.465,16H2.5c-13.702,0-24.85,11.151-24.85,24.858v32.959c0,13.703,11.147,24.85,24.85,24.85h32.965
			c13.706,0,24.853-11.146,24.853-24.85V40.858C60.318,27.151,49.169,16,35.465,16z M55.053,73.818
			c0,10.799-8.788,19.584-19.588,19.584H2.5c-10.799,0-19.584-8.785-19.584-19.584V40.858c0-10.805,8.786-19.594,19.584-19.594
			h32.965c10.801,0,19.588,8.789,19.588,19.594V73.818z"/>
		<path fill="#B4B4B5" d="M35.134,63.986c-1.452,0-2.633-1.182-2.633-2.631V41.192c0-1.453,1.181-2.635,2.633-2.635
			c1.452,0,2.633,1.182,2.633,2.635v20.163C37.767,62.804,36.584,63.986,35.134,63.986z"/>
		<path fill="#B4B4B5" d="M2.836,63.986c-1.452,0-2.632-1.182-2.632-2.631V41.192c0-1.453,1.18-2.635,2.632-2.635
			c1.451,0,2.632,1.182,2.632,2.635v20.163C5.469,62.804,4.288,63.986,2.836,63.986z"/>
		<path fill="#B4B4B5" d="M15.418,76.73c-1.452,0-2.633-1.182-2.633-2.633v-3.529c0-3.42,2.781-6.199,6.2-6.199
			c3.418,0,6.199,2.779,6.199,6.199v3.529c0,1.451-1.181,2.633-2.632,2.633H15.418z M18.985,69.732
			c-0.533,0-0.935,0.357-0.935,0.836v0.896h1.869v-0.896C19.919,70.083,19.526,69.732,18.985,69.732z"/>
	</g>
</g>
</svg>
