<?xml version="1.0" encoding="utf-8"?>
<!-- Generator: Adobe Illustrator 16.0.0, SVG Export Plug-In . SVG Version: 6.00 Build 0)  -->
<!DOCTYPE svg PUBLIC "-//W3C//DTD SVG 1.1//EN" "http://www.w3.org/Graphics/SVG/1.1/DTD/svg11.dtd">
<svg version="1.1" id="图层_1" xmlns="http://www.w3.org/2000/svg" xmlns:xlink="http://www.w3.org/1999/xlink" x="0px" y="0px"
	 width="41.875px" height="41.375px" viewBox="0 0 41.875 41.375" enable-background="new 0 0 41.875 41.375" xml:space="preserve">
<g>
	<path fill="#B3B2B3" d="M21.136,31.563c-5.844,0-10.599-4.754-10.599-10.599c0-5.844,4.755-10.599,10.599-10.599
		s10.599,4.755,10.599,10.599C31.734,26.81,26.979,31.563,21.136,31.563z M21.136,13.277c-4.24,0-7.688,3.449-7.688,7.688
		c0,4.239,3.448,7.687,7.688,7.687c4.238,0,7.688-3.447,7.688-7.687C28.823,16.727,25.374,13.277,21.136,13.277z"/>
	<path fill="#B3B2B3" d="M5.463,22.271H2.852c-0.723,0-1.308-0.584-1.308-1.306c0-0.723,0.585-1.305,1.308-1.305h2.611
		c0.721,0,1.306,0.583,1.306,1.305C6.769,21.687,6.184,22.271,5.463,22.271L5.463,22.271z"/>
	<path fill="#B3B2B3" d="M39.421,22.271h-2.612c-0.721,0-1.306-0.584-1.306-1.306c0-0.723,0.585-1.305,1.306-1.305h2.612
		c0.721,0,1.307,0.583,1.307,1.305C40.728,21.687,40.142,22.271,39.421,22.271L39.421,22.271z"/>
	<path fill="#B3B2B3" d="M21.136,40.556c-0.721,0-1.305-0.586-1.305-1.306v-2.612c0-0.721,0.584-1.307,1.305-1.307
		s1.307,0.586,1.307,1.307v2.612C22.442,39.97,21.856,40.556,21.136,40.556L21.136,40.556z"/>
	<path fill="#B3B2B3" d="M21.136,6.599c-0.721,0-1.305-0.587-1.305-1.306V2.679c0-0.72,0.584-1.305,1.305-1.305
		s1.307,0.585,1.307,1.305v2.614C22.442,6.012,21.856,6.599,21.136,6.599L21.136,6.599z"/>
	<path fill="#B3B2B3" d="M8.337,35.2c-0.334,0-0.668-0.126-0.923-0.382c-0.51-0.511-0.51-1.337,0-1.849l1.848-1.846
		c0.509-0.51,1.336-0.51,1.847,0c0.51,0.509,0.51,1.337,0,1.846l-1.847,1.849C9.006,35.074,8.671,35.2,8.337,35.2L8.337,35.2z"/>
	<path fill="#B3B2B3" d="M32.35,11.188c-0.335,0-0.668-0.128-0.923-0.382c-0.511-0.51-0.511-1.339,0-1.848l1.847-1.849
		c0.509-0.51,1.336-0.51,1.847,0c0.512,0.513,0.512,1.339,0,1.849l-1.847,1.848C33.019,11.061,32.685,11.188,32.35,11.188
		L32.35,11.188z"/>
	<path fill="#B3B2B3" d="M34.197,35.2c-0.335,0-0.67-0.126-0.924-0.382l-1.847-1.849c-0.511-0.509-0.511-1.337,0-1.846
		c0.51-0.51,1.336-0.51,1.847,0l1.847,1.846c0.512,0.512,0.512,1.338,0,1.849C34.865,35.074,34.53,35.2,34.197,35.2L34.197,35.2z"/>
	<path fill="#B3B2B3" d="M10.186,11.188c-0.336,0-0.67-0.128-0.924-0.382L7.414,8.959c-0.51-0.51-0.51-1.336,0-1.847
		c0.509-0.512,1.337-0.512,1.848,0l1.847,1.847c0.51,0.509,0.51,1.338,0,1.848C10.853,11.061,10.519,11.188,10.186,11.188
		L10.186,11.188z"/>
</g>
</svg>
