<?xml version="1.0" encoding="utf-8"?>
<!-- Generator: Adobe Illustrator 16.0.0, SVG Export Plug-In . SVG Version: 6.00 Build 0)  -->
<!DOCTYPE svg PUBLIC "-//W3C//DTD SVG 1.1//EN" "http://www.w3.org/Graphics/SVG/1.1/DTD/svg11.dtd">
<svg version="1.1" id="图层_1" xmlns="http://www.w3.org/2000/svg" xmlns:xlink="http://www.w3.org/1999/xlink" x="0px" y="0px"
	 width="54.333px" height="40.417px" viewBox="0 0 54.333 40.417" enable-background="new 0 0 54.333 40.417" xml:space="preserve">
<path id="XMLID_142_" fill-rule="evenodd" clip-rule="evenodd" fill="#DB6929" d="M8.215,39.799c-1.483,0-2.689-1.206-2.689-2.689
	V16.263l-3.119,1.8c-0.176,0.103-0.377,0.156-0.584,0.156c-0.417,0-0.806-0.224-1.016-0.584c-0.322-0.561-0.13-1.278,0.428-1.602
	l25.96-14.987l25.959,14.987c0.271,0.156,0.466,0.409,0.547,0.711c0.081,0.305,0.039,0.62-0.117,0.891
	c-0.209,0.36-0.598,0.584-1.015,0.584c-0.207,0-0.408-0.054-0.586-0.156l-3.117-1.8v20.847c0,1.483-1.206,2.689-2.689,2.689H8.215z
	 M46.178,37.457c0.19,0,0.347-0.156,0.347-0.348V14.857L27.196,3.75L7.823,14.936l0.045,22.174c0,0.191,0.156,0.348,0.347,0.348
	h4.605V19.374c0-1.28,0.964-2.32,2.148-2.32h24.456c1.185,0,2.148,1.04,2.148,2.32v18.083H46.178z M39.23,37.457v-3.304H15.163
	v3.304H39.23z M39.23,31.811v-2.508H15.163v2.508H39.23z M39.23,26.961v-2.508H15.163v2.508H39.23z M39.23,22.111v-2.719
	l-24.062,0.004l-0.005,2.715H39.23z"/>
</svg>
