<?xml version="1.0" encoding="utf-8"?>
<!-- Generator: Adobe Illustrator 16.0.0, SVG Export Plug-In . SVG Version: 6.00 Build 0)  -->
<!DOCTYPE svg PUBLIC "-//W3C//DTD SVG 1.1//EN" "http://www.w3.org/Graphics/SVG/1.1/DTD/svg11.dtd">
<svg version="1.1" id="图层_1" xmlns="http://www.w3.org/2000/svg" xmlns:xlink="http://www.w3.org/1999/xlink" x="0px" y="0px"
	 width="29.167px" height="47.083px" viewBox="0 0 29.167 47.083" enable-background="new 0 0 29.167 47.083" xml:space="preserve">
<g id="XMLID_93_">
	<path id="XMLID_98_" fill-rule="evenodd" clip-rule="evenodd" fill="#DB6929" d="M5.371,46.632c-2.592,0-4.701-2.091-4.701-4.661
		V5.302c0-2.57,2.109-4.661,4.701-4.661h18.274c1.145,0,2.249,0.416,3.109,1.17c1.013,0.886,1.593,2.159,1.593,3.491v36.669
		c0,2.57-2.109,4.661-4.702,4.661H5.371z M5.371,3.139c-1.215,0-2.205,0.971-2.205,2.164v36.669c0,1.193,0.989,2.165,2.205,2.165
		h18.274c1.216,0,2.206-0.972,2.206-2.165V5.302c0-1.193-0.99-2.164-2.206-2.164H5.371z"/>

		<rect id="XMLID_96_" x="2.959" y="16.667" fill-rule="evenodd" clip-rule="evenodd" fill="#DB6929" width="23.099" height="2.496"/>
	<path id="XMLID_95_" fill-rule="evenodd" clip-rule="evenodd" fill="#DB6929" d="M6.497,14.583c-0.689,0-1.248-0.56-1.248-1.248
		V8.757c0-0.688,0.559-1.248,1.248-1.248c0.688,0,1.248,0.56,1.248,1.248v4.579C7.744,14.024,7.185,14.583,6.497,14.583z"/>
	<path id="XMLID_94_" fill-rule="evenodd" clip-rule="evenodd" fill="#DB6929" d="M6.497,30.609c-0.689,0-1.248-0.561-1.248-1.248
		v-6.867c0-0.689,0.559-1.25,1.248-1.25c0.688,0,1.248,0.561,1.248,1.25v6.867C7.744,30.048,7.185,30.609,6.497,30.609z"/>
</g>
</svg>
