<?xml version="1.0" encoding="utf-8"?>
<!-- Generator: Adobe Illustrator 16.0.0, SVG Export Plug-In . SVG Version: 6.00 Build 0)  -->
<!DOCTYPE svg PUBLIC "-//W3C//DTD SVG 1.1//EN" "http://www.w3.org/Graphics/SVG/1.1/DTD/svg11.dtd">
<svg version="1.1" id="图层_1" xmlns="http://www.w3.org/2000/svg" xmlns:xlink="http://www.w3.org/1999/xlink" x="0px" y="0px"
	 width="28.167px" height="32.333px" viewBox="0 0 28.167 32.333" enable-background="new 0 0 28.167 32.333" xml:space="preserve">
<g id="XMLID_128_">
	
		<path id="XMLID_131_" fill-rule="evenodd" clip-rule="evenodd" fill="none" stroke="#DB6929" stroke-width="3" stroke-linecap="round" stroke-linejoin="round" stroke-miterlimit="10" d="
		M25.499,30.129H2.811c-0.012,0-0.021-0.01-0.021-0.021V2.53c0-0.011,0.01-0.021,0.021-0.021h22.688c0.012,0,0.021,0.01,0.021,0.021
		v27.578C25.521,30.12,25.511,30.129,25.499,30.129z"/>
	<path id="XMLID_129_" fill-rule="evenodd" clip-rule="evenodd" fill="#DB6929" d="M20.858,19.349c-0.688,0-1.248-0.56-1.248-1.248
		v-4.579c0-0.688,0.56-1.248,1.248-1.248s1.248,0.56,1.248,1.248v4.579C22.106,18.79,21.547,19.349,20.858,19.349z"/>
</g>
</svg>
