<?xml version="1.0" encoding="utf-8"?>
<!-- Generator: Adobe Illustrator 16.0.0, SVG Export Plug-In . SVG Version: 6.00 Build 0)  -->
<!DOCTYPE svg PUBLIC "-//W3C//DTD SVG 1.1//EN" "http://www.w3.org/Graphics/SVG/1.1/DTD/svg11.dtd">
<svg version="1.1" id="图层_1" xmlns="http://www.w3.org/2000/svg" xmlns:xlink="http://www.w3.org/1999/xlink" x="0px" y="0px"
	 width="34.75px" height="35.25px" viewBox="0 0 34.75 35.25" enable-background="new 0 0 34.75 35.25" xml:space="preserve">
<g>
	<path fill="#B3B2B3" d="M22.419,13.156c-0.175-1.541-0.766-2.953-1.651-4.137l2.087-2.088c0.443-0.443,0.443-1.162,0-1.605
		s-1.162-0.443-1.605,0l-2.07,2.068c-1.167-0.912-2.575-1.524-4.113-1.73V2.766c0-0.628-0.509-1.137-1.136-1.137
		s-1.136,0.509-1.136,1.137v2.898C11.257,5.87,9.85,6.482,8.682,7.396l-2.07-2.07c-0.443-0.443-1.162-0.443-1.606,0
		c-0.443,0.443-0.443,1.162,0,1.605L7.094,9.02c-0.877,1.172-1.464,2.57-1.645,4.096H2.445c-0.627,0-1.135,0.508-1.135,1.136
		c0,0.626,0.508,1.135,1.135,1.135h3.033c0.22,1.476,0.823,2.846,1.717,3.994l-2.189,2.188c-0.443,0.443-0.443,1.162,0,1.606
		c0.222,0.222,0.512,0.332,0.803,0.332c0.291,0,0.582-0.11,0.803-0.332l2.202-2.202c0.396,0.297,0.823,0.558,1.272,0.784
		c-0.241,0.835-0.403,1.704-0.456,2.606c-0.019,0.311,0.093,0.617,0.308,0.845c0.214,0.228,0.514,0.356,0.826,0.356h9.537v5.057
		c0,0.581-0.473,1.053-1.054,1.053s-1.054-0.472-1.054-1.053c0-0.627-0.509-1.137-1.136-1.137s-1.136,0.51-1.136,1.137
		c0,1.833,1.491,3.324,3.325,3.324c1.833,0,3.325-1.491,3.325-3.324v-5.057h9.792c0.313,0,0.611-0.129,0.826-0.356
		c0.214-0.228,0.326-0.534,0.308-0.845C33.146,18.343,28.352,13.579,22.419,13.156z M7.655,14.127c0-3.461,2.815-6.275,6.276-6.275
		c3.148,0,5.755,2.332,6.201,5.359c-4.01,0.481-7.427,2.954-9.205,6.426C8.937,18.551,7.655,16.447,7.655,14.127z M12.044,23.293
		c0.837-4.52,4.808-7.907,9.521-7.907c4.712,0,8.683,3.388,9.521,7.907H12.044z"/>
</g>
</svg>
