<?xml version="1.0" encoding="utf-8"?>
<!-- Generator: Adobe Illustrator 16.0.0, SVG Export Plug-In . SVG Version: 6.00 Build 0)  -->
<!DOCTYPE svg PUBLIC "-//W3C//DTD SVG 1.1//EN" "http://www.w3.org/Graphics/SVG/1.1/DTD/svg11.dtd">
<svg version="1.1" id="图层_1" xmlns="http://www.w3.org/2000/svg" xmlns:xlink="http://www.w3.org/1999/xlink" x="0px" y="0px"
	 width="110px" height="114.667px" viewBox="0 0 110 114.667" enable-background="new 0 0 110 114.667"
	 xml:space="preserve">
<g>
	<g>
		<circle fill="#F7F7F7" stroke="#C7C8C8" stroke-miterlimit="10" cx="11.939" cy="54.875" r="88.8"/>
	</g>
</g>
<g>
	<g>
		<defs>
			<path id="SVGID_1_" d="M322.875,108.26c0,2.75-2.25,5-5,5H8.339c-2.75,0-5-2.25-5-5V7.593c0-2.75,2.25-5,5-5h309.536
				c2.75,0,5,2.25,5,5V108.26z"/>
		</defs>
	</g>
</g>
<g>
	<defs>
		<rect id="SVGID_3_" x="3.946" y="12.73" width="69.525" height="89.575"/>
	</defs>
	<g>
		<g>
			<linearGradient id="SVGID_5_" gradientUnits="userSpaceOnUse" x1="17.4717" y1="28.6592" x2="27.6875" y2="28.6592">
				<stop  offset="0" style="stop-color:#EFC12C"/>
				<stop  offset="1" style="stop-color:#D7382D"/>
			</linearGradient>
			<path fill="url(#SVGID_5_)" d="M22.576,33.767L22.576,33.767c-1.241,0-2.438-0.45-3.368-1.267
				c-2.117-1.859-2.328-5.094-0.469-7.212c0.97-1.104,2.37-1.737,3.843-1.737c1.242,0,2.439,0.451,3.37,1.269
				c2.116,1.859,2.326,5.094,0.468,7.211C25.45,33.134,24.05,33.767,22.576,33.767z M22.582,27.551c-0.189,0-0.55,0.049-0.837,0.376
				c-0.404,0.46-0.358,1.163,0.102,1.567c0.258,0.226,0.539,0.273,0.729,0.273c0.323,0,0.629-0.137,0.838-0.375
				c0.404-0.46,0.358-1.163-0.102-1.567C23.056,27.598,22.773,27.551,22.582,27.551z"/>
		</g>
		<g>
			<linearGradient id="SVGID_6_" gradientUnits="userSpaceOnUse" x1="6.8257" y1="40.7837" x2="17.041" y2="40.7837">
				<stop  offset="0" style="stop-color:#EFC12C"/>
				<stop  offset="1" style="stop-color:#D7382D"/>
			</linearGradient>
			<path fill="url(#SVGID_6_)" d="M11.931,45.892L11.931,45.892c-1.241,0-2.438-0.451-3.369-1.268
				c-1.024-0.899-1.636-2.146-1.725-3.509c-0.089-1.364,0.357-2.679,1.257-3.703c0.969-1.104,2.369-1.737,3.842-1.737
				c1.242,0,2.438,0.451,3.37,1.269c2.117,1.859,2.326,5.094,0.467,7.212C14.805,45.259,13.404,45.892,11.931,45.892z
				 M11.936,39.675c-0.189,0-0.549,0.049-0.836,0.376c-0.194,0.221-0.29,0.506-0.271,0.804c0.019,0.298,0.152,0.569,0.373,0.763
				c0.257,0.226,0.539,0.273,0.729,0.273c0.322,0,0.626-0.137,0.836-0.375c0.404-0.46,0.359-1.164-0.101-1.567
				C12.408,39.723,12.126,39.675,11.936,39.675z"/>
		</g>
		<g>
			<linearGradient id="SVGID_7_" gradientUnits="userSpaceOnUse" x1="-3.9297" y1="53.0342" x2="6.2861" y2="53.0342">
				<stop  offset="0" style="stop-color:#EFC12C"/>
				<stop  offset="1" style="stop-color:#D7382D"/>
			</linearGradient>
			<path fill="url(#SVGID_7_)" d="M1.174,58.143L1.174,58.143c-1.241,0-2.438-0.451-3.369-1.269
				c-2.117-1.859-2.327-5.096-0.467-7.213c0.968-1.103,2.367-1.735,3.838-1.735c1.242,0,2.439,0.451,3.372,1.269
				c1.024,0.899,1.637,2.145,1.726,3.507c0.089,1.363-0.357,2.678-1.256,3.703C4.049,57.508,2.647,58.143,1.174,58.143z
				 M1.177,51.926c-0.188,0-0.547,0.049-0.833,0.374c-0.405,0.461-0.36,1.165,0.101,1.569c0.257,0.226,0.539,0.273,0.729,0.273
				c0.189,0,0.55-0.049,0.838-0.377c0.194-0.221,0.29-0.505,0.271-0.802c-0.02-0.297-0.152-0.567-0.375-0.762
				C1.651,51.974,1.369,51.926,1.177,51.926z"/>
		</g>
		<g>
			<linearGradient id="SVGID_8_" gradientUnits="userSpaceOnUse" x1="52.8511" y1="59.6113" x2="63.0659" y2="59.6113">
				<stop  offset="0" style="stop-color:#EFC12C"/>
				<stop  offset="1" style="stop-color:#D7382D"/>
			</linearGradient>
			<path fill="url(#SVGID_8_)" d="M57.957,64.719L57.957,64.719c-1.242,0-2.439-0.45-3.372-1.269
				c-2.115-1.858-2.324-5.093-0.466-7.21c0.969-1.104,2.369-1.736,3.841-1.736c1.24,0,2.437,0.45,3.368,1.268
				c1.024,0.899,1.638,2.146,1.727,3.508c0.089,1.365-0.356,2.68-1.256,3.703C60.83,64.086,59.43,64.719,57.957,64.719z
				 M57.96,58.504c-0.188,0-0.548,0.049-0.835,0.375c-0.403,0.46-0.359,1.162,0.1,1.565c0.259,0.228,0.541,0.274,0.732,0.274
				c0.189,0,0.549-0.049,0.836-0.375c0.193-0.221,0.29-0.506,0.271-0.803s-0.152-0.568-0.374-0.764
				C58.432,58.551,58.15,58.504,57.96,58.504z"/>
		</g>
		<g>
			<linearGradient id="SVGID_9_" gradientUnits="userSpaceOnUse" x1="42.2041" y1="71.7363" x2="52.4204" y2="71.7363">
				<stop  offset="0" style="stop-color:#EFC12C"/>
				<stop  offset="1" style="stop-color:#D7382D"/>
			</linearGradient>
			<path fill="url(#SVGID_9_)" d="M47.309,76.846L47.309,76.846c-1.242-0.001-2.439-0.451-3.371-1.27
				c-2.115-1.858-2.324-5.094-0.465-7.211c0.97-1.104,2.37-1.738,3.842-1.738c1.24,0,2.437,0.451,3.368,1.269
				c1.024,0.899,1.638,2.146,1.727,3.509c0.09,1.363-0.357,2.68-1.257,3.704C50.184,76.212,48.782,76.846,47.309,76.846z
				 M47.314,70.627c-0.188,0-0.548,0.049-0.836,0.377c-0.404,0.461-0.36,1.164,0.1,1.566c0.258,0.227,0.539,0.275,0.73,0.275l0,0
				c0.189,0,0.551-0.049,0.838-0.377c0.194-0.222,0.291-0.507,0.271-0.804c-0.02-0.298-0.152-0.569-0.375-0.764
				C47.786,70.675,47.505,70.627,47.314,70.627z"/>
		</g>
		<g>
			<linearGradient id="SVGID_10_" gradientUnits="userSpaceOnUse" x1="31.4453" y1="83.9863" x2="41.6646" y2="83.9863">
				<stop  offset="0" style="stop-color:#EFC12C"/>
				<stop  offset="1" style="stop-color:#D7382D"/>
			</linearGradient>
			<path fill="url(#SVGID_10_)" d="M36.554,89.096L36.554,89.096c-1.242,0-2.439-0.451-3.372-1.27
				c-1.024-0.898-1.637-2.146-1.726-3.509c-0.088-1.362,0.359-2.677,1.259-3.7c0.97-1.105,2.371-1.739,3.845-1.739
				c1.24,0,2.436,0.45,3.367,1.269c1.024,0.898,1.638,2.145,1.727,3.509s-0.358,2.681-1.259,3.705
				C39.426,88.463,38.025,89.096,36.554,89.096z M36.56,82.878c-0.189,0-0.55,0.049-0.839,0.378
				c-0.195,0.223-0.292,0.508-0.272,0.804s0.151,0.566,0.373,0.761c0.259,0.228,0.541,0.275,0.732,0.275
				c0.188,0,0.549-0.049,0.835-0.375c0.195-0.223,0.292-0.508,0.272-0.806c-0.019-0.298-0.152-0.568-0.374-0.763
				C37.029,82.926,36.749,82.878,36.56,82.878z"/>
		</g>
		<linearGradient id="SVGID_11_" gradientUnits="userSpaceOnUse" x1="-11.5649" y1="50.7686" x2="36.8052" y2="50.7686">
			<stop  offset="0" style="stop-color:#EFC12C"/>
			<stop  offset="1" style="stop-color:#D7382D"/>
		</linearGradient>
		<path fill="url(#SVGID_11_)" d="M4.835,86.52c-0.251,0-0.504-0.047-0.746-0.145c-2.618-1.054-5.022-2.534-7.147-4.4
			c-5.019-4.406-8.021-10.504-8.453-17.168s1.756-13.098,6.162-18.115l27.213-30.993c0.729-0.83,1.992-0.912,2.822-0.184
			l11.438,10.042c0.398,0.35,0.642,0.844,0.677,1.374c0.034,0.529-0.144,1.051-0.493,1.449L9.094,59.373
			c-5.877,6.693-6.888,16.404-2.515,24.164c0.417,0.74,0.321,1.663-0.239,2.301C5.952,86.28,5.4,86.52,4.835,86.52z M23.551,19.84
			l-25.894,29.49c-3.701,4.215-5.54,9.619-5.176,15.216c0.363,5.599,2.885,10.721,7.101,14.422c0.394,0.347,0.8,0.678,1.217,0.991
			c-2.234-8.008-0.362-16.789,5.29-23.226l25.895-29.49L23.551,19.84z"/>
		<g>
			<linearGradient id="SVGID_12_" gradientUnits="userSpaceOnUse" x1="2.8359" y1="71.8008" x2="71.373" y2="71.8008">
				<stop  offset="0" style="stop-color:#EFC12C"/>
				<stop  offset="1" style="stop-color:#D7382D"/>
			</linearGradient>
			<path fill="url(#SVGID_12_)" d="M24.866,98.231c-6.067,0-11.923-2.207-16.487-6.214c-2.124-1.865-3.903-4.059-5.286-6.518
				c-0.417-0.74-0.32-1.662,0.241-2.301c0.56-0.638,1.462-0.853,2.25-0.535c2.5,1.009,5.143,1.521,7.853,1.521
				c6.045,0,11.798-2.603,15.783-7.14l27.214-30.994c0.35-0.399,0.844-0.642,1.373-0.676c0.538-0.033,1.052,0.143,1.449,0.493
				l11.437,10.043c0.83,0.729,0.912,1.993,0.184,2.822L43.662,89.727C38.916,95.131,32.065,98.231,24.866,98.231z M9.878,87.933
				c0.365,0.372,0.746,0.732,1.14,1.079c3.834,3.366,8.752,5.22,13.848,5.22c6.048,0,11.804-2.604,15.79-7.145l25.895-29.49
				l-8.431-7.403l-25.895,29.49c-4.744,5.402-11.592,8.501-18.789,8.501C12.238,88.185,11.05,88.1,9.878,87.933z"/>
		</g>
	</g>
</g>
</svg>
