<?xml version="1.0" encoding="utf-8"?>
<!-- Generator: Adobe Illustrator 16.0.0, SVG Export Plug-In . SVG Version: 6.00 Build 0)  -->
<!DOCTYPE svg PUBLIC "-//W3C//DTD SVG 1.1//EN" "http://www.w3.org/Graphics/SVG/1.1/DTD/svg11.dtd">
<svg version="1.1" id="图层_1" xmlns="http://www.w3.org/2000/svg" xmlns:xlink="http://www.w3.org/1999/xlink" x="0px" y="0px"
	 width="110px" height="114.667px" viewBox="0 0 110 114.667" enable-background="new 0 0 110 114.667"
	 xml:space="preserve">
<g>
	<g>
		<circle fill="#F7F7F7" stroke="#C7C8C8" stroke-miterlimit="10" cx="11.939" cy="54.875" r="88.8"/>
	</g>
</g>
<g>
	<g>
		<defs>
			<polygon id="SVGID_1_" points="321.25,114.057 321.25,114.057 1.713,114.057 1.713,114.057 1.713,3.39 1.713,3.39 321.25,3.39
				321.25,3.39 			"/>
		</defs>
	</g>
</g>
<g>
	<defs>
		<rect id="SVGID_3_" x="1.82" y="13.053" width="90" height="91"/>
	</defs>
	<g>
		<linearGradient id="SVGID_5_" gradientUnits="userSpaceOnUse" x1="-10.5132" y1="58.7227" x2="51.4595" y2="58.7227">
			<stop  offset="0" style="stop-color:#EFC12C"/>
			<stop  offset="1" style="stop-color:#D7382D"/>
		</linearGradient>
		<path fill="url(#SVGID_5_)" d="M-7.934,98.723c-1.422,0-2.579-1.154-2.579-2.577c0-1.422,1.157-2.579,2.579-2.579H7.606V80.709
			H-5.567c-2.728,0-4.946-2.223-4.946-4.957v-52.07c0-2.734,2.218-4.958,4.946-4.958h52.066c2.736,0,4.961,2.224,4.961,4.958v52.07
			c0,2.734-2.225,4.957-4.961,4.957h-10.73v12.857H48.88c1.422,0,2.58,1.157,2.58,2.579c0,1.423-1.157,2.577-2.58,2.577H-7.934z
			 M12.763,93.566h17.849V80.709H12.763V93.566z M-5.354,75.55h51.658V23.881H-5.354V75.55z"/>
		<linearGradient id="SVGID_6_" gradientUnits="userSpaceOnUse" x1="3.1406" y1="49.627" x2="37.7949" y2="49.627">
			<stop  offset="0" style="stop-color:#EFC12C"/>
			<stop  offset="1" style="stop-color:#D7382D"/>
		</linearGradient>
		<path fill="url(#SVGID_6_)" d="M20.469,66.951c-9.556,0-17.328-7.77-17.328-17.324c0-9.553,7.772-17.324,17.328-17.324
			c9.554,0,17.326,7.771,17.326,17.324C37.795,59.182,30.022,66.951,20.469,66.951z M20.469,37.46
			c-6.709,0-12.169,5.458-12.169,12.167c0,6.71,5.46,12.167,12.169,12.167c6.71,0,12.169-5.458,12.169-12.167
			C32.638,42.918,27.179,37.46,20.469,37.46z"/>
		<linearGradient id="SVGID_7_" gradientUnits="userSpaceOnUse" x1="13.5869" y1="49.626" x2="27.3486" y2="49.626">
			<stop  offset="0" style="stop-color:#EFC12C"/>
			<stop  offset="1" style="stop-color:#D7382D"/>
		</linearGradient>
		<path fill="url(#SVGID_7_)" d="M20.469,56.509c-3.794,0-6.882-3.087-6.882-6.882c0-3.797,3.087-6.884,6.882-6.884
			c3.792,0,6.88,3.087,6.88,6.884C27.349,53.422,24.261,56.509,20.469,56.509z M20.469,47.9c-0.951,0-1.725,0.774-1.725,1.727
			c0,0.951,0.774,1.723,1.725,1.723c0.949,0,1.721-0.772,1.721-1.723C22.19,48.675,21.417,47.9,20.469,47.9z"/>
		<linearGradient id="SVGID_8_" gradientUnits="userSpaceOnUse" x1="13.5869" y1="28.082" x2="27.3486" y2="28.082">
			<stop  offset="0" style="stop-color:#EFC12C"/>
			<stop  offset="1" style="stop-color:#D7382D"/>
		</linearGradient>
		<path fill="url(#SVGID_8_)" d="M16.167,30.66c-1.422,0-2.58-1.155-2.58-2.577s1.158-2.58,2.58-2.58h8.603
			c1.422,0,2.58,1.158,2.58,2.58s-1.158,2.577-2.58,2.577H16.167z"/>
	</g>
</g>
</svg>
