<?xml version="1.0" encoding="utf-8"?>
<!-- Generator: Adobe Illustrator 16.0.0, SVG Export Plug-In . SVG Version: 6.00 Build 0)  -->
<!DOCTYPE svg PUBLIC "-//W3C//DTD SVG 1.1//EN" "http://www.w3.org/Graphics/SVG/1.1/DTD/svg11.dtd">
<svg version="1.1" id="图层_1" xmlns="http://www.w3.org/2000/svg" xmlns:xlink="http://www.w3.org/1999/xlink" x="0px" y="0px"
	 width="110px" height="114.667px" viewBox="0 0 110 114.667" enable-background="new 0 0 110 114.667" xml:space="preserve">
<g>
	<g>
		<circle fill="#F7F7F7" stroke="#C7C8C8" stroke-miterlimit="10" cx="11.939" cy="54.875" r="88.8"/>
	</g>
</g>
<linearGradient id="SVGID_1_" gradientUnits="userSpaceOnUse" x1="-12.7402" y1="58.0825" x2="61.9043" y2="58.0825">
	<stop  offset="0" style="stop-color:#EEC02A"/>
	<stop  offset="1" style="stop-color:#D6372C"/>
</linearGradient>
<path fill="url(#SVGID_1_)" d="M59.336,16.36H-10.17c-1.419,0-2.57,1.15-2.57,2.569v44.507v33.18c0,1.2,0.832,2.24,2.004,2.506
	c0.132,0.028,3.061,0.682,6.079,0.682c0.225,0,0.448-0.003,0.673-0.011c2.798-0.096,7.731-1.101,8.472-4.254
	c0.233-0.997,0.302-2.138,0.324-3.149c0.738-0.072,1.551-0.219,2.306-0.529c1.834-0.756,2.118-2.274,1.685-9.026
	c-0.207-3.202-0.645-7.431-1.258-9.703c-0.911-3.376-2.134-6.146-3.181-8.129c9.325-3.632,18.777-17.183,20.221-33.195
	c1.453,16.023,10.9,29.567,20.22,33.195c-1.049,1.983-2.272,4.753-3.183,8.129c-0.612,2.272-1.051,6.501-1.257,9.703
	c-0.433,6.752-0.151,8.271,1.685,9.026c0.754,0.311,1.567,0.457,2.305,0.529c0.023,1.012,0.091,2.152,0.326,3.15
	c0.74,3.152,5.673,4.157,8.473,4.253c0.224,0.008,0.447,0.011,0.671,0.011c3.019,0,5.947-0.653,6.079-0.682
	c1.172-0.266,2.003-1.306,2.003-2.506v-33.18V18.93C61.904,17.511,60.754,16.36,59.336,16.36 M-0.425,93.837
	c-0.598,0.304-1.984,0.761-3.737,0.821c-1.187,0.04-2.437-0.074-3.438-0.209V65.996l6.605-0.029
	c0.877,1.437,2.473,4.403,3.578,8.503c0.555,2.059,0.964,6.336,1.143,9.692C2.92,80.8,2.218,78.49,2.176,78.351
	c-0.415-1.358-1.851-2.127-3.208-1.709c-1.357,0.414-2.122,1.851-1.708,3.206c0.015,0.048,1.392,4.596,2.478,10.135
	c-0.045,0.423-0.053,0.859-0.054,1.297C-0.319,92.009-0.325,93.042-0.425,93.837 M19.642,27.255
	C19.787,45.467,7.93,60.403-0.059,60.806l-7.542,0.047V21.5h27.266L19.642,27.255z M29.523,27.224L29.5,21.5h27.267v39.354
	l-7.541-0.047C41.235,60.403,29.378,45.467,29.523,27.224 M53.327,94.659c-1.753-0.061-3.14-0.518-3.737-0.821
	c-0.1-0.795-0.104-1.827-0.107-2.558c-0.001-0.437-0.01-0.874-0.054-1.297c1.084-5.539,2.462-10.087,2.476-10.135
	c0.414-1.355-0.352-2.792-1.708-3.206c-1.357-0.415-2.792,0.351-3.208,1.709c-0.042,0.139-0.744,2.449-1.549,5.812
	c0.179-3.357,0.589-7.635,1.144-9.693c1.105-4.1,2.7-7.066,3.578-8.503l6.606,0.029V94.45
	C55.729,94.589,54.472,94.691,53.327,94.659"/>
</svg>
