<?xml version="1.0" encoding="utf-8"?>
<!-- Generator: Adobe Illustrator 16.0.0, SVG Export Plug-In . SVG Version: 6.00 Build 0)  -->
<!DOCTYPE svg PUBLIC "-//W3C//DTD SVG 1.1//EN" "http://www.w3.org/Graphics/SVG/1.1/DTD/svg11.dtd">
<svg version="1.1" id="图层_1" xmlns="http://www.w3.org/2000/svg" xmlns:xlink="http://www.w3.org/1999/xlink" x="0px" y="0px"
	 width="110px" height="114.667px" viewBox="0 0 110 114.667" enable-background="new 0 0 110 114.667" xml:space="preserve">
<g>
	<g>
		<circle fill="#F7F7F7" stroke="#EEEEEF" stroke-miterlimit="10" cx="11.939" cy="54.875" r="88.8"/>
	</g>
</g>
<linearGradient id="SVGID_1_" gradientUnits="userSpaceOnUse" x1="-12.8804" y1="55.6396" x2="61.7676" y2="55.6396" gradientTransform="matrix(1 0 0 -1 0.1401 113.7217)">
	<stop  offset="0" style="stop-color:#B4B4B5"/>
	<stop  offset="1" style="stop-color:#B4B4B5"/>
</linearGradient>
<path fill="url(#SVGID_1_)" d="M59.336,16.36H-10.17c-1.419,0-2.57,1.15-2.57,2.569v44.507v33.181c0,1.199,0.832,2.239,2.004,2.506
	c0.132,0.027,3.061,0.682,6.079,0.682c0.225,0,0.448-0.004,0.673-0.012c2.798-0.096,7.731-1.101,8.472-4.254
	c0.233-0.996,0.302-2.138,0.324-3.148c0.738-0.072,1.551-0.219,2.306-0.529c1.834-0.756,2.118-2.273,1.685-9.025
	c-0.207-3.203-0.645-7.432-1.258-9.703c-0.911-3.377-2.134-6.146-3.181-8.129c9.325-3.633,18.777-17.184,20.221-33.195
	c1.453,16.023,10.9,29.566,20.22,33.195c-1.049,1.982-2.272,4.752-3.183,8.129c-0.612,2.271-1.051,6.5-1.257,9.703
	c-0.433,6.752-0.151,8.271,1.685,9.025c0.754,0.311,1.567,0.457,2.305,0.529c0.023,1.012,0.091,2.152,0.326,3.15
	c0.74,3.151,5.673,4.156,8.473,4.252c0.224,0.008,0.447,0.012,0.671,0.012c3.019,0,5.946-0.653,6.079-0.682
	c1.172-0.267,2.003-1.307,2.003-2.506V63.436V18.93C61.904,17.511,60.754,16.36,59.336,16.36 M-0.425,93.837
	c-0.598,0.304-1.984,0.761-3.737,0.82c-1.187,0.041-2.437-0.074-3.438-0.209V65.996l6.605-0.029
	c0.877,1.438,2.473,4.404,3.578,8.504c0.555,2.059,0.964,6.336,1.143,9.691C2.92,80.8,2.218,78.49,2.176,78.351
	c-0.415-1.357-1.851-2.127-3.208-1.709c-1.357,0.414-2.122,1.852-1.708,3.206c0.015,0.048,1.392,4.596,2.478,10.135
	c-0.045,0.423-0.053,0.858-0.054,1.298C-0.319,92.009-0.325,93.042-0.425,93.837 M19.642,27.255
	C19.787,45.467,7.93,60.403-0.059,60.806l-7.542,0.047V21.5h27.266L19.642,27.255z M29.523,27.224L29.5,21.5h27.268v39.354
	l-7.542-0.047C41.235,60.403,29.378,45.467,29.523,27.224 M53.327,94.66c-1.753-0.062-3.14-0.519-3.737-0.822
	c-0.1-0.795-0.104-1.826-0.107-2.557c-0.001-0.438-0.01-0.875-0.054-1.298c1.084-5.539,2.462-10.087,2.476-10.135
	c0.414-1.354-0.352-2.792-1.708-3.206c-1.357-0.415-2.792,0.352-3.208,1.709c-0.042,0.139-0.744,2.449-1.549,5.812
	c0.179-3.357,0.589-7.636,1.144-9.693c1.105-4.1,2.7-7.066,3.578-8.504l6.605,0.029v28.455
	C55.729,94.589,54.472,94.691,53.327,94.66"/>
</svg>
