<?xml version="1.0" encoding="utf-8"?>
<!-- Generator: Adobe Illustrator 16.0.0, SVG Export Plug-In . SVG Version: 6.00 Build 0)  -->
<!DOCTYPE svg PUBLIC "-//W3C//DTD SVG 1.1//EN" "http://www.w3.org/Graphics/SVG/1.1/DTD/svg11.dtd">
<svg version="1.1" id="图层_1" xmlns="http://www.w3.org/2000/svg" xmlns:xlink="http://www.w3.org/1999/xlink" x="0px" y="0px"
	 width="110px" height="114.667px" viewBox="0 0 110 114.667" enable-background="new 0 0 110 114.667"
	 xml:space="preserve">
<g>
	<g>
		<circle fill="#F7F7F7" stroke="#EEEEEF" stroke-miterlimit="10" cx="11.939" cy="54.875" r="88.8"/>
	</g>
</g>
<g>
	<defs>
		<rect id="SVGID_3_" x="1.981" y="16.98" width="80.745" height="81.641"/>
	</defs>
	<linearGradient id="SVGID_5_" gradientUnits="userSpaceOnUse" x1="-16.7212" y1="58.5176" x2="63.2788" y2="58.5176">
		<stop  offset="0" style="stop-color:#B4B4B5"/>
		<stop  offset="1" style="stop-color:#B4B4B5"/>
	</linearGradient>
	<path fill="url(#SVGID_5_)" d="M63.033,56.061c-0.002-0.005-0.006-0.007-0.007-0.01
		c-0.002-0.005-0.002-0.007-0.004-0.011l-4.565-8.513c-0.03-0.057-0.083-0.086-0.117-0.139c-0.098-0.149-0.209-0.285-0.339-0.409
		c-0.073-0.072-0.14-0.143-0.22-0.203c-0.086-0.068-0.177-0.122-0.272-0.177c-0.091-0.054-0.184-0.098-0.282-0.139
		c-0.155-0.067-0.311-0.109-0.475-0.143c-0.099-0.02-0.192-0.043-0.294-0.048c-0.042-0.004-0.083-0.023-0.125-0.023
		c-0.119,0-0.221,0.052-0.335,0.069c-0.116,0.019-0.23,0-0.346,0.036l-3.382,1.054l-7.203-8.107
		c-0.012-0.011-0.028-0.016-0.039-0.03c-0.014-0.015-0.018-0.034-0.032-0.049c-0.075-0.078-0.187-0.172-0.301-0.261
		c0,0-0.003-0.003-0.006-0.005c-0.084-0.064-0.171-0.132-0.239-0.173c-0.04-0.024-0.084-0.024-0.124-0.046
		c-0.5-0.282-1.074-0.411-1.689-0.325c-0.042,0.006-0.074,0.032-0.115,0.041c-0.047,0.009-0.091-0.004-0.138,0.007l-0.076,0.019
		c-0.005,0.002-0.008,0.006-0.014,0.007c0,0-0.006,0-0.009,0L1.35,48.845c-0.042,0.011-0.073,0.04-0.113,0.053
		c-0.055,0.016-0.11,0.005-0.164,0.025C0.86,49,0.597,49.147,0.407,49.291c-0.011,0.006-0.023,0.007-0.033,0.014l-15.286,11.538
		c-0.004,0.003-0.005,0.009-0.011,0.011c-0.023,0.018-0.053,0.041-0.088,0.067l-0.002,0.001l-0.001,0.002
		c-0.072,0.057-0.147,0.117-0.18,0.145c-0.023,0.021-0.153,0.141-0.176,0.162c-0.051,0.047-0.101,0.1-0.146,0.151
		c-0.049,0.058-0.166,0.202-0.21,0.265c-0.051,0.069-0.102,0.162-0.152,0.252c-0.015,0.025-0.03,0.047-0.044,0.072
		c-0.063,0.123-0.12,0.251-0.157,0.36c-0.006,0.018-0.001,0.036-0.006,0.054c-0.016,0.046-0.041,0.084-0.053,0.131
		c-0.001,0.003-0.002,0.006-0.002,0.006l-0.103,0.398c-0.003,0.016,0.002,0.031-0.002,0.046c-0.003,0.013-0.013,0.022-0.017,0.038
		l-0.378,1.48c-0.001,0.004-0.005,0.009-0.007,0.013c-0.002,0.007,0,0.016-0.002,0.022l-0.009,0.035
		c-0.009,0.031,0.002,0.064-0.005,0.1c-0.239,1.109,0.276,2.211,1.352,2.775c0.002,0.003,0.002,0.004,0.002,0.004h0.002
		l0.002,0.001l0.002,0.003l18.54,9.723c0.089,0.045,0.182,0.068,0.274,0.102c0.041,0.016,0.075,0.039,0.116,0.052
		c0.009,0.004,0.014,0.011,0.023,0.013l3.875,1.148h0.001l0.272,0.082c0.219,0.066,0.439,0.096,0.656,0.096
		c0,0,0.02-0.004,0.029-0.004h0.001l0.008,0.001c0.01,0,0.019-0.006,0.029-0.006c0.205-0.005,0.405-0.044,0.602-0.099
		c0.025-0.007,0.049-0.012,0.074-0.021c0.026-0.008,0.054-0.004,0.08-0.014l52.484-19.144c0.054-0.021,0.089-0.062,0.14-0.085
		c0.13-0.057,0.263-0.104,0.384-0.188c0.046-0.031,0.072-0.084,0.116-0.117c0.112-0.093,0.203-0.195,0.294-0.304
		c0.095-0.112,0.183-0.222,0.254-0.349c0.065-0.118,0.113-0.235,0.157-0.361c0.007-0.021,0.02-0.04,0.027-0.061
		c0.018-0.05,0.05-0.096,0.064-0.148c0.026-0.099,0.022-0.203,0.036-0.303c0.008-0.074,0.016-0.141,0.017-0.213
		c0.006-0.121,0.037-0.236,0.023-0.357C63.247,56.596,63.168,56.317,63.033,56.061z M-1.471,67.726
		c0.025,0.077,0.018,0.154,0.051,0.229l0.928,2.075l-11.161-5.855l11.699-8.823l0.873,8.616l-1.508,1.018
		c-0.059,0.04-0.089,0.102-0.143,0.146c-0.052,0.041-0.115,0.056-0.162,0.103c-0.071,0.068-0.113,0.161-0.174,0.238
		c-0.076,0.096-0.151,0.184-0.21,0.289c-0.071,0.127-0.117,0.263-0.165,0.4c-0.014,0.032-0.024,0.064-0.036,0.098
		c-0.025,0.084-0.063,0.162-0.077,0.251c-0.022,0.113-0.02,0.228-0.026,0.341c-0.009,0.121-0.016,0.238-0.005,0.36
		C-1.573,67.389-1.526,67.557-1.471,67.726z M4.395,52.803l37.975-9.612l4.986,5.613l-0.223,0.069
		c-0.013,0.004-0.022,0.014-0.036,0.021c-0.015,0.004-0.029,0-0.043,0.004c-0.132,0.045-0.235,0.115-0.354,0.17
		c-0.017,0.005-0.034,0.002-0.051,0.009c-0.007,0.003-0.011,0.009-0.018,0.012c-0.005,0.001-0.011,0.004-0.011,0.004
		c-0.034,0.013-0.053,0.041-0.083,0.053c-0.05,0.028-0.106,0.045-0.154,0.074c-0.021,0.012-0.046,0.01-0.067,0.023
		c-0.011,0.006-0.02,0.014-0.03,0.021c-0.002,0.001-0.005,0.001-0.008,0.003l-0.004,0.001L13.92,59.338
		c-0.16-0.092-0.326-0.164-0.49-0.21c-0.459-0.126-1.024-0.089-1.514,0.076c-0.014,0.005-0.029,0.005-0.043,0.011
		c-0.015,0.006-0.032,0.006-0.047,0.012c-0.039,0.016-0.073,0.039-0.112,0.058c-0.014,0.005-0.026,0.013-0.04,0.021
		c-0.204,0.029-0.399,0.083-0.585,0.154c-0.047,0.02-0.089,0.042-0.136,0.065c-0.01,0.005-0.019,0.009-0.027,0.014
		c-0.13,0.021-0.253,0.06-0.378,0.097c-0.03,0.008-0.063,0.004-0.092,0.016c-0.027,0.007-0.051,0.021-0.077,0.029
		c-0.057,0.023-0.104,0.053-0.158,0.076c-0.13,0.02-0.254,0.057-0.379,0.092c-0.027,0.01-0.054,0.014-0.082,0.022
		c-0.003,0.002-0.006,0.003-0.006,0.003c-0.047,0.014-0.091,0.024-0.134,0.041c-0.047,0.021-0.086,0.045-0.131,0.068
		c-0.156,0.021-0.306,0.061-0.452,0.107c-0.015,0.004-0.029,0.007-0.043,0.012c-0.028,0.008-0.056,0.016-0.083,0.027
		c-0.043,0.016-0.081,0.041-0.123,0.059c-0.012,0.006-0.022,0.014-0.035,0.018c-0.148,0.021-0.293,0.061-0.435,0.105
		c-0.004,0-0.009,0-0.013,0.002c-0.049,0.015-0.096,0.03-0.144,0.048c-0.05,0.02-0.095,0.046-0.143,0.069
		c-0.089,0.04-0.184,0.074-0.263,0.125c-0.051,0.032-0.077,0.085-0.125,0.119c-0.039,0.029-0.085,0.035-0.123,0.067
		c-0.032,0.024-0.048,0.062-0.079,0.089c-0.024,0.024-0.057,0.033-0.082,0.058c-0.056,0.054-0.082,0.124-0.13,0.187
		c-0.043,0.053-0.099,0.098-0.138,0.158c-0.069,0.094-0.132,0.188-0.186,0.289l-1.566,0.49L4.395,52.803z M9.765,73.453
		l-3.167-7.037l7.285-2.268c0.003,0,0.005,0,0.005,0l41.377-12.876l2.505,4.672L9.765,73.453z"/>
</g>
</svg>
