<?xml version="1.0" encoding="utf-8"?>
<!-- Generator: Adobe Illustrator 16.0.0, SVG Export Plug-In . SVG Version: 6.00 Build 0)  -->
<!DOCTYPE svg PUBLIC "-//W3C//DTD SVG 1.1//EN" "http://www.w3.org/Graphics/SVG/1.1/DTD/svg11.dtd">
<svg version="1.1" id="图层_1" xmlns="http://www.w3.org/2000/svg" xmlns:xlink="http://www.w3.org/1999/xlink" x="0px" y="0px"
	 width="110px" height="114.667px" viewBox="0 0 110 114.667" enable-background="new 0 0 110 114.667"
	 xml:space="preserve">
<g>
	<g>
		<circle fill="#F7F7F7" stroke="#C7C8C8" stroke-miterlimit="10" cx="11.939" cy="54.875" r="88.8"/>
	</g>
</g>
<g>
	<defs>
		<rect id="SVGID_3_" x="1.654" y="12.387" width="90" height="91"/>
	</defs>
	<g>
		<linearGradient id="SVGID_5_" gradientUnits="userSpaceOnUse" x1="-14.5566" y1="56.9565" x2="68.9761" y2="56.9565">
			<stop  offset="0" style="stop-color:#EFC12C"/>
			<stop  offset="1" style="stop-color:#D7382D"/>
		</linearGradient>
		<path fill="url(#SVGID_5_)" d="M68.783,32.665c-0.393-1.076-1.331-1.863-2.459-2.062l-77.113-13.596
			c-1.139-0.202-2.279,0.221-3.017,1.098c-0.737,0.88-0.949,2.084-0.558,3.159l26.779,73.58c0.393,1.079,1.33,1.867,2.458,2.066
			c0.187,0.03,0.373,0.046,0.558,0.046c0.938,0,1.843-0.41,2.458-1.146l50.334-59.983C68.962,34.948,69.174,33.744,68.783,32.665z
			 M12.363,75.929L-6.43,24.293l54.453,9.602L12.363,75.929z M16.547,87.428l-1.657-4.555l40.455-47.688l4.39,0.774L16.547,87.428z
			"/>
	</g>
</g>
</svg>
