<?xml version="1.0" encoding="utf-8"?>
<!-- Generator: Adobe Illustrator 16.0.0, SVG Export Plug-In . SVG Version: 6.00 Build 0)  -->
<!DOCTYPE svg PUBLIC "-//W3C//DTD SVG 1.1//EN" "http://www.w3.org/Graphics/SVG/1.1/DTD/svg11.dtd">
<svg version="1.1" id="图层_1" xmlns="http://www.w3.org/2000/svg" xmlns:xlink="http://www.w3.org/1999/xlink" x="0px" y="0px"
	 width="22.927px" height="20.974px" viewBox="0 0 22.927 20.974" enable-background="new 0 0 22.927 20.974" xml:space="preserve">
<path fill-rule="evenodd" clip-rule="evenodd" fill="#B81C25" d="M22.755,0.225L22.755,0.225C22.637,0.079,22.466,0,22.283,0h-0.579
	C16.049,0,11.579,0,8.278,0.79C6.503,1.21,5.122,1.855,4.07,2.749C2.939,3.722,2.164,4.984,1.704,6.627
	c-0.303,1.092-0.447,3.065,0.157,5.011c0.224,0.71,0.553,1.381,1,1.998c-1.315,2.262-1.814,3.445-1.814,6.706
	c0,0.343,0.275,0.632,0.631,0.632c0.342,0,0.631-0.275,0.631-0.632c0-4.798,2.117-7.034,3.813-8.823
	c0.118-0.117,0.236-0.249,0.342-0.355c1.302-1.3,2.773-2.405,4.261-3.182c1.381-0.723,2.695-1.118,3.707-1.118
	c0.343,0,0.632-0.276,0.632-0.63c0-0.342-0.276-0.632-0.632-0.632c-1.223,0-2.707,0.434-4.286,1.262
	c-1.604,0.842-3.182,2.013-4.563,3.406c-0.695,0.698-1.354,1.459-1.933,2.249c-0.249-0.395-0.434-0.828-0.565-1.262
	C2.531,9.442,2.729,7.693,2.939,6.943c1.591-5.707,7.64-5.72,18.606-5.707c-1.314,6.983-3.76,11.519-7.259,13.453
	c-3.248,1.801-6.481,0.814-7.718,0.315c-0.263-0.104-0.525-0.237-0.775-0.394c-0.145-0.08-0.316-0.106-0.474-0.066
	c-0.158,0.039-0.303,0.145-0.382,0.289c-0.092,0.145-0.105,0.315-0.066,0.473c0.04,0.158,0.146,0.303,0.29,0.381
	c0.303,0.186,0.618,0.343,0.946,0.475c0.697,0.289,1.842,0.656,3.234,0.775c0.303,0.027,0.605,0.039,0.921,0.039
	c1.657,0,3.222-0.395,4.643-1.184c1.814-0.999,3.379-2.629,4.668-4.852c1.499-2.59,2.63-6.036,3.354-10.217
	C22.927,0.553,22.875,0.369,22.755,0.225L22.755,0.225z"/>
</svg>
