<?xml version="1.0" encoding="utf-8"?>
<!-- Generator: Adobe Illustrator 16.0.0, SVG Export Plug-In . SVG Version: 6.00 Build 0)  -->
<!DOCTYPE svg PUBLIC "-//W3C//DTD SVG 1.1//EN" "http://www.w3.org/Graphics/SVG/1.1/DTD/svg11.dtd">
<svg version="1.1" id="图层_1" xmlns="http://www.w3.org/2000/svg" xmlns:xlink="http://www.w3.org/1999/xlink" x="0px" y="0px"
	 width="110px" height="114.667px" viewBox="0 0 110 114.667" enable-background="new 0 0 110 114.667" xml:space="preserve">
<g>
	<g>
		<circle fill="#F7F7F7" stroke="#EEEEEF" stroke-miterlimit="10" cx="11.939" cy="54.875" r="88.8"/>
	</g>
</g>
<linearGradient id="SVGID_1_" gradientUnits="userSpaceOnUse" x1="-217.626" y1="432.2495" x2="-217.626" y2="419.6929" gradientTransform="matrix(8.1264 0 0 -8.1264 1776.4414 3518.9319)">
	<stop  offset="0" style="stop-color:#B5B4B5"/>
	<stop  offset="1" style="stop-color:#B5B4B5"/>
</linearGradient>
<path fill="url(#SVGID_1_)" d="M4.615,108.259c-1.016,0-1.846-0.591-2.308-1.575c-0.462-1.082-1.293-2.559-1.754-3.05l-0.092-0.099
	l-0.093-0.099c-0.831-0.688-2.955-2.264-4.062-3.051c-0.739-0.492-1.108-1.377-1.108-2.361V83.362l-0.092-0.196
	c-0.831-1.574-1.939-3.346-2.309-3.838c-0.554-0.591-0.739-1.279-0.739-2.066c0.37-9.546-5.078-33.852-6.001-37.198v-0.197
	l-0.092-0.099c-2.309-3.542-6.372-13.285-6.372-16.532v-5.019c0-4.625,4.248-8.069,12.465-10.038
	C-1.756,6.704,4.984,6.31,7.939,6.31s9.695,0.394,15.881,1.87c8.311,1.968,12.466,5.413,12.466,10.038v5.019
	c0,3.248-4.063,12.99-6.372,16.532l-0.092,0.099v0.197c-0.831,3.346-6.371,27.553-6.002,37.099c0,0.688-0.184,1.476-0.646,1.968
	c-0.462,0.591-1.478,2.362-2.309,3.937l-0.093,0.197v14.859c0,0.885-0.461,1.771-1.108,2.361c-1.016,0.787-3.232,2.361-4.062,3.051
	l-0.092,0.099l-0.093,0.098c-0.461,0.591-1.292,2.165-1.754,3.051c-0.462,0.984-1.385,1.574-2.309,1.574h-6.74V108.259z
	 M0.46,96.746l0.369,0.295c1.385,1.083,2.401,1.771,2.863,2.165c0.646,0.492,1.384,1.574,2.216,2.952l0.277,0.492h3.509l0.277-0.492
	c0.831-1.378,1.57-2.46,2.216-2.952c0.462-0.394,1.478-1.181,2.863-2.165l0.369-0.295V85.429H0.46V96.746z M-7.758,43.409
	c1.477,6.79,4.986,23.519,5.079,32.67v0.296l0.185,0.295c0.369,0.591,0.831,1.378,1.569,2.657l0.277,0.492h17.266l0.277-0.492
	c0.646-1.181,1.201-2.066,1.57-2.657l0.185-0.196v-0.296c0-9.151,3.509-25.88,5.078-32.67l0.277-1.378l-1.293,0.197
	c-4.432,0.59-9.141,0.886-13.942,0.886c-6.371,0-11.819-0.492-15.328-0.886L-7.85,42.13L-7.758,43.409z M7.939,11.919
	c-2.585,0-8.402,0.295-13.943,1.574c-5.816,1.279-8.771,3.149-9.14,4.428v0.099v5.215v0.099c0.185,1.968,3.046,9.152,4.893,12.399
	l0.185,0.394l0.462,0.098c2.678,0.394,9.694,1.378,18.374,1.378c6.001,0,11.634-0.492,16.805-1.378l0.461-0.098l0.185-0.394
	c1.847-3.247,4.709-10.529,4.894-12.399v-0.099v-5.117v-0.098c-0.37-1.279-3.325-3.149-9.141-4.428
	C16.341,12.214,10.524,11.919,7.939,11.919z"/>
</svg>
