<?xml version="1.0" encoding="utf-8"?>
<!-- Generator: Adobe Illustrator 16.0.0, SVG Export Plug-In . SVG Version: 6.00 Build 0)  -->
<!DOCTYPE svg PUBLIC "-//W3C//DTD SVG 1.1//EN" "http://www.w3.org/Graphics/SVG/1.1/DTD/svg11.dtd">
<svg version="1.1" id="图层_1" xmlns="http://www.w3.org/2000/svg" xmlns:xlink="http://www.w3.org/1999/xlink" x="0px" y="0px"
	 width="24.417px" height="34.5px" viewBox="0 0 24.417 34.5" enable-background="new 0 0 24.417 34.5" xml:space="preserve">
<g>
	<g>
		<path fill="#B3B2B3" d="M11.377,19.32c0,0.309-0.03,0.604-0.091,0.889c-0.061,0.285-0.175,0.549-0.343,0.791
			c-0.214,0.317-0.482,0.565-0.804,0.741c-0.322,0.178-0.712,0.267-1.168,0.267c-0.458,0-0.847-0.089-1.169-0.267
			C7.479,21.565,7.211,21.317,6.997,21c-0.168-0.242-0.282-0.506-0.343-0.791c-0.061-0.284-0.091-0.58-0.091-0.889
			c0-0.308,0.03-0.604,0.091-0.888c0.061-0.285,0.175-0.548,0.343-0.791c0.215-0.317,0.482-0.564,0.805-0.742
			c0.322-0.176,0.711-0.266,1.169-0.266c0.456,0,0.847,0.09,1.168,0.266c0.322,0.178,0.59,0.425,0.804,0.742
			c0.168,0.243,0.282,0.506,0.343,0.791C11.347,18.716,11.377,19.013,11.377,19.32z M9.992,19.32c0-0.187-0.012-0.368-0.035-0.546
			C9.933,18.598,9.884,18.438,9.81,18.3c-0.075-0.141-0.18-0.253-0.315-0.336c-0.135-0.084-0.309-0.127-0.524-0.127
			s-0.39,0.043-0.525,0.127C8.31,18.047,8.205,18.159,8.13,18.3c-0.075,0.139-0.124,0.298-0.147,0.475
			c-0.023,0.178-0.035,0.359-0.035,0.546c0,0.188,0.012,0.369,0.035,0.546c0.023,0.178,0.073,0.336,0.147,0.477
			c0.074,0.141,0.18,0.251,0.314,0.336c0.136,0.084,0.311,0.126,0.525,0.126s0.389-0.042,0.524-0.126
			c0.135-0.085,0.24-0.195,0.315-0.336c0.074-0.141,0.123-0.299,0.147-0.477C9.979,19.689,9.992,19.508,9.992,19.32z M9.236,26.976
			l-1.035-0.784l7.066-9.613l1.063,0.741L9.236,26.976z M17.884,24.148c0,0.308-0.03,0.604-0.091,0.889
			c-0.062,0.284-0.176,0.55-0.343,0.791c-0.215,0.318-0.483,0.564-0.805,0.742c-0.321,0.177-0.712,0.266-1.169,0.266
			s-0.847-0.089-1.169-0.266c-0.321-0.178-0.59-0.424-0.805-0.742c-0.167-0.241-0.281-0.507-0.343-0.791
			c-0.061-0.284-0.091-0.581-0.091-0.889s0.03-0.604,0.091-0.888c0.062-0.285,0.175-0.549,0.343-0.791
			c0.215-0.317,0.483-0.564,0.805-0.741c0.322-0.178,0.712-0.267,1.169-0.267s0.848,0.089,1.169,0.267
			c0.321,0.177,0.59,0.424,0.805,0.741c0.167,0.242,0.281,0.506,0.343,0.791C17.854,23.544,17.884,23.841,17.884,24.148z
			 M16.499,24.148c0-0.187-0.012-0.368-0.034-0.546c-0.023-0.176-0.072-0.335-0.147-0.476s-0.18-0.251-0.314-0.336
			c-0.136-0.084-0.311-0.126-0.525-0.126s-0.39,0.042-0.524,0.126c-0.136,0.085-0.241,0.195-0.315,0.336
			c-0.075,0.141-0.124,0.3-0.146,0.476c-0.023,0.178-0.035,0.359-0.035,0.546s0.012,0.368,0.035,0.546
			c0.022,0.178,0.071,0.336,0.146,0.476c0.074,0.141,0.18,0.253,0.315,0.336c0.135,0.084,0.31,0.126,0.524,0.126
			s0.39-0.042,0.525-0.126c0.135-0.083,0.239-0.195,0.314-0.336c0.075-0.14,0.124-0.298,0.147-0.476
			C16.487,24.517,16.499,24.335,16.499,24.148z"/>
		<g>
			<path fill="#B3B2B3" d="M12.224,33.804c-6.342,0-11.501-5.16-11.501-11.502c0-6.035,10.209-20.57,10.644-21.187
				c0.394-0.558,1.322-0.558,1.715,0c0.435,0.616,10.644,15.151,10.644,21.187C23.725,28.644,18.566,33.804,12.224,33.804z
				 M12.224,3.566c-3.25,4.781-9.402,14.671-9.402,18.735c0,5.185,4.217,9.402,9.402,9.402c5.184,0,9.402-4.218,9.402-9.402
				C21.625,18.235,15.474,8.348,12.224,3.566z"/>
		</g>
	</g>
</g>
</svg>
