<?xml version="1.0" encoding="utf-8"?>
<!-- Generator: Adobe Illustrator 16.0.0, SVG Export Plug-In . SVG Version: 6.00 Build 0)  -->
<!DOCTYPE svg PUBLIC "-//W3C//DTD SVG 1.1//EN" "http://www.w3.org/Graphics/SVG/1.1/DTD/svg11.dtd">
<svg version="1.1" id="图层_1" xmlns="http://www.w3.org/2000/svg" xmlns:xlink="http://www.w3.org/1999/xlink" x="0px" y="0px"
	 width="110px" height="114.667px" viewBox="0 0 110 114.667" enable-background="new 0 0 110 114.667" xml:space="preserve">
<g>
	<g>
		<circle fill="#F7F7F7" stroke="#C7C8C8" stroke-miterlimit="10" cx="11.939" cy="54.875" r="88.8"/>
	</g>
</g>
<g>
	<g>
        <linearGradient id="SVGID_1_" gradientUnits="userSpaceOnUse" x1="-201.1147" y1="434.0679" x2="-201.1147" y2="416.4487" gradientTransform="matrix(5.9528 0 0 -5.9528 1201.1953 2588.7585)">
        <stop  offset="0" style="stop-color:#F9C820"/>
        <stop  offset="1" style="stop-color:#E4352B"/>
    </linearGradient>
    <path fill="url(#SVGID_1_)" d="M46.52,7.326c0-1.397-0.936-2.496-2.126-2.496s-2.126,1.098-2.126,2.496v27.941
        c-1.36-2.794-3.061-5.589-5.102-7.883c-4.763-5.39-10.206-8.283-19.985-10.378c-0.085,0-0.085,0-0.17,0
        c-0.425-0.1-10.545-1.397-15.137-1.198c-6.208,0.399-11.225,1.098-14.967,2.295c-7.484,2.396-13.266,6.088-17.093,10.979
        c-6.123,7.983-8.333,19.258-8.333,24.947v53.189c0,1.397,0.935,2.495,2.126,2.495h80.787c1.19,0,2.126-1.098,2.126-2.495V51.333
        c0-0.3,0-0.699,0-1.098c0-0.099,0-0.3,0-0.399V7.326z M41.758,104.621h-5.613V89.952h5.613V104.621z M42.268,84.963H34.02
        c-1.191,0-2.127,1.099-2.127,2.495v17.162h-66.16V53.927c0-4.688,1.956-14.67,7.228-21.554c3.232-4.191,8.334-7.384,14.967-9.58
        c3.401-1.098,8.164-1.796,14.031-2.096c4.082-0.2,13.437,0.998,14.372,1.097c8.929,1.997,13.606,4.392,17.773,9.083
        c5.273,5.886,8.164,15.767,8.164,20.357V84.963z M23.219,85.961c-2.296,0-4.337,1.797-5.017,4.191
        c-0.68-2.395-2.721-4.191-5.018-4.191c-2.296,0-4.252,1.797-5.017,4.191c-0.681-2.395-2.721-4.191-5.017-4.191
        c-2.296,0-4.337,1.797-5.018,4.191c-0.68-2.395-2.721-4.191-5.017-4.191c-2.296,0-4.252,1.797-5.018,4.191
        c-0.68-2.395-2.721-4.191-5.017-4.191c-2.211,0-4.167,1.696-4.933,3.99c-0.765-2.396-2.721-4.091-5.102-4.091
        c-2.977,0-5.443,2.895-5.443,6.388s2.466,6.386,5.443,6.386c2.296,0,4.337-1.697,5.102-4.093c0.766,2.298,2.721,3.994,4.933,3.994
        c2.296,0,4.251-1.797,5.017-4.191c0.68,2.395,2.721,4.191,5.018,4.191c2.296,0,4.252-1.797,5.017-4.191
        c0.68,2.395,2.721,4.191,5.018,4.191c2.296,0,4.251-1.797,5.017-4.191c0.68,2.395,2.721,4.191,5.017,4.191
        c2.296,0,4.337-1.797,5.018-4.191c0.68,2.395,2.721,4.191,5.017,4.191c2.892,0,5.272-2.794,5.272-6.188
        C28.491,88.755,26.11,85.961,23.219,85.961z M-26.954,93.646c-0.681,0-1.191-0.599-1.191-1.397s0.51-1.397,1.191-1.397
        c0.68,0,1.19,0.599,1.19,1.397C-25.764,92.947-26.274,93.646-26.954,93.646z M-16.919,93.446c-0.596,0-1.021-0.599-1.021-1.197
        c0-0.698,0.51-1.199,1.021-1.199c0.595,0,1.02,0.601,1.02,1.199C-15.814,92.847-16.324,93.446-16.919,93.446z M-6.885,93.446
        c-0.596,0-1.021-0.599-1.021-1.197c0-0.698,0.51-1.199,1.021-1.199c0.595,0,1.02,0.601,1.02,1.199
        C-5.779,92.847-6.29,93.446-6.885,93.446z M3.15,93.446c-0.596,0-1.021-0.599-1.021-1.197c0-0.698,0.51-1.199,1.021-1.199
        c0.51,0,1.02,0.601,1.02,1.199C4.255,92.847,3.745,93.446,3.15,93.446z M13.184,93.446c-0.595,0-1.021-0.599-1.021-1.197
        c0-0.698,0.51-1.199,1.021-1.199c0.595,0,1.021,0.601,1.021,1.199S13.779,93.446,13.184,93.446z M23.219,93.446
        c-0.595,0-1.021-0.599-1.021-1.197c0-0.698,0.511-1.199,1.021-1.199c0.595,0,1.021,0.601,1.021,1.199S23.814,93.446,23.219,93.446
        z"/>
	</g>
</g>
</svg>
