<?xml version="1.0" encoding="utf-8"?>
<!-- Generator: Adobe Illustrator 16.0.0, SVG Export Plug-In . SVG Version: 6.00 Build 0)  -->
<!DOCTYPE svg PUBLIC "-//W3C//DTD SVG 1.1//EN" "http://www.w3.org/Graphics/SVG/1.1/DTD/svg11.dtd">
<svg version="1.1" id="图层_1" xmlns="http://www.w3.org/2000/svg" xmlns:xlink="http://www.w3.org/1999/xlink" x="0px" y="0px"
	 width="110px" height="114.667px" viewBox="0 0 110 114.667" enable-background="new 0 0 110 114.667" xml:space="preserve">
<g>
	<g>
		<circle fill="#F7F7F7" stroke="#C7C8C8" stroke-miterlimit="10" cx="11.939" cy="54.875" r="88.8"/>
	</g>
</g>
<g>
	<g>
        <linearGradient id="SVGID_1_" gradientUnits="userSpaceOnUse" x1="-217.9512" y1="432.9546" x2="-217.9512" y2="420.5903" gradientTransform="matrix(8.2538 0 0 -8.2538 1810.8691 3579.8423)">
            <stop  offset="0" style="stop-color:#F9C820"/>
            <stop  offset="1" style="stop-color:#E4352B"/>
        </linearGradient>
        <path fill="url(#SVGID_1_)" d="M37.146,6.31h-50.415c-5.588,0-10.226,3.902-10.226,8.604v84.839c0,4.702,4.637,8.604,10.226,8.604
        h50.415c5.588,0,10.226-3.901,10.226-8.604V14.914C47.372,10.212,42.734,6.31,37.146,6.31z M41.308,99.753
        c0,1.9-1.902,3.502-4.162,3.502h-50.415c-2.259,0-4.162-1.602-4.162-3.502V14.914c0-1.901,1.902-3.502,4.162-3.502h50.415
        c2.259,0,4.162,1.601,4.162,3.502V99.753z M26.326,57.833H-2.449c-5.588,0-10.226,3.902-10.226,8.604v24.212
        c0,4.702,4.637,8.604,10.226,8.604h28.774c5.588,0,10.226-3.902,10.226-8.604V66.437C36.551,61.636,32.033,57.833,26.326,57.833z
         M30.487,90.649c0,1.901-1.902,3.502-4.162,3.502H-2.449c-2.259,0-4.162-1.601-4.162-3.502V66.437c0-1.9,1.902-3.501,4.162-3.501
        h28.774c2.259,0,4.162,1.601,4.162,3.501V90.649z"/>
	</g>
</g>
</svg>
