<?xml version="1.0" encoding="utf-8"?>
<!-- Generator: Adobe Illustrator 16.0.0, SVG Export Plug-In . SVG Version: 6.00 Build 0)  -->
<!DOCTYPE svg PUBLIC "-//W3C//DTD SVG 1.1//EN" "http://www.w3.org/Graphics/SVG/1.1/DTD/svg11.dtd">
<svg version="1.1" id="图层_1" xmlns="http://www.w3.org/2000/svg" xmlns:xlink="http://www.w3.org/1999/xlink" x="0px" y="0px"
	 width="110px" height="114.667px" viewBox="0 0 110 114.667" enable-background="new 0 0 110 114.667" xml:space="preserve">
<g>
	<g>
		<circle fill="#F7F7F7" stroke="#C7C8C8" stroke-miterlimit="10" cx="11.939" cy="54.875" r="88.8"/>
	</g>
</g>
<g>
	<g>
		<linearGradient id="SVGID_1_" gradientUnits="userSpaceOnUse" x1="-17.8755" y1="57.1636" x2="44.4868" y2="57.1636">
			<stop  offset="0" style="stop-color:#F9C820"/>
			<stop  offset="1" style="stop-color:#E4352B"/>
		</linearGradient>
		<path fill="url(#SVGID_1_)" d="M14.542,55.821c-4.229-0.398-8.081,2.187-9.49,6.165c-1.411,3.882-0.376,8.457,2.536,11.041v3.881
			v0.198c0,0.397,0,0.896,0,1.394v0.1c0,1.094,0,2.287,0.189,3.581c0.47,2.983,2.913,5.171,5.732,5.271h0.094
			c2.726,0,4.98-1.89,5.639-4.773c0.188-0.797,0.188-1.492,0.188-1.988v-7.46c2.631-2.288,3.758-5.57,3.194-9.45
			C21.966,59.6,18.49,56.218,14.542,55.821z M16.046,69.048c-1.127,0.896-1.689,2.089-1.689,3.681v7.858
			c0,0.197,0,0.496-0.096,0.695c-0.094,0.397-0.281,0.695-0.656,0.695l0,0c-0.376,0-0.659-0.298-0.752-0.596
			c-0.094-0.797-0.094-1.691-0.094-2.687c0-0.598,0-1.194,0-1.89V72.33c0-1.394-0.563-2.486-1.597-3.283
			c-1.411-0.994-1.88-3.183-1.223-5.071c0.658-1.791,2.349-2.887,4.229-2.686c1.691,0.197,3.195,1.689,3.477,3.479
			C17.833,66.663,17.363,68.055,16.046,69.048z M44.331,51.146c-0.751-4.376-4.229-7.36-8.457-7.46h-0.187c0,0,0,0-0.095,0h-0.094
			H-6.129l0,0c0-0.795,0-1.193,0-2.785c0.282-8.256,3.665-14.223,10.337-18.202c2.913-1.69,6.107-2.585,9.397-2.585
			c4.886,0,9.584,1.989,13.248,5.669l0,0c0.095,0.1,0.188,0.199,0.377,0.398c0.47,0.498,1.127,0.795,1.785,0.795
			c0.657,0,1.315-0.298,1.879-0.795c1.035-1.094,0.94-2.785,0-3.879c-0.188-0.1-0.281-0.298-0.47-0.397l0,0l0,0
			c-4.604-4.675-10.618-7.261-16.819-7.261c-4.135,0-8.176,1.094-11.936,3.283c-8.175,4.873-12.592,12.531-12.873,22.776
			c-0.094,1.791,0,2.288,0,3.183v0.198c-3.947,0.994-6.578,4.477-6.578,9.052v11.936c-0.094,8.257,0,16.71-0.094,25.163
			c0,2.487,0.846,4.875,2.537,6.665c1.691,1.791,3.947,2.785,6.203,2.785h0.093l0,0c3.478-0.101,6.955-0.101,9.585-0.101h35.051
			c5.168,0,8.833-3.879,8.833-9.449V53.333C44.519,52.737,44.519,51.941,44.331,51.146z M39.351,90.234
			c0,2.487-1.41,3.979-3.664,3.979H0.636c-2.631,0-6.107,0-9.772,0.101c-0.94,0-1.88-0.397-2.538-1.192
			c-0.657-0.797-1.127-1.691-1.033-2.787c0.093-8.453,0-16.906,0-25.163V53.235c0-2.388,1.41-3.779,3.571-3.879h44.729
			c0,0,0,0,0.095,0h0.094h0.093c1.692,0,3.101,1.193,3.384,2.983c0.094,0.298,0.094,0.696,0.094,1.193V90.234L39.351,90.234z"/>
	</g>
</g>
</svg>
