<?xml version="1.0" encoding="utf-8"?>
<!-- Generator: Adobe Illustrator 16.0.0, SVG Export Plug-In . SVG Version: 6.00 Build 0)  -->
<!DOCTYPE svg PUBLIC "-//W3C//DTD SVG 1.1//EN" "http://www.w3.org/Graphics/SVG/1.1/DTD/svg11.dtd">
<svg version="1.1" id="图层_1" xmlns="http://www.w3.org/2000/svg" xmlns:xlink="http://www.w3.org/1999/xlink" x="0px" y="0px"
	 width="110px" height="114.667px" viewBox="0 0 110 114.667" enable-background="new 0 0 110 114.667" xml:space="preserve">
<g>
	<g>
		<circle fill="#F7F7F7" stroke="#EEEEEF" stroke-miterlimit="10" cx="11.939" cy="54.875" r="88.8"/>
	</g>
</g>
<g>
	<g>
		<path fill="#B4B4B5" d="M14.543,55.821c-4.229-0.398-8.081,2.188-9.491,6.166c-1.409,3.88-0.375,8.455,2.538,11.041v3.88v0.198
			c0,0.397,0,0.995,0,1.491c0,1.095,0,2.287,0.188,3.58c0.47,2.984,2.913,5.173,5.732,5.271h0.094c2.727,0,4.98-1.89,5.639-4.773
			c0.188-0.795,0.188-1.492,0.188-1.989v-7.459c2.631-2.288,3.76-5.569,3.194-9.449C21.966,59.6,18.489,56.218,14.543,55.821z
			 M16.047,69.048c-1.222,0.896-1.691,2.09-1.691,3.681v7.856c0,0.199,0,0.498-0.094,0.697c-0.095,0.397-0.281,0.695-0.658,0.695
			l0,0c-0.375,0-0.658-0.298-0.751-0.598c-0.094-0.795-0.094-1.689-0.094-2.686c0-0.596,0-1.193,0-1.89V72.33
			c0-1.394-0.563-2.486-1.598-3.283c-1.409-0.994-1.879-3.182-1.222-5.071c0.658-1.791,2.35-2.886,4.229-2.687
			c1.69,0.198,3.194,1.69,3.478,3.481C17.833,66.664,17.362,68.054,16.047,69.048z M44.332,51.146
			c-0.658-3.481-2.913-6.067-6.015-7.062c0-0.099,0-0.199,0-0.298c0-0.895,0-1.591,0-3.382c-0.188-7.161-2.631-13.229-7.424-18.202
			c-4.697-4.873-10.806-7.559-17.289-7.559c-4.136,0-8.177,1.094-11.935,3.282c-8.176,4.874-12.592,12.532-12.874,22.777
			c-0.094,1.79-0.094,2.387-0.094,3.183v0.199c-3.947,0.995-6.577,4.476-6.577,9.051v11.537c0,8.355,0,16.91,0,25.562
			c0,2.486,0.845,4.874,2.536,6.664c1.691,1.789,3.947,2.784,6.202,2.784h0.094l0,0c2.725,0,5.732-0.099,9.585-0.099h35.05
			c5.168,0,8.833-3.879,8.833-9.449v-36.8C44.52,52.737,44.52,51.941,44.332,51.146z M-6.036,40.901
			C-5.753,32.646-2.371,26.678,4.301,22.7c2.913-1.69,6.108-2.586,9.396-2.586c5.074,0,9.867,2.188,13.626,6.067
			c3.758,3.979,5.731,8.753,5.92,14.422c0,1.79,0,2.387,0,3.083H-6.129C-6.129,42.99-6.129,42.493-6.036,40.901z M39.352,90.235
			c0,2.486-1.41,3.978-3.666,3.978H0.637c-3.946,0-6.859,0-9.679,0.101l0,0c-0.939,0-1.879-0.397-2.537-1.192
			c-0.658-0.795-1.127-1.69-1.033-2.785c0.094-8.652,0-17.307,0-25.562v-11.54c0-2.387,1.409-3.779,3.57-3.879h42.38l0,0h2.631
			c1.691,0,3.103,1.194,3.384,2.984c0.094,0.298,0.094,0.696,0.094,1.193v36.702L39.352,90.235L39.352,90.235z"/>
	</g>
</g>
</svg>
