<?xml version="1.0" encoding="utf-8"?>
<!-- Generator: Adobe Illustrator 16.0.0, SVG Export Plug-In . SVG Version: 6.00 Build 0)  -->
<!DOCTYPE svg PUBLIC "-//W3C//DTD SVG 1.1//EN" "http://www.w3.org/Graphics/SVG/1.1/DTD/svg11.dtd">
<svg version="1.1" id="图层_1" xmlns="http://www.w3.org/2000/svg" xmlns:xlink="http://www.w3.org/1999/xlink" x="0px" y="0px"
	 width="75px" height="76px" viewBox="0 0 75 76" enable-background="new 0 0 75 76" xml:space="preserve">
<line fill="none" stroke="#B5B4B5" stroke-width="0.46" stroke-miterlimit="10" x1="43.694" y1="19.78" x2="43.694" y2="22.575"/>
<line fill="none" stroke="#B5B4B5" stroke-width="0.46" stroke-miterlimit="10" x1="42.283" y1="19.851" x2="42.496" y2="22.635"/>
<line fill="none" stroke="#B5B4B5" stroke-width="0.46" stroke-miterlimit="10" x1="40.883" y1="20.062" x2="41.307" y2="22.814"/>
<line fill="none" stroke="#B5B4B5" stroke-width="0.46" stroke-miterlimit="10" x1="39.504" y1="20.412" x2="40.135" y2="23.111"/>
<line fill="none" stroke="#B5B4B5" stroke-width="0.46" stroke-miterlimit="10" x1="38.157" y1="20.898" x2="38.991" y2="23.525"/>
<line fill="none" stroke="#B5B4B5" stroke-width="0.46" stroke-miterlimit="10" x1="36.853" y1="21.518" x2="37.883" y2="24.051"/>
<line fill="none" stroke="#B5B4B5" stroke-width="0.46" stroke-miterlimit="10" x1="35.6" y1="22.265" x2="36.82" y2="24.685"/>
<line fill="none" stroke="#B5B4B5" stroke-width="0.46" stroke-miterlimit="10" x1="34.408" y1="23.134" x2="35.808" y2="25.424"/>
<line fill="none" stroke="#B5B4B5" stroke-width="0.46" stroke-miterlimit="10" x1="51.58" y1="51.232" x2="52.979" y2="53.521"/>
<line fill="none" stroke="#B5B4B5" stroke-width="0.46" stroke-miterlimit="10" x1="33.289" y1="24.119" x2="34.856" y2="26.26"/>
<line fill="none" stroke="#B5B4B5" stroke-width="0.46" stroke-miterlimit="10" x1="52.532" y1="50.395" x2="54.1" y2="52.537"/>
<line fill="none" stroke="#B5B4B5" stroke-width="0.46" stroke-miterlimit="10" x1="32.247" y1="25.212" x2="33.972" y2="27.188"/>
<line fill="none" stroke="#B5B4B5" stroke-width="0.46" stroke-miterlimit="10" x1="53.416" y1="49.466" x2="55.141" y2="51.443"/>
<line fill="none" stroke="#B5B4B5" stroke-width="0.46" stroke-miterlimit="10" x1="31.293" y1="26.405" x2="33.162" y2="28.202"/>
<line fill="none" stroke="#B5B4B5" stroke-width="0.46" stroke-miterlimit="10" x1="54.227" y1="48.453" x2="56.096" y2="50.25"/>
<line fill="none" stroke="#B5B4B5" stroke-width="0.46" stroke-miterlimit="10" x1="30.434" y1="27.689" x2="32.432" y2="29.292"/>
<line fill="none" stroke="#B5B4B5" stroke-width="0.46" stroke-miterlimit="10" x1="54.957" y1="47.363" x2="56.955" y2="48.966"/>
<line fill="none" stroke="#B5B4B5" stroke-width="0.46" stroke-miterlimit="10" x1="29.675" y1="29.054" x2="31.787" y2="30.451"/>
<line fill="none" stroke="#B5B4B5" stroke-width="0.46" stroke-miterlimit="10" x1="55.602" y1="46.205" x2="57.714" y2="47.601"/>
<line fill="none" stroke="#B5B4B5" stroke-width="0.46" stroke-miterlimit="10" x1="29.022" y1="30.489" x2="31.233" y2="31.67"/>
<line fill="none" stroke="#B5B4B5" stroke-width="0.46" stroke-miterlimit="10" x1="56.155" y1="44.985" x2="58.366" y2="46.166"/>
<line fill="none" stroke="#B5B4B5" stroke-width="0.46" stroke-miterlimit="10" x1="28.482" y1="31.984" x2="30.773" y2="32.94"/>
<line fill="none" stroke="#B5B4B5" stroke-width="0.46" stroke-miterlimit="10" x1="56.614" y1="43.715" x2="58.906" y2="44.671"/>
<line fill="none" stroke="#B5B4B5" stroke-width="0.46" stroke-miterlimit="10" x1="28.057" y1="33.527" x2="30.413" y2="34.251"/>
<line fill="none" stroke="#B5B4B5" stroke-width="0.46" stroke-miterlimit="10" x1="56.975" y1="42.405" x2="59.331" y2="43.128"/>
<line fill="none" stroke="#B5B4B5" stroke-width="0.46" stroke-miterlimit="10" x1="27.752" y1="35.107" x2="30.153" y2="35.592"/>
<line fill="none" stroke="#B5B4B5" stroke-width="0.46" stroke-miterlimit="10" x1="57.234" y1="41.063" x2="59.637" y2="41.548"/>
<line fill="none" stroke="#B5B4B5" stroke-width="0.46" stroke-miterlimit="10" x1="27.567" y1="36.711" x2="29.997" y2="36.955"/>
<line fill="none" stroke="#B5B4B5" stroke-width="0.46" stroke-miterlimit="10" x1="57.391" y1="39.701" x2="59.82" y2="39.945"/>
<line fill="none" stroke="#B5B4B5" stroke-width="0.46" stroke-miterlimit="10" x1="27.506" y1="38.328" x2="29.945" y2="38.328"/>
<line fill="none" stroke="#B5B4B5" stroke-width="0.46" stroke-miterlimit="10" x1="57.443" y1="38.328" x2="59.883" y2="38.328"/>
<line fill="none" stroke="#B5B4B5" stroke-width="0.46" stroke-miterlimit="10" x1="27.567" y1="39.945" x2="29.997" y2="39.701"/>
<line fill="none" stroke="#B5B4B5" stroke-width="0.46" stroke-miterlimit="10" x1="57.391" y1="36.955" x2="59.82" y2="36.711"/>
<line fill="none" stroke="#B5B4B5" stroke-width="0.46" stroke-miterlimit="10" x1="27.752" y1="41.548" x2="30.153" y2="41.064"/>
<line fill="none" stroke="#B5B4B5" stroke-width="0.46" stroke-miterlimit="10" x1="57.234" y1="35.592" x2="59.637" y2="35.107"/>
<line fill="none" stroke="#B5B4B5" stroke-width="0.46" stroke-miterlimit="10" x1="28.057" y1="43.128" x2="30.413" y2="42.406"/>
<line fill="none" stroke="#B5B4B5" stroke-width="0.46" stroke-miterlimit="10" x1="56.975" y1="34.25" x2="59.331" y2="33.527"/>
<line fill="none" stroke="#B5B4B5" stroke-width="0.46" stroke-miterlimit="10" x1="28.482" y1="44.671" x2="30.773" y2="43.716"/>
<line fill="none" stroke="#B5B4B5" stroke-width="0.46" stroke-miterlimit="10" x1="56.614" y1="32.94" x2="58.906" y2="31.984"/>
<line fill="none" stroke="#B5B4B5" stroke-width="0.46" stroke-miterlimit="10" x1="29.022" y1="46.166" x2="31.233" y2="44.986"/>
<line fill="none" stroke="#B5B4B5" stroke-width="0.46" stroke-miterlimit="10" x1="56.155" y1="31.67" x2="58.366" y2="30.489"/>
<line fill="none" stroke="#B5B4B5" stroke-width="0.46" stroke-miterlimit="10" x1="29.675" y1="47.601" x2="31.787" y2="46.205"/>
<line fill="none" stroke="#B5B4B5" stroke-width="0.46" stroke-miterlimit="10" x1="55.602" y1="30.451" x2="57.714" y2="29.054"/>
<line fill="none" stroke="#B5B4B5" stroke-width="0.46" stroke-miterlimit="10" x1="30.434" y1="48.966" x2="32.432" y2="47.364"/>
<line fill="none" stroke="#B5B4B5" stroke-width="0.46" stroke-miterlimit="10" x1="54.957" y1="29.292" x2="56.955" y2="27.689"/>
<line fill="none" stroke="#B5B4B5" stroke-width="0.46" stroke-miterlimit="10" x1="31.293" y1="50.25" x2="33.162" y2="48.453"/>
<line fill="none" stroke="#B5B4B5" stroke-width="0.46" stroke-miterlimit="10" x1="54.227" y1="28.202" x2="56.096" y2="26.406"/>
<line fill="none" stroke="#B5B4B5" stroke-width="0.46" stroke-miterlimit="10" x1="32.247" y1="51.443" x2="33.972" y2="49.466"/>
<line fill="none" stroke="#B5B4B5" stroke-width="0.46" stroke-miterlimit="10" x1="53.416" y1="27.188" x2="55.141" y2="25.213"/>
<line fill="none" stroke="#B5B4B5" stroke-width="0.46" stroke-miterlimit="10" x1="33.289" y1="52.537" x2="34.856" y2="50.396"/>
<line fill="none" stroke="#B5B4B5" stroke-width="0.46" stroke-miterlimit="10" x1="52.532" y1="26.26" x2="54.1" y2="24.12"/>
<line fill="none" stroke="#B5B4B5" stroke-width="0.46" stroke-miterlimit="10" x1="34.408" y1="53.521" x2="35.808" y2="51.232"/>
<line fill="none" stroke="#B5B4B5" stroke-width="0.46" stroke-miterlimit="10" x1="51.58" y1="25.424" x2="52.979" y2="23.134"/>
<line fill="none" stroke="#B5B4B5" stroke-width="0.46" stroke-miterlimit="10" x1="50.568" y1="24.685" x2="51.789" y2="22.265"/>
<line fill="none" stroke="#B5B4B5" stroke-width="0.46" stroke-miterlimit="10" x1="49.505" y1="24.051" x2="50.535" y2="21.518"/>
<line fill="none" stroke="#B5B4B5" stroke-width="0.46" stroke-miterlimit="10" x1="48.396" y1="23.525" x2="49.23" y2="20.899"/>
<line fill="none" stroke="#B5B4B5" stroke-width="0.46" stroke-miterlimit="10" x1="47.253" y1="23.111" x2="47.884" y2="20.413"/>
<line fill="none" stroke="#B5B4B5" stroke-width="0.46" stroke-miterlimit="10" x1="46.082" y1="22.814" x2="46.506" y2="20.062"/>
<line fill="none" stroke="#B5B4B5" stroke-width="0.46" stroke-miterlimit="10" x1="44.893" y1="22.635" x2="45.104" y2="19.851"/>
<path fill="#B5B4B5" d="M41.807,56.591c-0.17,0.027-0.098,0.391,0.043,0.373c0,0,0.198,0.008,0.6-0.116c0,0,0.154,0.185,0.375,0.286
	c0.242,0.109,1.128,0.318,1.88-0.359c1.028-0.927,1.141-3.371,0.948-3.171c-0.821,0.858-1.877,0.447-2.57,1.013
	c-0.521,0.424-0.84,1.207-0.737,1.825C42.345,56.442,42.307,56.516,41.807,56.591 M42.723,56.634
	c-0.052-0.045-0.097-0.155-0.095-0.232c1.532-0.5,2.401-1.527,2.401-1.527S44.039,56.244,42.723,56.634"/>
<path fill="#B5B4B5" d="M37.56,73.392c-18.915,0-34.304-15.701-34.304-35s15.389-35,34.304-35c18.916,0,34.306,15.701,34.306,35
	S56.476,73.392,37.56,73.392 M37.56,7.08c-16.882,0-30.616,14.046-30.616,31.312c0,17.264,13.734,31.311,30.616,31.311
	c1.821,0,3.646-0.166,5.425-0.491l-0.076-0.681c-0.351,0.016-0.703,0.025-1.057,0.025c-14.646,0-26.562-13.531-26.562-30.164
	S27.205,8.227,41.852,8.227c0.354,0,0.706,0.01,1.057,0.025l0.076-0.68C41.205,7.246,39.381,7.08,37.56,7.08 M41.852,11.915
	c-12.613,0-22.873,11.877-22.873,26.477s10.26,26.477,22.873,26.477s22.874-11.877,22.874-26.477S54.465,11.915,41.852,11.915"/>
</svg>
