<?xml version="1.0" encoding="utf-8"?>
<!-- Generator: Adobe Illustrator 16.0.0, SVG Export Plug-In . SVG Version: 6.00 Build 0)  -->
<!DOCTYPE svg PUBLIC "-//W3C//DTD SVG 1.1//EN" "http://www.w3.org/Graphics/SVG/1.1/DTD/svg11.dtd">
<svg version="1.1" id="图层_1" xmlns="http://www.w3.org/2000/svg" xmlns:xlink="http://www.w3.org/1999/xlink" x="0px" y="0px"
	 width="29.25px" height="51.375px" viewBox="0 0 29.25 51.375" enable-background="new 0 0 29.25 51.375" xml:space="preserve">
<g id="XMLID_132_">
	<g id="XMLID_139_">
		
			<polygon id="XMLID_141_" fill-rule="evenodd" clip-rule="evenodd" fill="none" stroke="#B3B2B3" stroke-width="2.8739" stroke-linecap="round" stroke-linejoin="round" stroke-miterlimit="10" points="
			9.853,49.463 26.943,43.399 26.943,17.765 9.853,21.68 		"/>
		
			<polyline id="XMLID_140_" fill-rule="evenodd" clip-rule="evenodd" fill="none" stroke="#B3B2B3" stroke-width="2.9247" stroke-linecap="round" stroke-linejoin="round" stroke-miterlimit="10" points="
			14.595,31.35 15.865,31.315 16.03,37.408 14.761,37.443 		"/>
	</g>
	
		<path id="XMLID_138_" fill-rule="evenodd" clip-rule="evenodd" fill="none" stroke="#B3B2B3" stroke-width="2.5" stroke-linecap="round" stroke-linejoin="round" stroke-miterlimit="10" d="
		M9.131,45.393"/>
	
		<path id="XMLID_137_" fill-rule="evenodd" clip-rule="evenodd" fill="none" stroke="#B3B2B3" stroke-width="2.5" stroke-linecap="round" stroke-linejoin="round" stroke-miterlimit="10" d="
		M9.131,45.393H5.457c-1.985,0-3.594-1.609-3.594-3.594V5.465c0-1.984,1.609-3.594,3.594-3.594H23.52
		c1.984,0,3.594,1.609,3.594,3.594v36.334"/>
	
		<rect id="XMLID_136_" x="2.938" y="16.517" fill-rule="evenodd" clip-rule="evenodd" fill="#B3B2B3" width="23.099" height="2.496"/>
	<path id="XMLID_135_" fill-rule="evenodd" clip-rule="evenodd" fill="#B3B2B3" d="M6.476,14.434c-0.688,0-1.248-0.56-1.248-1.248
		V8.607c0-0.688,0.56-1.248,1.248-1.248s1.248,0.56,1.248,1.248v4.579C7.724,13.874,7.164,14.434,6.476,14.434z"/>
	
		<line id="XMLID_134_" fill="none" stroke="#B3B2B3" stroke-width="1.8539" stroke-linecap="round" stroke-linejoin="round" stroke-miterlimit="10" x1="2.405" y1="26.558" x2="9.131" y2="26.558"/>
	
		<line id="XMLID_133_" fill="none" stroke="#B3B2B3" stroke-width="1.8539" stroke-linecap="round" stroke-linejoin="round" stroke-miterlimit="10" x1="2.405" y1="35.662" x2="9.131" y2="35.662"/>
</g>
</svg>
