<?xml version="1.0" encoding="utf-8"?>
<!-- Generator: Adobe Illustrator 16.0.0, SVG Export Plug-In . SVG Version: 6.00 Build 0)  -->
<!DOCTYPE svg PUBLIC "-//W3C//DTD SVG 1.1//EN" "http://www.w3.org/Graphics/SVG/1.1/DTD/svg11.dtd">
<svg version="1.1" id="图层_1" xmlns="http://www.w3.org/2000/svg" xmlns:xlink="http://www.w3.org/1999/xlink" x="0px" y="0px"
	 width="55.5px" height="42.25px" viewBox="0 0 55.5 42.25" enable-background="new 0 0 55.5 42.25" xml:space="preserve">
<g id="XMLID_23_">
	<g id="XMLID_108_">
		
			<path id="XMLID_111_" fill="none" stroke="#B3B2B3" stroke-width="1.3124" stroke-linecap="round" stroke-linejoin="round" stroke-miterlimit="10" d="
			M36.402,31.656l-0.285-0.065l-1.373-4.26c-0.215-0.344-0.592-0.553-0.998-0.553H22.102c-0.406,0-0.783,0.209-0.999,0.553
			l-1.347,4.085l-0.466,0.158c-0.645,0.219-1.078,0.824-1.078,1.505v4.812h1.132v1.518c0,0.611,0.496,1.107,1.107,1.107h0.587
			c0.611,0,1.106-0.496,1.106-1.107v-1.518h11.56v1.518c0,0.611,0.496,1.107,1.107,1.107h0.586c0.611,0,1.107-0.496,1.107-1.107
			v-1.518h1.132v-4.686C37.636,32.465,37.125,31.822,36.402,31.656z"/>
		
			<path id="XMLID_107_" fill="none" stroke="#B3B2B3" stroke-width="1.2893" stroke-linecap="round" stroke-linejoin="round" stroke-miterlimit="10" d="
			M33.75,31.94H22.098c-0.2,0-0.332-0.2-0.246-0.375l1.276-2.599c0.07-0.144,0.22-0.234,0.384-0.234h8.824
			c0.164,0,0.313,0.091,0.384,0.234l1.276,2.599C34.081,31.74,33.949,31.94,33.75,31.94z"/>
		<g id="XMLID_99_">
			
				<path id="XMLID_92_" fill="none" stroke="#B3B2B3" stroke-width="1.3124" stroke-linecap="round" stroke-linejoin="round" stroke-miterlimit="10" d="
				M34.338,36.111L34.338,36.111c-0.65,0-1.182-0.531-1.182-1.182l0,0c0-0.649,0.531-1.181,1.182-1.181l0,0
				c0.648,0,1.181,0.531,1.181,1.181l0,0C35.519,35.58,34.986,36.111,34.338,36.111z"/>
			
				<path id="XMLID_106_" fill="none" stroke="#B3B2B3" stroke-width="1.3124" stroke-linecap="round" stroke-linejoin="round" stroke-miterlimit="10" d="
				M21.51,36.111L21.51,36.111c-0.649,0-1.181-0.531-1.181-1.182l0,0c0-0.649,0.532-1.181,1.181-1.181l0,0
				c0.65,0,1.181,0.531,1.181,1.181l0,0C22.691,35.58,22.16,36.111,21.51,36.111z"/>
		</g>
	</g>
	<rect id="XMLID_120_" x="15.893" y="20.11" fill="none" width="24.063" height="1.886"/>
	<path id="XMLID_121_" fill="none" d="M8.573,15.652l0.045,22.174c0,0.191,0.156,0.346,0.347,0.346h4.605V20.09
		c0-1.279,0.964-2.32,2.148-2.32h24.456c1.185,0,2.148,1.041,2.148,2.32v18.082h4.604c0.19,0,0.347-0.154,0.347-0.346V15.573
		L27.946,4.466L8.573,15.652z"/>
	<path id="XMLID_124_" fill="#B3B2B3" d="M54.43,17.461c-0.082-0.303-0.277-0.555-0.547-0.711L27.923,1.762L1.963,16.75
		c-0.558,0.322-0.75,1.04-0.428,1.6c0.21,0.361,0.599,0.586,1.016,0.586c0.206,0,0.408-0.055,0.584-0.157l3.118-1.8v20.848
		c0,1.484,1.204,2.689,2.689,2.689h6.508c0.242,0,0.439-0.197,0.439-0.439v-1.904v-3.303v-1.121v-1.221V30.02v-2.343v-2.508v-3.171
		h0.002l0.003-1.886l24.062-0.004v1.89v0.829v2.342v2.508v2.343l0,0v10.057c0,0.242,0.197,0.439,0.439,0.439h6.508
		c1.486,0,2.689-1.205,2.689-2.689V16.979l3.117,1.8c0.178,0.103,0.379,0.157,0.586,0.157c0.417,0,0.806-0.225,1.015-0.586
		C54.468,18.08,54.51,17.765,54.43,17.461z M47.251,37.826c0,0.191-0.155,0.346-0.347,0.346H42.3V20.09
		c0-1.279-0.964-2.32-2.148-2.32H15.696c-1.185,0-2.149,1.041-2.149,2.32v18.082H8.942c-0.191,0-0.347-0.154-0.347-0.346
		L8.55,15.652L27.923,4.466l19.328,11.107V37.826z"/>
	<rect id="XMLID_97_" x="14.912" y="21.998" fill="#B3B2B3" width="26.023" height="2.342"/>
</g>
</svg>
