<?xml version="1.0" encoding="utf-8"?>
<!-- Generator: Adobe Illustrator 16.0.0, SVG Export Plug-In . SVG Version: 6.00 Build 0)  -->
<!DOCTYPE svg PUBLIC "-//W3C//DTD SVG 1.1//EN" "http://www.w3.org/Graphics/SVG/1.1/DTD/svg11.dtd">
<svg version="1.1" id="图层_1" xmlns="http://www.w3.org/2000/svg" xmlns:xlink="http://www.w3.org/1999/xlink" x="0px" y="0px"
	 width="110px" height="114.667px" viewBox="0 0 110 114.667" enable-background="new 0 0 110 114.667"
	 xml:space="preserve">
<g>
	<g>
		<circle fill="#F7F7F7" stroke="#C7C8C8" stroke-miterlimit="10" cx="11.939" cy="54.875" r="88.8"/>
	</g>
</g>
<g>
	<g>
		<defs>
			<rect id="SVGID_7_" x="2.369" y="10.146" width="89.5" height="91"/>
		</defs>
		<path fill="#FFFFFF" d="M42.781,15.83H9.816c-13.702,0-24.85,11.151-24.85,24.858v32.959
			c0,13.703,11.147,24.85,24.85,24.85h32.965c13.705,0,24.854-11.146,24.854-24.85V40.688C67.634,26.981,56.485,15.83,42.781,15.83z
			 M62.369,73.647c0,10.799-8.788,19.585-19.588,19.585H9.816c-10.799,0-19.584-8.786-19.584-19.585V40.688
			c0-10.805,8.786-19.594,19.584-19.594h32.965c10.801,0,19.588,8.789,19.588,19.594V73.647z"/>
		<path fill="#FFFFFF" d="M42.449,63.816c-1.452,0-2.633-1.181-2.633-2.632V41.022
			c0-1.453,1.181-2.635,2.633-2.635s2.633,1.182,2.633,2.635v20.162C45.082,62.635,43.9,63.816,42.449,63.816z"/>
		<path fill="#FFFFFF" d="M10.152,63.816c-1.452,0-2.632-1.181-2.632-2.632V41.022
			c0-1.453,1.18-2.635,2.632-2.635c1.451,0,2.632,1.182,2.632,2.635v20.162C12.784,62.635,11.603,63.816,10.152,63.816z"/>
		<path fill="#FFFFFF" d="M22.734,76.56c-1.452,0-2.633-1.181-2.633-2.633v-3.53
			c0-3.42,2.781-6.199,6.2-6.199c3.418,0,6.199,2.779,6.199,6.199v3.53c0,1.452-1.181,2.633-2.632,2.633H22.734z M26.301,69.561
			c-0.533,0-0.935,0.359-0.935,0.836v0.898h1.869v-0.898C27.235,69.913,26.842,69.561,26.301,69.561z"/>
	</g>
	<g>
		<defs>
			<rect id="SVGID_9_" x="2.369" y="10.146" width="89.5" height="91"/>
		</defs>
		<linearGradient id="SVGID_11_" gradientUnits="userSpaceOnUse" x1="26.3003" y1="15.8301" x2="26.3003" y2="98.4971">
			<stop  offset="0" style="stop-color:#EFC12C"/>
			<stop  offset="1" style="stop-color:#D7382D"/>
		</linearGradient>
		<path fill="url(#SVGID_11_)" d="M42.781,15.83H9.816c-13.702,0-24.85,11.151-24.85,24.858v32.959
			c0,13.703,11.147,24.85,24.85,24.85h32.965c13.705,0,24.854-11.146,24.854-24.85V40.688C67.634,26.981,56.485,15.83,42.781,15.83z
			 M62.369,73.647c0,10.799-8.788,19.585-19.588,19.585H9.816c-10.799,0-19.584-8.786-19.584-19.585V40.688
			c0-10.805,8.786-19.594,19.584-19.594h32.965c10.801,0,19.588,8.789,19.588,19.594V73.647z"/>
		<linearGradient id="SVGID_12_" gradientUnits="userSpaceOnUse" x1="42.4487" y1="38.3872" x2="42.4487" y2="63.8159">
			<stop  offset="0" style="stop-color:#EFC12C"/>
			<stop  offset="1" style="stop-color:#E2722A"/>
		</linearGradient>
		<path fill="url(#SVGID_12_)" d="M42.449,63.816c-1.452,0-2.633-1.181-2.633-2.632V41.022
			c0-1.453,1.181-2.635,2.633-2.635s2.633,1.182,2.633,2.635v20.162C45.082,62.635,43.9,63.816,42.449,63.816z"/>
		<linearGradient id="SVGID_13_" gradientUnits="userSpaceOnUse" x1="10.1519" y1="38.3872" x2="10.1519" y2="63.8159">
			<stop  offset="0" style="stop-color:#EFC12C"/>
			<stop  offset="1" style="stop-color:#E2722A"/>
		</linearGradient>
		<path fill="url(#SVGID_13_)" d="M10.152,63.816c-1.452,0-2.632-1.181-2.632-2.632V41.022
			c0-1.453,1.18-2.635,2.632-2.635c1.451,0,2.632,1.182,2.632,2.635v20.162C12.784,62.635,11.603,63.816,10.152,63.816z"/>
		<linearGradient id="SVGID_14_" gradientUnits="userSpaceOnUse" x1="26.3003" y1="64.1978" x2="26.3003" y2="76.5601">
			<stop  offset="0" style="stop-color:#E26F2B"/>
			<stop  offset="1" style="stop-color:#DD5A2B"/>
		</linearGradient>
		<path fill="url(#SVGID_14_)" d="M22.734,76.56c-1.452,0-2.633-1.181-2.633-2.633v-3.53
			c0-3.42,2.781-6.199,6.2-6.199c3.418,0,6.199,2.779,6.199,6.199v3.53c0,1.452-1.181,2.633-2.632,2.633H22.734z M26.301,69.561
			c-0.533,0-0.935,0.359-0.935,0.836v0.898h1.869v-0.898C27.235,69.913,26.842,69.561,26.301,69.561z"/>
	</g>
</g>
</svg>
