<svg xmlns="http://www.w3.org/2000/svg" xmlns:xlink="http://www.w3.org/1999/xlink" version="1.1" id="图层_1" x="0px" y="0px" width="110px" height="110px" viewBox="0 0 110 110" enable-background="new 0 0 110 110" xml:space="preserve">
<g>
	<circle fill="#F7F7F7" stroke="#C7C8C8" stroke-miterlimit="10" cx="11.939" cy="54.875" r="88.8"/>
</g>
<g>
	<!--<g>-->
		<!--<defs>-->
			<!--<rect id="SVGID_7_" y="7.164" width="89.5" height="91"/>-->
		<!--</defs>-->
		<!--<clipPath id="SVGID_8_">-->
			<!--<use xlink:href="#SVGID_7_" overflow="visible"/>-->
		<!--</clipPath>-->
		<!--<path clip-path="url(#SVGID_8_)" fill="#FFFFFF" d="M40.412,12.848H7.447c-13.702,0-24.85,11.151-24.85,24.858v32.959    c0,13.703,11.147,24.85,24.85,24.85h32.965c13.705,0,24.854-11.146,24.854-24.85V37.706    C65.265,23.999,54.116,12.848,40.412,12.848z M60,70.665c0,10.799-8.788,19.585-19.588,19.585H7.447    c-10.799,0-19.584-8.786-19.584-19.585V37.706c0-10.804,8.786-19.593,19.584-19.593h32.965C51.212,18.112,60,26.901,60,37.706    V70.665z"/>-->
		<!--<path clip-path="url(#SVGID_8_)" fill="#FFFFFF" d="M40.08,60.833c-1.452,0-2.633-1.181-2.633-2.632V38.04    c0-1.453,1.181-2.635,2.633-2.635s2.633,1.182,2.633,2.635v20.162C42.712,59.653,41.531,60.833,40.08,60.833z"/>-->
		<!--<path clip-path="url(#SVGID_8_)" fill="#FFFFFF" d="M7.783,60.833c-1.452,0-2.632-1.181-2.632-2.632V38.04    c0-1.453,1.18-2.635,2.632-2.635c1.451,0,2.632,1.182,2.632,2.635v20.162C10.415,59.653,9.234,60.833,7.783,60.833z"/>-->
		<!--<path clip-path="url(#SVGID_8_)" fill="#FFFFFF" d="M20.365,73.578c-1.452,0-2.633-1.181-2.633-2.633v-3.53    c0-3.42,2.781-6.199,6.2-6.199c3.418,0,6.199,2.779,6.199,6.199v3.53c0,1.452-1.181,2.633-2.632,2.633H20.365z M23.932,66.579    c-0.533,0-0.935,0.359-0.935,0.836v0.898h1.869v-0.898C24.866,66.93,24.473,66.579,23.932,66.579z"/>-->
	<!--</g>-->
	<g>
		<defs>
			<rect id="SVGID_9_" y="7.164" width="89.5" height="91"/>
		</defs>
		<linearGradient id="SVGID_11_" gradientUnits="userSpaceOnUse" x1="23.9312" y1="12.8477" x2="23.9311" y2="95.5146">
			<stop offset="0" style="stop-color:#DBDCDC"/>
			<stop offset="1" style="stop-color:#DBDCDC"/>
		</linearGradient>
		<path  fill="url(#SVGID_11_)" d="M40.412,12.848H7.447c-13.702,0-24.85,11.151-24.85,24.858v32.959    c0,13.703,11.147,24.85,24.85,24.85h32.965c13.705,0,24.854-11.146,24.854-24.85V37.706    C65.265,23.999,54.116,12.848,40.412,12.848z M60,70.665c0,10.799-8.788,19.585-19.588,19.585H7.447    c-10.799,0-19.584-8.786-19.584-19.585V37.706c0-10.804,8.786-19.593,19.584-19.593h32.965C51.212,18.112,60,26.901,60,37.706    V70.665z"/>
		<linearGradient id="SVGID_12_" gradientUnits="userSpaceOnUse" x1="40.0796" y1="35.4048" x2="40.0796" y2="60.8335">
			<stop offset="0" style="stop-color:#DBDCDC"/>
			<stop offset="1" style="stop-color:#DBDCDC"/>
		</linearGradient>
		<path  fill="url(#SVGID_12_)" d="M40.08,60.833c-1.452,0-2.633-1.181-2.633-2.632V38.04    c0-1.453,1.181-2.635,2.633-2.635s2.633,1.182,2.633,2.635v20.162C42.712,59.653,41.531,60.833,40.08,60.833z"/>
		<linearGradient id="SVGID_13_" gradientUnits="userSpaceOnUse" x1="7.7832" y1="35.4048" x2="7.7832" y2="60.8335">
			<stop offset="0" style="stop-color:#DBDCDC"/>
			<stop offset="1" style="stop-color:#DBDCDC"/>
		</linearGradient>
		<path  fill="url(#SVGID_13_)" d="M7.783,60.833c-1.452,0-2.632-1.181-2.632-2.632V38.04    c0-1.453,1.18-2.635,2.632-2.635c1.451,0,2.632,1.182,2.632,2.635v20.162C10.415,59.653,9.234,60.833,7.783,60.833z"/>
		<linearGradient id="SVGID_14_" gradientUnits="userSpaceOnUse" x1="23.9316" y1="61.2153" x2="23.9316" y2="73.5776">
			<stop offset="0" style="stop-color:#DBDCDC"/>
			<stop offset="1" style="stop-color:#DBDCDC"/>
		</linearGradient>
		<path  fill="url(#SVGID_14_)" d="M20.365,73.578c-1.452,0-2.633-1.181-2.633-2.633v-3.53    c0-3.42,2.781-6.199,6.2-6.199c3.418,0,6.199,2.779,6.199,6.199v3.53c0,1.452-1.181,2.633-2.632,2.633H20.365z M23.932,66.579    c-0.533,0-0.935,0.359-0.935,0.836v0.898h1.869v-0.898C24.866,66.93,24.473,66.579,23.932,66.579z"/>
	</g>
</g>
</svg>