<?xml version="1.0" encoding="utf-8"?>
<!-- Generator: Adobe Illustrator 16.0.0, SVG Export Plug-In . SVG Version: 6.00 Build 0)  -->
<!DOCTYPE svg PUBLIC "-//W3C//DTD SVG 1.1//EN" "http://www.w3.org/Graphics/SVG/1.1/DTD/svg11.dtd">
<svg version="1.1" id="图层_1" xmlns="http://www.w3.org/2000/svg" xmlns:xlink="http://www.w3.org/1999/xlink" x="0px" y="0px"
	 width="110px" height="114.667px" viewBox="0 0 110 114.667" enable-background="new 0 0 110 114.667" xml:space="preserve">
<g>
	<g>
		<circle fill="#F7F7F7" stroke="#EEEEEF" stroke-miterlimit="10" cx="11.939" cy="54.875" r="88.8"/>
	</g>
</g>
<g>
	<path fill="#B4B4B5" d="M1.07,99.21c-1.096,0-2.394-1.297-2.394-2.389c0-1.089,1.297-2.384,2.394-2.384h16.579v-6.932
		c-18.86-0.998-33.514-16.308-33.514-35.204c0-19.462,15.896-35.294,35.433-35.294S55,32.84,55,52.302
		c0,18.896-14.653,34.206-33.513,35.208v6.928H38.06c1.318,0,2.395,1.073,2.395,2.388c0,1.317-1.071,2.387-2.395,2.387H1.07V99.21z
		 M19.567,20.832c-17.422,0-31.597,14.117-31.597,31.471c0,17.351,14.175,31.471,31.597,31.471
		c17.418,0,31.593-14.116,31.593-31.471C51.161,34.949,36.99,20.832,19.567,20.832z"/>
	<path fill="#B4B4B5" d="M16.474,80.373c-3.675,0-7.548-1.003-10.366-2.689c-3.363-1.956-5.298-4.666-5.439-7.621
		c-0.286-5.979,5.386-8.13,8.111-9.165c0.177-0.087,0.371-0.135,0.525-0.175c0.09-0.021,0.169-0.043,0.214-0.063
		c3.036-1.214,4.371-2.294,5.056-3.116c-0.222-0.211-0.444-0.429-0.656-0.687l-0.029,0.006c-1.635,0.386-3.876,0.913-5.921,0.913
		H7.711C1.33,57.641-5.519,53.341-5.519,44.215c0-6.032,4.343-12.029,8.635-14.832c2.084-1.357,4.262-2.072,6.299-2.072
		c1.069,0,2.083,0.197,3.009,0.585c5.446,2.365,4.941,8.054,4.667,11.109l-0.037,0.435l-0.071,0.145
		c-0.04,0.076-0.041,0.198-0.041,0.394c-0.302,3.238-0.043,4.664,0.334,5.521c0.44-0.133,0.901-0.248,1.404-0.304
		c0.489-1.466,1.47-4.092,2.763-5.957c2.505-3.833,6.56-6.135,10.837-6.135c2.602,0,5.206,0.818,7.728,2.433
		c5.083,3.285,7.739,10.21,7.739,15.355c0,3.894-1.326,6.887-3.84,8.657c-1.453,0.867-2.896,1.308-4.23,1.308
		c-3.166,0-5.771-2.017-7.495-3.355l-0.375-0.286c-0.194-0.185-0.307-0.262-0.398-0.326c-0.136-0.097-0.246-0.182-0.326-0.26
		c-2.313-1.839-3.604-2.452-4.501-2.638c-0.151,0.632-0.387,1.248-0.677,1.8c1.422,1.587,2.907,3.421,3.728,5.287
		c2.757,5.903,1.872,13.707-6.332,17.79C20.965,80.111,18.297,80.373,16.474,80.373z M10.8,64.579
		c-0.064,0.006-0.255,0.1-0.381,0.159C6.929,66,4.852,67.249,4.952,69.728c0,2.148,2.302,3.631,3.293,4.172
		c2.393,1.369,5.429,2.152,8.352,2.152c1.833,0,3.499-0.313,4.812-0.9c5.999-3.047,6.186-8.312,4.346-12.216
		c-0.642-1.391-2.008-3.027-2.888-4.031c-1.052,0.528-2.154,0.798-3.298,0.798c-0.483,0-0.903-0.062-1.283-0.142
		c-1.038,1.522-2.831,3.256-7.17,4.962l-0.152,0.06H10.8V64.579z M26.395,49.579c1.764,0.188,3.799,0.78,7.483,3.591
		c0.151,0.142,0.371,0.357,0.507,0.427c1.935,1.535,3.672,2.829,5.309,2.829c0.63,0,1.227-0.195,1.828-0.592
		c1.689-1.055,1.94-3.628,1.94-5.073c-0.124-4.688-2.613-9.742-5.788-11.734c-1.828-1.177-3.641-1.768-5.401-1.768
		c-4.007,0-6.483,2.956-7.364,4.227c-0.732,1.15-1.47,2.868-1.963,4.294C24.546,46.542,25.781,47.9,26.395,49.579z M19.567,49.3
		c-1.72,0-3.016,1.291-3.016,3.002c0,1.713,1.296,3,3.016,3c1.717,0,3.015-1.29,3.015-3C22.583,50.592,21.285,49.3,19.567,49.3z
		 M9.311,31.533c-1.753,0-3.466,1.097-3.952,1.436c-3.777,2.547-6.725,7.483-6.725,11.245c0.118,6.66,4.775,9.17,9.095,9.294
		c1.364-0.002,3.016-0.323,4.546-0.687c-0.008-0.181-0.008-0.356-0.008-0.519c0-1.542,0.487-3.09,1.387-4.42
		c-0.786-1.444-1.48-3.549-1.128-8.227l0.012-0.167l0.076-0.151c0.041-0.095,0.041-0.402,0.041-0.518
		c0.418-3.661,0.216-6.066-2.066-7.053C10.215,31.614,9.78,31.533,9.311,31.533z"/>
</g>
</svg>
