<?xml version="1.0" encoding="utf-8"?>
<!-- Generator: Adobe Illustrator 16.0.0, SVG Export Plug-In . SVG Version: 6.00 Build 0)  -->
<!DOCTYPE svg PUBLIC "-//W3C//DTD SVG 1.1//EN" "http://www.w3.org/Graphics/SVG/1.1/DTD/svg11.dtd">
<svg version="1.1" id="图层_1" xmlns="http://www.w3.org/2000/svg" xmlns:xlink="http://www.w3.org/1999/xlink" x="0px" y="0px"
	 width="110px" height="114.667px" viewBox="0 0 110 114.667" enable-background="new 0 0 110 114.667" xml:space="preserve">
<g>
	<g>
		<circle fill="#F7F7F7" stroke="#EEEEEF" stroke-miterlimit="10" cx="11.939" cy="54.875" r="88.8"/>
	</g>
</g>
<g>
	<linearGradient id="SVGID_1_" gradientUnits="userSpaceOnUse" x1="3.2144" y1="26.7114" x2="10.6206" y2="26.7114">
		<stop  offset="0" style="stop-color:#B4B4B5"/>
		<stop  offset="1" style="stop-color:#B4B4B5"/>
	</linearGradient>
	<path fill="url(#SVGID_1_)" d="M6.916,36.415c-0.305,0-1.021,0-1.503-0.474c-1.333-1.816-2.198-3.42-2.198-5.487
		c0-2.097,0.718-3.824,2.198-5.274c0.818-0.804,1.233-1.655,1.233-2.526c0-0.874-0.424-1.708-1.134-2.232
		c-0.448-0.43-0.676-0.942-0.678-1.473c-0.001-0.51,0.203-0.993,0.578-1.362c0.381-0.375,0.876-0.579,1.397-0.579
		c0.521,0,1.017,0.205,1.397,0.579c1.48,1.209,2.415,3.157,2.415,5.067c0,1.975-0.995,4.12-2.476,5.328
		c-1.298,1.286-1.282,3.678,0.061,4.999c0.381,0.373,0.59,0.861,0.59,1.374c0,0.449-0.158,0.873-0.455,1.229
		C8.152,36.117,7.367,36.415,6.916,36.415z"/>
	<linearGradient id="SVGID_2_" gradientUnits="userSpaceOnUse" x1="16.0786" y1="26.7114" x2="23.2681" y2="26.7114">
		<stop  offset="0" style="stop-color:#B4B4B5"/>
		<stop  offset="1" style="stop-color:#B4B4B5"/>
	</linearGradient>
	<path fill="url(#SVGID_2_)" d="M19.782,36.415c-0.307,0-1.021,0-1.505-0.474c-1.417-1.396-2.199-3.269-2.199-5.277
		c0-2.007,0.782-3.88,2.199-5.275c0.685-0.673,1.019-1.499,1.019-2.526c0-1.072-0.36-2.032-0.918-2.441
		c-0.45-0.43-0.676-0.942-0.678-1.473c-0.001-0.51,0.203-0.992,0.576-1.362c0.382-0.375,0.877-0.579,1.398-0.579
		c0.521,0,1.019,0.205,1.397,0.579c1.416,1.395,2.197,3.268,2.197,5.276c0,2.047-0.845,3.961-2.259,5.118
		c-0.562,0.558-0.957,1.562-0.957,2.473c0,0.927,0.398,1.918,1.019,2.526c0.379,0.373,0.589,0.861,0.589,1.374
		c0,0.514-0.21,1.004-0.591,1.375C20.775,36.02,20.374,36.415,19.782,36.415z"/>
	<linearGradient id="SVGID_3_" gradientUnits="userSpaceOnUse" x1="28.728" y1="26.7114" x2="35.9185" y2="26.7114">
		<stop  offset="0" style="stop-color:#B4B4B5"/>
		<stop  offset="1" style="stop-color:#B4B4B5"/>
	</linearGradient>
	<path fill="url(#SVGID_3_)" d="M32.431,36.415c-0.305,0-1.02,0-1.501-0.474c-1.417-1.396-2.202-3.269-2.202-5.277
		c0-2.007,0.785-3.88,2.199-5.275c1.369-1.346,1.369-3.705,0-5.054c-0.376-0.369-0.583-0.855-0.584-1.37
		c-0.002-0.515,0.205-1.006,0.584-1.378c0.382-0.375,0.876-0.579,1.398-0.579c0.521,0,1.02,0.205,1.398,0.579
		c1.416,1.395,2.194,3.268,2.194,5.276c0,2.007-0.778,3.881-2.194,5.275c-0.493,0.484-1.02,1.53-1.02,2.316
		c0,0.927,0.399,1.918,1.02,2.526c0.379,0.374,0.587,0.861,0.587,1.374c0,0.442-0.16,0.877-0.452,1.227
		C33.667,36.117,32.884,36.415,32.431,36.415z"/>
	<linearGradient id="SVGID_4_" gradientUnits="userSpaceOnUse" x1="-15.8652" y1="70.1499" x2="55.0005" y2="70.1499">
		<stop  offset="0" style="stop-color:#B4B4B5"/>
		<stop  offset="1" style="stop-color:#B4B4B5"/>
	</linearGradient>
	<path fill="url(#SVGID_4_)" d="M36.991,99.212c-1.201,0-1.89-0.675-1.89-1.859c0-1.18,0.688-1.858,1.89-1.858h5.515v-3.134H-2.936
		v3.134h5.078c1.202,0,1.891,0.679,1.891,1.858c0,1.185-0.688,1.859-1.891,1.859h-13.069c-1.2,0-1.891-0.675-1.891-1.859
		c0-1.18,0.69-1.858,1.891-1.858h3.772v-3.134h-2.464c-3.385,0-6.246-2.813-6.246-6.146V47.66c0-3.622,2.802-6.573,6.246-6.573
		h58.371c3.445,0,6.249,2.949,6.249,6.573v38.555c0,3.332-2.86,6.146-6.249,6.146h-2.463v3.134h3.771
		c1.202,0,1.891,0.679,1.891,1.858c0,1.185-0.688,1.859-1.891,1.859H36.991L36.991,99.212z M-12.084,86.215
		c0,1.383,1.061,2.424,2.465,2.424h57.937c1.404,0,2.463-1.041,2.463-2.424V56.803h-62.865V86.215z M51.217,52.655V47.66
		c0-1.381-1.058-2.424-2.461-2.424h-6.823v7.419H51.217z M38.151,52.655v-7.419H36.27v7.419H38.151z M32.052,52.655v-7.419h-1.88
		v7.419H32.052z M26.388,52.655v-7.419h-1.88v7.419H26.388z M20.727,52.655v-7.419h-1.881v7.419H20.727z M14.626,52.655v-7.419
		h-1.88v7.419H14.626z M8.965,52.655v-7.419H7.083v7.419H8.965z M3.302,52.655v-7.419H1.42v7.419H3.302z M-2.798,52.655v-7.419
		h-6.821c-0.96,0-2.03,0.997-2.03,2.424v4.995H-2.798z"/>
	<linearGradient id="SVGID_5_" gradientUnits="userSpaceOnUse" x1="36.4077" y1="68.2241" x2="48.0308" y2="68.2241">
		<stop  offset="0" style="stop-color:#B4B4B5"/>
		<stop  offset="1" style="stop-color:#B4B4B5"/>
	</linearGradient>
	<path fill="url(#SVGID_5_)" d="M42.219,73.94c-3.366,0-5.812-2.406-5.812-5.717c0-3.419,3.005-5.715,5.812-5.715
		c3.364,0,5.812,2.403,5.812,5.715C48.031,71.642,45.026,73.94,42.219,73.94z M42.219,66.657c-0.982,0-1.594,0.599-1.594,1.566
		s0.611,1.566,1.594,1.566c0.628,0,1.594-0.672,1.594-1.566C43.813,67.255,43.203,66.657,42.219,66.657z"/>
	<linearGradient id="SVGID_6_" gradientUnits="userSpaceOnUse" x1="36.4077" y1="81.0747" x2="48.0308" y2="81.0747">
		<stop  offset="0" style="stop-color:#B4B4B5"/>
		<stop  offset="1" style="stop-color:#B4B4B5"/>
	</linearGradient>
	<path fill="url(#SVGID_6_)" d="M42.219,86.79c-3.366,0-5.812-2.402-5.812-5.713c0-3.419,3.005-5.717,5.812-5.717
		c3.364,0,5.812,2.402,5.812,5.717C48.031,84.496,45.026,86.79,42.219,86.79z M42.219,79.506c-0.982,0-1.594,0.603-1.594,1.57
		c0,0.964,0.611,1.566,1.594,1.566c0.628,0,1.594-0.672,1.594-1.566C43.813,80.109,43.203,79.506,42.219,79.506z"/>
</g>
</svg>
