<?xml version="1.0" encoding="utf-8"?>
<!-- Generator: Adobe Illustrator 16.0.0, SVG Export Plug-In . SVG Version: 6.00 Build 0)  -->
<!DOCTYPE svg PUBLIC "-//W3C//DTD SVG 1.1//EN" "http://www.w3.org/Graphics/SVG/1.1/DTD/svg11.dtd">
<svg version="1.1" id="图层_1" xmlns="http://www.w3.org/2000/svg" xmlns:xlink="http://www.w3.org/1999/xlink" x="0px" y="0px"
	 width="53px" height="48px" viewBox="0 0 53 48" enable-background="new 0 0 53 48" xml:space="preserve">
<path fill-rule="evenodd" clip-rule="evenodd" fill="#B4B4B5" d="M19.678,41.57c-5.789,0-10.498-4.71-10.498-10.499V16.883
	c0-5.791,4.709-10.502,10.498-10.502h14.191c5.791,0,10.5,4.711,10.5,10.502v14.188c0,5.789-4.709,10.499-10.5,10.499H19.678z
	 M19.678,8.247c-4.76,0-8.633,3.873-8.633,8.636v14.188c0,4.761,3.873,8.632,8.633,8.632h14.191c4.762,0,8.635-3.871,8.635-8.632
	V16.883c0-4.763-3.873-8.636-8.635-8.636H19.678z"/>
<path fill-rule="evenodd" clip-rule="evenodd" fill="#B4B4B5" d="M33.728,26.64c-0.515,0-0.935-0.419-0.935-0.934v-8.679
	c0-0.517,0.42-0.936,0.935-0.936s0.933,0.419,0.933,0.936v8.679C34.66,26.221,34.242,26.64,33.728,26.64"/>
<path fill-rule="evenodd" clip-rule="evenodd" fill="#B4B4B5" d="M19.822,26.64c-0.516,0-0.934-0.419-0.934-0.934v-8.679
	c0-0.517,0.418-0.936,0.934-0.936c0.515,0,0.934,0.419,0.934,0.936v8.679C20.756,26.221,20.337,26.64,19.822,26.64"/>
<path fill-rule="evenodd" clip-rule="evenodd" fill="#B4B4B5" d="M25.239,32.127c-0.515,0-0.935-0.419-0.935-0.935v-1.52
	c0-1.362,1.108-2.469,2.471-2.469c1.361,0,2.469,1.106,2.469,2.469v1.52c0,0.516-0.419,0.935-0.934,0.935H25.239z M26.775,29.113
	c-0.338,0-0.604,0.245-0.604,0.56v0.587h1.205v-0.587C27.377,29.354,27.118,29.113,26.775,29.113"/>
<path fill-rule="evenodd" clip-rule="evenodd" fill="#B4B4B5" d="M19.678,41.57c-5.789,0-10.498-4.71-10.498-10.499V16.883
	c0-5.791,4.709-10.502,10.498-10.502h14.191c5.791,0,10.5,4.711,10.5,10.502v14.188c0,5.789-4.709,10.499-10.5,10.499H19.678z
	 M19.678,8.247c-4.76,0-8.633,3.873-8.633,8.636v14.188c0,4.761,3.873,8.632,8.633,8.632h14.191c4.762,0,8.635-3.871,8.635-8.632
	V16.883c0-4.763-3.873-8.636-8.635-8.636H19.678z"/>
<path fill-rule="evenodd" clip-rule="evenodd" fill="#B4B4B5" d="M33.728,26.64c-0.515,0-0.935-0.419-0.935-0.934v-8.679
	c0-0.517,0.42-0.936,0.935-0.936s0.933,0.419,0.933,0.936v8.679C34.66,26.221,34.242,26.64,33.728,26.64"/>
<path fill-rule="evenodd" clip-rule="evenodd" fill="#B4B4B5" d="M19.822,26.64c-0.516,0-0.934-0.419-0.934-0.934v-8.679
	c0-0.517,0.418-0.936,0.934-0.936c0.515,0,0.934,0.419,0.934,0.936v8.679C20.756,26.221,20.337,26.64,19.822,26.64"/>
<path fill-rule="evenodd" clip-rule="evenodd" fill="#B4B4B5" d="M25.239,32.127c-0.515,0-0.935-0.419-0.935-0.935v-1.52
	c0-1.362,1.108-2.469,2.471-2.469c1.361,0,2.469,1.106,2.469,2.469v1.52c0,0.516-0.419,0.935-0.934,0.935H25.239z M26.775,29.113
	c-0.338,0-0.604,0.245-0.604,0.56v0.587h1.205v-0.587C27.377,29.354,27.118,29.113,26.775,29.113"/>
</svg>
