<?xml version="1.0" encoding="utf-8"?>
<!-- Generator: Adobe Illustrator 16.0.0, SVG Export Plug-In . SVG Version: 6.00 Build 0)  -->
<!DOCTYPE svg PUBLIC "-//W3C//DTD SVG 1.1//EN" "http://www.w3.org/Graphics/SVG/1.1/DTD/svg11.dtd">
<svg version="1.1" id="图层_1" xmlns="http://www.w3.org/2000/svg" xmlns:xlink="http://www.w3.org/1999/xlink" x="0px" y="0px"
	 width="110px" height="114.667px" viewBox="0 0 110 114.667" enable-background="new 0 0 110 114.667" xml:space="preserve">
<g>
	<g>
		<circle fill="#F7F7F7" stroke="#C7C8C8" stroke-miterlimit="10" cx="11.939" cy="54.875" r="88.8"/>
	</g>
</g>
<g>
	<linearGradient id="SVGID_1_" gradientUnits="userSpaceOnUse" x1="-6.333" y1="43.4805" x2="57.168" y2="43.4805">
		<stop  offset="0" style="stop-color:#EFC12C"/>
		<stop  offset="1" style="stop-color:#D7382D"/>
	</linearGradient>
	<path fill="url(#SVGID_1_)" d="M55.402,41.523h-59.97c-0.975,0-1.765,0.876-1.765,1.958s0.79,1.957,1.765,1.957h59.97
		c0.977,0,1.766-0.875,1.766-1.957S56.377,41.523,55.402,41.523L55.402,41.523z"/>
	<linearGradient id="SVGID_2_" gradientUnits="userSpaceOnUse" x1="-6.333" y1="51.3081" x2="57.168" y2="51.3081">
		<stop  offset="0" style="stop-color:#EFC12C"/>
		<stop  offset="1" style="stop-color:#D7382D"/>
	</linearGradient>
	<path fill="url(#SVGID_2_)" d="M55.402,49.351h-59.97c-0.975,0-1.765,0.877-1.765,1.958s0.79,1.956,1.765,1.956h59.97
		c0.977,0,1.766-0.875,1.766-1.956S56.377,49.351,55.402,49.351L55.402,49.351z"/>
	<linearGradient id="SVGID_3_" gradientUnits="userSpaceOnUse" x1="-2.3394" y1="83.0952" x2="4.6758" y2="83.0952">
		<stop  offset="0" style="stop-color:#EFC12C"/>
		<stop  offset="1" style="stop-color:#D7382D"/>
	</linearGradient>
	<path fill="url(#SVGID_3_)" d="M4.241,74.421c-1.113-3.364-3.894-4.584-4.207-4.711c-0.91-0.371-1.926,0.146-2.265,1.16
		c-0.334,1.014,0.131,2.139,1.046,2.516c0.016,0.004,1.559,0.699,2.117,2.385c0.494,1.502,0.139,3.455-1.06,5.811
		c-4.082,8.012-0.37,13.16,2.164,14.762C2.309,96.517,2.607,96.6,2.901,96.6c0.606,0,1.195-0.351,1.523-0.976
		c0.487-0.926,0.205-2.121-0.625-2.672c-0.434-0.289-4.14-2.998-0.854-9.443C4.674,80.106,5.111,77.046,4.241,74.421L4.241,74.421z"
		/>
	<linearGradient id="SVGID_4_" gradientUnits="userSpaceOnUse" x1="21.0127" y1="83.0952" x2="28.0303" y2="83.0952">
		<stop  offset="0" style="stop-color:#EFC12C"/>
		<stop  offset="1" style="stop-color:#D7382D"/>
	</linearGradient>
	<path fill="url(#SVGID_4_)" d="M27.594,74.421c-1.112-3.364-3.893-4.584-4.207-4.711c-0.912-0.371-1.926,0.146-2.266,1.16
		c-0.335,1.014,0.129,2.139,1.047,2.516c0.015,0.004,1.558,0.699,2.117,2.385c0.497,1.502,0.139,3.455-1.059,5.811
		c-4.083,8.012-0.37,13.16,2.164,14.762c0.274,0.174,0.573,0.257,0.865,0.257c0.605,0,1.194-0.351,1.523-0.976
		c0.488-0.926,0.203-2.121-0.624-2.672c-0.435-0.289-4.14-2.998-0.855-9.443C28.028,80.106,28.466,77.046,27.594,74.421
		L27.594,74.421z"/>
	<linearGradient id="SVGID_5_" gradientUnits="userSpaceOnUse" x1="9.416" y1="86.2104" x2="16.7012" y2="86.2104">
		<stop  offset="0" style="stop-color:#EFC12C"/>
		<stop  offset="1" style="stop-color:#D7382D"/>
	</linearGradient>
	<path fill="url(#SVGID_5_)" d="M16.241,76.904c-1.198-3.626-4.328-4.938-4.459-4.996c-0.903-0.361-1.907,0.143-2.253,1.147
		c-0.341,1.005,0.117,2.129,1.019,2.521c0.019,0.008,1.776,0.786,2.395,2.713c0.531,1.66,0.141,3.801-1.165,6.367
		c-5.441,10.672,2.207,15.67,2.283,15.715c0.272,0.176,0.571,0.26,0.867,0.26c0.605,0,1.195-0.354,1.523-0.979
		c0.488-0.922,0.203-2.122-0.629-2.672c-0.481-0.315-4.59-3.308-0.976-10.399C16.696,82.949,17.165,79.692,16.241,76.904
		L16.241,76.904z"/>
	<linearGradient id="SVGID_6_" gradientUnits="userSpaceOnUse" x1="37.5698" y1="79.6968" x2="53.5557" y2="79.6968">
		<stop  offset="0" style="stop-color:#EFC12C"/>
		<stop  offset="1" style="stop-color:#D7382D"/>
	</linearGradient>
	<path fill="url(#SVGID_6_)" d="M52.563,77.785c0.949-0.609,1.273-1.953,0.726-3.006c-0.546-1.054-1.76-1.41-2.708-0.806
		c-0.629,0.403-0.95,1.136-0.958,1.885l-2.938,1.882v-3.845c0-0.026,0.03-0.062,0.037-0.095c0.582-0.387,0.99-1.064,0.99-1.873
		c0-1.227-0.898-2.221-2.002-2.221s-2.003,0.996-2.003,2.221c0,0.916,0.5,1.699,1.212,2.043v4.078l-3.417-2.19
		c-0.007-0.749-0.329-1.481-0.956-1.885c-0.95-0.604-2.161-0.248-2.712,0.806c-0.544,1.053-0.222,2.396,0.726,3.006
		c0.63,0.402,1.358,0.346,1.95-0.021l3.068,1.968l-3.068,1.968c-0.592-0.367-1.32-0.429-1.95-0.025
		c-0.947,0.609-1.27,1.957-0.726,3.007c0.548,1.054,1.762,1.411,2.712,0.806c0.626-0.402,0.949-1.133,0.956-1.886l3.417-2.188v4.01
		c-0.712,0.344-1.212,1.125-1.212,2.043c0,1.229,0.898,2.222,2.003,2.222c1.104,0,2.002-0.993,2.002-2.222
		c0-0.826-0.424-1.52-1.029-1.898V81.72l2.938,1.882c0.009,0.753,0.327,1.481,0.958,1.885c0.948,0.606,2.16,0.245,2.71-0.805
		c0.548-1.054,0.224-2.397-0.726-3.007c-0.628-0.402-1.36-0.346-1.95,0.021l-3.069-1.968l3.069-1.964
		C51.203,78.13,51.936,78.187,52.563,77.785L52.563,77.785z"/>
	<linearGradient id="SVGID_7_" gradientUnits="userSpaceOnUse" x1="-14.8032" y1="41.5229" x2="67.4023" y2="41.5229">
		<stop  offset="0" style="stop-color:#EFC12C"/>
		<stop  offset="1" style="stop-color:#D7382D"/>
	</linearGradient>
	<path fill="url(#SVGID_7_)" d="M-5.45,64.621c-5.157,0-9.353-4.656-9.353-10.375V28.804c0-5.722,4.195-10.378,9.353-10.378h63.498
		c5.158,0,9.354,4.657,9.354,10.378v25.441c0,5.719-4.196,10.375-9.354,10.375H-5.45z M-5.45,23.529
		c-2.622,0-4.758,2.368-4.758,5.275v25.441c0,2.909,2.134,5.274,4.758,5.274h63.498c2.625,0,4.757-2.368,4.757-5.274V28.804
		c0-2.909-2.135-5.275-4.757-5.275H-5.45z"/>
</g>
</svg>
