<?xml version="1.0" encoding="utf-8"?>
<!-- Generator: Adobe Illustrator 16.0.0, SVG Export Plug-In . SVG Version: 6.00 Build 0)  -->
<!DOCTYPE svg PUBLIC "-//W3C//DTD SVG 1.1//EN" "http://www.w3.org/Graphics/SVG/1.1/DTD/svg11.dtd">
<svg version="1.1" id="图层_1" xmlns="http://www.w3.org/2000/svg" xmlns:xlink="http://www.w3.org/1999/xlink" x="0px" y="0px"
	 width="41.5px" height="41.833px" viewBox="0 0 41.5 41.833" enable-background="new 0 0 41.5 41.833" xml:space="preserve">
<path fill="#B4B3B4" d="M40.686,27.052c-0.453-1.672-1.945-2.841-3.629-2.841c-0.686,0-1.36,0.19-2.004,0.565
	c-0.66,0.387-1.347,0.583-2.041,0.583c-2.303,0-4.377-2.071-5.41-4.124c-1.403-2.787-2.445-4.845-3.498-6.77
	c1.504,0.047,2.846,0.886,3.994,2.493c0.709,0.994,1.805,1.564,3.006,1.564c1.434,0,2.815-0.812,3.438-2.021
	c0.565-1.099,0.449-2.345-0.319-3.42c-2.692-3.774-6.364-5.854-10.341-5.854c-1.561,0-3.13,0.317-4.693,0.93
	c0.15-0.516,0.257-1.051,0.257-1.614c0-3.194-2.599-5.791-5.794-5.791c-3.194,0-5.793,2.597-5.793,5.791
	c0,1.674,0.725,3.173,1.866,4.232c-0.76-0.411-1.469-1.037-2.114-1.94C6.9,7.842,5.805,7.271,4.604,7.271
	c-1.433,0-2.815,0.812-3.438,2.022c-0.565,1.097-0.448,2.344,0.321,3.42c3.264,4.571,8.004,6.619,12.903,5.566
	c1.01,1.765,2.016,3.599,3.046,5.564c-1.64,0.99-3.332,2.263-4.572,3.253c-1.368,1.093-2.676,3.798-4.243,7.225
	c-0.28,0.61-0.539,1.176-0.766,1.646c-0.546,1.129-0.497,2.354,0.136,3.362c0.675,1.077,1.95,1.771,3.25,1.771
	c1.369,0,2.552-0.757,3.165-2.021c0.248-0.512,0.536-1.143,0.844-1.818c0.694-1.521,1.985-4.354,2.524-4.838
	c0.814-0.67,3.565-2.639,5.828-3.576c2.352,2.491,5.705,3.951,9.174,3.951c2.178,0,4.25-0.565,6.162-1.683
	C40.432,30.241,41.12,28.646,40.686,27.052z M13.651,3.591c1.63,0,2.957,1.324,2.957,2.954c0,1.629-1.326,2.955-2.957,2.955
	s-2.955-1.326-2.955-2.955C10.697,4.915,12.021,3.591,13.651,3.591z M37.506,28.666c-1.471,0.859-3.063,1.295-4.73,1.295
	c-2.926,0-5.857-1.413-7.65-3.688l-0.729-0.924l-1.043,0.544c-0.048,0.025-0.098,0.05-0.151,0.069
	c-2.651,0.926-6.076,3.318-7.231,4.27c-0.944,0.776-1.921,2.821-3.303,5.851c-0.298,0.654-0.576,1.264-0.815,1.758
	c-0.142,0.293-0.33,0.424-0.612,0.424c-0.329,0-0.685-0.187-0.845-0.441c-0.075-0.12-0.141-0.299,0.015-0.622
	c0.235-0.485,0.502-1.068,0.791-1.7c0.93-2.031,2.486-5.431,3.433-6.188c1.192-0.951,3.474-2.689,5.34-3.643l1.269-0.648
	l-0.653-1.266c-1.461-2.829-2.863-5.394-4.286-7.835l-0.566-0.973l-1.075,0.33c-4.132,1.267-8.036-0.25-10.866-4.216
	c-0.204-0.283-0.141-0.407-0.107-0.472c0.119-0.232,0.503-0.481,0.914-0.481c0.292,0,0.514,0.119,0.697,0.376
	c2.175,3.046,4.703,3.685,6.439,3.685c1.58,0,3.24-0.509,4.939-1.517c0.125-0.074,0.478-0.271,0.816-0.461
	c0.324-0.182,0.638-0.356,0.758-0.428c5.08-3.016,10.183-1.904,13.658,2.965c0.203,0.286,0.141,0.407,0.106,0.473
	c-0.118,0.232-0.503,0.483-0.915,0.483c-0.292,0-0.514-0.119-0.697-0.377c-2.173-3.043-4.699-3.683-6.436-3.683
	c-0.819,0-1.67,0.139-2.528,0.412l-1.675,0.535l0.877,1.525c1.398,2.43,2.604,4.799,4.422,8.414
	c1.739,3.454,4.857,5.685,7.945,5.685c1.204,0,2.373-0.324,3.473-0.97c0.712-0.415,1.325,0.063,1.463,0.567
	C38.045,28.155,37.905,28.433,37.506,28.666z"/>
</svg>
