<?xml version="1.0" encoding="utf-8"?>
<!-- Generator: Adobe Illustrator 16.0.0, SVG Export Plug-In . SVG Version: 6.00 Build 0)  -->
<!DOCTYPE svg PUBLIC "-//W3C//DTD SVG 1.1//EN" "http://www.w3.org/Graphics/SVG/1.1/DTD/svg11.dtd">
<svg version="1.1" id="图层_1" xmlns="http://www.w3.org/2000/svg" xmlns:xlink="http://www.w3.org/1999/xlink" x="0px" y="0px"
	 width="110px" height="114.667px" viewBox="0 0 110 114.667" enable-background="new 0 0 110 114.667" xml:space="preserve">
<g>
	<g>
		<circle fill="#F7F7F7" stroke="#C7C8C8" stroke-miterlimit="10" cx="11.939" cy="54.875" r="88.8"/>
	</g>
</g>
<g>
	<g>
		
			<linearGradient id="SVGID_1_" gradientUnits="userSpaceOnUse" x1="-207.6851" y1="434.7495" x2="-207.6851" y2="420.7788" gradientTransform="matrix(7.3041 0 0 -7.3041 1528.8733 3181.7512)">
			<stop  offset="0" style="stop-color:#F9C820"/>
			<stop  offset="1" style="stop-color:#E4352B"/>
		</linearGradient>
		<path fill="url(#SVGID_1_)" d="M11.776,57.042c-9.699,0-17.52,7.652-17.52,17.14c0,9.488,7.82,17.139,17.52,17.139
			c9.7,0,17.522-7.65,17.522-17.139C29.298,64.694,21.372,57.042,11.776,57.042z M11.776,86.218
			c-6.778,0-12.307-5.405-12.307-12.037c0-6.631,5.528-12.038,12.307-12.038c6.78,0,12.308,5.407,12.308,12.038
			C24.083,80.813,18.556,86.218,11.776,86.218z M51.722,24.804c-1.878-9.182-6.885-15.099-13.769-16.425
			c-10.951-2.55-44.323-2.958-52.457,0c-5.735,0.714-12.516,8.876-13.765,16.527c-1.981,6.937-4.067,53.458,0.102,64.679
			c1.877,7.141,6.572,15.609,13.768,16.322c4.276,1.43,16.789,2.449,28.68,2.449c10.428,0,20.439-0.715,24.195-2.551
			c6.045-2.041,10.322-7.346,13.246-16.119C55.371,78.568,55.371,34.292,51.722,24.804z M46.714,88.056
			c-2.4,7.344-5.631,11.527-10.223,12.955l-0.312,0.205c-5.732,3.061-42.234,2.447-49.118-0.104l-0.417-0.102h-0.416
			c-4.173-0.203-7.927-6.529-9.491-12.65v-0.408c-3.857-9.997-1.67-56.518,0-61.618l0.104-0.408
			c1.044-6.529,6.885-12.242,9.388-12.446h0.416l0.521-0.204c2.818-1.224,12.516-1.836,23.046-1.836
			c10.116,0,20.858,0.612,26.596,1.938h0.104c6.568,1.122,8.865,8.366,9.698,12.548l0.105,0.51
			C49.844,33.68,50.364,77.242,46.714,88.056z"/>
	</g>
</g>
</svg>
