<?xml version="1.0" encoding="utf-8"?>
<!-- Generator: Adobe Illustrator 16.0.0, SVG Export Plug-In . SVG Version: 6.00 Build 0)  -->
<!DOCTYPE svg PUBLIC "-//W3C//DTD SVG 1.1//EN" "http://www.w3.org/Graphics/SVG/1.1/DTD/svg11.dtd">
<svg version="1.1" id="图层_1" xmlns="http://www.w3.org/2000/svg" xmlns:xlink="http://www.w3.org/1999/xlink" x="0px" y="0px"
	 width="24.596px" height="46.75px" viewBox="0 0 24.596 46.75" enable-background="new 0 0 24.596 46.75" xml:space="preserve">
<g>
	<path fill="none" stroke="#B5B4B5" stroke-width="2.7" stroke-linecap="round" stroke-linejoin="round" stroke-miterlimit="10" d="
		M12.404,2.79c2.304,0,4.174,1.867,4.174,4.17c0,2.303-1.87,4.171-4.174,4.171c-2.302,0-4.171-1.868-4.171-4.171
		C8.233,4.656,10.102,2.79,12.404,2.79z"/>
	<path fill="none" stroke="#B5B4B5" stroke-width="2.7" stroke-linecap="round" stroke-linejoin="round" stroke-miterlimit="10" d="
		M12.406,28.771v12.871c0,1.217-0.987,2.203-2.204,2.203l0,0c-1.217,0-2.203-0.986-2.203-2.203L7.998,16.703
		c-0.379,2.095-1.232,7.371-1.575,9.525c-0.156,0.99-1.083,1.665-2.075,1.505c-0.988-0.155-1.663-1.086-1.506-2.074
		c0.146-0.93,1.45-9.118,1.758-10.49c0.757-3.408,3.781-3.408,5.405-3.408h4.799c1.625,0,4.649,0,5.408,3.408
		c0.305,1.372,1.607,9.56,1.756,10.49c0.156,0.988-0.516,1.919-1.507,2.074c-0.096,0.017-0.194,0.023-0.287,0.023
		c-0.877,0-1.646-0.637-1.789-1.529c-0.34-2.154-1.194-7.444-1.575-9.54h0.003v24.954c0,1.217-0.986,2.203-2.203,2.203l0,0
		c-1.217,0-2.204-0.986-2.204-2.203V28.771"/>
</g>
</svg>
