<?xml version="1.0" encoding="utf-8"?>
<!-- Generator: Adobe Illustrator 16.0.0, SVG Export Plug-In . SVG Version: 6.00 Build 0)  -->
<!DOCTYPE svg PUBLIC "-//W3C//DTD SVG 1.1//EN" "http://www.w3.org/Graphics/SVG/1.1/DTD/svg11.dtd">
<svg version="1.1" id="图层_1" xmlns="http://www.w3.org/2000/svg" xmlns:xlink="http://www.w3.org/1999/xlink" x="0px" y="0px"
	 width="26.75px" height="39.25px" viewBox="0 0 26.75 39.25" enable-background="new 0 0 26.75 39.25" xml:space="preserve">
<g>
	<g>
		<path fill="#B3B2B3" d="M9.292,38.32c-4.645,0-8.423-3.777-8.423-8.423c0-2.504,1.162-4.938,3.111-6.528V5.871
			c0-2.929,2.383-5.311,5.312-5.311s5.312,2.382,5.312,5.311v17.5c1.95,1.589,3.11,4.022,3.11,6.526
			C17.713,34.543,13.935,38.32,9.292,38.32z M9.292,2.523c-1.847,0-3.349,1.502-3.349,3.348v18.487l-0.409,0.294
			c-1.691,1.213-2.702,3.176-2.702,5.245c0,3.563,2.897,6.459,6.459,6.459c3.562,0,6.459-2.896,6.459-6.459
			c0-2.069-1.01-4.032-2.702-5.245l-0.409-0.293V5.871C12.64,4.025,11.138,2.523,9.292,2.523z"/>
		<path fill="#B3B2B3" d="M10.443,25.908V10.198c0-0.637-0.516-1.152-1.152-1.152c-0.637,0-1.153,0.516-1.153,1.152v15.709
			c-1.691,0.5-2.933,2.047-2.933,3.9c0,2.257,1.829,4.086,4.086,4.086c2.256,0,4.086-1.829,4.086-4.086
			C13.377,27.955,12.135,26.407,10.443,25.908z"/>
		<g>
			<g>
				<path fill="#B3B2B3" d="M17.839,15.959c-0.793,0-1.438-0.645-1.438-1.438s0.646-1.438,1.438-1.438
					c0.794,0,1.439,0.645,1.439,1.438S18.633,15.959,17.839,15.959z M17.839,13.967c-0.305,0-0.554,0.248-0.554,0.554
					c0,0.306,0.249,0.554,0.554,0.554c0.306,0,0.555-0.249,0.555-0.554C18.395,14.215,18.145,13.967,17.839,13.967z"/>
			</g>
			<g>
				<path fill="#B3B2B3" d="M21.826,14.467v2.248h3.809v1.383h-3.809v3.372h-1.526v-8.387h5.796v1.384H21.826z"/>
			</g>
		</g>
	</g>
</g>
</svg>
