<?xml version="1.0" encoding="utf-8"?>
<!-- Generator: Adobe Illustrator 16.0.0, SVG Export Plug-In . SVG Version: 6.00 Build 0)  -->
<!DOCTYPE svg PUBLIC "-//W3C//DTD SVG 1.1//EN" "http://www.w3.org/Graphics/SVG/1.1/DTD/svg11.dtd">
<svg version="1.1" id="图层_1" xmlns="http://www.w3.org/2000/svg" xmlns:xlink="http://www.w3.org/1999/xlink" x="0px" y="0px"
	 width="26.5px" height="26.666px" viewBox="0 0 26.5 26.666" enable-background="new 0 0 26.5 26.666" xml:space="preserve">
<g>
	<path fill="#F4D924" d="M25.706,13.395c0,6.901-5.596,12.498-12.5,12.498c-6.903,0-12.5-5.597-12.5-12.498
		c0-6.905,5.597-12.502,12.5-12.502C20.11,0.893,25.706,6.489,25.706,13.395z"/>
	<g>
		<path fill="#231815" d="M12.092,14.398l-0.324-4.853c-0.062-0.948-0.092-1.625-0.092-2.04c0-0.561,0.147-1,0.441-1.313
			s0.681-0.471,1.161-0.471c0.582,0,0.969,0.201,1.165,0.602c0.195,0.402,0.294,0.984,0.294,1.74c0,0.447-0.022,0.9-0.071,1.358
			l-0.436,4.996c-0.046,0.595-0.147,1.05-0.303,1.368c-0.156,0.318-0.412,0.477-0.771,0.477c-0.365,0-0.618-0.154-0.76-0.463
			S12.152,15.025,12.092,14.398z M13.216,21.067c-0.412,0-0.771-0.134-1.078-0.403c-0.309-0.266-0.462-0.639-0.462-1.118
			c0-0.419,0.147-0.776,0.441-1.069c0.293-0.295,0.654-0.439,1.081-0.439c0.424,0,0.788,0.145,1.088,0.439
			c0.301,0.293,0.45,0.65,0.45,1.069c0,0.474-0.151,0.845-0.454,1.116C13.976,20.934,13.622,21.067,13.216,21.067z"/>
	</g>
</g>
</svg>
