<?xml version="1.0" encoding="utf-8"?>
<!-- Generator: Adobe Illustrator 16.0.0, SVG Export Plug-In . SVG Version: 6.00 Build 0)  -->
<!DOCTYPE svg PUBLIC "-//W3C//DTD SVG 1.1//EN" "http://www.w3.org/Graphics/SVG/1.1/DTD/svg11.dtd">
<svg version="1.1" id="图层_1" xmlns="http://www.w3.org/2000/svg" xmlns:xlink="http://www.w3.org/1999/xlink" x="0px" y="0px"
	 width="110px" height="114.667px" viewBox="0 0 110 114.667" enable-background="new 0 0 110 114.667" xml:space="preserve">
<g>
	<g>
		<circle fill="#F7F7F7" stroke="#EEEEEF" stroke-miterlimit="10" cx="11.94" cy="54.876" r="88.8"/>
	</g>
</g>
<path fill="none" stroke="#B4B4B4" stroke-width="6" stroke-linecap="round" stroke-linejoin="round" stroke-miterlimit="10" d="
	M69.469,99.706H-5.175c-2.871,0-5.199-2.324-5.199-5.198V19.864c0-2.871,2.328-5.198,5.199-5.198h74.644
	c2.87,0,5.196,2.328,5.196,5.198v74.641C74.665,97.379,72.339,99.706,69.469,99.706z"/>
<path fill="none" stroke="#B4B4B4" stroke-width="6" stroke-linecap="round" stroke-linejoin="round" stroke-miterlimit="10" d="
	M40.407,82.996H23.883c-0.979,0-1.775-0.793-1.775-1.772V64.699c0-0.981,0.795-1.779,1.775-1.779H40.41
	c0.977,0,1.772,0.799,1.772,1.774v16.533C42.182,82.199,41.387,82.996,40.407,82.996z"/>
<path fill="none" stroke="#B4B4B4" stroke-width="6" stroke-miterlimit="10" d="M40.41,51.45H23.883
	c-0.979,0-1.775-0.795-1.775-1.774V33.149c0-0.98,0.795-1.774,1.775-1.774H40.41c0.977,0,1.772,0.794,1.772,1.774v16.526
	C42.182,50.655,41.387,51.45,40.41,51.45"/>
<path fill="none" stroke="#B4B4B4" stroke-width="6" stroke-linecap="round" stroke-linejoin="round" stroke-miterlimit="10" d="
	M40.41,51.45H23.883c-0.979,0-1.775-0.795-1.775-1.774V33.149c0-0.98,0.795-1.774,1.775-1.774H40.41
	c0.977,0,1.772,0.794,1.772,1.774v16.526C42.182,50.655,41.387,51.45,40.41,51.45z"/>
</svg>
