<?xml version="1.0" encoding="utf-8"?>
<!-- Generator: Adobe Illustrator 16.0.0, SVG Export Plug-In . SVG Version: 6.00 Build 0)  -->
<!DOCTYPE svg PUBLIC "-//W3C//DTD SVG 1.1//EN" "http://www.w3.org/Graphics/SVG/1.1/DTD/svg11.dtd">
<svg version="1.1" id="图层_1" xmlns="http://www.w3.org/2000/svg" xmlns:xlink="http://www.w3.org/1999/xlink" x="0px" y="0px"
	 width="110px" height="114.667px" viewBox="0 0 110 114.667" enable-background="new 0 0 110 114.667" xml:space="preserve">
<g>
	<g>
		<circle fill="#F7F7F7" stroke="#EEEEEF" stroke-miterlimit="10" cx="11.94" cy="54.876" r="88.8"/>
	</g>
</g>
<path fill="none" stroke="#B4B4B4" stroke-width="6" stroke-linecap="round" stroke-linejoin="round" stroke-miterlimit="10" d="
	M69.619,99.853H-5.022c-2.872,0-5.199-2.331-5.199-5.199V20.012c0-2.874,2.327-5.198,5.199-5.198h74.642
	c2.87,0,5.199,2.325,5.199,5.198v74.642C74.818,97.522,72.489,99.853,69.619,99.853z"/>
<path fill="none" stroke="#B4B4B4" stroke-width="6" stroke-linecap="round" stroke-linejoin="round" stroke-miterlimit="10" d="
	M24.976,83.145H8.45c-0.979,0-1.775-0.799-1.775-1.777V64.84c0-0.98,0.794-1.771,1.775-1.771h16.526
	c0.982,0,1.775,0.791,1.775,1.771v16.527C26.75,82.346,25.958,83.145,24.976,83.145z"/>
<path fill="none" stroke="#B4B4B4" stroke-width="6" stroke-miterlimit="10" d="M24.976,51.597H8.45
	c-0.979,0-1.775-0.797-1.775-1.777V33.294c0-0.979,0.794-1.772,1.775-1.772h16.526c0.982,0,1.775,0.792,1.775,1.772v16.526
	C26.75,50.801,25.958,51.597,24.976,51.597"/>
<path fill="none" stroke="#B4B4B4" stroke-width="6" stroke-linecap="round" stroke-linejoin="round" stroke-miterlimit="10" d="
	M24.976,51.597H8.45c-0.979,0-1.775-0.797-1.775-1.777V33.294c0-0.979,0.794-1.772,1.775-1.772h16.526
	c0.982,0,1.775,0.792,1.775,1.772v16.526C26.75,50.801,25.958,51.597,24.976,51.597z"/>
<path fill="none" stroke="#B4B4B4" stroke-width="6" stroke-linecap="round" stroke-linejoin="round" stroke-miterlimit="10" d="
	M56.146,83.145H39.62c-0.979,0-1.775-0.799-1.775-1.777V64.84c0-0.98,0.794-1.771,1.775-1.771h16.527
	c0.981,0,1.773,0.791,1.773,1.771v16.527C57.92,82.346,57.128,83.145,56.146,83.145z"/>
<path fill="none" stroke="#B4B4B4" stroke-width="6" stroke-linecap="round" stroke-linejoin="round" stroke-miterlimit="10" d="
	M56.146,51.597H39.62c-0.979,0-1.775-0.797-1.775-1.777V33.294c0-0.979,0.794-1.772,1.775-1.772h16.527
	c0.981,0,1.773,0.792,1.773,1.772v16.526C57.92,50.801,57.128,51.597,56.146,51.597z"/>
</svg>
