<?xml version="1.0" encoding="utf-8"?>
<!-- Generator: Adobe Illustrator 16.0.0, SVG Export Plug-In . SVG Version: 6.00 Build 0)  -->
<!DOCTYPE svg PUBLIC "-//W3C//DTD SVG 1.1//EN" "http://www.w3.org/Graphics/SVG/1.1/DTD/svg11.dtd">
<svg version="1.1" id="图层_1" xmlns="http://www.w3.org/2000/svg" xmlns:xlink="http://www.w3.org/1999/xlink" x="0px" y="0px"
	 width="110px" height="114.667px" viewBox="0 0 110 114.667" enable-background="new 0 0 110 114.667" xml:space="preserve">
<g>
	<g>
		<circle fill="#F7F7F7" stroke="#EEEEEF" stroke-miterlimit="10" cx="11.94" cy="54.876" r="88.8"/>
	</g>
</g>
<g>
	
		<linearGradient id="SVGID_1_" gradientUnits="userSpaceOnUse" x1="-13.3359" y1="785.5571" x2="77.373" y2="785.5571" gradientTransform="matrix(1 0 0 1 0.2803 -728.2236)">
		<stop  offset="0" style="stop-color:#EEC02A"/>
		<stop  offset="1" style="stop-color:#D6372C"/>
	</linearGradient>
	<path fill="url(#SVGID_1_)" d="M69.638,11.979H-5.039c-4.42,0-8.017,3.595-8.017,8.015v74.678c0,4.421,3.596,8.017,8.017,8.017
		h74.677c4.422,0,8.016-3.596,8.016-8.017V19.994C77.653,15.574,74.06,11.979,69.638,11.979z M72.025,94.671
		c0,1.318-1.07,2.39-2.388,2.39H-5.039c-1.317,0-2.389-1.071-2.389-2.39V19.994c0-1.315,1.071-2.387,2.389-2.387h74.677
		c1.317,0,2.388,1.071,2.388,2.387V94.671L72.025,94.671z"/>
	
		<linearGradient id="SVGID_2_" gradientUnits="userSpaceOnUse" x1="3.5684" y1="801.3394" x2="29.2822" y2="801.3394" gradientTransform="matrix(1 0 0 1 0.2803 -728.2236)">
		<stop  offset="0" style="stop-color:#EEC02A"/>
		<stop  offset="1" style="stop-color:#D6372C"/>
	</linearGradient>
	<path fill="url(#SVGID_2_)" d="M24.974,60.258H8.439c-2.531,0-4.59,2.058-4.59,4.587v16.534c0,2.532,2.059,4.593,4.59,4.593h16.535
		c2.531,0,4.589-2.061,4.589-4.593V64.843C29.562,62.316,27.504,60.258,24.974,60.258z M23.934,80.345H9.477V65.886h14.457V80.345z"
		/>
	
		<linearGradient id="SVGID_3_" gradientUnits="userSpaceOnUse" x1="3.5684" y1="769.7759" x2="29.2822" y2="769.7759" gradientTransform="matrix(1 0 0 1 0.2803 -728.2236)">
		<stop  offset="0" style="stop-color:#EEC02A"/>
		<stop  offset="1" style="stop-color:#D6372C"/>
	</linearGradient>
	<path fill="url(#SVGID_3_)" d="M24.974,28.696H8.439c-2.531,0-4.59,2.058-4.59,4.587v16.533c0,2.533,2.059,4.592,4.59,4.592h16.535
		c2.531,0,4.589-2.06,4.589-4.591V33.283C29.562,30.754,27.504,28.696,24.974,28.696z M23.934,48.78H9.477V34.324h14.457V48.78z"/>
	
		<linearGradient id="SVGID_4_" gradientUnits="userSpaceOnUse" x1="34.7539" y1="801.3394" x2="60.4678" y2="801.3394" gradientTransform="matrix(1 0 0 1 0.2803 -728.2236)">
		<stop  offset="0" style="stop-color:#EEC02A"/>
		<stop  offset="1" style="stop-color:#D6372C"/>
	</linearGradient>
	<path fill="url(#SVGID_4_)" d="M56.157,60.258H39.624c-2.53,0-4.59,2.058-4.59,4.587v16.534c0,2.532,2.059,4.593,4.59,4.593h16.533
		c2.532,0,4.591-2.061,4.591-4.593V64.843C60.748,62.316,58.689,60.258,56.157,60.258z M55.12,80.345H40.662V65.886H55.12V80.345z"
		/>
	
		<linearGradient id="SVGID_5_" gradientUnits="userSpaceOnUse" x1="34.7539" y1="769.7759" x2="60.4678" y2="769.7759" gradientTransform="matrix(1 0 0 1 0.2803 -728.2236)">
		<stop  offset="0" style="stop-color:#EEC02A"/>
		<stop  offset="1" style="stop-color:#D6372C"/>
	</linearGradient>
	<path fill="url(#SVGID_5_)" d="M56.157,28.696H39.624c-2.53,0-4.59,2.058-4.59,4.587v16.533c0,2.533,2.059,4.592,4.59,4.592h16.533
		c2.532,0,4.591-2.06,4.591-4.591V33.283C60.748,30.754,58.689,28.696,56.157,28.696z M55.12,48.78H40.662V34.324H55.12V48.78z"/>
</g>
</svg>
