<?xml version="1.0" encoding="utf-8"?>
<!-- Generator: Adobe Illustrator 16.0.0, SVG Export Plug-In . SVG Version: 6.00 Build 0)  -->
<!DOCTYPE svg PUBLIC "-//W3C//DTD SVG 1.1//EN" "http://www.w3.org/Graphics/SVG/1.1/DTD/svg11.dtd">
<svg version="1.1" id="图层_1" xmlns="http://www.w3.org/2000/svg" xmlns:xlink="http://www.w3.org/1999/xlink" x="0px" y="0px"
	 width="43.75px" height="37.75px" viewBox="0 0 43.75 37.75" enable-background="new 0 0 43.75 37.75" xml:space="preserve">
<polyline fill="none" stroke="#B2B2B3" stroke-width="3" stroke-linecap="round" stroke-linejoin="round" stroke-miterlimit="10" points="
	30.255,33.061 33.479,33.061 33.479,16.087 "/>
<polyline fill="none" stroke="#B2B2B3" stroke-width="3" stroke-linecap="round" stroke-linejoin="round" stroke-miterlimit="10" points="
	11.326,15.92 11.326,26.663 11.326,27.052 11.326,33.061 14.602,33.061 "/>
<polyline fill="none" stroke="#B2B2B3" stroke-width="3" stroke-linecap="round" stroke-linejoin="round" stroke-miterlimit="10" points="
	39.158,21.387 22.403,5.321 5.646,21.387 "/>
<path fill="none" stroke="#B2B2B3" stroke-width="3" stroke-linecap="round" stroke-linejoin="round" stroke-miterlimit="10" d="
	M14.602,32.283l-0.005-11.039c0-0.72,0.583-1.304,1.303-1.304h13.005c0.72,0,1.303,0.584,1.303,1.304v11.039"/>
<line fill="none" stroke="#B2B2B3" stroke-width="3" stroke-linecap="round" stroke-linejoin="round" stroke-miterlimit="10" x1="14.798" y1="23.248" x2="30.157" y2="23.248"/>
<line fill="none" stroke="#B2B2B3" stroke-width="3" stroke-linecap="round" stroke-linejoin="round" stroke-miterlimit="10" x1="14.798" y1="26.519" x2="30.157" y2="26.519"/>
<line fill="none" stroke="#B2B2B3" stroke-width="3" stroke-linecap="round" stroke-linejoin="round" stroke-miterlimit="10" x1="14.798" y1="29.79" x2="30.157" y2="29.79"/>
<line fill="none" stroke="#B2B2B3" stroke-width="3" stroke-linecap="round" stroke-linejoin="round" stroke-miterlimit="10" x1="14.834" y1="33.061" x2="30.194" y2="33.061"/>
</svg>
