<?xml version="1.0" encoding="utf-8"?>
<!-- Generator: Adobe Illustrator 16.0.0, SVG Export Plug-In . SVG Version: 6.00 Build 0)  -->
<!DOCTYPE svg PUBLIC "-//W3C//DTD SVG 1.1//EN" "http://www.w3.org/Graphics/SVG/1.1/DTD/svg11.dtd">
<svg version="1.1" id="图层_1" xmlns="http://www.w3.org/2000/svg" xmlns:xlink="http://www.w3.org/1999/xlink" x="0px" y="0px"
	 width="43.75px" height="37.75px" viewBox="0 0 43.75 37.75" enable-background="new 0 0 43.75 37.75" xml:space="preserve">
<path fill="none" stroke="#B2B2B3" stroke-width="3" stroke-miterlimit="10" d="M33.245,33.062H11.671V7.769
	c0-1.353,1.095-2.447,2.446-2.447h16.682c1.351,0,2.446,1.095,2.446,2.447V33.062z"/>
<path fill="none" stroke="#B2B2B3" stroke-width="3" stroke-miterlimit="10" d="M28.869,26.507H10.487
	c-0.531,0-0.905-0.522-0.736-1.026l5.448-16.168c0.107-0.315,0.403-0.527,0.736-0.527h18.383c0.53,0,0.905,0.52,0.735,1.024
	l-5.448,16.168C29.5,26.293,29.203,26.507,28.869,26.507z"/>
<line fill="none" stroke="#B2B2B3" stroke-width="3" stroke-linecap="round" stroke-miterlimit="10" x1="10.911" y1="33.062" x2="33.973" y2="33.062"/>
<path fill="none" stroke="#B2B2B3" stroke-linecap="round" stroke-miterlimit="10" d="M20.427,28.221c0,0-0.243,1.529,1.238,2.598"
	/>
<polygon fill="#B2B2B3" points="22.839,31.661 21.939,31.568 21.039,31.476 21.569,30.743 22.099,30.011 22.47,30.836 "/>
</svg>
