<?xml version="1.0" encoding="utf-8"?>
<!-- Generator: Adobe Illustrator 16.0.0, SVG Export Plug-In . SVG Version: 6.00 Build 0)  -->
<!DOCTYPE svg PUBLIC "-//W3C//DTD SVG 1.1//EN" "http://www.w3.org/Graphics/SVG/1.1/DTD/svg11.dtd">
<svg version="1.1" id="图层_1" xmlns="http://www.w3.org/2000/svg" xmlns:xlink="http://www.w3.org/1999/xlink" x="0px" y="0px"
	 width="110px" height="114.667px" viewBox="0 0 110 114.667" enable-background="new 0 0 110 114.667" xml:space="preserve">
<g>
	<g>
		<circle fill="#F7F7F7" stroke="#C7C8C8" stroke-miterlimit="10" cx="11.939" cy="54.875" r="88.8"/>
	</g>
</g>
<path fill="none" stroke="#B5B4B5" stroke-width="2" stroke-linecap="round" stroke-linejoin="round" stroke-miterlimit="10" d="
	M28.999,102.281L28.999,102.281z"/>
<linearGradient id="SVGID_1_" gradientUnits="userSpaceOnUse" x1="48.1362" y1="40.6372" x2="65.2266" y2="40.6372" gradientTransform="matrix(1 0 0 -1 0.1401 113.7217)">
	<stop  offset="0" style="stop-color:#EFC12C"/>
	<stop  offset="1" style="stop-color:#D7382D"/>
</linearGradient>
<path fill="url(#SVGID_1_)" d="M61.751,102.638h-9.857c-1.998,0-3.618-1.622-3.618-3.618s1.621-3.617,3.618-3.617h6.238V47.149
	c0-1.998,1.619-3.618,3.618-3.618s3.617,1.621,3.617,3.618V99.02C65.368,101.018,63.751,102.638,61.751,102.638z"/>
<linearGradient id="SVGID_2_" gradientUnits="userSpaceOnUse" x1="-9.7051" y1="40.8911" x2="7.5391" y2="40.8911" gradientTransform="matrix(1 0 0 -1 0.1401 113.7217)">
	<stop  offset="0" style="stop-color:#EFC12C"/>
	<stop  offset="1" style="stop-color:#D7382D"/>
</linearGradient>
<path fill="url(#SVGID_2_)" d="M4.061,102.638H-5.948c-1.998,0-3.617-1.622-3.617-3.618V46.641c0-1.997,1.619-3.617,3.617-3.617
	c2,0,3.618,1.62,3.618,3.617v48.762h6.391c1.999,0,3.618,1.621,3.618,3.617S6.06,102.638,4.061,102.638z"/>
<linearGradient id="SVGID_3_" gradientUnits="userSpaceOnUse" x1="-27.0649" y1="74.9233" x2="82.5811" y2="74.9233" gradientTransform="matrix(1 0 0 -1 0.1401 113.7217)">
	<stop  offset="0" style="stop-color:#EFC12C"/>
	<stop  offset="1" style="stop-color:#D7382D"/>
</linearGradient>
<path fill="url(#SVGID_3_)" d="M79.104,66.963c-0.9,0-1.802-0.335-2.503-1.007L27.902,19.265l-48.706,46.691
	c-1.443,1.38-3.731,1.333-5.115-0.107c-1.383-1.442-1.335-3.733,0.108-5.117L25.4,11.641c1.401-1.343,3.609-1.343,5.008,0
	l51.199,49.091c1.441,1.384,1.492,3.675,0.109,5.117C81.005,66.589,80.054,66.963,79.104,66.963z"/>
<linearGradient id="SVGID_4_" gradientUnits="userSpaceOnUse" x1="0.2881" y1="35.9355" x2="55.229" y2="35.9355" gradientTransform="matrix(1 0 0 -1 0.1401 113.7217)">
	<stop  offset="0" style="stop-color:#EFC12C"/>
	<stop  offset="1" style="stop-color:#D7382D"/>
</linearGradient>
<path fill="url(#SVGID_4_)" d="M4.061,100.26c-1.997,0-3.616-1.618-3.618-3.615L0.428,62.914c0-4.192,3.41-7.604,7.6-7.604h39.741
	c4.191,0,7.601,3.412,7.601,7.6v33.733c0,1.998-1.618,3.617-3.618,3.617s-3.618-1.62-3.618-3.617V62.912
	c0-0.201-0.163-0.364-0.364-0.364H8.028c-0.2,0-0.364,0.164-0.364,0.364L7.68,96.641c0.001,2.001-1.618,3.621-3.617,3.621H4.061
	V100.26z"/>
<linearGradient id="SVGID_5_" gradientUnits="userSpaceOnUse" x1="0.9058" y1="44.6895" x2="55.0796" y2="44.6895" gradientTransform="matrix(1 0 0 -1 0.1401 113.7217)">
	<stop  offset="0" style="stop-color:#EFC12C"/>
	<stop  offset="1" style="stop-color:#D7382D"/>
</linearGradient>
<path fill="url(#SVGID_5_)" d="M51.602,72.65H4.664c-1.999,0-3.618-1.621-3.618-3.618c0-1.995,1.62-3.617,3.618-3.617h46.938
	c1.997,0,3.618,1.622,3.618,3.617C55.22,71.029,53.599,72.65,51.602,72.65z"/>
<linearGradient id="SVGID_6_" gradientUnits="userSpaceOnUse" x1="0.9058" y1="34.6934" x2="55.0796" y2="34.6934" gradientTransform="matrix(1 0 0 -1 0.1401 113.7217)">
	<stop  offset="0" style="stop-color:#EFC12C"/>
	<stop  offset="1" style="stop-color:#D7382D"/>
</linearGradient>
<path fill="url(#SVGID_6_)" d="M51.602,82.646H4.664c-1.999,0-3.618-1.621-3.618-3.617c0-1.997,1.62-3.618,3.618-3.618h46.938
	c1.997,0,3.618,1.621,3.618,3.618C55.22,81.025,53.599,82.646,51.602,82.646z"/>
<linearGradient id="SVGID_7_" gradientUnits="userSpaceOnUse" x1="0.9058" y1="24.6973" x2="55.0796" y2="24.6973" gradientTransform="matrix(1 0 0 -1 0.1401 113.7217)">
	<stop  offset="0" style="stop-color:#EFC12C"/>
	<stop  offset="1" style="stop-color:#D7382D"/>
</linearGradient>
<path fill="url(#SVGID_7_)" d="M51.602,92.642H4.664c-1.999,0-3.618-1.622-3.618-3.618s1.62-3.617,3.618-3.617h46.938
	c1.997,0,3.618,1.621,3.618,3.617S53.599,92.642,51.602,92.642z"/>
<linearGradient id="SVGID_8_" gradientUnits="userSpaceOnUse" x1="1.0151" y1="14.7012" x2="55.188" y2="14.7012" gradientTransform="matrix(1 0 0 -1 0.1401 113.7217)">
	<stop  offset="0" style="stop-color:#EFC12C"/>
	<stop  offset="1" style="stop-color:#D7382D"/>
</linearGradient>
<path fill="url(#SVGID_8_)" d="M51.71,102.638H4.772c-1.999,0-3.617-1.622-3.617-3.618s1.619-3.617,3.617-3.617H51.71
	c2,0,3.618,1.621,3.618,3.617S53.71,102.638,51.71,102.638z"/>
</svg>
