<?xml version="1.0" encoding="utf-8"?>
<!-- Generator: Adobe Illustrator 16.0.0, SVG Export Plug-In . SVG Version: 6.00 Build 0)  -->
<!DOCTYPE svg PUBLIC "-//W3C//DTD SVG 1.1//EN" "http://www.w3.org/Graphics/SVG/1.1/DTD/svg11.dtd">
<svg version="1.1" id="图层_1" xmlns="http://www.w3.org/2000/svg" xmlns:xlink="http://www.w3.org/1999/xlink" x="0px" y="0px"
	 width="110px" height="114.667px" viewBox="0 0 110 114.667" enable-background="new 0 0 110 114.667" xml:space="preserve">
<g>
	<g>
		<circle fill="#F7F7F7" stroke="#C7C8C8" stroke-miterlimit="10" cx="11.939" cy="54.875" r="88.8"/>
	</g>
</g>
<linearGradient id="SVGID_1_" gradientUnits="userSpaceOnUse" x1="-22.1973" y1="99.229" x2="66.1631" y2="99.229">
	<stop  offset="0" style="stop-color:#EFC12C"/>
	<stop  offset="1" style="stop-color:#D7382D"/>
</linearGradient>
<path fill="url(#SVGID_1_)" d="M62.503,102.889h-81.04c-2.022,0-3.66-1.638-3.66-3.66c0-2.023,1.638-3.66,3.66-3.66h81.04
	c2.021,0,3.66,1.637,3.66,3.66C66.163,101.251,64.523,102.889,62.503,102.889z"/>
<linearGradient id="SVGID_2_" gradientUnits="userSpaceOnUse" x1="-22.1973" y1="15.2876" x2="66.1631" y2="15.2876">
	<stop  offset="0" style="stop-color:#EFC12C"/>
	<stop  offset="1" style="stop-color:#D7382D"/>
</linearGradient>
<path fill="url(#SVGID_2_)" d="M62.503,18.947h-81.04c-2.022,0-3.66-1.638-3.66-3.66c0-2.021,1.638-3.66,3.66-3.66h81.04
	c2.021,0,3.66,1.638,3.66,3.66C66.163,17.309,64.523,18.947,62.503,18.947z"/>
<linearGradient id="SVGID_3_" gradientUnits="userSpaceOnUse" x1="-15.1421" y1="57.4731" x2="59.1055" y2="57.4731">
	<stop  offset="0" style="stop-color:#EFC12C"/>
	<stop  offset="1" style="stop-color:#D7382D"/>
</linearGradient>
<path fill="url(#SVGID_3_)" d="M55.445,102.886h-66.927c-2.022,0-3.66-1.637-3.66-3.66V15.72c0-2.022,1.638-3.66,3.66-3.66h66.927
	c2.021,0,3.66,1.638,3.66,3.66v83.506C59.105,101.25,57.466,102.886,55.445,102.886z M-7.822,95.567h59.607V19.38H-7.822V95.567z"/>
<linearGradient id="SVGID_4_" gradientUnits="userSpaceOnUse" x1="-13.7124" y1="72.6968" x2="58.5762" y2="72.6968">
	<stop  offset="0" style="stop-color:#EFC12C"/>
	<stop  offset="1" style="stop-color:#D7382D"/>
</linearGradient>
<path fill="url(#SVGID_4_)" d="M-10.052,76.447c-2.017,0-3.654-1.632-3.66-3.65c-0.006-2.021,1.629-3.664,3.649-3.669l64.97-0.182
	c0.002,0,0.007,0,0.009,0c2.017,0,3.655,1.635,3.66,3.65c0.005,2.021-1.627,3.665-3.65,3.67l-64.967,0.181
	C-10.045,76.447-10.049,76.447-10.052,76.447z"/>
</svg>
