<?xml version="1.0" encoding="utf-8"?>
<!-- Generator: Adobe Illustrator 16.0.0, SVG Export Plug-In . SVG Version: 6.00 Build 0)  -->
<!DOCTYPE svg PUBLIC "-//W3C//DTD SVG 1.1//EN" "http://www.w3.org/Graphics/SVG/1.1/DTD/svg11.dtd">
<svg version="1.1" id="图层_1" xmlns="http://www.w3.org/2000/svg" xmlns:xlink="http://www.w3.org/1999/xlink" x="0px" y="0px"
	 width="110px" height="114.667px" viewBox="0 0 110 114.667" enable-background="new 0 0 110 114.667" xml:space="preserve">
<g>
	<g>
		<circle fill="#F7F7F7" stroke="#C7C8C8" stroke-miterlimit="10" cx="11.939" cy="54.875" r="88.8"/>
	</g>
</g>
<linearGradient id="SVGID_1_" gradientUnits="userSpaceOnUse" x1="-28.3179" y1="94.5366" x2="72.6484" y2="94.5366" gradientTransform="matrix(1 0 0 -1 0.1401 113.7217)">
	<stop  offset="0" style="stop-color:#EFC12C"/>
	<stop  offset="1" style="stop-color:#D7382D"/>
</linearGradient>
<path fill="url(#SVGID_1_)" d="M69.141,22.833h-93.67c-2.015,0-3.648-1.634-3.648-3.648s1.633-3.648,3.648-3.648h93.67
	c2.018,0,3.648,1.634,3.648,3.648S71.157,22.833,69.141,22.833z"/>
<linearGradient id="SVGID_2_" gradientUnits="userSpaceOnUse" x1="-26.231" y1="79.3218" x2="70.5645" y2="79.3218" gradientTransform="matrix(1 0 0 -1 0.1401 113.7217)">
	<stop  offset="0" style="stop-color:#EFC12C"/>
	<stop  offset="1" style="stop-color:#D7382D"/>
</linearGradient>
<path fill="url(#SVGID_2_)" d="M67.055,38.049h-89.498c-2.016,0-3.648-1.634-3.648-3.649c0-2.014,1.633-3.648,3.648-3.648h89.498
	c2.016,0,3.649,1.634,3.649,3.648C70.704,36.415,69.068,38.049,67.055,38.049z"/>
<linearGradient id="SVGID_3_" gradientUnits="userSpaceOnUse" x1="-26.231" y1="64.105" x2="70.5645" y2="64.105" gradientTransform="matrix(1 0 0 -1 0.1401 113.7217)">
	<stop  offset="0" style="stop-color:#EFC12C"/>
	<stop  offset="1" style="stop-color:#D7382D"/>
</linearGradient>
<path fill="url(#SVGID_3_)" d="M67.055,53.265h-89.498c-2.016,0-3.648-1.634-3.648-3.648c0-2.014,1.633-3.648,3.648-3.648h89.498
	c2.016,0,3.649,1.634,3.649,3.648C70.704,51.631,69.068,53.265,67.055,53.265z"/>
<linearGradient id="SVGID_4_" gradientUnits="userSpaceOnUse" x1="-14.5972" y1="82.2417" x2="-7.3013" y2="82.2417" gradientTransform="matrix(1 0 0 -1 0.1401 113.7217)">
	<stop  offset="0" style="stop-color:#EFC12C"/>
	<stop  offset="1" style="stop-color:#D7382D"/>
</linearGradient>
<path fill="url(#SVGID_4_)" d="M-10.809,38.049c-2.016,0-3.648-1.634-3.648-3.649v-5.84c0-2.014,1.633-3.648,3.648-3.648
	c2.015,0,3.648,1.634,3.648,3.648v5.84C-7.161,36.415-8.794,38.049-10.809,38.049z"/>
<linearGradient id="SVGID_5_" gradientUnits="userSpaceOnUse" x1="-14.5972" y1="67.0239" x2="-7.3013" y2="67.0239" gradientTransform="matrix(1 0 0 -1 0.1401 113.7217)">
	<stop  offset="0" style="stop-color:#EFC12C"/>
	<stop  offset="1" style="stop-color:#D7382D"/>
</linearGradient>
<path fill="url(#SVGID_5_)" d="M-10.809,53.265c-2.016,0-3.648-1.634-3.648-3.648v-5.839c0-2.014,1.633-3.648,3.648-3.648
	c2.015,0,3.648,1.634,3.648,3.648v5.839C-7.161,51.631-8.794,53.265-10.809,53.265z"/>
<linearGradient id="SVGID_6_" gradientUnits="userSpaceOnUse" x1="51.6333" y1="82.2417" x2="58.9277" y2="82.2417" gradientTransform="matrix(1 0 0 -1 0.1401 113.7217)">
	<stop  offset="0" style="stop-color:#EFC12C"/>
	<stop  offset="1" style="stop-color:#D7382D"/>
</linearGradient>
<path fill="url(#SVGID_6_)" d="M55.421,38.049c-2.015,0-3.647-1.634-3.647-3.649v-5.84c0-2.014,1.634-3.648,3.647-3.648
	c2.015,0,3.647,1.634,3.647,3.648v5.84C59.068,36.415,57.436,38.049,55.421,38.049z"/>
<linearGradient id="SVGID_7_" gradientUnits="userSpaceOnUse" x1="51.6333" y1="67.0239" x2="58.9277" y2="67.0239" gradientTransform="matrix(1 0 0 -1 0.1401 113.7217)">
	<stop  offset="0" style="stop-color:#EFC12C"/>
	<stop  offset="1" style="stop-color:#D7382D"/>
</linearGradient>
<path fill="url(#SVGID_7_)" d="M55.421,53.265c-2.015,0-3.647-1.634-3.647-3.648v-5.839c0-2.014,1.634-3.648,3.647-3.648
	c2.015,0,3.647,1.634,3.647,3.648v5.839C59.068,51.631,57.436,53.265,55.421,53.265z"/>
<linearGradient id="SVGID_8_" gradientUnits="userSpaceOnUse" x1="-14.5962" y1="35.0537" x2="58.9277" y2="35.0537" gradientTransform="matrix(1 0 0 -1 0.1401 113.7217)">
	<stop  offset="0" style="stop-color:#EFC12C"/>
	<stop  offset="1" style="stop-color:#D7382D"/>
</linearGradient>
<path fill="url(#SVGID_8_)" d="M55.421,102.186h-66.229c-2.015,0-3.648-1.636-3.648-3.647v-39.74c0-2.014,1.633-3.648,3.648-3.648
	c2.016,0,3.648,1.634,3.648,3.648v36.09h58.932v-36.09c0-2.014,1.635-3.648,3.648-3.648s3.648,1.634,3.648,3.648v39.738
	C59.068,100.55,57.436,102.186,55.421,102.186z"/>
</svg>
