<?xml version="1.0" encoding="utf-8"?>
<!-- Generator: Adobe Illustrator 16.0.0, SVG Export Plug-In . SVG Version: 6.00 Build 0)  -->
<!DOCTYPE svg PUBLIC "-//W3C//DTD SVG 1.1//EN" "http://www.w3.org/Graphics/SVG/1.1/DTD/svg11.dtd">
<svg version="1.1" id="图层_1" xmlns="http://www.w3.org/2000/svg" xmlns:xlink="http://www.w3.org/1999/xlink" x="0px" y="0px"
	 width="110px" height="114.667px" viewBox="0 0 110 114.667" enable-background="new 0 0 110 114.667" xml:space="preserve">
<g>
	<g>
		<circle fill="#F7F7F7" stroke="#EEEEEF" stroke-miterlimit="10" cx="11.939" cy="54.875" r="88.8"/>
	</g>
</g>
<path fill="none" stroke="#B5B4B5" stroke-width="2" stroke-linecap="round" stroke-linejoin="round" stroke-miterlimit="10" d="
	M28.999,102.281L28.999,102.281z"/>
<path fill="#B2B2B3" d="M66.246,101.937h-81.27c-2.027,0-3.67-1.645-3.67-3.671c0-2.025,1.643-3.669,3.67-3.669h81.27
	c2.029,0,3.67,1.644,3.67,3.669C69.916,100.292,68.275,101.937,66.246,101.937z"/>
<path fill="#B2B2B3" d="M59.169,101.937H-7.947c-2.027,0-3.67-1.645-3.67-3.671V14.524c0-2.026,1.643-3.67,3.67-3.67H59.17
	c2.029,0,3.669,1.644,3.669,3.67v83.744C62.839,100.292,61.199,101.937,59.169,101.937z M-4.276,94.597h59.775V18.195H-4.276V94.597
	z"/>
<path fill="#B2B2B3" d="M-6.513,60.067c-2.022,0-3.664-1.637-3.67-3.66c-0.005-2.026,1.634-3.675,3.66-3.68l65.149-0.181
	c0.005,0,0.008,0,0.011,0c2.024,0,3.664,1.637,3.67,3.66c0.008,2.025-1.631,3.675-3.659,3.68l-65.149,0.181
	C-6.505,60.067-6.509,60.067-6.513,60.067z"/>
<path fill="#B2B2B3" d="M26.063,101.937c-2.026,0-3.671-1.645-3.671-3.671V56.397c0-2.027,1.644-3.67,3.671-3.67
	c2.026,0,3.67,1.644,3.67,3.67v41.869C29.733,100.292,28.089,101.937,26.063,101.937z"/>
</svg>
