<?xml version="1.0" encoding="utf-8"?>
<!-- Generator: Adobe Illustrator 16.0.0, SVG Export Plug-In . SVG Version: 6.00 Build 0)  -->
<!DOCTYPE svg PUBLIC "-//W3C//DTD SVG 1.1//EN" "http://www.w3.org/Graphics/SVG/1.1/DTD/svg11.dtd">
<svg version="1.1" id="图层_1" xmlns="http://www.w3.org/2000/svg" xmlns:xlink="http://www.w3.org/1999/xlink" x="0px" y="0px"
	 width="110px" height="114.667px" viewBox="0 0 110 114.667" enable-background="new 0 0 110 114.667" xml:space="preserve">
<g>
	<g>
		<circle fill="#F7F7F7" stroke="#EEEEEF" stroke-miterlimit="10" cx="11.939" cy="54.875" r="88.8"/>
	</g>
</g>
<path fill="#B2B2B3" d="M69.141,22.833h-93.67c-2.015,0-3.648-1.634-3.648-3.648s1.633-3.648,3.648-3.648h93.67
	c2.018,0,3.648,1.634,3.648,3.648S71.157,22.833,69.141,22.833z"/>
<path fill="#B2B2B3" d="M67.055,38.049h-89.498c-2.016,0-3.648-1.634-3.648-3.649c0-2.014,1.633-3.648,3.648-3.648h89.498
	c2.016,0,3.649,1.634,3.649,3.648C70.704,36.415,69.068,38.049,67.055,38.049z"/>
<path fill="#B2B2B3" d="M67.055,53.265h-89.498c-2.016,0-3.648-1.634-3.648-3.648c0-2.014,1.633-3.648,3.648-3.648h89.498
	c2.016,0,3.649,1.634,3.649,3.648C70.704,51.631,69.068,53.265,67.055,53.265z"/>
<path fill="#B2B2B3" d="M-10.809,38.049c-2.016,0-3.648-1.634-3.648-3.649v-5.84c0-2.014,1.633-3.648,3.648-3.648
	c2.015,0,3.648,1.634,3.648,3.648v5.84C-7.161,36.415-8.794,38.049-10.809,38.049z"/>
<path fill="#B2B2B3" d="M-10.809,53.265c-2.016,0-3.648-1.634-3.648-3.648v-5.839c0-2.014,1.633-3.648,3.648-3.648
	c2.015,0,3.648,1.634,3.648,3.648v5.839C-7.161,51.631-8.794,53.265-10.809,53.265z"/>
<path fill="#B2B2B3" d="M55.421,38.049c-2.015,0-3.647-1.634-3.647-3.649v-5.84c0-2.014,1.634-3.648,3.647-3.648
	c2.015,0,3.647,1.634,3.647,3.648v5.84C59.068,36.415,57.436,38.049,55.421,38.049z"/>
<path fill="#B2B2B3" d="M55.421,53.265c-2.015,0-3.647-1.634-3.647-3.648v-5.839c0-2.014,1.634-3.648,3.647-3.648
	c2.015,0,3.647,1.634,3.647,3.648v5.839C59.068,51.631,57.436,53.265,55.421,53.265z"/>
<path fill="#B2B2B3" d="M55.421,102.186h-66.229c-2.015,0-3.648-1.636-3.648-3.647v-39.74c0-2.014,1.633-3.648,3.648-3.648
	c2.016,0,3.648,1.634,3.648,3.648v36.09h58.932v-36.09c0-2.014,1.635-3.648,3.648-3.648s3.648,1.634,3.648,3.648v39.738
	C59.068,100.55,57.436,102.186,55.421,102.186z"/>
</svg>
