<?xml version="1.0" encoding="utf-8"?>
<!-- Generator: Adobe Illustrator 16.0.0, SVG Export Plug-In . SVG Version: 6.00 Build 0)  -->
<!DOCTYPE svg PUBLIC "-//W3C//DTD SVG 1.1//EN" "http://www.w3.org/Graphics/SVG/1.1/DTD/svg11.dtd">
<svg version="1.1" id="图层_1" xmlns="http://www.w3.org/2000/svg" xmlns:xlink="http://www.w3.org/1999/xlink" x="0px" y="0px"
	 width="110px" height="114.667px" viewBox="0 0 110 114.667" enable-background="new 0 0 110 114.667" xml:space="preserve">
<g>
	<g>
		<circle fill="#F7F7F7" stroke="#EEEEEF" stroke-miterlimit="10" cx="11.94" cy="54.876" r="88.8"/>
	</g>
</g>
<path fill="#B4B4B4" d="M72.846,42.395H57.933c-0.008,0-0.016-0.002-0.023-0.002c-0.02,0-0.042,0-0.064,0l-0.261,0.002
	c-13.156,0-24.223-10.305-25.531-23.342h6.677c1.603,0,2.901-1.103,2.901-2.462c0-1.361-1.299-2.463-2.901-2.463H19.125
	c-1.603,0-2.901,1.102-2.901,2.463c0,1.359,1.299,2.462,2.901,2.462h6.773C24.589,32.09,13.525,42.395,0.367,42.395l-0.26-0.001
	c-0.009,0-0.018,0.002-0.025,0.001h-14.976c-1.603,0-2.902,1.104-2.902,2.462v46.18c0,1.36,1.299,2.461,2.902,2.461h87.74
	c1.602,0,2.901-1.101,2.901-2.461v-46.18C75.747,43.499,74.447,42.395,72.846,42.395z M31.924,34.436
	c2.289,3.156,5.17,5.857,8.489,7.959h-8.489V34.436z M26.121,34.309v8.085h-8.584C20.902,40.263,23.817,37.519,26.121,34.309z
	 M69.944,88.576h-81.937V47.319h81.937V88.576z"/>
</svg>
