<?xml version="1.0" encoding="utf-8"?>
<!-- Generator: Adobe Illustrator 16.0.0, SVG Export Plug-In . SVG Version: 6.00 Build 0)  -->
<!DOCTYPE svg PUBLIC "-//W3C//DTD SVG 1.1//EN" "http://www.w3.org/Graphics/SVG/1.1/DTD/svg11.dtd">
<svg version="1.1" id="图层_1" xmlns="http://www.w3.org/2000/svg" xmlns:xlink="http://www.w3.org/1999/xlink" x="0px" y="0px"
	 width="110px" height="114.667px" viewBox="0 0 110 114.667" enable-background="new 0 0 110 114.667" xml:space="preserve">
<g>
	<g>
		<circle fill="#F7F7F7" stroke="#C7C8C8" stroke-miterlimit="10" cx="11.939" cy="54.875" r="88.8"/>
	</g>
</g>
<linearGradient id="SVGID_1_" gradientUnits="userSpaceOnUse" x1="-17.1484" y1="57.0283" x2="79.2305" y2="57.0283" gradientTransform="matrix(1 0 0 -1 0.1401 113.7217)">
	<stop  offset="0" style="stop-color:#EEC02A"/>
	<stop  offset="1" style="stop-color:#D6372C"/>
</linearGradient>
<path fill="url(#SVGID_1_)" d="M79.025,35.287c0.046-0.083,0.092-0.162,0.129-0.249c0.037-0.087,0.061-0.177,0.088-0.266
	c0.025-0.084,0.057-0.167,0.072-0.253c0.021-0.104,0.025-0.211,0.035-0.318c0.004-0.066,0.021-0.129,0.021-0.196v-9.166
	c0-0.036-0.01-0.068-0.011-0.103c-0.006-0.137-0.018-0.271-0.044-0.402c-0.013-0.063-0.031-0.125-0.048-0.185
	c-0.029-0.105-0.062-0.208-0.104-0.309c-0.025-0.063-0.054-0.125-0.084-0.186c-0.047-0.096-0.103-0.186-0.159-0.275
	c-0.035-0.056-0.068-0.109-0.109-0.161c-0.071-0.096-0.152-0.185-0.237-0.272c-0.036-0.036-0.065-0.075-0.104-0.109
	c-0.127-0.117-0.265-0.225-0.413-0.32c-0.019-0.012-0.039-0.02-0.057-0.03c-0.132-0.079-0.271-0.15-0.414-0.211
	c-0.061-0.025-0.125-0.042-0.188-0.063c-0.079-0.027-0.155-0.06-0.239-0.081L34.95,11.437c-0.452-0.115-0.927-0.129-1.385-0.039
	l-48.177,9.354c-0.017,0.003-0.032,0.01-0.048,0.013c-0.167,0.035-0.326,0.082-0.481,0.139c-0.06,0.022-0.114,0.054-0.172,0.079
	c-0.105,0.049-0.209,0.098-0.308,0.157c-0.058,0.035-0.111,0.073-0.167,0.111c-0.09,0.062-0.177,0.129-0.259,0.201
	c-0.049,0.044-0.098,0.088-0.144,0.135c-0.08,0.079-0.151,0.163-0.219,0.25c-0.039,0.048-0.079,0.094-0.114,0.145
	c-0.074,0.108-0.137,0.221-0.195,0.337c-0.018,0.036-0.042,0.07-0.058,0.107c-0.068,0.154-0.122,0.315-0.159,0.482
	c-0.011,0.048-0.014,0.098-0.021,0.147c-0.017,0.095-0.038,0.189-0.043,0.287c-0.002,0.031,0.003,0.06,0.002,0.091
	c0,0.023-0.007,0.045-0.007,0.069v9.168c0,0.037,0.01,0.07,0.012,0.106c0.004,0.103,0.017,0.203,0.032,0.302
	c0.014,0.086,0.028,0.171,0.049,0.253c0.023,0.09,0.054,0.176,0.087,0.262c0.032,0.086,0.064,0.172,0.105,0.255
	c0.04,0.08,0.085,0.155,0.133,0.23c0.049,0.079,0.098,0.156,0.155,0.23c0.057,0.073,0.12,0.14,0.184,0.209
	c0.062,0.066,0.125,0.133,0.193,0.192c0.07,0.062,0.146,0.118,0.224,0.173c0.079,0.057,0.156,0.111,0.24,0.161
	c0.077,0.044,0.158,0.083,0.24,0.122c0.098,0.046,0.195,0.088,0.298,0.125c0.036,0.013,0.067,0.031,0.104,0.043l1.611,0.497v46.549
	l40.076,19.666l48.971-18.229V37.043l1.375-0.31c0.073-0.017,0.138-0.048,0.208-0.068c0.104-0.031,0.21-0.06,0.31-0.101
	c0.087-0.038,0.167-0.084,0.251-0.128c0.086-0.045,0.171-0.087,0.251-0.14c0.082-0.054,0.153-0.117,0.229-0.177
	c0.071-0.058,0.144-0.112,0.206-0.176c0.067-0.065,0.125-0.137,0.185-0.209c0.062-0.07,0.12-0.139,0.173-0.215
	C78.942,35.443,78.982,35.365,79.025,35.287z M26.821,42.322l-37.85-11.681v-3.262l36.79,11.356
	c0.303,0.095,0.619,0.141,0.935,0.141c0.234,0,0.47-0.025,0.701-0.078l45.995-10.397v3.395L26.821,42.322z M34.08,17.027
	l30.222,7.657l-37.479,8.473L-2.45,24.121L34.08,17.027z M-7.362,37.678l31.125,9.606v46.973L-7.362,78.984V37.678z M69.726,80.008
	L29.742,94.891V47.433l39.983-9.038V80.008z"/>
</svg>
