<?xml version="1.0" encoding="utf-8"?>
<!-- Generator: Adobe Illustrator 16.0.0, SVG Export Plug-In . SVG Version: 6.00 Build 0)  -->
<!DOCTYPE svg PUBLIC "-//W3C//DTD SVG 1.1//EN" "http://www.w3.org/Graphics/SVG/1.1/DTD/svg11.dtd">
<svg version="1.1" id="图层_1" xmlns="http://www.w3.org/2000/svg" xmlns:xlink="http://www.w3.org/1999/xlink" x="0px" y="0px"
	 width="110px" height="114.667px" viewBox="0 0 110 114.667" enable-background="new 0 0 110 114.667" xml:space="preserve">
<g>
	<g>
		<circle fill="#F7F7F7" stroke="#C7C8C8" stroke-miterlimit="10" cx="11.939" cy="54.875" r="88.8"/>
	</g>
</g>
<linearGradient id="SVGID_1_" gradientUnits="userSpaceOnUse" x1="3.71" y1="58.8462" x2="63.2373" y2="58.8462" gradientTransform="matrix(1 0 0 -1 0.1401 113.7217)">
	<stop  offset="0" style="stop-color:#EEC02A"/>
	<stop  offset="1" style="stop-color:#D6372C"/>
</linearGradient>
<path fill="url(#SVGID_1_)" d="M62.448,40.458l-6.835-6.2c1.265-1.998,1.972-4.322,1.972-6.718c0-3.538-1.509-6.936-4.141-9.323
	c-2.446-2.219-5.662-3.441-9.053-3.441c-2.782,0-5.438,0.834-7.657,2.354l-7.805-7.081c-0.519-0.472-1.175-0.638-1.798-0.456
	c-0.624,0.182-1.155,0.694-1.459,1.405l-14.532,34.02l-4.775,4.334c-1.6,1.452-2.518,3.553-2.517,5.765
	c0,2.212,0.917,4.312,2.516,5.76l0.133,0.12v36.419c0,1.552,0.997,2.813,2.226,2.813c1.23,0,2.227-1.262,2.227-2.813V64.48
	c0.949,0.41,1.981,0.633,3.042,0.633c1.91,0,3.733-0.699,5.133-1.97l4.868-4.417l37.753-13.272c0.826-0.29,1.447-1.152,1.597-2.219
	C63.493,42.169,63.145,41.088,62.448,40.458z M44.392,20.402c2.432,0,4.785,0.87,6.456,2.386c1.473,1.337,2.286,3.024,2.286,4.751
	c0,1.201-0.393,2.384-1.13,3.442l-11.017-9.994C42.058,20.605,43.216,20.402,44.392,20.402z M13.994,59.485
	c-0.972,0-1.896-0.332-2.536-0.911l-2.495-2.268c-0.419-0.379-0.66-0.813-0.66-1.189c0-0.377,0.24-0.812,0.661-1.192l3.693-3.352
	L19,56.329l-2.471,2.244C15.89,59.152,14.965,59.485,13.994,59.485z M23.162,53.177l-7.527-6.829L28.39,16.486l6.943,6.298
	c0,0.001,0.001,0.003,0.003,0.004L50.847,36.86l0,0l5.23,4.745L23.162,53.177z"/>
</svg>
