<?xml version="1.0" encoding="utf-8"?>
<!-- Generator: Adobe Illustrator 16.0.0, SVG Export Plug-In . SVG Version: 6.00 Build 0)  -->
<!DOCTYPE svg PUBLIC "-//W3C//DTD SVG 1.1//EN" "http://www.w3.org/Graphics/SVG/1.1/DTD/svg11.dtd">
<svg version="1.1" id="图层_1" xmlns="http://www.w3.org/2000/svg" xmlns:xlink="http://www.w3.org/1999/xlink" x="0px" y="0px"
	 width="110px" height="114.667px" viewBox="0 0 110 114.667" enable-background="new 0 0 110 114.667" xml:space="preserve">
<g>
	<g>
		<circle fill="#F7F7F7" stroke="#C7C8C8" stroke-miterlimit="10" cx="11.939" cy="54.875" r="88.8"/>
	</g>
</g>
<linearGradient id="SVGID_1_" gradientUnits="userSpaceOnUse" x1="-10.8799" y1="58.8472" x2="74.1602" y2="58.8472" gradientTransform="matrix(1 0 0 -1 0.1401 113.7217)">
	<stop  offset="0" style="stop-color:#EEC02A"/>
	<stop  offset="1" style="stop-color:#D6372C"/>
</linearGradient>
<path fill="url(#SVGID_1_)" d="M74.118,72.428l-4.581-14.254c-0.306-0.952-1.354-1.617-2.55-1.617h-7.34
	c-1.195,0-2.243,0.665-2.548,1.617l-2.508,7.8c-0.012-0.246-0.066-0.489-0.173-0.707L49.84,51.013
	c-0.307-0.956-1.353-1.619-2.549-1.619H39.95c-1.195,0-2.243,0.664-2.549,1.62l-2.992,9.311V35.278c2-0.694,3.554-2.15,4.176-3.955
	c2.21-0.807,3.762-2.694,3.762-4.888v-5.576H21.195v5.576c0,2.193,1.553,4.082,3.761,4.888c0.622,1.805,2.176,3.262,4.177,3.955
	v25.046l-2.993-9.312c-0.307-0.957-1.354-1.619-2.549-1.619h-7.342c-1.195,0-2.243,0.664-2.549,1.62L9.045,65.504
	c-0.054,0.165-0.082,0.336-0.087,0.506l-2.515-7.836c-0.307-0.952-1.353-1.617-2.548-1.617h-7.343c-1.195,0-2.243,0.665-2.548,1.617
	l-4.655,14.496c-0.211,0.652-0.04,1.348,0.458,1.884c0.499,0.538,1.271,0.851,2.09,0.851h1.608v1.487c0,1.2,1.181,2.178,2.638,2.178
	h1.433c0.194,3.655,3.672,6.578,7.931,6.578h5.371c4.383,0,7.949-3.098,7.949-6.901v-1.178c0-1.402,1.2-2.546,2.677-2.546h5.371
	c0.014,0,0.025,0,0.039,0.002c-1.809,1.246-2.976,3.165-2.976,5.319c0,2.946,2.172,5.452,5.194,6.393v2.154h5.275v-2.154
	c3.021-0.94,5.191-3.446,5.191-6.393c0-2.154-1.165-4.073-2.974-5.319c0.013-0.002,0.025-0.002,0.04-0.002h5.371
	c1.475,0,2.674,1.144,2.674,2.546v1.178c0,3.804,3.568,6.901,7.952,6.901h5.37c4.259,0,7.736-2.923,7.93-6.578h1.436
	c1.455,0,2.638-0.978,2.638-2.178v-1.487h1.609c0.007,0.002,0.014,0.002,0.02,0c1.455,0,2.637-0.973,2.637-2.178
	C74.301,72.946,74.236,72.676,74.118,72.428z M-3.857,71.05h-0.817l3.256-10.14h3.283L5.12,71.05H4.247H-3.857z M13.552,77.569
	v1.178c0,1.404-1.199,2.547-2.674,2.547H5.507c-1.359,0-2.473-0.975-2.642-2.224h1.381c1.457,0,2.638-0.978,2.638-2.178v-1.487
	h1.665c0.819,0,1.59-0.312,2.09-0.851c0.499-0.536,0.67-1.229,0.458-1.884l-1.776-5.526c0.058,0.082,0.109,0.166,0.182,0.247
	c0.5,0.534,1.271,0.854,2.09,0.854h1.608v1.48c0,1.203,1.182,2.18,2.638,2.18h1.136C14.909,73.15,13.552,75.225,13.552,77.569z
	 M15.023,63.886l3.255-10.137h3.285l3.256,10.137H15.023z M29.134,70.954c-0.721-0.183-1.479-0.287-2.258-0.287h-0.562
	c0.167-0.286,0.27-0.601,0.27-0.941v-1.48h1.665c0.307,0,0.604-0.062,0.886-0.143L29.134,70.954L29.134,70.954z M31.772,82.786
	c-1.411,0-2.557-1.092-2.557-2.441c0-1.342,1.147-2.438,2.557-2.438c1.408,0,2.554,1.096,2.554,2.438
	C34.326,81.694,33.179,82.786,31.772,82.786z M27.438,27.387l-0.121-0.008c-0.462-0.023-0.848-0.442-0.848-0.944v-1.219h10.602
	v1.219c0,0.516-0.406,0.952-0.884,0.952H27.438z M36.665,70.667c-0.778,0-1.536,0.104-2.256,0.287v-2.852
	c0.282,0.08,0.578,0.143,0.886,0.143h1.665v1.48c0,0.341,0.102,0.655,0.27,0.941H36.665z M38.723,63.886l3.256-10.137h3.283
	l3.257,10.137H38.723z M58.033,81.293h-5.369c-1.477,0-2.676-1.143-2.676-2.547v-1.178c0-2.344-1.357-4.419-3.422-5.664h1.135
	c1.457,0,2.637-0.978,2.637-2.18v-1.48h1.609c0.007,0,0.013,0,0.018,0c0.942,0,1.764-0.416,2.23-1.028l-1.752,5.454
	c-0.21,0.652-0.041,1.348,0.458,1.884c0.499,0.538,1.271,0.851,2.091,0.851h1.666v1.487c0,1.2,1.179,2.178,2.638,2.178h1.379
	C60.505,80.319,59.392,81.293,58.033,81.293z M67.397,71.05h-8.103h-0.874l3.254-10.14h3.282l3.258,10.14H67.397z"/>
</svg>
