<?xml version="1.0" encoding="utf-8"?>
<!-- Generator: Adobe Illustrator 16.0.0, SVG Export Plug-In . SVG Version: 6.00 Build 0)  -->
<!DOCTYPE svg PUBLIC "-//W3C//DTD SVG 1.1//EN" "http://www.w3.org/Graphics/SVG/1.1/DTD/svg11.dtd">
<svg version="1.1" id="图层_1" xmlns="http://www.w3.org/2000/svg" xmlns:xlink="http://www.w3.org/1999/xlink" x="0px" y="0px"
	 width="110px" height="114.667px" viewBox="0 0 110 114.667" enable-background="new 0 0 110 114.667" xml:space="preserve">
<g>
	<g>
		<circle fill="#F7F7F7" stroke="#C7C8C8" stroke-miterlimit="10" cx="11.939" cy="54.875" r="88.8"/>
	</g>
</g>
<linearGradient id="SVGID_1_" gradientUnits="userSpaceOnUse" x1="-9.0547" y1="61.6812" x2="67.4805" y2="61.6812" gradientTransform="matrix(1 0 0 -1 0.1401 113.7217)">
	<stop  offset="0" style="stop-color:#EEC02A"/>
	<stop  offset="1" style="stop-color:#D6372C"/>
</linearGradient>
<path fill="url(#SVGID_1_)" d="M56.389,46.042v-1.411c0-4.033-2.64-7.493-6.379-8.94c-1.832-3.452-6.9-10.58-17.595-10.58
	c-8.827,0-19.583,8.364-26.924,16.922c-0.177-3.31-3.07-5.958-6.629-5.958h-1.114c-3.673,0-6.661,2.813-6.661,6.271v26.693
	c0,3.457,2.988,6.271,6.662,6.271h1.114c3.673,0,6.663-2.812,6.663-6.271V56.373c1.579-3.9,6.129-9.809,11.314-14.637
	c5.9-5.493,11.868-8.906,15.576-8.906c3.998,0,6.66,1.785,8.331,3.581c-2.933,1.704-4.896,4.747-4.896,8.22v1.412
	c-6.686,3.436-11.231,10.115-11.231,17.774v2.937c0,2.131,1.836,3.859,4.1,3.859H32.3c2.449,4.982,7.811,8.357,13.818,8.357
	c6.011,0,11.372-3.376,13.819-8.357h3.584c2.265,0,4.1-1.729,4.1-3.859v-2.937C67.621,56.157,63.075,49.479,56.389,46.042z
	 M44.324,43.663c0.357-0.583,1.028-0.978,1.794-0.978c0.756,0,1.42,0.383,1.781,0.955c-0.58-0.043-1.16-0.061-1.74-0.058
	c-0.014,0-0.025-0.002-0.04-0.002c-0.003,0-0.005,0-0.007,0C45.516,43.584,44.917,43.611,44.324,43.663z M40.942,52.294
	c0.167-0.04,0.335-0.074,0.498-0.134c1.64-0.602,3.357-0.878,5.078-0.844c6.823,0.191,12.373,5.229,12.867,11.578h-2.369H35.223
	h-2.369C33.225,58.118,36.46,54.084,40.942,52.294z M43.123,70.614h5.994C47.284,71.435,44.955,71.436,43.123,70.614z"/>
</svg>
