<?xml version="1.0" encoding="utf-8"?>
<!-- Generator: Adobe Illustrator 16.0.0, SVG Export Plug-In . SVG Version: 6.00 Build 0)  -->
<!DOCTYPE svg PUBLIC "-//W3C//DTD SVG 1.1//EN" "http://www.w3.org/Graphics/SVG/1.1/DTD/svg11.dtd">
<svg version="1.1" id="图层_1" xmlns="http://www.w3.org/2000/svg" xmlns:xlink="http://www.w3.org/1999/xlink" x="0px" y="0px"
	 width="110px" height="114.667px" viewBox="0 0 110 114.667" enable-background="new 0 0 110 114.667" xml:space="preserve">
<g>
	<g>
		<circle fill="#F7F7F7" stroke="#EEEEEF" stroke-miterlimit="10" cx="11.94" cy="54.876" r="88.8"/>
	</g>
</g>
<path fill="#B4B4B4" d="M72.786,41.934L55.915,28.309c-0.438-0.354-0.982-0.547-1.547-0.547h-5.745
	c-0.614-7.674-9.291-13.565-20.262-13.565c-11.381,0-20.297,6.341-20.297,14.436v23.835h-0.59V16.635
	c0-1.36-1.102-2.462-2.462-2.462h-8.219c-1.36,0-2.462,1.102-2.462,2.462v74.446c0,1.359,1.102,2.462,2.462,2.462h8.219
	c1.36,0,2.462-1.103,2.462-2.462V63.984h0.59v7.873c0,1.36,1.103,2.462,2.462,2.462s2.462-1.102,2.462-2.462V28.633
	c0-5.156,7.04-9.512,15.373-9.512c7.86,0,14.564,3.875,15.303,8.641h-5.637c-0.563,0-1.109,0.193-1.547,0.547L19.61,41.934
	c-0.812,0.655-1.122,1.752-0.774,2.735c0.348,0.983,1.278,1.642,2.322,1.642h17.396v0.959c0,3.333,3.358,5.941,7.646,5.941
	c4.287,0,7.644-2.609,7.644-5.941v-0.959h17.394c1.043,0,1.974-0.659,2.322-1.642C73.908,43.686,73.597,42.589,72.786,41.934z
	 M2.55,88.619h-3.294V19.097H2.55V88.619z M7.474,59.059v-1.667h0.59v1.667H7.474z M48.921,47.253
	c-0.067,0.25-1.015,1.035-2.722,1.035c-1.709,0-2.657-0.785-2.722-1.017v-0.959h5.442L48.921,47.253z M51.382,41.387H41.015H28.125
	l10.772-8.701H53.5l10.772,8.701H51.382z"/>
</svg>
