<?xml version="1.0" encoding="utf-8"?>
<!-- Generator: Adobe Illustrator 16.0.0, SVG Export Plug-In . SVG Version: 6.00 Build 0)  -->
<!DOCTYPE svg PUBLIC "-//W3C//DTD SVG 1.1//EN" "http://www.w3.org/Graphics/SVG/1.1/DTD/svg11.dtd">
<svg version="1.1" id="图层_1" xmlns="http://www.w3.org/2000/svg" xmlns:xlink="http://www.w3.org/1999/xlink" x="0px" y="0px"
	 width="110px" height="114.667px" viewBox="0 0 110 114.667" enable-background="new 0 0 110 114.667" xml:space="preserve">
<g>
	<g>
		<circle fill="#F7F7F7" stroke="#EEEEEF" stroke-miterlimit="10" cx="11.94" cy="54.876" r="88.8"/>
	</g>
</g>
<path fill="#B4B4B4" d="M58.824,48.009L45.162,36.692c-0.171-0.142-0.354-0.215-0.538-0.215h-1.262v-2.716
	c0-0.036-0.006-0.069-0.006-0.105c-0.003-0.173-0.011-0.34-0.029-0.504c-0.008-0.071-0.021-0.138-0.032-0.208
	c-0.02-0.127-0.04-0.25-0.067-0.369c-0.017-0.072-0.037-0.139-0.057-0.209c-0.031-0.107-0.064-0.21-0.102-0.309
	c-0.024-0.063-0.049-0.125-0.077-0.185c-0.045-0.098-0.094-0.187-0.145-0.272c-0.02-0.033-0.035-0.074-0.057-0.105l-3.751-5.53
	c-0.185-0.272-0.4-0.448-0.626-0.516V12.336c0-1.554-0.629-2.814-1.407-2.814c-0.777,0-1.406,1.26-1.406,2.814v13.212
	c-0.149,0.093-0.291,0.23-0.418,0.418l-3.75,5.53c-0.02,0.028-0.033,0.066-0.051,0.096c-0.054,0.089-0.106,0.183-0.153,0.287
	c-0.025,0.056-0.048,0.112-0.07,0.171c-0.041,0.105-0.076,0.215-0.109,0.332c-0.018,0.061-0.036,0.122-0.051,0.186
	c-0.03,0.131-0.054,0.268-0.074,0.408c-0.008,0.057-0.02,0.111-0.026,0.169c-0.022,0.2-0.037,0.405-0.037,0.618v2.716h-1.263
	c-0.185,0-0.368,0.072-0.538,0.215l-13.752,11.39c-0.621,0.514-0.973,1.832-0.842,3.148s0.708,2.265,1.379,2.265h5.208l5.71,26.575
	c-0.006,0.106-0.016,0.212-0.016,0.322v3.321c0,1.554,0.629,2.813,1.406,2.813h0c3.467,0,6.171,2.529,6.847,5.174
	c-0.695,0.87-1.124,2.184-1.124,3.707c0,2.748,1.391,4.82,3.235,4.82c1.844,0,3.233-2.072,3.233-4.82
	c0-1.636-0.495-3.026-1.282-3.889c0.751-2.576,3.407-4.992,6.793-4.992c0.776,0,1.407-1.26,1.407-2.813
	c0-0.008-0.001-0.013-0.001-0.019v-3.116l5.461-27.086h5.653c0.003,0,0.007-0.001,0.01,0c0.776,0,1.406-1.259,1.406-2.813
	C59.791,49.435,59.386,48.377,58.824,48.009z M29.875,42.106h2.391h9.689h2.39l6.957,5.763H22.917L29.875,42.106z M35.468,77.58
	l-1.597-24.083h6.477L38.751,77.58H35.468z M31.033,53.495l1.597,24.084h-3.341l-5.175-24.084H31.033z M37.51,86.528
	c-0.185,0.366-0.353,0.744-0.505,1.134c-0.152-0.39-0.32-0.768-0.504-1.134H37.51z M44.833,77.58h-3.244l1.597-24.083h6.502
	L44.833,77.58z"/>
</svg>
