<?xml version="1.0" encoding="utf-8"?>
<!-- Generator: Adobe Illustrator 16.0.0, SVG Export Plug-In . SVG Version: 6.00 Build 0)  -->
<!DOCTYPE svg PUBLIC "-//W3C//DTD SVG 1.1//EN" "http://www.w3.org/Graphics/SVG/1.1/DTD/svg11.dtd">
<svg version="1.1" id="图层_1" xmlns="http://www.w3.org/2000/svg" xmlns:xlink="http://www.w3.org/1999/xlink" x="0px" y="0px"
	 width="110px" height="114.667px" viewBox="0 0 110 114.667" enable-background="new 0 0 110 114.667" xml:space="preserve">
<g>
	<g>
		<circle fill="#F7F7F7" stroke="#C7C8C8" stroke-miterlimit="10" cx="11.939" cy="54.875" r="88.8"/>
	</g>
</g>
<linearGradient id="SVGID_1_" gradientUnits="userSpaceOnUse" x1="-6.9775" y1="58.8472" x2="69.5586" y2="58.8472" gradientTransform="matrix(1 0 0 -1 0.1401 113.7217)">
	<stop  offset="0" style="stop-color:#EEC02A"/>
	<stop  offset="1" style="stop-color:#D6372C"/>
</linearGradient>
<path fill="url(#SVGID_1_)" d="M69.423,74.01L48.496,34.402c-0.412-0.778-1.219-1.265-2.099-1.265H33.804V18.981
	c0-1.311-1.063-2.374-2.375-2.374s-2.374,1.063-2.374,2.374v14.155H16.462c-0.88,0-1.688,0.487-2.1,1.265L-6.563,74.01
	c-0.388,0.736-0.363,1.622,0.066,2.334c0.43,0.713,1.201,1.148,2.033,1.148h17.878c1.52,8.938,9.05,15.65,18.017,15.65
	s16.494-6.713,18.015-15.65h17.879c0.833,0,1.604-0.436,2.033-1.148C69.788,75.632,69.812,74.747,69.423,74.01z M31.43,88.395
	c-6.362,0-11.752-4.62-13.182-10.9h26.363C43.182,83.775,37.792,88.395,31.43,88.395z M-0.524,72.747l18.417-34.86h27.074
	l18.419,34.86H-0.524z"/>
</svg>
