<?xml version="1.0" encoding="utf-8"?>
<!-- Generator: Adobe Illustrator 16.0.0, SVG Export Plug-In . SVG Version: 6.00 Build 0)  -->
<!DOCTYPE svg PUBLIC "-//W3C//DTD SVG 1.1//EN" "http://www.w3.org/Graphics/SVG/1.1/DTD/svg11.dtd">
<svg version="1.1" id="图层_1" xmlns="http://www.w3.org/2000/svg" xmlns:xlink="http://www.w3.org/1999/xlink" x="0px" y="0px"
	 width="110px" height="114.667px" viewBox="0 0 110 114.667" enable-background="new 0 0 110 114.667" xml:space="preserve">
<g>
	<g>
		<circle fill="#F7F7F7" stroke="#EEEEEF" stroke-miterlimit="10" cx="11.94" cy="54.876" r="88.8"/>
	</g>
</g>
<path fill="#B4B4B4" d="M63.457,32.324c-5.443-7.746-14.774-12.37-24.962-12.37c-3.346,0-6.627,0.511-9.781,1.512v-6.673
	c0-1.554-0.63-2.814-1.407-2.814h-7.205c-0.777,0-1.407,1.26-1.407,2.814v85.081c0,1.553,0.63,2.813,1.407,2.813h7.205
	c0.777,0,1.407-1.261,1.407-2.813v-34.41H42.01c7.271,0,12.754-5.478,12.754-12.74V37.431h7.877c0.612,0,1.154-0.792,1.34-1.958
	C64.168,34.307,63.956,33.033,63.457,32.324z M25.9,97.061h-4.392V17.607H25.9v7.197v9.811V62.65V97.061z M51.951,52.724
	c0,2.9-3.873,7.111-9.94,7.111H28.714V37.431h23.237V52.724z M53.142,31.803H28.714v-4.64c3.143-1.049,6.427-1.581,9.781-1.581
	c6.886,0,13.487,2.29,18.466,6.221H53.142z"/>
</svg>
