<?xml version="1.0" encoding="utf-8"?>
<!-- Generator: Adobe Illustrator 16.0.0, SVG Export Plug-In . SVG Version: 6.00 Build 0)  -->
<!DOCTYPE svg PUBLIC "-//W3C//DTD SVG 1.1//EN" "http://www.w3.org/Graphics/SVG/1.1/DTD/svg11.dtd">
<svg version="1.1" id="图层_1" xmlns="http://www.w3.org/2000/svg" xmlns:xlink="http://www.w3.org/1999/xlink" x="0px" y="0px"
	 width="110px" height="114.667px" viewBox="0 0 110 114.667" enable-background="new 0 0 110 114.667" xml:space="preserve">
<g>
	<g>
		<circle fill="#F7F7F7" stroke="#EEEEEF" stroke-miterlimit="10" cx="11.94" cy="54.876" r="88.8"/>
	</g>
</g>
<path fill="#B4B4B4" d="M39.536,11.338H17.159c-1.206,0-2.184,1.071-2.184,2.393v67.026c0,0.002-0.001,0.005-0.001,0.008
	c0,0.002,0.001,0.005,0.001,0.008v18.882c0,1.321,0.978,2.393,2.184,2.393h22.377c1.205,0,2.184-1.071,2.184-2.393V13.731
	C41.719,12.41,40.741,11.338,39.536,11.338z M37.352,78.373h-1.336v-62.25h1.336V78.373z M25.042,78.373v-57.47h6.607v57.47H25.042z
	 M20.674,16.123v62.25h-1.332v-62.25H20.674z M19.342,97.262V83.157h18.01v14.105H19.342z"/>
</svg>
