<?xml version="1.0" encoding="utf-8"?>
<!-- Generator: Adobe Illustrator 16.0.0, SVG Export Plug-In . SVG Version: 6.00 Build 0)  -->
<!DOCTYPE svg PUBLIC "-//W3C//DTD SVG 1.1//EN" "http://www.w3.org/Graphics/SVG/1.1/DTD/svg11.dtd">
<svg version="1.1" id="图层_1" xmlns="http://www.w3.org/2000/svg" xmlns:xlink="http://www.w3.org/1999/xlink" x="0px" y="0px"
	 width="110px" height="114.667px" viewBox="0 0 110 114.667" enable-background="new 0 0 110 114.667" xml:space="preserve">
<g>
	<g>
		<circle fill="#F7F7F7" stroke="#C7C8C8" stroke-miterlimit="10" cx="11.939" cy="54.875" r="88.8"/>
	</g>
</g>
<linearGradient id="SVGID_1_" gradientUnits="userSpaceOnUse" x1="-3.2622" y1="56.3872" x2="78.9424" y2="56.3872" gradientTransform="matrix(1 0 0 -1 0.1401 113.7217)">
	<stop  offset="0" style="stop-color:#EEC02A"/>
	<stop  offset="1" style="stop-color:#D6372C"/>
</linearGradient>
<path fill="url(#SVGID_1_)" d="M78.254,24.49c-0.076-0.084-0.151-0.166-0.239-0.254c-4.406-4.319-10.332-6.698-16.687-6.698
	c-1.927,0-3.841,0.224-5.701,0.668l-2.979-2.918c-2.176-2.133-5.086-3.308-8.192-3.308c-2.89,0-5.654,1.038-7.78,2.924
	c-2.342,2.077-3.669,4.923-3.738,8.013c-0.057,2.559,0.77,4.983,2.33,6.979L8.381,48.124c-1.16-0.726-2.528-1.153-3.998-1.153
	c-4.139,0-7.505,3.335-7.505,7.435c0,4.101,3.366,7.434,7.505,7.434c0.414,0,0.818-0.043,1.215-0.106l26.111,24.775
	c-0.702,1.131-1.114,2.458-1.114,3.879c0,2.932,1.726,5.464,4.221,6.675H20.499c-1.41,0-2.55,1.259-2.55,2.813
	c0,1.556,1.141,2.814,2.55,2.814h35.203c1.407,0,2.55-1.259,2.55-2.814c0-1.555-1.143-2.813-2.55-2.813H41.384
	c2.494-1.211,4.221-3.743,4.221-6.675c0-4.1-3.367-7.435-7.504-7.435c-0.701,0-1.376,0.104-2.021,0.28L10.383,58.85
	c0.94-1.242,1.506-2.775,1.506-4.445c0-0.652-0.095-1.281-0.254-1.881l27.16-18.416c-2.014,7.427,0.125,15.437,5.795,20.993
	c0.081,0.079,0.166,0.153,0.277,0.247c0.472,0.438,1.055,0.658,1.639,0.658c0.564,0,1.129-0.206,1.597-0.621l30.019-26.632
	c0.583-0.516,0.936-1.278,0.96-2.101C79.104,25.829,78.804,25.043,78.254,24.49z M1.978,54.405c0-0.856,0.988-1.807,2.406-1.807
	c1.417,0,2.405,0.952,2.405,1.807c0,0.461-0.297,0.95-0.788,1.303c-0.461,0.022-0.91,0.187-1.304,0.479
	c-0.104,0.011-0.205,0.025-0.313,0.025C2.965,56.211,1.978,55.258,1.978,54.405z M40.506,90.386c0,0.854-0.99,1.807-2.406,1.807
	c-1.417,0-2.407-0.953-2.407-1.807c0-0.854,0.989-1.807,2.407-1.807C39.517,88.58,40.506,89.532,40.506,90.386z M46.658,49.446
	c-3.602-4.436-4.536-10.206-2.398-15.478c0.453-1.12,0.198-2.438-0.635-3.252L39.65,26.82c-1.071-1.05-1.646-2.388-1.614-3.768
	c0.032-1.405,0.684-2.741,1.834-3.763c1.224-1.086,2.852-1.684,4.586-1.684c1.828,0,3.583,0.688,4.805,1.889l3.978,3.896
	c0.644,0.632,1.53,0.861,2.365,0.611c1.845-0.556,3.771-0.838,5.724-0.838c4.099,0,7.95,1.208,11.089,3.429L46.658,49.446z"/>
</svg>
