<?xml version="1.0" encoding="utf-8"?>
<!-- Generator: Adobe Illustrator 16.0.0, SVG Export Plug-In . SVG Version: 6.00 Build 0)  -->
<!DOCTYPE svg PUBLIC "-//W3C//DTD SVG 1.1//EN" "http://www.w3.org/Graphics/SVG/1.1/DTD/svg11.dtd">
<svg version="1.1" id="图层_1" xmlns="http://www.w3.org/2000/svg" xmlns:xlink="http://www.w3.org/1999/xlink" x="0px" y="0px"
	 width="110px" height="114.667px" viewBox="0 0 110 114.667" enable-background="new 0 0 110 114.667" xml:space="preserve">
<g>
	<g>
		<circle fill="#F7F7F7" stroke="#C7C8C8" stroke-miterlimit="10" cx="11.939" cy="54.875" r="88.8"/>
	</g>
</g>
<g>
	<linearGradient id="SVGID_1_" gradientUnits="userSpaceOnUse" x1="13.9385" y1="54.8755" x2="59.293" y2="54.8755">
		<stop  offset="0" style="stop-color:#EEC02A"/>
		<stop  offset="1" style="stop-color:#D6372C"/>
	</linearGradient>
	<path fill="url(#SVGID_1_)" d="M45.594,20.597c-5.771,0-10.709,3.747-12.724,9.025h-0.002c-2.095,0-3.889,1.36-4.622,3.277h-1.144
		c-0.455-2.543-1.594-4.88-3.318-6.805V11.437c0-1.058-0.823-1.916-1.838-1.916h-6.17c-1.015,0-1.838,0.858-1.838,1.916v86.877
		c0,1.058,0.823,1.916,1.838,1.916h6.17c1.015,0,1.838-0.858,1.838-1.916V44.811c2.008-2.244,3.225-5.048,3.491-8.081h0.971
		c0.728,1.899,2.499,3.248,4.571,3.27c1.979,5.356,6.953,9.173,12.776,9.173c7.554,0,13.699-6.41,13.699-14.289
		C59.293,27.006,53.148,20.597,45.594,20.597z M17.614,96.399V13.352h2.495v13.501c0,0.001,0,0.002,0,0.003v17.191
		c0,0.001,0,0.002,0,0.003v52.348H17.614z M45.594,45.342c-5.527,0-10.023-4.691-10.023-10.458s4.497-10.457,10.023-10.457
		s10.023,4.691,10.023,10.457S51.121,45.342,45.594,45.342z"/>
	<linearGradient id="SVGID_2_" gradientUnits="userSpaceOnUse" x1="37.6143" y1="40.396" x2="48.7656" y2="40.396">
		<stop  offset="0" style="stop-color:#EEC02A"/>
		<stop  offset="1" style="stop-color:#D6372C"/>
	</linearGradient>
	<path fill="url(#SVGID_2_)" d="M47.006,40.78c-2.456-0.11-4.694-1.487-5.987-3.683c-0.53-0.902-1.662-1.184-2.527-0.632
		c-0.866,0.553-1.137,1.732-0.606,2.634c1.933,3.284,5.283,5.343,8.964,5.507c0.027,0.001,0.053,0.002,0.08,0.002
		c0.979,0,1.792-0.804,1.835-1.833C48.807,41.718,48.02,40.825,47.006,40.78z"/>
</g>
</svg>
