<?xml version="1.0" encoding="utf-8"?>
<!-- Generator: Adobe Illustrator 16.0.0, SVG Export Plug-In . SVG Version: 6.00 Build 0)  -->
<!DOCTYPE svg PUBLIC "-//W3C//DTD SVG 1.1//EN" "http://www.w3.org/Graphics/SVG/1.1/DTD/svg11.dtd">
<svg version="1.1" id="图层_1" xmlns="http://www.w3.org/2000/svg" xmlns:xlink="http://www.w3.org/1999/xlink" x="0px" y="0px"
	 width="110px" height="114.667px" viewBox="0 0 110 114.667" enable-background="new 0 0 110 114.667" xml:space="preserve">
<g>
	<g>
		<circle fill="#F7F7F7" stroke="#C7C8C8" stroke-miterlimit="10" cx="11.939" cy="54.875" r="88.8"/>
	</g>
</g>
<g>
	
		<linearGradient id="SVGID_1_" gradientUnits="userSpaceOnUse" x1="-7.3037" y1="56.3877" x2="72.0664" y2="56.3877" gradientTransform="matrix(1 0 0 -1 0.1401 113.7217)">
		<stop  offset="0" style="stop-color:#EEC02A"/>
		<stop  offset="1" style="stop-color:#D6372C"/>
	</linearGradient>
	<path fill="url(#SVGID_1_)" d="M72.206,51.33c0-21.698-17.802-39.35-39.685-39.35c-21.883,0-39.685,17.652-39.685,39.35
		c0,20.876,16.483,37.999,37.223,39.265v6.778H9.976c-1.36,0-2.462,1.19-2.462,2.657c0,1.468,1.102,2.658,2.462,2.658h45.091
		c1.36,0,2.461-1.19,2.461-2.658c0-1.467-1.102-2.657-2.461-2.657H34.983v-6.778C55.723,89.329,72.206,72.206,72.206,51.33z
		 M-2.24,51.33c0-18.767,15.594-34.034,34.761-34.034c19.168,0,34.76,15.267,34.76,34.034c0,18.765-15.592,34.033-34.76,34.033
		C13.354,85.361-2.24,70.094-2.24,51.33z"/>
	
		<linearGradient id="SVGID_2_" gradientUnits="userSpaceOnUse" x1="5.3652" y1="61.4409" x2="66.374" y2="61.4409" gradientTransform="matrix(1 0 0 -1 0.1401 113.7217)">
		<stop  offset="0" style="stop-color:#EEC02A"/>
		<stop  offset="1" style="stop-color:#D6372C"/>
	</linearGradient>
	<path fill="url(#SVGID_2_)" d="M45.012,71.127c1.114-4.65-0.732-10.855-3.32-14.31c0.092-0.155,0.183-0.31,0.27-0.471
		c0.386,0.203,0.831,0.494,1.321,0.928c2.086,1.848,4.88,4.286,5.905,5.081c1.634,1.263,3.982,2.016,6.279,2.016
		c5.021,0,8.911-3.342,10.412-8.943c2.608-9.752-3.389-18.226-7.778-21.275c-4.238-2.944-9.139-3.838-13.711-2.486
		c-3.916,1.161-8.958,5.642-10.762,10.028c-0.138-0.006-0.277-0.029-0.419-0.029c-0.138,0-0.274,0.014-0.412,0.02
		c0.012-0.322,0.051-0.693,0.145-1.127c0.383-1.793,1.299-6.125,1.511-7.605c0.388-2.651-0.494-5.707-2.288-7.973
		c-1.951-2.458-4.84-3.813-8.138-3.813c-1.228,0-2.53,0.182-3.877,0.543C10.453,24.314,6.07,33.66,5.586,38.939
		C5.101,44.225,6.81,48.971,10.4,52.304c3.188,2.959,8.432,4.284,12.209,4.285h0c0.693,0,1.329-0.05,1.926-0.137
		c0.059,0.111,0.124,0.221,0.19,0.331c-0.314,0.163-0.685,0.326-1.144,0.473c-1.368,0.439-5.945,1.918-7.402,2.496
		c-2.598,1.028-5.547,3.865-6.273,7.888c-0.459,2.543-0.162,6.402,3.858,10.332c4.584,4.482,10.142,5.424,13.997,5.424
		c2.965,0,5.906-0.566,8.067-1.553C40.623,79.656,43.884,75.85,45.012,71.127z M36.69,54.994c-0.221,0.202-0.452,0.375-0.693,0.531
		c-0.026,0.017-0.046,0.036-0.072,0.052c-0.19,0.119-0.391,0.21-0.587,0.3c-0.084,0.037-0.165,0.083-0.254,0.115
		c-0.111,0.043-0.226,0.074-0.342,0.108c-0.131,0.041-0.267,0.079-0.41,0.11c-0.145,0.031-0.293,0.055-0.443,0.074
		c-0.095,0.012-0.191,0.019-0.288,0.024c-1.367,0.086-2.749-0.36-3.777-1.273c-0.047-0.039-0.094-0.059-0.141-0.094
		c-0.233-0.222-0.443-0.466-0.63-0.731c-0.309-0.45-0.527-0.942-0.66-1.454c-0.008-0.034-0.009-0.067-0.015-0.1
		c-0.133-0.573-0.161-1.103-0.084-1.616c0,0,0-0.002,0-0.003c0.035-0.259,0.103-0.51,0.184-0.754
		c0.027-0.079,0.058-0.154,0.09-0.231c0.061-0.161,0.136-0.316,0.217-0.467c0.045-0.089,0.09-0.177,0.145-0.262
		c0.077-0.121,0.161-0.233,0.246-0.346c0.598-0.78,1.444-1.392,2.47-1.721c0.027-0.008,0.047-0.026,0.074-0.036
		c0.475-0.143,0.972-0.236,1.491-0.236c0.247,0,0.5,0.018,0.75,0.053c0.234,0.033,0.463,0.087,0.686,0.15
		c0.035,0.011,0.063,0.028,0.096,0.038c0.623,0.188,1.164,0.461,1.622,0.81c0.042,0.033,0.082,0.07,0.123,0.104
		c0.114,0.095,0.229,0.192,0.331,0.296c0.042,0.042,0.084,0.085,0.125,0.129c0.116,0.119,0.219,0.243,0.32,0.371
		c0.017,0.023,0.034,0.045,0.049,0.068c0.079,0.106,0.145,0.22,0.213,0.332c0.059,0.097,0.114,0.197,0.167,0.298
		c0.07,0.14,0.138,0.281,0.193,0.426c0.014,0.034,0.024,0.068,0.037,0.101c0.271,0.766,0.334,1.599,0.155,2.424
		c-0.003,0.023-0.003,0.048-0.006,0.072c-0.215,0.909-0.698,1.71-1.377,2.334C36.692,54.991,36.691,54.993,36.69,54.994z
		 M45.692,36.795c3.264-0.965,6.642-0.325,9.744,1.829c2.592,1.8,7.629,8.159,5.712,15.33c-1.128,4.216-3.711,5.101-5.681,5.101
		c-1.542,0-2.8-0.551-3.409-1.019c-0.862-0.669-3.531-2.994-5.649-4.872c-1.2-1.062-2.334-1.688-3.296-2.058
		c-0.102-1.849-0.704-3.639-1.774-5.182c-0.153-0.221-0.321-0.427-0.491-0.633c-0.021-0.027-0.041-0.054-0.061-0.08
		c-0.166-0.194-0.339-0.378-0.517-0.559c-0.081-0.083-0.155-0.169-0.239-0.25c-0.115-0.109-0.238-0.207-0.358-0.31
		c-0.139-0.122-0.273-0.251-0.419-0.365c-0.257-0.199-0.527-0.385-0.804-0.558C39.686,40.919,42.68,37.688,45.692,36.795z
		 M22.61,51.273c-3.286,0-7.158-1.29-8.999-3c-2.995-2.781-3.354-6.327-3.126-8.811c0.285-3.109,3.414-10.595,10.854-12.591
		c0.956-0.257,1.86-0.386,2.689-0.386c1.889,0,3.367,0.657,4.395,1.954c0.991,1.247,1.298,2.79,1.169,3.693
		c-0.13,0.882-0.697,3.72-1.448,7.229c-0.329,1.534-0.335,2.824-0.19,3.86c-0.037,0.021-0.066,0.048-0.098,0.07
		c-0.204,0.133-0.404,0.272-0.597,0.42c-0.134,0.1-0.261,0.205-0.387,0.312c-0.088,0.072-0.17,0.146-0.252,0.221
		c-0.808,0.725-1.488,1.575-2.017,2.526c-0.014,0.026-0.034,0.052-0.047,0.079c-0.112,0.206-0.216,0.417-0.314,0.631
		c-0.043,0.095-0.084,0.19-0.125,0.288c-0.074,0.181-0.149,0.362-0.214,0.549c-0.058,0.159-0.104,0.321-0.154,0.484
		c-0.042,0.144-0.087,0.284-0.125,0.431c-0.08,0.315-0.145,0.637-0.192,0.964c-0.001,0.006-0.002,0.013-0.002,0.019
		c-0.001,0.012-0.001,0.023-0.006,0.035c-0.045,0.333-0.074,0.667-0.087,0.999C23.118,51.264,22.88,51.273,22.61,51.273
		C22.611,51.273,22.61,51.273,22.61,51.273z M27.763,78.079c-2.99,0-7.27-0.702-10.69-4.047c-1.861-1.821-2.646-3.63-2.328-5.376
		c0.336-1.868,1.864-3.41,3.132-3.913c1.054-0.417,4.489-1.548,7.112-2.391c1.591-0.513,2.747-1.21,3.57-1.888
		c1.021,0.549,2.13,0.935,3.294,1.098c0.228,0.031,0.453,0.031,0.684,0.048c0.062,0.005,0.12,0.01,0.177,0.012
		c0.174,0.011,0.344,0.036,0.517,0.036c0.859,0,1.693-0.119,2.493-0.332c0.039-0.01,0.079-0.018,0.119-0.027
		c0.303-0.085,0.602-0.184,0.893-0.296c0.036-0.014,0.071-0.021,0.107-0.035c0.087-0.034,0.167-0.086,0.257-0.122
		c0.239-0.106,0.479-0.221,0.711-0.343c0.082-0.045,0.168-0.075,0.249-0.121c1.488,2.133,2.881,6.521,2.187,9.418
		c-0.943,3.95-3.964,6.068-6.33,7.146C32.714,77.494,30.468,78.079,27.763,78.079z"/>
</g>
</svg>
