<?xml version="1.0" encoding="utf-8"?>
<!-- Generator: Adobe Illustrator 16.0.0, SVG Export Plug-In . SVG Version: 6.00 Build 0)  -->
<!DOCTYPE svg PUBLIC "-//W3C//DTD SVG 1.1//EN" "http://www.w3.org/Graphics/SVG/1.1/DTD/svg11.dtd">
<svg version="1.1" id="图层_1" xmlns="http://www.w3.org/2000/svg" xmlns:xlink="http://www.w3.org/1999/xlink" x="0px" y="0px"
	 width="110px" height="114.667px" viewBox="0 0 110 114.667" enable-background="new 0 0 110 114.667" xml:space="preserve">
<g>
	<g>
		<circle fill="#F7F7F7" stroke="#EEEEEF" stroke-miterlimit="10" cx="11.94" cy="54.876" r="88.8"/>
	</g>
</g>
<path fill="#B4B4B4" d="M81.099,76.578l-4.638-13.839c-0.134-0.397-0.507-0.666-0.928-0.666H61.836
	c-0.421,0-0.795,0.269-0.928,0.666l-4.695,14.013c-0.101,0.298-0.051,0.625,0.134,0.879c0.184,0.256,0.479,0.406,0.793,0.406h10.413
	c-0.923,8.248-7.459,14.574-15.305,14.574c-7.848,0-14.384-6.325-15.307-14.574h10.465c0.007-0.001,0.013-0.001,0.02,0
	c0.54,0,0.979-0.437,0.979-0.976c0-0.177-0.048-0.341-0.129-0.483l-4.638-13.839c-0.133-0.397-0.507-0.666-0.927-0.666H36.83v-3.414
	c1.51-0.45,2.625-1.895,2.625-3.622v-1.289c0-1.727-1.115-3.171-2.625-3.622v-3.669c1.51-0.45,2.625-1.895,2.625-3.622v-1.289
	c0-1.727-1.115-3.171-2.625-3.622v-3.667c1.51-0.45,2.625-1.896,2.625-3.624v-1.29c0-1.726-1.115-3.17-2.625-3.621V22.71
	c2.993-0.5,5.292-3.24,5.292-6.544c0-0.539-0.438-0.976-0.978-0.976H30.558c-0.54,0-0.978,0.437-0.978,0.976
	c0,3.304,2.3,6.044,5.294,6.544v3.014c-1.51,0.45-2.625,1.895-2.625,3.621v1.29c0,1.728,1.115,3.173,2.625,3.624v3.667
	c-1.51,0.451-2.625,1.895-2.625,3.622v1.289c0,1.727,1.115,3.171,2.625,3.622v3.669c-1.51,0.451-2.625,1.895-2.625,3.622v1.289
	c0,1.727,1.115,3.171,2.625,3.622v3.414h-5.859c-0.421,0-0.794,0.269-0.928,0.666L23.39,76.751c-0.1,0.298-0.05,0.625,0.134,0.879
	c0.184,0.256,0.479,0.406,0.794,0.406h10.438c-0.921,8.248-7.457,14.574-15.303,14.574c-7.847,0-14.384-6.325-15.306-14.574h10.437
	c0.007-0.001,0.013-0.001,0.02,0c0.54,0,0.978-0.437,0.978-0.976c0-0.177-0.046-0.341-0.128-0.483l-4.637-13.839
	c-0.133-0.397-0.507-0.666-0.928-0.666H-3.806c-0.421,0-0.794,0.269-0.928,0.666l-4.698,14.013c-0.1,0.298-0.05,0.625,0.134,0.879
	c0.184,0.256,0.479,0.406,0.794,0.406H2.183c0.94,9.335,8.352,16.524,17.27,16.524c6.669,0,12.491-4.027,15.403-9.958v8.983
	c0,0.539,0.438,0.975,0.979,0.975c0.541,0,0.979-0.436,0.979-0.975v-9.042c2.903,5.963,8.742,10.017,15.435,10.017
	c8.916,0,16.328-7.189,17.269-16.524h10.712c0.006-0.001,0.014-0.001,0.02,0c0.541,0,0.979-0.437,0.979-0.976
	C81.227,76.884,81.181,76.72,81.099,76.578z M37.499,53.748v1.289c0,0.6-0.266,1.13-0.669,1.463v-4.215
	C37.233,52.618,37.499,53.148,37.499,53.748z M37.499,41.547v1.289c0,0.6-0.266,1.13-0.669,1.463v-4.215
	C37.233,40.417,37.499,40.947,37.499,41.547z M37.499,29.345v1.29c0,0.601-0.266,1.132-0.669,1.466v-4.219
	C37.233,28.216,37.499,28.745,37.499,29.345z M31.63,17.142h8.441c-0.414,2.115-2.148,3.707-4.219,3.707
	C33.78,20.848,32.046,19.256,31.63,17.142z M34.206,30.635v-1.29c0-0.6,0.265-1.129,0.668-1.463v4.219
	C34.471,31.767,34.206,31.236,34.206,30.635z M34.206,42.835v-1.289c0-0.6,0.265-1.13,0.668-1.463v4.215
	C34.471,43.965,34.206,43.436,34.206,42.835z M34.206,55.037v-1.289c0-0.6,0.265-1.13,0.668-1.463V56.5
	C34.471,56.167,34.206,55.637,34.206,55.037z M-3.102,64.024H9.184l4.042,12.062H-7.146L-3.102,64.024z M29.72,64.024h12.286
	l4.042,12.062H25.676L29.72,64.024z M58.498,76.085l4.043-12.062h12.288l4.041,12.062H58.498z"/>
</svg>
