<?xml version="1.0" encoding="utf-8"?>
<!-- Generator: Adobe Illustrator 16.0.0, SVG Export Plug-In . SVG Version: 6.00 Build 0)  -->
<!DOCTYPE svg PUBLIC "-//W3C//DTD SVG 1.1//EN" "http://www.w3.org/Graphics/SVG/1.1/DTD/svg11.dtd">
<svg version="1.1" id="图层_1" xmlns="http://www.w3.org/2000/svg" xmlns:xlink="http://www.w3.org/1999/xlink" x="0px" y="0px"
	 width="110px" height="114.667px" viewBox="0 0 110 114.667" enable-background="new 0 0 110 114.667" xml:space="preserve">
<g>
	<g>
		<circle fill="#F7F7F7" stroke="#C7C8C8" stroke-miterlimit="10" cx="11.939" cy="54.875" r="88.8"/>
	</g>
</g>
<linearGradient id="SVGID_1_" gradientUnits="userSpaceOnUse" x1="-9.4819" y1="54.8755" x2="81.2266" y2="54.8755">
	<stop  offset="0" style="stop-color:#EEC02A"/>
	<stop  offset="1" style="stop-color:#D6372C"/>
</linearGradient>
<path fill="url(#SVGID_1_)" d="M81.098,76.577L76.46,62.738c-0.134-0.397-0.506-0.666-0.927-0.666H61.835
	c-0.421,0-0.794,0.269-0.927,0.666L56.212,76.75c-0.1,0.298-0.05,0.625,0.134,0.879c0.184,0.256,0.479,0.406,0.794,0.406h10.413
	C66.63,86.284,60.094,92.61,52.248,92.61c-7.847,0-14.384-6.325-15.307-14.574h10.465c0.006-0.001,0.013-0.001,0.02,0
	c0.54,0,0.978-0.437,0.978-0.976c0-0.177-0.046-0.341-0.128-0.483l-4.637-13.839c-0.133-0.397-0.507-0.666-0.928-0.666h-5.88v-3.414
	c1.509-0.45,2.625-1.894,2.625-3.621v-1.289c0-1.727-1.116-3.171-2.625-3.622v-3.669c1.509-0.45,2.625-1.895,2.625-3.622v-1.289
	c0-1.727-1.116-3.171-2.625-3.622v-3.667c1.509-0.45,2.625-1.896,2.625-3.624v-1.29c0-1.726-1.116-3.17-2.625-3.621V22.71
	c2.993-0.5,5.292-3.24,5.292-6.544c0-0.539-0.438-0.976-0.978-0.976H30.558c-0.54,0-0.978,0.437-0.978,0.976
	c0,3.304,2.3,6.044,5.294,6.544v3.014c-1.51,0.45-2.625,1.895-2.625,3.621v1.29c0,1.728,1.115,3.173,2.625,3.624v3.667
	c-1.51,0.451-2.625,1.895-2.625,3.622v1.289c0,1.727,1.115,3.171,2.625,3.622v3.669c-1.51,0.451-2.625,1.895-2.625,3.622v1.289
	c0,1.727,1.115,3.171,2.625,3.621v3.414h-5.859c-0.421,0-0.794,0.269-0.928,0.666L23.39,76.75c-0.1,0.298-0.05,0.625,0.134,0.879
	c0.184,0.256,0.479,0.406,0.794,0.406h10.438C33.835,86.284,27.3,92.61,19.453,92.61c-7.847,0-14.384-6.325-15.306-14.574h10.437
	c0.007-0.001,0.013-0.001,0.02,0c0.54,0,0.978-0.437,0.978-0.976c0-0.177-0.046-0.341-0.128-0.483l-4.637-13.839
	c-0.133-0.397-0.507-0.666-0.928-0.666H-3.806c-0.421,0-0.794,0.269-0.928,0.666L-9.432,76.75c-0.1,0.298-0.05,0.625,0.134,0.879
	c0.184,0.256,0.479,0.406,0.794,0.406H2.183c0.94,9.335,8.352,16.524,17.27,16.524c6.669,0,12.491-4.027,15.403-9.958v8.983
	c0,0.539,0.438,0.975,0.979,0.975c0.54,0,0.978-0.436,0.978-0.975v-9.042c2.904,5.963,8.743,10.017,15.435,10.017
	c8.917,0,16.328-7.189,17.268-16.524h10.712c0.007-0.001,0.014-0.001,0.021,0c0.54,0,0.979-0.437,0.979-0.976
	C81.227,76.883,81.18,76.719,81.098,76.577z M37.499,53.748v1.289c0,0.6-0.265,1.129-0.668,1.463v-4.215
	C37.233,52.618,37.499,53.147,37.499,53.748z M37.499,41.546v1.289c0,0.6-0.265,1.13-0.668,1.463v-4.215
	C37.233,40.417,37.499,40.946,37.499,41.546z M37.499,29.345v1.29c0,0.601-0.265,1.132-0.668,1.466v-4.219
	C37.233,28.216,37.499,28.745,37.499,29.345z M31.63,17.141h8.441c-0.415,2.115-2.149,3.707-4.219,3.707
	C33.78,20.848,32.046,19.256,31.63,17.141z M34.206,30.634v-1.29c0-0.6,0.265-1.129,0.668-1.463v4.219
	C34.471,31.766,34.206,31.235,34.206,30.634z M34.206,42.835v-1.289c0-0.6,0.265-1.13,0.668-1.463v4.215
	C34.471,43.965,34.206,43.435,34.206,42.835z M34.206,55.037v-1.289c0-0.6,0.265-1.13,0.668-1.463V56.5
	C34.471,56.166,34.206,55.637,34.206,55.037z M-3.102,64.023H9.184l4.042,12.062H-7.146L-3.102,64.023z M29.72,64.023h12.286
	l4.042,12.062H25.676L29.72,64.023z M58.498,76.084l4.042-12.062h12.289l4.04,12.062H58.498z"/>
</svg>
