<?xml version="1.0" encoding="utf-8"?>
<!-- Generator: Adobe Illustrator 16.0.0, SVG Export Plug-In . SVG Version: 6.00 Build 0)  -->
<!DOCTYPE svg PUBLIC "-//W3C//DTD SVG 1.1//EN" "http://www.w3.org/Graphics/SVG/1.1/DTD/svg11.dtd">
<svg version="1.1" id="图层_1" xmlns="http://www.w3.org/2000/svg" xmlns:xlink="http://www.w3.org/1999/xlink" x="0px" y="0px"
	 width="110px" height="114.667px" viewBox="0 0 110 114.667" enable-background="new 0 0 110 114.667" xml:space="preserve">
<g>
	<g>
		<circle fill="#F7F7F7" stroke="#C7C8C8" stroke-miterlimit="10" cx="11.939" cy="54.875" r="88.8"/>
	</g>
</g>
<linearGradient id="SVGID_1_" gradientUnits="userSpaceOnUse" x1="-5.8096" y1="59.8638" x2="73.5615" y2="59.8638" gradientTransform="matrix(1 0 0 -1 0.1401 113.7217)">
	<stop  offset="0" style="stop-color:#EEC02A"/>
	<stop  offset="1" style="stop-color:#D6372C"/>
</linearGradient>
<path fill="url(#SVGID_1_)" d="M72.785,41.934L55.914,28.309c-0.438-0.354-0.983-0.546-1.544-0.546h-5.746
	c-0.616-7.674-9.292-13.565-20.262-13.565c-11.383,0-20.299,6.341-20.299,14.436v23.836h-0.59V16.636
	c0-1.36-1.101-2.462-2.462-2.462h-8.218c-1.36,0-2.462,1.103-2.462,2.462v74.445c0,1.359,1.102,2.461,2.462,2.461H5.01
	c1.361,0,2.462-1.102,2.462-2.461V63.986h0.59v7.872c0,1.358,1.104,2.463,2.462,2.463c1.361,0,2.462-1.104,2.462-2.463V28.633
	c0-5.155,7.04-9.511,15.374-9.511c7.86,0,14.562,3.875,15.301,8.641h-5.634c-0.564,0-1.11,0.192-1.548,0.546L19.611,41.934
	c-0.813,0.655-1.122,1.752-0.775,2.735c0.349,0.983,1.279,1.642,2.321,1.642h17.396v0.96c0,3.332,3.358,5.94,7.647,5.94
	c4.29,0,7.644-2.609,7.644-5.94v-0.96H71.24c1.043,0,1.974-0.659,2.321-1.642C73.907,43.687,73.598,42.589,72.785,41.934z
	 M2.549,88.621h-3.295V19.099h3.295V88.621z M7.472,59.061v-1.667h0.59v1.667H7.472z M48.921,47.253
	c-0.07,0.25-1.015,1.035-2.722,1.035c-1.708,0-2.657-0.785-2.722-1.016v-0.96h5.442L48.921,47.253z M51.382,41.388H41.015H28.124
	l10.772-8.701h14.602l10.774,8.701H51.382z"/>
</svg>
