<?xml version="1.0" encoding="utf-8"?>
<!-- Generator: Adobe Illustrator 16.0.0, SVG Export Plug-In . SVG Version: 6.00 Build 0)  -->
<!DOCTYPE svg PUBLIC "-//W3C//DTD SVG 1.1//EN" "http://www.w3.org/Graphics/SVG/1.1/DTD/svg11.dtd">
<svg version="1.1" id="图层_1" xmlns="http://www.w3.org/2000/svg" xmlns:xlink="http://www.w3.org/1999/xlink" x="0px" y="0px"
	 width="110px" height="114.667px" viewBox="0 0 110 114.667" enable-background="new 0 0 110 114.667" xml:space="preserve">
<g>
	<g>
		<circle fill="#F7F7F7" stroke="#EEEEEF" stroke-miterlimit="10" cx="11.94" cy="54.876" r="88.8"/>
	</g>
</g>
<g>
	<path fill="#B4B4B4" d="M73.845,42.071c-0.535-0.208-1.305-0.329-2.112-0.329h-85.082c-0.808,0-1.578,0.121-2.111,0.329
		c-0.534,0.207-0.782,0.485-0.681,0.76c1.595,4.328,3.872,8.392,6.765,12.076c0.332,0.42,1.445,0.715,2.717,0.715h5.619
		C4.513,66.318,16.006,72.923,29.19,72.923c13.183,0,24.676-6.605,30.232-17.301h5.618c1.271,0,2.385-0.295,2.716-0.715
		c2.895-3.684,5.17-7.748,6.766-12.076C74.627,42.557,74.378,42.278,73.845,42.071z M29.191,70.99
		c-9.856,0-19.557-6.131-24.515-15.367h49.029C48.747,64.859,39.045,70.99,29.191,70.99z M63.085,52.583l-6,0.083L1.417,52.75
		l-5.583,0.083c-2.33-3.093-4.577-4.36-6-7.917l78.584-0.083C66.997,48.39,65.416,49.491,63.085,52.583z"/>
	<path fill="#B4B4B4" d="M12.093,60.84c3.166,2.371,6.751,4.146,10.658,5.274c0.528,0.151,1.171,0.227,1.812,0.227
		c0.801,0,1.598-0.116,2.153-0.344c1.001-0.409,0.851-1.017-0.337-1.362c-3.269-0.948-6.354-2.495-9.169-4.601
		c-0.649-0.483-2.321-0.698-3.732-0.473C12.064,59.78,11.445,60.357,12.093,60.84z"/>
</g>
</svg>
