<?xml version="1.0" encoding="utf-8"?>
<!-- Generator: Adobe Illustrator 16.0.0, SVG Export Plug-In . SVG Version: 6.00 Build 0)  -->
<!DOCTYPE svg PUBLIC "-//W3C//DTD SVG 1.1//EN" "http://www.w3.org/Graphics/SVG/1.1/DTD/svg11.dtd">
<svg version="1.1" id="图层_1" xmlns="http://www.w3.org/2000/svg" xmlns:xlink="http://www.w3.org/1999/xlink" x="0px" y="0px"
	 width="110px" height="114.667px" viewBox="0 0 110 114.667" enable-background="new 0 0 110 114.667" xml:space="preserve">
<g>
	<g>
		<circle fill="#F7F7F7" stroke="#C7C8C8" stroke-miterlimit="10" cx="11.939" cy="54.875" r="88.8"/>
	</g>
</g>
<g>
	
		<linearGradient id="SVGID_1_" gradientUnits="userSpaceOnUse" x1="-16.3042" y1="56.3887" x2="74.4043" y2="56.3887" gradientTransform="matrix(1 0 0 -1 0.1401 113.7217)">
		<stop  offset="0" style="stop-color:#EEC02A"/>
		<stop  offset="1" style="stop-color:#D6372C"/>
	</linearGradient>
	<path fill="url(#SVGID_1_)" d="M73.844,42.071c-0.535-0.208-1.305-0.329-2.112-0.329H-13.35c-0.808,0-1.578,0.121-2.111,0.329
		c-0.534,0.207-0.782,0.485-0.681,0.76c1.595,4.328,3.872,8.392,6.765,12.076c0.332,0.42,1.445,0.715,2.717,0.715h5.619
		C4.513,66.318,16.006,72.923,29.19,72.923c13.183,0,24.676-6.605,30.232-17.301h5.618c1.271,0,2.385-0.295,2.716-0.715
		c2.895-3.684,5.17-7.748,6.766-12.076C74.626,42.557,74.377,42.278,73.844,42.071z M29.191,70.99
		c-9.856,0-19.557-6.131-24.515-15.367h49.03C48.746,64.859,39.045,70.99,29.191,70.99z M63.084,52.583l-6,0.083L1.417,52.75
		l-5.583,0.083c-2.33-3.093-4.577-4.36-6-7.917l78.583-0.083C66.996,48.39,65.415,49.491,63.084,52.583z"/>
	
		<linearGradient id="SVGID_2_" gradientUnits="userSpaceOnUse" x1="11.6953" y1="50.8149" x2="27.2373" y2="50.8149" gradientTransform="matrix(1 0 0 -1 0.1401 113.7217)">
		<stop  offset="0" style="stop-color:#EEC02A"/>
		<stop  offset="1" style="stop-color:#D6372C"/>
	</linearGradient>
	<path fill="url(#SVGID_2_)" d="M12.092,60.84c3.166,2.371,6.751,4.146,10.658,5.274c0.528,0.151,1.171,0.227,1.812,0.227
		c0.801,0,1.598-0.116,2.153-0.344c1.001-0.409,0.851-1.017-0.337-1.362c-3.269-0.948-6.354-2.495-9.169-4.601
		c-0.649-0.483-2.321-0.698-3.732-0.473C12.064,59.78,11.445,60.357,12.092,60.84z"/>
</g>
</svg>
