<?xml version="1.0" encoding="utf-8"?>
<!-- Generator: Adobe Illustrator 16.0.0, SVG Export Plug-In . SVG Version: 6.00 Build 0)  -->
<!DOCTYPE svg PUBLIC "-//W3C//DTD SVG 1.1//EN" "http://www.w3.org/Graphics/SVG/1.1/DTD/svg11.dtd">
<svg version="1.1" id="图层_1" xmlns="http://www.w3.org/2000/svg" xmlns:xlink="http://www.w3.org/1999/xlink" x="0px" y="0px"
	 width="110px" height="114.667px" viewBox="0 0 110 114.667" enable-background="new 0 0 110 114.667" xml:space="preserve">
<g>
	<g>
		<circle fill="#F7F7F7" stroke="#EEEEEF" stroke-miterlimit="10" cx="11.94" cy="54.876" r="88.8"/>
	</g>
</g>
<path fill="#B4B4B4" d="M47.318,46.931H35.547V19.168c0-1.311-2.319-2.56-2.853-2.56c-0.532,0-3.107,0.999-3.107,2.31l-0.152,28.013
	H18.071c-0.533,0-0.967,1.063-0.967,2.374v35.811c0,1.312,0.434,2.375,0.967,2.375h6.455c1.477,3.462,4.592,5.653,8.167,5.653
	c3.578,0,6.693-2.191,8.165-5.653h6.46c0.537,0,0.967-1.063,0.967-2.375V49.305C48.285,47.994,47.855,46.931,47.318,46.931z
	 M32.694,88.396c-1.359,0-2.583-0.347-3.624-0.904h7.249C35.278,88.049,34.049,88.396,32.694,88.396z M43.33,82.744h-2.881
	c-0.004,0-0.004-0.002-0.004-0.002h-15.5l-0.005,0.002h-2.388V51.68h20.931L43.33,82.744z"/>
</svg>
