<?xml version="1.0" encoding="utf-8"?>
<!-- Generator: Adobe Illustrator 16.0.0, SVG Export Plug-In . SVG Version: 6.00 Build 0)  -->
<!DOCTYPE svg PUBLIC "-//W3C//DTD SVG 1.1//EN" "http://www.w3.org/Graphics/SVG/1.1/DTD/svg11.dtd">
<svg version="1.1" id="图层_1" xmlns="http://www.w3.org/2000/svg" xmlns:xlink="http://www.w3.org/1999/xlink" x="0px" y="0px"
	 width="110px" height="114.667px" viewBox="0 0 110 114.667" enable-background="new 0 0 110 114.667" xml:space="preserve">
<g>
	<g>
		<circle fill="#F7F7F7" stroke="#EEEEEF" stroke-miterlimit="10" cx="11.94" cy="54.876" r="88.8"/>
	</g>
</g>
<g>
	<path fill="#B4B4B4" d="M76.769,42.333h-3.495c-0.659,0-1.185,0.524-1.185,1.172v2.4h-0.828v-0.626
		c0-0.646-0.525-1.172-1.179-1.172h-77.8c-0.655,0-1.184,0.526-1.184,1.172v0.626h-0.826v-2.4c0-0.647-0.529-1.172-1.182-1.172
		h-3.495c-0.657,0-1.187,0.524-1.187,1.172v11.61c0,0.646,0.529,1.174,1.187,1.174h3.495c0.652,0,1.182-0.527,1.182-1.174v-2.397
		h0.826v0.623c0,0.647,0.528,1.172,1.184,1.172h77.8c0.653,0,1.179-0.524,1.179-1.172v-0.623h0.828v2.397
		c0,0.646,0.525,1.174,1.185,1.174h3.495c0.651,0,1.185-0.527,1.185-1.174v-11.61C77.953,42.857,77.42,42.333,76.769,42.333z
		 M-12.094,53.945h-1.13v-9.27h1.13v2.4v4.472V53.945z M-9.728,50.375v-2.128h0.826v2.128H-9.728z M68.898,52.171H-6.536v-0.624
		v-4.472V46.45h75.435v0.625v4.472V52.171z M71.261,50.375v-2.128h0.828v2.128H71.261z M75.586,53.945h-1.135v-2.398v-4.472v-2.4
		h1.135V53.945z"/>
	<path fill="#B4B4B4" d="M4.315,38.667c0.219,0.388,0.622,0.605,1.039,0.605c0.193,0,0.389-0.047,0.571-0.147
		c0.572-0.312,0.776-1.025,0.462-1.591l-5.525-9.878c-0.316-0.565-1.035-0.771-1.605-0.458c-0.574,0.313-0.781,1.027-0.466,1.592
		L4.315,38.667z"/>
	<path fill="#B4B4B4" d="M16.921,38.467c0.166,0.494,0.626,0.805,1.121,0.805c0.126,0,0.251-0.019,0.371-0.058
		c0.625-0.203,0.962-0.865,0.756-1.479l-3.729-11.198c-0.204-0.614-0.873-0.95-1.493-0.745c-0.624,0.202-0.961,0.865-0.754,1.479
		L16.921,38.467z"/>
	<path fill="#B4B4B4" d="M51.939,39.125c0.182,0.1,0.377,0.147,0.57,0.147c0.417,0,0.82-0.217,1.04-0.605l5.521-9.877
		c0.317-0.565,0.108-1.279-0.462-1.592c-0.572-0.313-1.291-0.107-1.611,0.458l-5.521,9.878
		C51.161,38.101,51.367,38.813,51.939,39.125z"/>
	<path fill="#B4B4B4" d="M39.448,39.214c0.12,0.04,0.247,0.058,0.371,0.058c0.495,0,0.957-0.312,1.12-0.805l3.733-11.196
		c0.206-0.614-0.13-1.277-0.754-1.479c-0.62-0.205-1.29,0.131-1.495,0.744l-3.729,11.198C38.488,38.349,38.826,39.012,39.448,39.214
		z"/>
	<path fill="#B4B4B4" d="M29.126,39.272c0.652,0,1.18-0.524,1.18-1.17V26.389c0-0.646-0.527-1.172-1.18-1.172
		c-0.656,0-1.186,0.525-1.186,1.172v11.713C27.94,38.749,28.47,39.272,29.126,39.272z"/>
	<path fill="#B4B4B4" d="M5.926,59.496c-0.571-0.316-1.292-0.113-1.61,0.453l-5.524,9.877c-0.315,0.566-0.108,1.277,0.466,1.594
		c0.178,0.1,0.375,0.145,0.569,0.145c0.415,0,0.819-0.217,1.036-0.6l5.525-9.875C6.702,60.521,6.498,59.808,5.926,59.496z"/>
	<path fill="#B4B4B4" d="M18.413,59.406c-0.619-0.205-1.29,0.131-1.492,0.744l-3.729,11.197c-0.207,0.615,0.13,1.279,0.754,1.479
		c0.121,0.041,0.245,0.062,0.369,0.062c0.498,0,0.957-0.312,1.124-0.809l3.729-11.193C19.375,60.271,19.038,59.611,18.413,59.406z"
		/>
	<path fill="#B4B4B4" d="M53.55,59.949c-0.319-0.566-1.039-0.77-1.61-0.453c-0.572,0.312-0.778,1.025-0.463,1.594l5.521,9.875
		c0.218,0.383,0.622,0.6,1.037,0.6c0.193,0,0.393-0.045,0.574-0.145c0.57-0.316,0.779-1.027,0.462-1.594L53.55,59.949z"/>
	<path fill="#B4B4B4" d="M40.939,60.15c-0.2-0.613-0.873-0.949-1.491-0.744c-0.622,0.205-0.96,0.865-0.753,1.482l3.729,11.191
		c0.166,0.496,0.627,0.809,1.125,0.809c0.125,0,0.248-0.021,0.37-0.062c0.624-0.199,0.96-0.863,0.754-1.479L40.939,60.15z"/>
	<path fill="#B4B4B4" d="M29.126,59.345c-0.656,0-1.186,0.525-1.186,1.174v11.713c0,0.648,0.529,1.174,1.186,1.174
		c0.652,0,1.18-0.525,1.18-1.174V60.519C30.306,59.871,29.778,59.345,29.126,59.345z"/>
</g>
</svg>
