<?xml version="1.0" encoding="utf-8"?>
<!-- Generator: Adobe Illustrator 16.0.0, SVG Export Plug-In . SVG Version: 6.00 Build 0)  -->
<!DOCTYPE svg PUBLIC "-//W3C//DTD SVG 1.1//EN" "http://www.w3.org/Graphics/SVG/1.1/DTD/svg11.dtd">
<svg version="1.1" id="图层_1" xmlns="http://www.w3.org/2000/svg" xmlns:xlink="http://www.w3.org/1999/xlink" x="0px" y="0px"
	 width="110px" height="114.667px" viewBox="0 0 110 114.667" enable-background="new 0 0 110 114.667" xml:space="preserve">
<g>
	<g>
		<circle fill="#F7F7F7" stroke="#EEEEEF" stroke-miterlimit="10" cx="11.94" cy="54.876" r="88.8"/>
	</g>
</g>
<path fill="#B4B4B4" d="M78.256,24.491c-0.077-0.084-0.151-0.167-0.241-0.254c-4.406-4.32-10.331-6.699-16.687-6.699
	c-1.926,0-3.841,0.224-5.701,0.669l-2.977-2.919c-2.176-2.133-5.086-3.308-8.192-3.308c-2.89,0-5.654,1.039-7.78,2.925
	c-2.342,2.077-3.669,4.923-3.738,8.012c-0.057,2.559,0.77,4.984,2.33,6.979L8.383,48.124c-1.16-0.727-2.528-1.154-3.999-1.154
	c-4.139,0-7.505,3.335-7.505,7.435c0,4.101,3.366,7.435,7.505,7.435c0.415,0,0.818-0.044,1.215-0.106L31.71,86.509
	c-0.702,1.129-1.113,2.456-1.113,3.878c0,2.932,1.726,5.465,4.22,6.674H20.5c-1.41,0-2.55,1.262-2.55,2.814
	c0,1.555,1.14,2.813,2.55,2.813h35.203c1.407,0,2.55-1.259,2.55-2.813c0-1.553-1.143-2.814-2.55-2.814H41.385
	c2.494-1.209,4.221-3.742,4.221-6.674c0-4.1-3.368-7.435-7.504-7.435c-0.702,0-1.376,0.102-2.022,0.28L10.384,58.851
	c0.941-1.242,1.506-2.777,1.506-4.446c0-0.651-0.094-1.28-0.253-1.881l27.159-18.415c-2.014,7.426,0.125,15.436,5.795,20.993
	c0.081,0.08,0.166,0.154,0.277,0.247c0.472,0.439,1.055,0.659,1.639,0.659c0.565,0,1.13-0.207,1.598-0.621l30.018-26.633
	c0.584-0.516,0.937-1.278,0.96-2.101C79.105,25.83,78.804,25.043,78.256,24.491z M1.979,54.404c0-0.855,0.987-1.807,2.405-1.807
	s2.405,0.952,2.405,1.807c0,0.462-0.297,0.95-0.787,1.302c-0.461,0.023-0.911,0.187-1.304,0.479
	c-0.104,0.011-0.206,0.026-0.314,0.026C2.966,56.211,1.979,55.259,1.979,54.404z M40.507,90.385c0,0.854-0.989,1.808-2.405,1.808
	c-1.418,0-2.407-0.953-2.407-1.808s0.989-1.806,2.407-1.806C39.518,88.58,40.507,89.531,40.507,90.385z M46.659,49.447
	c-3.602-4.436-4.536-10.207-2.398-15.478c0.453-1.12,0.198-2.438-0.635-3.253l-3.975-3.896c-1.071-1.05-1.646-2.389-1.614-3.768
	c0.032-1.405,0.684-2.741,1.834-3.763c1.224-1.086,2.852-1.684,4.586-1.684c1.828,0,3.583,0.688,4.805,1.889l3.977,3.896
	c0.646,0.631,1.531,0.861,2.366,0.611c1.845-0.556,3.771-0.839,5.724-0.839c4.098,0,7.95,1.208,11.09,3.428L46.659,49.447z"/>
</svg>
