<?xml version="1.0" encoding="utf-8"?>
<!-- Generator: Adobe Illustrator 16.0.0, SVG Export Plug-In . SVG Version: 6.00 Build 0)  -->
<!DOCTYPE svg PUBLIC "-//W3C//DTD SVG 1.1//EN" "http://www.w3.org/Graphics/SVG/1.1/DTD/svg11.dtd">
<svg version="1.1" id="图层_1" xmlns="http://www.w3.org/2000/svg" xmlns:xlink="http://www.w3.org/1999/xlink" x="0px" y="0px"
	 width="110px" height="114.667px" viewBox="0 0 110 114.667" enable-background="new 0 0 110 114.667" xml:space="preserve">
<g>
	<g>
		<circle fill="#F7F7F7" stroke="#EEEEEF" stroke-miterlimit="10" cx="11.94" cy="54.876" r="88.8"/>
	</g>
</g>
<path fill="#B4B4B4" d="M62.448,40.458l-6.835-6.201c1.265-1.998,1.973-4.321,1.973-6.718c0-3.537-1.51-6.935-4.142-9.322
	c-2.447-2.219-5.662-3.441-9.053-3.441c-2.781,0-5.438,0.834-7.657,2.354l-7.804-7.081c-0.519-0.472-1.175-0.638-1.798-0.456
	c-0.623,0.182-1.155,0.694-1.459,1.405L11.141,45.019l-4.775,4.334c-1.6,1.452-2.518,3.553-2.517,5.765
	c0,2.212,0.917,4.312,2.516,5.761l0.133,0.12v36.417c0,1.554,0.997,2.814,2.227,2.814c1.229,0,2.226-1.261,2.226-2.814V64.481
	c0.949,0.409,1.981,0.633,3.042,0.633c1.91,0,3.733-0.7,5.132-1.97l4.868-4.419l37.753-13.27c0.826-0.29,1.446-1.153,1.596-2.219
	S63.145,41.089,62.448,40.458z M44.391,20.403c2.432,0,4.785,0.869,6.457,2.385c1.474,1.337,2.285,3.024,2.285,4.75
	c0,1.202-0.393,2.384-1.129,3.443l-11.017-9.995C42.057,20.606,43.216,20.403,44.391,20.403z M13.993,59.486
	c-0.972,0-1.896-0.333-2.535-0.912l-2.496-2.268c-0.418-0.379-0.659-0.813-0.659-1.19c-0.001-0.377,0.24-0.811,0.661-1.192
	l3.693-3.351L19,56.329l-2.472,2.244C15.889,59.152,14.965,59.486,13.993,59.486z M23.162,53.176l-7.528-6.829l12.756-29.86
	l6.943,6.298c0,0.001,0.001,0.003,0.003,0.004l15.512,14.072l0,0l5.23,4.745L23.162,53.176z"/>
</svg>
