<?xml version="1.0" encoding="utf-8"?>
<!-- Generator: Adobe Illustrator 16.0.0, SVG Export Plug-In . SVG Version: 6.00 Build 0)  -->
<!DOCTYPE svg PUBLIC "-//W3C//DTD SVG 1.1//EN" "http://www.w3.org/Graphics/SVG/1.1/DTD/svg11.dtd">
<svg version="1.1" id="图层_1" xmlns="http://www.w3.org/2000/svg" xmlns:xlink="http://www.w3.org/1999/xlink" x="0px" y="0px"
	 width="110px" height="114.667px" viewBox="0 0 110 114.667" enable-background="new 0 0 110 114.667" xml:space="preserve">
<g>
	<g>
		<circle fill="#F7F7F7" stroke="#C7C8C8" stroke-miterlimit="10" cx="11.939" cy="54.875" r="88.8"/>
	</g>
</g>
<linearGradient id="SVGID_1_" gradientUnits="userSpaceOnUse" x1="-8.3604" y1="56.3877" x2="65.3398" y2="56.3877" gradientTransform="matrix(1 0 0 -1 0.1401 113.7217)">
	<stop  offset="0" style="stop-color:#EEC02A"/>
	<stop  offset="1" style="stop-color:#D6372C"/>
</linearGradient>
<path fill="url(#SVGID_1_)" d="M65.48,17.452c0-1.457-1.024-2.638-2.286-2.638H-5.934c-1.263,0-2.286,1.181-2.286,2.638v2.992
	c0,0.025,0.005,0.047,0.006,0.071c0.002,0.115,0.015,0.229,0.03,0.341c0.006,0.049,0.009,0.098,0.017,0.146
	c0.028,0.147,0.067,0.292,0.117,0.433c0.02,0.057,0.046,0.108,0.069,0.163c0.037,0.088,0.076,0.174,0.121,0.257
	c0.03,0.055,0.063,0.106,0.098,0.158c0.048,0.075,0.099,0.147,0.154,0.217c0.039,0.047,0.077,0.094,0.119,0.138
	c0.059,0.063,0.122,0.121,0.188,0.178c0.046,0.041,0.091,0.082,0.14,0.117c0.016,0.011,0.028,0.025,0.044,0.037l30.122,21.091v4.823
	c0,1.165,0.658,2.142,1.564,2.491v0.48h-0.703c-1.263,0-2.286,1.181-2.286,2.638v42.991c0,1.458,1.023,2.639,2.286,2.639h9.532
	c1.263,0,2.287-1.181,2.287-2.639V54.224c0-1.457-1.023-2.638-2.287-2.638h-0.701v-0.48c0.907-0.35,1.564-1.327,1.564-2.491v-4.041
	l30.154-21.897c0.014-0.01,0.024-0.022,0.037-0.033c0.028-0.021,0.054-0.046,0.081-0.069c0.086-0.073,0.169-0.15,0.245-0.235
	c0.026-0.03,0.052-0.062,0.077-0.092c0.072-0.087,0.137-0.178,0.197-0.274c0.021-0.035,0.043-0.07,0.063-0.107
	c0.059-0.106,0.11-0.216,0.155-0.329c0.012-0.032,0.026-0.062,0.038-0.094c0.109-0.306,0.165-0.633,0.17-0.968
	c0-0.011,0.003-0.021,0.003-0.032V17.452L65.48,17.452z M29.687,45.977h-2.112v-0.584h2.112V45.977z M26.344,23.083V39.96
	L2.241,23.083H26.344z M31.109,94.577h-4.959V56.862h4.959V94.577z M31.812,40.117h-0.896V23.083h24.354L31.812,40.117z"/>
</svg>
