<?xml version="1.0" encoding="utf-8"?>
<!-- Generator: Adobe Illustrator 16.0.0, SVG Export Plug-In . SVG Version: 6.00 Build 0)  -->
<!DOCTYPE svg PUBLIC "-//W3C//DTD SVG 1.1//EN" "http://www.w3.org/Graphics/SVG/1.1/DTD/svg11.dtd">
<svg version="1.1" id="图层_1" xmlns="http://www.w3.org/2000/svg" xmlns:xlink="http://www.w3.org/1999/xlink" x="0px" y="0px"
	 width="110px" height="114.667px" viewBox="0 0 110 114.667" enable-background="new 0 0 110 114.667" xml:space="preserve">
<g>
	<g>
		<circle fill="#F7F7F7" stroke="#EEEEEF" stroke-miterlimit="10" cx="11.94" cy="54.876" r="88.8"/>
	</g>
</g>
<g>
	<path fill="none" d="M46.391,101.802h-0.002H46.391z"/>
</g>
<path fill="#B4B4B4" d="M80.451,53.931c-0.513-0.68-1.291-1.704-10.403-1.501c-0.191,0.006-0.38,0.038-0.561,0.095l-19.774,6.27
	c-0.345-3.609-4.471-6.441-10.309-7.312c-0.411-0.887-1.124-1.612-2.014-2.049V38.257c3.947-0.799,7.004-3.98,7.423-8.026
	c0.082-0.789-0.355-1.544-1.094-1.887c-2.594-1.204-5.378-1.815-8.273-1.815c-2.896,0-5.679,0.611-8.272,1.815
	C26.436,28.688,26,29.442,26.08,30.23c0.417,4.046,3.474,7.228,7.421,8.027v11.18c-0.901,0.442-1.624,1.176-2.031,2.076
	c-5.261,0.838-9.086,3.28-9.936,6.439l-23.783-5.549c-0.43-0.1-0.885-0.055-1.284,0.129c-0.55,0.25-5.384,2.569-6.089,6.611
	c-0.715,4.072,3.823,8.301,4.343,8.77c0.355,0.314,0.821,0.497,1.306,0.503l26.28,0.235c0.504,0.611,1.255,1.23,2.345,1.801
	c1.516,1.896,3.521,3.358,5.803,4.222l1.378,5.171c0.154,0.585,0.589,1.059,1.168,1.278c0.463,0.178,4.593,1.737,7.039,2.001
	c0.699,0.072,1.569,0.1,2.458,0.1c2.168,0,4.441-0.156,4.575-0.169c0.632-0.043,1.202-0.381,1.527-0.908
	c0.326-0.526,0.365-1.175,0.107-1.735l-3.885-8.433c0.46-0.419,0.894-0.874,1.292-1.357c1.824-0.889,2.78-1.901,3.244-2.844
	c0.245-0.313,0.396-0.702,0.396-1.129V65.98l28.791-6c0.509-0.108,0.952-0.408,1.231-0.833C80.42,58.167,81.776,55.69,80.451,53.931
	z M21.341,64.873l-24.487-0.221c-1.369-1.398-2.876-3.556-2.644-4.884c0.262-1.502,2.194-2.877,3.35-3.535l23.78,5.545V64.873z
	 M30.257,31.171c3.31-1.163,7.067-1.164,10.379,0.001c-0.778,2.075-2.816,3.519-5.19,3.519
	C33.071,34.691,31.035,33.247,30.257,31.171z M27.193,67.418c1.842-0.774,4.782-1.376,8.355-1.376c3.47,0,6.341,0.57,8.193,1.31
	c-0.633,0.988-1.432,1.836-2.358,2.524c-0.051,0.031-0.098,0.065-0.146,0.104c-1.641,1.172-3.651,1.84-5.792,1.84
	C32.06,71.821,28.973,70.135,27.193,67.418z M40.463,79.378c-1.303-0.141-3.65-0.902-5.118-1.424l-0.638-2.393
	c0.246,0.011,0.492,0.024,0.74,0.024c2.185,0,4.271-0.501,6.133-1.405l2.419,5.252C42.726,79.467,41.354,79.472,40.463,79.378z
	 M45.866,60.021l-2.048,0.646c-2.145-0.664-4.879-1.075-8.271-1.075c-4.59,0-7.989,0.749-10.32,1.869v-2.176
	c0-1.568,2.978-3.682,7.966-4.2c0.022-0.002,0.045-0.002,0.067-0.005c0.292-0.032,0.594-0.052,0.897-0.071
	c0.061-0.004,0.118-0.01,0.178-0.013c0.125-0.006,0.255-0.006,0.382-0.013c0.254-0.008,0.508-0.018,0.77-0.019
	c0.222,0,0.447,0.006,0.672,0.015c0.131,0.001,0.265,0.001,0.394,0.009c0.363,0.016,0.728,0.041,1.092,0.079
	c0.055,0.004,0.11,0.007,0.166,0.008c5.042,0.503,8.053,2.631,8.053,4.211L45.866,60.021L45.866,60.021z M76.853,56.48
	l-21.417,4.461l14.987-4.75c2.325-0.044,5.013,0.029,6.47,0.202C76.879,56.424,76.865,56.448,76.853,56.48z"/>
</svg>
