<?xml version="1.0" encoding="utf-8"?>
<!-- Generator: Adobe Illustrator 16.0.0, SVG Export Plug-In . SVG Version: 6.00 Build 0)  -->
<!DOCTYPE svg PUBLIC "-//W3C//DTD SVG 1.1//EN" "http://www.w3.org/Graphics/SVG/1.1/DTD/svg11.dtd">
<svg version="1.1" id="图层_1" xmlns="http://www.w3.org/2000/svg" xmlns:xlink="http://www.w3.org/1999/xlink" x="0px" y="0px"
	 width="110px" height="114.667px" viewBox="0 0 110 114.667" enable-background="new 0 0 110 114.667" xml:space="preserve">
<g>
	<g>
		<circle fill="#F7F7F7" stroke="#C7C8C8" stroke-miterlimit="10" cx="11.939" cy="54.875" r="88.8"/>
	</g>
</g>
<linearGradient id="SVGID_1_" gradientUnits="userSpaceOnUse" x1="14.2964" y1="58.8462" x2="59.6504" y2="58.8462" gradientTransform="matrix(1 0 0 -1 0.1401 113.7217)">
	<stop  offset="0" style="stop-color:#EEC02A"/>
	<stop  offset="1" style="stop-color:#D6372C"/>
</linearGradient>
<path fill="url(#SVGID_1_)" d="M58.824,48.009L45.162,36.692c-0.171-0.142-0.354-0.215-0.538-0.215h-1.262v-2.716
	c0-0.036-0.006-0.07-0.006-0.105c-0.003-0.172-0.011-0.34-0.029-0.504c-0.008-0.071-0.021-0.138-0.032-0.208
	c-0.02-0.127-0.04-0.25-0.067-0.369c-0.017-0.073-0.037-0.139-0.057-0.209c-0.031-0.107-0.064-0.21-0.102-0.309
	c-0.024-0.064-0.049-0.125-0.077-0.185c-0.045-0.099-0.094-0.187-0.145-0.272c-0.02-0.033-0.035-0.074-0.057-0.105l-3.751-5.531
	c-0.185-0.272-0.4-0.448-0.626-0.516V12.335c0-1.554-0.629-2.814-1.407-2.814c-0.777,0-1.406,1.26-1.406,2.814v13.212
	c-0.149,0.093-0.291,0.231-0.418,0.418l-3.75,5.531c-0.02,0.028-0.033,0.065-0.051,0.096c-0.054,0.089-0.106,0.182-0.153,0.287
	c-0.025,0.055-0.048,0.112-0.07,0.171c-0.041,0.105-0.076,0.215-0.109,0.332c-0.018,0.061-0.036,0.122-0.051,0.186
	c-0.03,0.131-0.054,0.267-0.074,0.408c-0.008,0.058-0.02,0.111-0.026,0.169c-0.022,0.2-0.037,0.406-0.037,0.619v2.716h-1.263
	c-0.185,0-0.368,0.072-0.538,0.215l-13.752,11.39c-0.621,0.514-0.973,1.832-0.842,3.148s0.708,2.265,1.379,2.265h5.208l5.71,26.575
	c-0.006,0.106-0.016,0.211-0.016,0.32v3.321c0,1.554,0.629,2.814,1.406,2.814h0c3.467,0,6.171,2.529,6.847,5.174
	c-0.695,0.87-1.124,2.183-1.124,3.707c0,2.749,1.391,4.82,3.235,4.82c1.844,0,3.233-2.071,3.233-4.82
	c0-1.635-0.495-3.026-1.282-3.889c0.751-2.574,3.407-4.991,6.793-4.991c0.776,0,1.407-1.26,1.407-2.813
	c0-0.007-0.001-0.014-0.001-0.02v-3.115l5.461-27.086h5.653c0.003,0,0.007-0.001,0.01,0c0.776,0,1.406-1.259,1.406-2.814
	C59.791,49.434,59.386,48.377,58.824,48.009z M29.875,42.105h2.391h9.689h2.39l6.957,5.763H22.917L29.875,42.105z M35.468,77.58
	l-1.597-24.083h6.477L38.751,77.58H35.468z M31.033,53.495l1.597,24.084h-3.341l-5.175-24.084H31.033z M37.51,86.529
	c-0.185,0.365-0.353,0.743-0.505,1.134c-0.152-0.391-0.32-0.769-0.504-1.134H37.51z M44.833,77.58h-3.244l1.597-24.083h6.502
	L44.833,77.58z"/>
</svg>
