<?xml version="1.0" encoding="utf-8"?>
<!-- Generator: Adobe Illustrator 16.0.0, SVG Export Plug-In . SVG Version: 6.00 Build 0)  -->
<!DOCTYPE svg PUBLIC "-//W3C//DTD SVG 1.1//EN" "http://www.w3.org/Graphics/SVG/1.1/DTD/svg11.dtd">
<svg version="1.1" id="图层_1" xmlns="http://www.w3.org/2000/svg" xmlns:xlink="http://www.w3.org/1999/xlink" x="0px" y="0px"
	 width="110px" height="114.667px" viewBox="0 0 110 114.667" enable-background="new 0 0 110 114.667" xml:space="preserve">
<g>
	<g>
		<circle fill="#F7F7F7" stroke="#EEEEEF" stroke-miterlimit="10" cx="11.94" cy="54.876" r="88.8"/>
	</g>
</g>
<path fill="#B4B4B4" d="M56.391,46.041v-1.41c0-4.033-2.639-7.494-6.381-8.941c-1.83-3.452-6.899-10.579-17.594-10.579
	c-8.827,0-19.584,8.364-26.923,16.922c-0.179-3.31-3.071-5.958-6.63-5.958h-1.114c-3.674,0-6.663,2.813-6.663,6.271V69.04
	c0,3.458,2.989,6.271,6.663,6.271h1.114c3.673,0,6.662-2.813,6.662-6.271V56.372c1.579-3.901,6.13-9.809,11.315-14.637
	c5.9-5.493,11.867-8.906,15.576-8.906c3.998,0,6.66,1.786,8.331,3.581c-2.933,1.704-4.897,4.747-4.897,8.221v1.411
	c-6.685,3.437-11.231,10.116-11.231,17.776v2.936c0,2.131,1.836,3.859,4.1,3.859h3.582c2.451,4.983,7.811,8.357,13.819,8.357
	c6.009,0,11.372-3.376,13.817-8.357h3.585c2.264,0,4.099-1.729,4.099-3.859v-2.936C67.622,56.157,63.075,49.478,56.391,46.041z
	 M44.325,43.662c0.358-0.584,1.028-0.978,1.795-0.978c0.757,0,1.419,0.384,1.78,0.955c-0.58-0.042-1.159-0.061-1.74-0.058
	c-0.013,0-0.025-0.002-0.04-0.002c-0.004,0-0.005,0-0.007,0C45.517,43.583,44.918,43.61,44.325,43.662z M40.944,52.293
	c0.167-0.04,0.334-0.074,0.497-0.134c1.64-0.602,3.357-0.878,5.077-0.844c6.822,0.19,12.374,5.229,12.867,11.578h-2.368H35.224
	h-2.371C33.226,58.118,36.462,54.083,40.944,52.293z M43.124,70.613h5.993C47.285,71.433,44.957,71.434,43.124,70.613z"/>
</svg>
