<?xml version="1.0" encoding="utf-8"?>
<!-- Generator: Adobe Illustrator 16.0.0, SVG Export Plug-In . SVG Version: 6.00 Build 0)  -->
<!DOCTYPE svg PUBLIC "-//W3C//DTD SVG 1.1//EN" "http://www.w3.org/Graphics/SVG/1.1/DTD/svg11.dtd">
<svg version="1.1" id="图层_1" xmlns="http://www.w3.org/2000/svg" xmlns:xlink="http://www.w3.org/1999/xlink" x="0px" y="0px"
	 width="110px" height="114.667px" viewBox="0 0 110 114.667" enable-background="new 0 0 110 114.667" xml:space="preserve">
<g>
	<g>
		<circle fill="#F7F7F7" stroke="#EEEEEF" stroke-miterlimit="10" cx="11.94" cy="54.876" r="88.8"/>
	</g>
</g>
<path fill="#B4B4B4" d="M57.254,23.995l-9.439-7.215c-0.161-0.123-0.331-0.186-0.502-0.186h-0.442V15.87c0-0.001,0-0.003,0-0.004
	c0-0.216-0.015-0.425-0.039-0.628c-0.007-0.061-0.019-0.118-0.028-0.178c-0.021-0.143-0.047-0.28-0.079-0.412
	c-0.016-0.065-0.033-0.127-0.051-0.19c-0.036-0.122-0.076-0.236-0.12-0.346c-0.022-0.054-0.042-0.11-0.067-0.161
	c-0.064-0.138-0.135-0.263-0.212-0.374c-0.007-0.01-0.012-0.024-0.019-0.033l-2.598-3.534c-0.233-0.317-0.509-0.488-0.792-0.488
	h-1.517c-0.282,0-0.558,0.169-0.792,0.488l-2.598,3.534c-0.007,0.009-0.012,0.023-0.019,0.033c-0.078,0.11-0.148,0.236-0.213,0.374
	c-0.024,0.052-0.044,0.107-0.066,0.161c-0.045,0.109-0.084,0.224-0.121,0.346c-0.018,0.063-0.036,0.125-0.051,0.19
	c-0.032,0.133-0.057,0.271-0.079,0.412c-0.009,0.06-0.02,0.117-0.028,0.178c-0.023,0.203-0.039,0.412-0.039,0.628
	c0,0.001,0,0.003,0,0.004v0.723h-0.441c-0.172,0-0.342,0.062-0.502,0.186l-9.527,7.283c-0.634,0.485-1.004,1.805-0.881,3.139
	c0.124,1.335,0.705,2.304,1.383,2.304h1.553l1.758,10.136h-6.053c-0.593-1.89-1.534-3.596-2.789-5.035V13.6
	c0-1.554-0.63-2.814-1.407-2.814h-6.131c-0.777,0-1.407,1.26-1.407,2.814v83.816c0,1.553,0.63,2.813,1.407,2.813h6.131
	c0.777,0,1.407-1.261,1.407-2.813V54.57c1.194-1.368,2.105-2.977,2.702-4.757h7.904l0.457,2.632v3.063
	c0,0.18,0.01,0.355,0.027,0.527c0.005,0.058,0.015,0.112,0.022,0.169c0.015,0.111,0.03,0.221,0.051,0.328
	c0.012,0.062,0.027,0.12,0.04,0.179c0.023,0.097,0.048,0.189,0.076,0.279c0.018,0.056,0.035,0.109,0.055,0.161
	c0.032,0.089,0.067,0.172,0.104,0.252c0.021,0.044,0.04,0.089,0.062,0.131c0.043,0.083,0.09,0.157,0.139,0.229
	c0.02,0.03,0.038,0.062,0.059,0.09c0.067,0.089,0.138,0.168,0.213,0.232c0.004,0.003,0.008,0.01,0.012,0.013
	c0.075,0.063,0.153,0.115,0.234,0.151l7.766,3.536c0.103,0.047,0.207,0.069,0.312,0.069c0.105,0,0.209-0.022,0.312-0.069
	l7.768-3.536c0.082-0.037,0.16-0.088,0.235-0.151c0.004-0.003,0.008-0.01,0.011-0.013c0.076-0.065,0.146-0.144,0.215-0.233
	c0.02-0.027,0.038-0.06,0.059-0.089c0.049-0.072,0.096-0.146,0.14-0.229c0.021-0.042,0.041-0.087,0.062-0.131
	c0.037-0.081,0.071-0.163,0.104-0.252c0.02-0.052,0.037-0.105,0.055-0.161c0.027-0.09,0.053-0.184,0.076-0.279
	c0.013-0.059,0.028-0.117,0.04-0.179c0.021-0.107,0.036-0.217,0.051-0.329c0.008-0.056,0.017-0.111,0.021-0.168
	c0.017-0.172,0.027-0.348,0.027-0.527v-3.09l3.729-22.916h1.855c0.004,0,0.008,0.001,0.009,0c0.777,0,1.407-1.259,1.407-2.814
	C58.256,25.417,57.834,24.343,57.254,23.995z M37.163,22.221h1.589h6.712h1.589l2.166,1.655H34.997L37.163,22.221z M41.369,49.159
	l-1.052-19.656h3.582l-1.053,19.656H41.369z M37.487,29.503l1.052,19.656h-3.224l-1.323-7.625c-0.012-0.069-0.021-0.141-0.036-0.208
	l-2.05-11.822H37.487z M15.714,94.602V16.414h3.318v19.86c0,0.007-0.001,0.014-0.001,0.021v16.583c0,0.007,0.001,0.014,0.001,0.021
	v41.702H15.714L15.714,94.602z M21.845,47.565v-5.956c0.463,0.982,0.715,2.003,0.715,2.977
	C22.561,45.562,22.308,46.583,21.845,47.565z M48.826,49.159h-3.151l1.052-19.656h5.297L48.826,49.159z"/>
</svg>
