<?xml version="1.0" encoding="utf-8"?>
<!-- Generator: Adobe Illustrator 16.0.0, SVG Export Plug-In . SVG Version: 6.00 Build 0)  -->
<!DOCTYPE svg PUBLIC "-//W3C//DTD SVG 1.1//EN" "http://www.w3.org/Graphics/SVG/1.1/DTD/svg11.dtd">
<svg version="1.1" id="图层_1" xmlns="http://www.w3.org/2000/svg" xmlns:xlink="http://www.w3.org/1999/xlink" x="0px" y="0px"
	 width="110px" height="114.667px" viewBox="0 0 110 114.667" enable-background="new 0 0 110 114.667" xml:space="preserve">
<g>
	<g>
		<circle fill="#F7F7F7" stroke="#EEEEEF" stroke-miterlimit="10" cx="11.94" cy="54.876" r="88.8"/>
	</g>
</g>
<path fill="#B4B4B4" d="M69.423,74.013l-20.927-39.61c-0.412-0.778-1.219-1.266-2.099-1.266H33.804V18.983
	c0-1.311-1.063-2.375-2.375-2.375s-2.374,1.063-2.374,2.375v14.155H16.462c-0.88,0-1.688,0.487-2.1,1.266l-20.925,39.61
	c-0.388,0.737-0.363,1.618,0.066,2.33c0.43,0.713,1.201,1.152,2.033,1.152h17.877c1.521,8.938,9.05,15.647,18.017,15.647
	s16.495-6.71,18.016-15.647h17.878c0.833,0,1.604-0.439,2.034-1.152C69.788,75.631,69.812,74.75,69.423,74.013z M31.43,88.394
	c-6.362,0-11.752-4.618-13.182-10.897h26.363C43.182,83.776,37.792,88.394,31.43,88.394z M-0.524,72.749l18.417-34.861h27.074
	l18.419,34.861H-0.524z"/>
</svg>
