<?xml version="1.0" encoding="utf-8"?>
<!-- Generator: Adobe Illustrator 16.0.0, SVG Export Plug-In . SVG Version: 6.00 Build 0)  -->
<!DOCTYPE svg PUBLIC "-//W3C//DTD SVG 1.1//EN" "http://www.w3.org/Graphics/SVG/1.1/DTD/svg11.dtd">
<svg version="1.1" id="图层_1" xmlns="http://www.w3.org/2000/svg" xmlns:xlink="http://www.w3.org/1999/xlink" x="0px" y="0px"
	 width="110px" height="114.667px" viewBox="0 0 110 114.667" enable-background="new 0 0 110 114.667" xml:space="preserve">
<g>
	<g>
		<circle fill="#F7F7F7" stroke="#EEEEEF" stroke-miterlimit="10" cx="11.94" cy="54.876" r="88.8"/>
	</g>
</g>
<g>
	<path fill="#B4B4B4" d="M-5.521,48.585c-0.812-0.076-1.554,0.562-1.628,1.431l-0.708,8.284c-0.074,0.867,0.535,1.635,1.36,1.713
		c0.045,0.004,0.091,0.006,0.136,0.006c0.768,0,1.422-0.616,1.492-1.436l0.708-8.284C-4.087,49.431-4.696,48.663-5.521,48.585z"/>
	<path fill="#B4B4B4" d="M-4.813,40.303c-0.812-0.07-1.554,0.562-1.628,1.431l-0.318,3.725c-0.074,0.868,0.535,1.635,1.36,1.713
		c0.045,0.004,0.091,0.006,0.136,0.006c0.768,0,1.422-0.617,1.492-1.437l0.318-3.725C-3.379,41.148-3.988,40.381-4.813,40.303z"/>
	<path fill="#B4B4B4" d="M75.119,62.749l-3.186-24.894c-0.102-0.783-0.736-1.368-1.486-1.368H51.956
		c-0.75,0-1.386,0.584-1.486,1.368l-3.184,24.894c-0.059,0.452,0.072,0.906,0.357,1.249c0.285,0.345,0.696,0.541,1.129,0.541h8.499
		v5.331c0,0.757,0.508,1.389,1.184,1.541c-1.52,2.135-3.765,3.436-6.161,3.436c-3.266,0-6.197-2.334-7.49-6.006l-0.221-0.56
		c-1.568-4.014-4.541-6.509-7.76-6.509c-1.529,0-2.984,0.56-4.271,1.566v-1.449h0.994c0.829,0,1.5-0.705,1.5-1.578V54.98h8.498
		c0.433,0,0.844-0.197,1.129-0.54s0.416-0.798,0.357-1.25l-3.184-24.894c-0.101-0.783-0.736-1.367-1.486-1.367H21.868
		c-0.751,0-1.386,0.584-1.487,1.367L17.196,53.19c-0.058,0.451,0.073,0.907,0.357,1.25c0.285,0.343,0.697,0.54,1.129,0.54h8.498
		v5.331c0,0.873,0.671,1.578,1.5,1.578h0.871v1.449c-1.287-1.007-2.741-1.566-4.271-1.566c-3.221,0-6.194,2.495-7.757,6.5
		l-0.247,0.626c-1.27,3.614-4.201,5.948-7.466,5.948c-2.392,0-4.633-1.293-6.154-3.42c0.733-0.104,1.3-0.757,1.3-1.557v-5.331h8.499
		c0.433,0,0.844-0.196,1.129-0.541C14.87,63.655,15,63.2,14.942,62.749l-3.185-24.894c-0.101-0.783-0.736-1.368-1.487-1.368H-8.221
		c-0.751,0-1.386,0.584-1.487,1.368l-3.186,24.894c-0.058,0.451,0.073,0.906,0.357,1.249c0.285,0.345,0.697,0.541,1.129,0.541h8.5
		v5.331c0,0.871,0.671,1.578,1.5,1.578H0.14c1.952,4.014,5.65,6.555,9.671,6.555c4.535,0,8.569-3.144,10.256-7.949l0.228-0.573
		c1.095-2.807,3.005-4.551,4.985-4.551c1.118,0,2.204,0.551,3.144,1.544c-2.715,1.087-4.643,3.765-4.643,6.896
		c0,4.09,3.288,7.419,7.33,7.419c4.044,0,7.333-3.329,7.333-7.419c0-3.166-1.973-5.866-4.736-6.931
		c0.934-0.97,2.008-1.509,3.113-1.509c1.979,0,3.889,1.744,4.987,4.557l0.201,0.507c1.712,4.866,5.748,8.01,10.282,8.01
		c4.02,0,7.717-2.541,9.668-6.555h1.674c0.829,0,1.499-0.707,1.499-1.578v-5.331h8.498c0.432,0,0.844-0.196,1.129-0.541
		C75.047,63.655,75.178,63.2,75.119,62.749z M1.957,68.292H0.093v-3.753h1.864V68.292z M3.457,61.378h-4.864
		c-0.007,0-0.013,0.003-0.02,0.003h-8.265l2.782-21.738H8.959l2.781,21.738H3.477C3.47,61.381,3.464,61.378,3.457,61.378z
		 M28.68,51.822c-0.003,0-0.006,0.001-0.01,0.001h-8.272l2.782-21.738h15.868l2.781,21.738h-8.273c-0.003,0-0.006-0.001-0.01-0.001
		H28.68z M32.045,54.98v3.753H30.18V54.98H32.045z M35.446,73.369c0,2.35-1.943,4.263-4.333,4.263c-2.388,0-4.33-1.913-4.33-4.263
		c0-2.272,1.82-4.118,4.098-4.241c0.008,0.002,0.016,0.002,0.024,0.002c0.057,0.007,0.114,0.005,0.171,0.003
		c0.039,0,0.077,0.002,0.115-0.001c0.024-0.004,0.047-0.008,0.071-0.012C33.581,69.2,35.446,71.068,35.446,73.369z M62.136,68.292
		h-1.865v-3.753h1.865V68.292z M63.655,61.381c-0.006,0-0.012-0.003-0.02-0.003h-4.865c-0.007,0-0.013,0.003-0.02,0.003h-8.264
		l2.781-21.738h15.867l2.783,21.738H63.655z"/>
	<path fill="#B4B4B4" d="M54.657,48.585c-0.82-0.076-1.555,0.562-1.629,1.431l-0.707,8.284c-0.074,0.868,0.534,1.635,1.359,1.713
		c0.046,0.004,0.091,0.006,0.137,0.006c0.768,0,1.422-0.616,1.492-1.436l0.708-8.284C56.091,49.43,55.481,48.663,54.657,48.585z"/>
	<path fill="#B4B4B4" d="M55.364,40.303c-0.836-0.081-1.555,0.562-1.629,1.431l-0.317,3.725c-0.073,0.868,0.534,1.635,1.36,1.713
		c0.045,0.004,0.091,0.006,0.136,0.006c0.768,0,1.422-0.617,1.493-1.437l0.317-3.725C56.798,41.148,56.189,40.381,55.364,40.303z"/>
	<path fill="#B4B4B4" d="M24.567,39.029c-0.812-0.076-1.554,0.562-1.628,1.431l-0.708,8.281c-0.074,0.868,0.535,1.635,1.36,1.713
		c0.045,0.004,0.091,0.006,0.136,0.006c0.768,0,1.422-0.617,1.492-1.437l0.708-8.281C26.001,39.875,25.393,39.107,24.567,39.029z"/>
	<path fill="#B4B4B4" d="M25.275,30.746c-0.835-0.075-1.554,0.562-1.628,1.431l-0.318,3.725c-0.074,0.868,0.535,1.635,1.36,1.713
		c0.046,0.004,0.091,0.006,0.136,0.006c0.768,0,1.422-0.617,1.492-1.437l0.318-3.725C26.708,31.59,26.1,30.824,25.275,30.746z"/>
	<path fill="#B4B4B4" d="M27.364,73.369c0,2.111,1.682,3.829,3.75,3.829c2.066,0,3.748-1.718,3.748-3.829
		c0-2.112-1.682-3.83-3.748-3.83C29.046,69.539,27.364,71.256,27.364,73.369z M31.862,73.369c0,0.37-0.336,0.673-0.748,0.673
		c-0.414,0-0.75-0.303-0.75-0.673c0-0.371,0.336-0.674,0.75-0.674C31.526,72.695,31.862,72.998,31.862,73.369z"/>
</g>
</svg>
