<?xml version="1.0" encoding="utf-8"?>
<!-- Generator: Adobe Illustrator 16.0.0, SVG Export Plug-In . SVG Version: 6.00 Build 0)  -->
<!DOCTYPE svg PUBLIC "-//W3C//DTD SVG 1.1//EN" "http://www.w3.org/Graphics/SVG/1.1/DTD/svg11.dtd">
<svg version="1.1" id="图层_1" xmlns="http://www.w3.org/2000/svg" xmlns:xlink="http://www.w3.org/1999/xlink" x="0px" y="0px"
	 width="110px" height="114.667px" viewBox="0 0 110 114.667" enable-background="new 0 0 110 114.667" xml:space="preserve">
<g>
	<g>
		<circle fill="#F7F7F7" stroke="#EEEEEF" stroke-miterlimit="10" cx="11.94" cy="54.876" r="88.8"/>
	</g>
</g>
<g>
	<path fill="none" stroke="#B4B4B4" stroke-width="6" stroke-linecap="round" stroke-linejoin="round" stroke-miterlimit="10" d="
		M63.301,97.396H-11.34c-2.872,0-5.199-2.325-5.199-5.197V17.555c0-2.871,2.327-5.199,5.199-5.199h74.641
		c2.873,0,5.199,2.328,5.199,5.199v74.644C68.5,95.071,66.174,97.396,63.301,97.396z"/>
	<path fill="none" stroke="#B4B4B4" stroke-width="6" stroke-miterlimit="10" d="M34.244,64.916H17.717
		c-0.981,0-1.774-0.799-1.774-1.777V46.611c0-0.979,0.793-1.771,1.774-1.771h16.526c0.981,0,1.774,0.792,1.774,1.771v16.526
		C36.018,64.117,35.225,64.916,34.244,64.916"/>
	<path fill="none" stroke="#B4B4B4" stroke-width="6" stroke-linecap="round" stroke-linejoin="round" stroke-miterlimit="10" d="
		M34.244,64.916H17.717c-0.981,0-1.774-0.799-1.774-1.777V46.611c0-0.979,0.793-1.771,1.774-1.771h16.526
		c0.981,0,1.774,0.792,1.774,1.771v16.526C36.018,64.117,35.225,64.916,34.244,64.916z"/>
</g>
</svg>
