<?xml version="1.0" encoding="utf-8"?>
<!-- Generator: Adobe Illustrator 16.0.0, SVG Export Plug-In . SVG Version: 6.00 Build 0)  -->
<!DOCTYPE svg PUBLIC "-//W3C//DTD SVG 1.1//EN" "http://www.w3.org/Graphics/SVG/1.1/DTD/svg11.dtd">
<svg version="1.1" id="图层_1" xmlns="http://www.w3.org/2000/svg" xmlns:xlink="http://www.w3.org/1999/xlink" x="0px" y="0px"
	 width="110px" height="114.667px" viewBox="0 0 110 114.667" enable-background="new 0 0 110 114.667" xml:space="preserve">
<g>
	<g>
		<circle fill="#F7F7F7" stroke="#C7C8C8" stroke-miterlimit="10" cx="11.939" cy="54.875" r="88.8"/>
	</g>
</g>
<linearGradient id="SVGID_1_" gradientUnits="userSpaceOnUse" x1="-9.8374" y1="58.8462" x2="80.8721" y2="58.8462" gradientTransform="matrix(1 0 0 -1 0.1401 113.7217)">
	<stop  offset="0" style="stop-color:#EEC02A"/>
	<stop  offset="1" style="stop-color:#D6372C"/>
</linearGradient>
<path fill="url(#SVGID_1_)" d="M80.454,53.931c-0.517-0.681-1.294-1.705-10.406-1.502c-0.188,0.006-0.377,0.039-0.562,0.095
	l-19.773,6.271c-0.344-3.609-4.469-6.442-10.312-7.312c-0.407-0.887-1.123-1.611-2.013-2.049V38.257
	c3.95-0.798,7.006-3.98,7.424-8.026c0.083-0.789-0.354-1.543-1.094-1.887c-2.595-1.204-5.379-1.815-8.271-1.815
	c-2.896,0-5.68,0.611-8.273,1.815c-0.739,0.343-1.175,1.098-1.094,1.886c0.415,4.047,3.476,7.229,7.421,8.027v11.18
	c-0.898,0.442-1.623,1.176-2.031,2.075c-5.259,0.839-9.086,3.281-9.935,6.44l-23.783-5.55c-0.43-0.1-0.883-0.054-1.286,0.128
	c-0.55,0.25-5.381,2.569-6.086,6.612c-0.714,4.072,3.82,8.301,4.343,8.77c0.353,0.314,0.818,0.496,1.303,0.503l26.28,0.236
	c0.505,0.61,1.256,1.229,2.344,1.8c1.516,1.896,3.523,3.358,5.807,4.222l1.38,5.171c0.154,0.586,0.587,1.059,1.166,1.278
	c0.46,0.178,4.592,1.736,7.038,2.002c0.701,0.07,1.569,0.099,2.457,0.099c2.168,0,4.443-0.156,4.575-0.169
	c0.635-0.043,1.203-0.38,1.531-0.907c0.325-0.527,0.36-1.176,0.106-1.736l-3.888-8.433c0.462-0.419,0.893-0.874,1.296-1.356
	c1.822-0.89,2.779-1.902,3.241-2.846c0.244-0.312,0.397-0.702,0.397-1.129v-0.667l28.792-5.998c0.5-0.109,0.947-0.409,1.226-0.835
	C80.423,58.166,81.772,55.69,80.454,53.931z M21.338,64.873l-24.485-0.222c-1.368-1.398-2.875-3.555-2.641-4.883
	c0.261-1.503,2.19-2.878,3.346-3.537l23.78,5.548V64.873z M30.258,31.171c3.31-1.163,7.063-1.164,10.375,0
	c-0.778,2.075-2.812,3.52-5.188,3.52C33.071,34.691,31.035,33.247,30.258,31.171z M27.195,67.418
	c1.841-0.774,4.782-1.376,8.353-1.376c3.471,0,6.34,0.57,8.195,1.31c-0.636,0.989-1.437,1.836-2.359,2.525
	c-0.052,0.029-0.099,0.064-0.147,0.104c-1.641,1.172-3.65,1.84-5.791,1.84C32.057,71.821,28.973,70.135,27.195,67.418z
	 M40.462,79.377c-1.302-0.14-3.651-0.901-5.118-1.423l-0.637-2.393c0.243,0.01,0.489,0.024,0.739,0.024
	c2.186,0,4.27-0.502,6.133-1.406l2.418,5.253C42.728,79.467,41.353,79.472,40.462,79.377z M45.868,60.021l-2.049,0.646
	c-2.147-0.665-4.881-1.075-8.273-1.075c-4.587,0-7.991,0.748-10.319,1.869v-2.176c0-1.568,2.978-3.682,7.969-4.2
	c0.018-0.003,0.044-0.002,0.062-0.006c0.297-0.032,0.594-0.052,0.9-0.071c0.061-0.003,0.115-0.01,0.178-0.013
	c0.125-0.007,0.253-0.007,0.381-0.013c0.257-0.008,0.51-0.018,0.773-0.019c0.221,0,0.444,0.006,0.672,0.015
	c0.128,0,0.265,0.001,0.394,0.01c0.359,0.016,0.726,0.04,1.094,0.078c0.051,0.004,0.109,0.007,0.162,0.008
	c5.041,0.503,8.056,2.63,8.056,4.211L45.868,60.021L45.868,60.021z M76.854,56.48l-21.422,4.462l14.99-4.753
	c2.319-0.041,5.007,0.031,6.469,0.205C76.878,56.423,76.86,56.452,76.854,56.48z"/>
</svg>
