<?xml version="1.0" encoding="utf-8"?>
<!-- Generator: Adobe Illustrator 16.0.0, SVG Export Plug-In . SVG Version: 6.00 Build 0)  -->
<!DOCTYPE svg PUBLIC "-//W3C//DTD SVG 1.1//EN" "http://www.w3.org/Graphics/SVG/1.1/DTD/svg11.dtd">
<svg version="1.1" id="图层_1" xmlns="http://www.w3.org/2000/svg" xmlns:xlink="http://www.w3.org/1999/xlink" x="0px" y="0px"
	 width="110px" height="114.667px" viewBox="0 0 110 114.667" enable-background="new 0 0 110 114.667" xml:space="preserve">
<g>
	<g>
		<circle fill="#F7F7F7" stroke="#EEEEEF" stroke-miterlimit="10" cx="11.94" cy="54.876" r="88.8"/>
	</g>
</g>
	<linearGradient id="SVGID_1_" gradientUnits="userSpaceOnUse" x1="-18.208" y1="54.8755" x2="78.5" y2="54.8755">
		<stop  offset="0" style="stop-color:#EEC02A"/>
		<stop  offset="1" style="stop-color:#D6372C"/>
	</linearGradient>
<path fill="none" stroke="url(#SVGID_1_)" stroke-width="6" stroke-linecap="round" stroke-linejoin="round" stroke-miterlimit="10" d="
	M71.958,102.54h-79.62c-3.062,0-5.546-2.48-5.546-5.545V17.376c0-3.062,2.483-5.545,5.546-5.545h79.62
	c3.062,0,5.542,2.483,5.542,5.545v79.618C77.5,100.059,75.02,102.54,71.958,102.54z"/>
<path fill="none" stroke="url(#SVGID_1_)" stroke-width="6" stroke-linecap="round" stroke-linejoin="round" stroke-miterlimit="10" d="
	M40.959,84.716H23.333c-1.045,0-1.893-0.845-1.893-1.89V65.199c0-1.046,0.848-1.896,1.893-1.896h17.629c1.042,0,1.89,0.85,1.89,1.89
	v17.634C42.852,83.866,42.004,84.716,40.959,84.716z"/>
<path fill="url(#SVGID_1_)" stroke="url(#SVGID_1_)" stroke-width="6" stroke-miterlimit="10" d="M40.962,51.068H23.333
	c-1.045,0-1.893-0.848-1.893-1.893V31.547c0-1.045,0.848-1.893,1.893-1.893h17.629c1.042,0,1.89,0.847,1.89,1.893v17.628
	C42.852,50.22,42.004,51.068,40.962,51.068"/>
</svg>
