<?xml version="1.0" encoding="utf-8"?>
<!-- Generator: Adobe Illustrator 16.0.0, SVG Export Plug-In . SVG Version: 6.00 Build 0)  -->
<!DOCTYPE svg PUBLIC "-//W3C//DTD SVG 1.1//EN" "http://www.w3.org/Graphics/SVG/1.1/DTD/svg11.dtd">
<svg version="1.1" id="图层_1" xmlns="http://www.w3.org/2000/svg" xmlns:xlink="http://www.w3.org/1999/xlink" x="0px" y="0px"
	 width="110px" height="114.667px" viewBox="0 0 110 114.667" enable-background="new 0 0 110 114.667" xml:space="preserve">
<g>
	<g>
		<circle fill="#F7F7F7" stroke="#EEEEEF" stroke-miterlimit="10" cx="11.94" cy="54.876" r="88.8"/>
	</g>
</g>
<path fill="none" stroke="#B4B4B4" stroke-width="6" stroke-linecap="round" stroke-linejoin="round" stroke-miterlimit="10" d="
	M71.957,102.541h-79.62c-3.062,0-5.546-2.48-5.546-5.545v-79.62c0-3.062,2.483-5.545,5.546-5.545h79.62
	c3.062,0,5.542,2.483,5.542,5.545v79.618C77.499,100.059,75.019,102.541,71.957,102.541z"/>
<path fill="#B4B4B4" stroke="#B4B4B4" stroke-width="6" stroke-linecap="round" stroke-linejoin="round" stroke-miterlimit="10" d="
	M40.958,84.716H23.332c-1.045,0-1.893-0.846-1.893-1.891V65.199c0-1.046,0.848-1.896,1.893-1.896h17.629
	c1.042,0,1.89,0.851,1.89,1.891v17.635C42.851,83.867,42.003,84.716,40.958,84.716z"/>
<path fill="none" stroke="#B4B4B4" stroke-width="6" stroke-miterlimit="10" d="M40.962,51.068H23.333
	c-1.045,0-1.893-0.848-1.893-1.893V31.547c0-1.045,0.848-1.893,1.893-1.893h17.629c1.042,0,1.89,0.847,1.89,1.893v17.628
	C42.852,50.22,42.004,51.068,40.962,51.068"/>
<path fill="none" stroke="#B4B4B4" stroke-width="6" stroke-linecap="round" stroke-linejoin="round" stroke-miterlimit="10" d="
	M40.961,51.068H23.332c-1.045,0-1.893-0.848-1.893-1.893V31.547c0-1.045,0.848-1.893,1.893-1.893h17.629
	c1.042,0,1.89,0.847,1.89,1.893v17.628C42.851,50.22,42.003,51.068,40.961,51.068z"/>
</svg>
