<?xml version="1.0" encoding="utf-8"?>
<!-- Generator: Adobe Illustrator 16.0.0, SVG Export Plug-In . SVG Version: 6.00 Build 0)  -->
<!DOCTYPE svg PUBLIC "-//W3C//DTD SVG 1.1//EN" "http://www.w3.org/Graphics/SVG/1.1/DTD/svg11.dtd">
<svg version="1.1" id="图层_1" xmlns="http://www.w3.org/2000/svg" xmlns:xlink="http://www.w3.org/1999/xlink" x="0px" y="0px"
	 width="110px" height="114.667px" viewBox="0 0 110 114.667" enable-background="new 0 0 110 114.667" xml:space="preserve">
<g>
	<g>
		<circle fill="#F7F7F7" stroke="#EEEEEF" stroke-miterlimit="10" cx="11.94" cy="54.876" r="88.8"/>
	</g>
</g>
<g>
	<path fill="#B4B4B4" d="M46.788,105.037c-0.511,0-1.024-0.131-1.489-0.399l-0.414-0.24c-1.432-0.83-1.92-2.664-1.091-4.099
		c0.83-1.432,2.661-1.926,4.097-1.094c0.06,0.033,0.123,0.062,0.187,0.092c0.854,0.396,1.475,1.166,1.676,2.084
		c0.201,0.92-0.041,1.879-0.653,2.595C48.508,104.664,47.652,105.037,46.788,105.037z"/>
</g>
<g>
	<path fill="none" d="M46.391,101.802h-0.002H46.391z"/>
</g>
<path fill="#B4B4B4" d="M74.469,69.619c-0.37-2.618-1.543-4.649-3.395-5.873c-0.147-0.099-0.307-0.172-0.46-0.257
	c-0.009-0.004-0.015-0.011-0.022-0.017l-19.75-13.079V32.165c0-1.554-1.102-2.814-2.462-2.814h-6.943v-3.524h21.539
	c1.36,0,2.462-1.26,2.462-2.814v-8.218c0-1.554-1.102-2.814-2.462-2.814h-48c-1.36,0-2.462,1.26-2.462,2.814v8.218
	c0,1.554,1.102,2.814,2.462,2.814h21.537v3.524h-6.941c-1.36,0-2.462,1.26-2.462,2.814v2.514l-0.014-0.009
	c-0.12-0.099-0.245-0.194-0.385-0.288c-0.202-0.133-0.413-0.254-0.641-0.375c-1.07-0.552-2.295-0.832-3.641-0.832
	c-5.763,0-13.425,5.075-19.521,12.929c-5.432,7-8.33,14.715-7.563,20.143c0.37,2.616,1.544,4.647,3.394,5.872l44.355,29.356
	c0.002,0.002,0.003,0.002,0.005,0.004c0.004,0.002,0.008,0.002,0.012,0.006c1.212,0.799,2.65,1.205,4.276,1.205
	c5.762,0,13.425-5.076,19.522-12.929C72.339,82.758,75.236,75.042,74.469,69.619z M17.438,17.608h43.075v2.591H17.438V17.608z
	 M32.033,34.979h13.884v12.154l-13.884-9.193V34.979z M0.205,65.346c-0.433-3.065,1.373-9.05,6.385-15.509
	c5.886-7.583,12.336-11.036,15.838-11.036c0.642,0,1.185,0.111,1.596,0.324c0.077,0.04,0.154,0.083,0.213,0.127l0.098,0.08
	c0.06,0.048,0.121,0.094,0.186,0.136l2.588,1.715v15.081c-2.635,0.999-4.517,3.544-4.517,6.527c0,3.853,3.13,6.985,6.979,6.985
	c3.849,0,6.979-3.133,6.979-6.985c0-2.982-1.882-5.528-4.517-6.527V44.443l29.239,19.363c-0.03,0.013-0.063,0.03-0.095,0.045
	c-0.535,0.231-1.075,0.486-1.622,0.773c-0.057,0.031-0.116,0.066-0.173,0.097c-0.481,0.259-0.962,0.541-1.447,0.841
	c-0.129,0.08-0.259,0.161-0.389,0.244c-0.518,0.332-1.035,0.68-1.555,1.057c-0.024,0.017-0.047,0.03-0.07,0.05
	c-0.539,0.394-1.078,0.817-1.615,1.257c-0.139,0.113-0.275,0.23-0.413,0.346c-0.43,0.363-0.858,0.738-1.283,1.131
	c-0.12,0.107-0.239,0.212-0.357,0.324c-0.523,0.489-1.04,0.998-1.552,1.527c-0.106,0.11-0.209,0.226-0.314,0.336
	c-0.419,0.443-0.834,0.897-1.244,1.366c-0.135,0.154-0.27,0.308-0.405,0.465c-0.499,0.585-0.993,1.181-1.475,1.801
	c-0.041,0.052-0.076,0.103-0.116,0.154c-0.267,0.348-0.53,0.698-0.785,1.047c-0.115,0.158-0.224,0.318-0.336,0.476
	c-0.178,0.253-0.354,0.504-0.526,0.757c-0.119,0.174-0.234,0.348-0.349,0.523c-0.16,0.242-0.317,0.485-0.47,0.728
	c-0.11,0.176-0.22,0.35-0.326,0.523c-0.157,0.255-0.308,0.512-0.458,0.768c-0.092,0.158-0.188,0.317-0.277,0.475
	c-0.207,0.364-0.405,0.729-0.598,1.092c-0.067,0.128-0.131,0.255-0.196,0.381c-0.165,0.323-0.327,0.644-0.48,0.964
	c-0.078,0.163-0.15,0.324-0.225,0.485c-0.115,0.251-0.228,0.5-0.336,0.748c-0.075,0.172-0.146,0.344-0.218,0.515
	c-0.1,0.241-0.195,0.479-0.288,0.72c-0.065,0.167-0.129,0.335-0.191,0.502c-0.093,0.255-0.181,0.507-0.265,0.758
	c-0.05,0.147-0.102,0.294-0.148,0.439c-0.124,0.386-0.239,0.769-0.342,1.149c-0.022,0.08-0.04,0.159-0.06,0.241
	c-0.08,0.307-0.155,0.609-0.222,0.911c-0.031,0.141-0.057,0.28-0.085,0.421c-0.047,0.238-0.093,0.477-0.132,0.711
	c-0.024,0.148-0.047,0.295-0.067,0.441c-0.032,0.228-0.06,0.452-0.084,0.674c-0.016,0.142-0.03,0.282-0.042,0.422
	c-0.005,0.062-0.014,0.126-0.018,0.188L1.205,67.246C0.858,67.017,0.378,66.572,0.205,65.346z M29.571,61.435
	c1.254,0,2.055,0.803,2.055,1.355c0,0.554-0.8,1.357-2.055,1.357c-1.254,0-2.054-0.804-2.054-1.357
	C27.517,62.238,28.317,61.435,29.571,61.435z M63.222,86.023C56.087,95.217,48.17,98.3,45.583,96.614
	c-0.03-0.02-0.059-0.041-0.088-0.06c-0.019-0.015-0.039-0.027-0.06-0.042c-0.004-0.005-0.01-0.009-0.016-0.015
	c-0.039-0.031-0.079-0.063-0.12-0.103c-0.011-0.011-0.022-0.023-0.035-0.034c-0.034-0.035-0.069-0.072-0.103-0.112
	c-0.014-0.019-0.028-0.034-0.042-0.053c-0.032-0.04-0.063-0.084-0.094-0.132c-0.016-0.022-0.029-0.046-0.044-0.07
	c-0.029-0.049-0.059-0.103-0.086-0.157c-0.014-0.027-0.028-0.057-0.043-0.086c-0.027-0.061-0.053-0.126-0.079-0.194
	c-0.012-0.031-0.025-0.062-0.037-0.098c-0.025-0.077-0.049-0.163-0.071-0.25c-0.009-0.032-0.018-0.063-0.026-0.099
	c-0.029-0.124-0.055-0.259-0.076-0.407c-0.351-2.48,0.769-6.879,3.868-11.891c0.728-1.177,1.564-2.388,2.517-3.614
	c0.036-0.046,0.071-0.088,0.107-0.134c0.366-0.468,0.734-0.92,1.103-1.354c0.152-0.179,0.304-0.348,0.456-0.521
	c0.258-0.295,0.517-0.588,0.774-0.867c0.169-0.183,0.338-0.359,0.507-0.534c0.246-0.259,0.492-0.51,0.737-0.753
	c0.167-0.166,0.333-0.329,0.5-0.488c0.258-0.246,0.517-0.484,0.772-0.716c0.147-0.134,0.295-0.269,0.442-0.397
	c0.321-0.278,0.64-0.544,0.957-0.801c0.079-0.063,0.157-0.132,0.236-0.193c0.83-0.658,1.645-1.237,2.434-1.737
	c0.047-0.029,0.093-0.058,0.139-0.086c0.355-0.222,0.706-0.431,1.051-0.623c0.038-0.02,0.077-0.042,0.116-0.062
	c0.367-0.202,0.729-0.389,1.079-0.556c0.005-0.002,0.01-0.004,0.014-0.005c2.604-1.229,4.746-1.491,5.969-0.898
	c0.091,0.044,0.184,0.087,0.263,0.139c0.347,0.229,0.828,0.677,1.001,1.9C70.041,73.581,68.234,79.566,63.222,86.023z"/>
</svg>
