<?xml version="1.0" encoding="utf-8"?>
<!-- Generator: Adobe Illustrator 16.0.0, SVG Export Plug-In . SVG Version: 6.00 Build 0)  -->
<!DOCTYPE svg PUBLIC "-//W3C//DTD SVG 1.1//EN" "http://www.w3.org/Graphics/SVG/1.1/DTD/svg11.dtd">
<svg version="1.1" id="图层_1" xmlns="http://www.w3.org/2000/svg" xmlns:xlink="http://www.w3.org/1999/xlink" x="0px" y="0px"
	 width="110px" height="114.667px" viewBox="0 0 110 114.667" enable-background="new 0 0 110 114.667" xml:space="preserve">
<g>
	<g>
		<circle fill="#F7F7F7" stroke="#EEEEEF" stroke-miterlimit="10" cx="11.94" cy="54.876" r="88.8"/>
	</g>
</g>
<path fill="#B4B4B4" d="M65.48,17.453c0-1.458-1.024-2.638-2.285-2.638H-5.934c-1.264,0-2.287,1.181-2.287,2.638v2.992
	c0,0.025,0.005,0.046,0.006,0.071c0.002,0.115,0.014,0.229,0.029,0.341c0.008,0.048,0.009,0.098,0.018,0.145
	c0.028,0.147,0.066,0.293,0.117,0.434c0.019,0.056,0.046,0.107,0.068,0.163c0.038,0.088,0.076,0.174,0.122,0.256
	c0.03,0.054,0.063,0.107,0.097,0.158c0.048,0.075,0.099,0.147,0.155,0.218c0.038,0.046,0.077,0.093,0.118,0.137
	c0.059,0.064,0.123,0.122,0.188,0.178c0.046,0.041,0.091,0.081,0.141,0.117c0.015,0.011,0.028,0.025,0.043,0.037l30.121,21.092
	v4.822c0,1.165,0.659,2.142,1.565,2.491v0.479h-0.703c-1.263,0-2.285,1.183-2.285,2.638v42.993c0,1.455,1.022,2.637,2.285,2.637
	h9.534c1.261,0,2.285-1.182,2.285-2.637V54.223c0-1.456-1.024-2.638-2.285-2.638h-0.702v-0.48c0.905-0.35,1.565-1.326,1.565-2.491
	v-4.04l30.154-21.897c0.011-0.009,0.024-0.021,0.034-0.033c0.028-0.02,0.054-0.046,0.08-0.069c0.09-0.073,0.171-0.15,0.246-0.235
	c0.026-0.03,0.051-0.062,0.077-0.092c0.071-0.087,0.139-0.178,0.198-0.274c0.022-0.036,0.044-0.07,0.062-0.107
	c0.062-0.105,0.113-0.216,0.155-0.329c0.012-0.033,0.026-0.062,0.037-0.095c0.11-0.306,0.168-0.633,0.174-0.968
	c0-0.011,0.002-0.02,0.002-0.031V17.453z M29.688,45.976h-2.113v-0.584h2.113V45.976z M26.344,23.083V39.96L2.242,23.083H26.344z
	 M31.111,94.578h-4.962V56.861h4.962V94.578z M31.812,40.117h-0.894V23.083h24.354L31.812,40.117z"/>
</svg>
