<?xml version="1.0" encoding="utf-8"?>
<!-- Generator: Adobe Illustrator 16.0.0, SVG Export Plug-In . SVG Version: 6.00 Build 0)  -->
<!DOCTYPE svg PUBLIC "-//W3C//DTD SVG 1.1//EN" "http://www.w3.org/Graphics/SVG/1.1/DTD/svg11.dtd">
<svg version="1.1" id="图层_1" xmlns="http://www.w3.org/2000/svg" xmlns:xlink="http://www.w3.org/1999/xlink" x="0px" y="0px"
	 width="110px" height="114.667px" viewBox="0 0 110 114.667" enable-background="new 0 0 110 114.667" xml:space="preserve">
<g>
	<g>
		<circle fill="#F7F7F7" stroke="#C7C8C8" stroke-miterlimit="10" cx="11.939" cy="54.875" r="88.8"/>
	</g>
</g>
<linearGradient id="SVGID_1_" gradientUnits="userSpaceOnUse" x1="12.7593" y1="58.8462" x2="58.1133" y2="58.8462" gradientTransform="matrix(1 0 0 -1 0.1401 113.7217)">
	<stop  offset="0" style="stop-color:#EEC02A"/>
	<stop  offset="1" style="stop-color:#D6372C"/>
</linearGradient>
<path fill="url(#SVGID_1_)" d="M57.252,23.994l-9.439-7.216c-0.161-0.123-0.33-0.185-0.502-0.185h-0.442v-0.724c0,0,0-0.002,0-0.003
	c0-0.217-0.015-0.426-0.038-0.628c-0.008-0.062-0.019-0.118-0.029-0.179c-0.021-0.142-0.046-0.28-0.079-0.412
	c-0.016-0.065-0.032-0.127-0.051-0.19c-0.036-0.123-0.076-0.236-0.12-0.346c-0.022-0.055-0.043-0.11-0.068-0.161
	c-0.064-0.138-0.135-0.264-0.212-0.373c-0.008-0.011-0.012-0.024-0.019-0.034l-2.597-3.535c-0.233-0.317-0.51-0.488-0.792-0.488
	h-1.517c-0.282,0-0.557,0.17-0.791,0.488l-2.599,3.535c-0.006,0.009-0.011,0.023-0.018,0.034c-0.078,0.109-0.148,0.235-0.213,0.373
	c-0.024,0.051-0.044,0.107-0.066,0.161c-0.044,0.11-0.084,0.224-0.121,0.346c-0.018,0.062-0.035,0.125-0.051,0.19
	c-0.031,0.132-0.057,0.27-0.079,0.412c-0.009,0.061-0.021,0.117-0.028,0.179c-0.023,0.203-0.038,0.412-0.038,0.628
	c0,0.001,0,0.003,0,0.003v0.724h-0.442c-0.171,0-0.342,0.062-0.502,0.185l-9.527,7.284c-0.634,0.485-1.004,1.805-0.881,3.14
	c0.124,1.334,0.705,2.304,1.384,2.304h1.553l1.758,10.135h-6.053c-0.594-1.89-1.534-3.596-2.79-5.035V13.6
	c0-1.555-0.63-2.814-1.406-2.814h-6.131c-0.778,0-1.407,1.259-1.407,2.814v83.816c0,1.555,0.629,2.814,1.407,2.814h6.131
	c0.776,0,1.406-1.26,1.406-2.814V54.569c1.194-1.368,2.105-2.977,2.702-4.757h7.903l0.458,2.633v3.063
	c0,0.181,0.01,0.356,0.026,0.527c0.006,0.058,0.015,0.113,0.022,0.169c0.014,0.112,0.03,0.221,0.051,0.328
	c0.011,0.062,0.027,0.12,0.041,0.179c0.023,0.097,0.048,0.19,0.076,0.279c0.017,0.056,0.036,0.109,0.055,0.162
	c0.032,0.088,0.067,0.171,0.104,0.252c0.02,0.044,0.04,0.089,0.062,0.13c0.043,0.083,0.09,0.158,0.139,0.229
	c0.02,0.029,0.038,0.062,0.059,0.09c0.067,0.088,0.139,0.168,0.213,0.23c0.004,0.006,0.008,0.012,0.012,0.016
	c0.076,0.061,0.153,0.113,0.234,0.15l7.766,3.537c0.104,0.047,0.207,0.068,0.312,0.068c0.105,0,0.209-0.021,0.313-0.068l7.767-3.537
	c0.083-0.037,0.16-0.09,0.235-0.15c0.004-0.004,0.008-0.01,0.011-0.014c0.077-0.064,0.147-0.145,0.215-0.232
	c0.02-0.027,0.038-0.059,0.059-0.09c0.049-0.072,0.096-0.146,0.14-0.229c0.021-0.042,0.042-0.086,0.061-0.13
	c0.037-0.081,0.072-0.164,0.104-0.252c0.02-0.053,0.037-0.106,0.055-0.162c0.028-0.089,0.053-0.184,0.075-0.279
	c0.014-0.059,0.03-0.117,0.041-0.179c0.021-0.107,0.037-0.216,0.051-0.329c0.008-0.056,0.017-0.111,0.021-0.168
	c0.018-0.171,0.027-0.348,0.027-0.527v-3.09l3.73-22.915h1.855c0.003,0,0.006,0.001,0.009,0c0.776,0,1.407-1.26,1.407-2.814
	C58.254,25.417,57.832,24.342,57.252,23.994z M37.161,22.22h1.589h6.712h1.588l2.165,1.656H34.996L37.161,22.22z M41.368,49.159
	l-1.052-19.656h3.581l-1.053,19.656H41.368z M37.486,29.503l1.053,19.656h-3.225l-1.322-7.626c-0.012-0.069-0.022-0.141-0.037-0.208
	l-2.049-11.822H37.486z M15.713,94.601V16.414h3.317v19.859c0,0.007-0.002,0.014-0.002,0.021v16.583
	c0,0.007,0.002,0.014,0.002,0.021v41.702H15.713L15.713,94.601z M21.844,47.564v-5.956c0.462,0.982,0.715,2.004,0.715,2.978
	C22.56,45.561,22.306,46.582,21.844,47.564z M48.825,49.159h-3.151l1.052-19.656h5.297L48.825,49.159z"/>
</svg>
