<?xml version="1.0" encoding="utf-8"?>
<!-- Generator: Adobe Illustrator 16.0.0, SVG Export Plug-In . SVG Version: 6.00 Build 0)  -->
<!DOCTYPE svg PUBLIC "-//W3C//DTD SVG 1.1//EN" "http://www.w3.org/Graphics/SVG/1.1/DTD/svg11.dtd">
<svg version="1.1" id="图层_1" xmlns="http://www.w3.org/2000/svg" xmlns:xlink="http://www.w3.org/1999/xlink" x="0px" y="0px"
	 width="110px" height="114.667px" viewBox="0 0 110 114.667" enable-background="new 0 0 110 114.667" xml:space="preserve">
<g>
	<g>
		<circle fill="#F7F7F7" stroke="#EEEEEF" stroke-miterlimit="10" cx="11.94" cy="54.876" r="88.8"/>
	</g>
</g>
<path fill="#B4B4B4" d="M74.117,72.429l-4.58-14.253c-0.307-0.955-1.353-1.619-2.549-1.619h-7.342c-1.195,0-2.242,0.665-2.548,1.619
	l-2.507,7.802c-0.011-0.25-0.067-0.49-0.171-0.712l-4.58-14.253c-0.308-0.955-1.353-1.619-2.549-1.619h-7.341
	c-1.195,0-2.242,0.665-2.548,1.62l-2.993,9.315V35.28c2-0.695,3.554-2.151,4.177-3.955c2.209-0.807,3.761-2.695,3.761-4.89V20.86
	H21.194v5.575c0,2.194,1.553,4.083,3.761,4.89c0.622,1.804,2.177,3.261,4.177,3.955v25.048l-2.993-9.316
	c-0.307-0.955-1.353-1.619-2.549-1.619h-7.342c-1.196,0-2.243,0.665-2.549,1.62L9.045,65.505c-0.054,0.166-0.082,0.337-0.087,0.505
	l-2.515-7.834c-0.307-0.955-1.353-1.619-2.548-1.619h-7.342c-1.195,0-2.243,0.665-2.548,1.619l-4.655,14.494
	c-0.21,0.653-0.041,1.35,0.458,1.886c0.499,0.536,1.271,0.85,2.09,0.85h1.608v1.485c0,1.202,1.181,2.178,2.637,2.178h1.433
	c0.194,3.655,3.672,6.58,7.931,6.58h5.371c4.383,0,7.95-3.096,7.95-6.901V77.57c0-1.404,1.2-2.546,2.676-2.546h5.372
	c0.014,0,0.025,0.003,0.04,0.003c-1.81,1.245-2.976,3.165-2.976,5.32c0,2.943,2.172,5.448,5.193,6.391v2.154h5.275v-2.154
	c3.022-0.942,5.192-3.447,5.192-6.391c0-2.155-1.166-4.075-2.974-5.32c0.013,0,0.025-0.003,0.039-0.003h5.372
	c1.476,0,2.675,1.142,2.675,2.546v1.178c0,3.806,3.567,6.901,7.952,6.901h5.37c4.258,0,7.735-2.925,7.931-6.58h1.435
	c1.456,0,2.637-0.976,2.637-2.178v-1.485h1.61c0.007,0.002,0.013,0.002,0.018,0c1.456,0,2.638-0.974,2.638-2.178
	C74.301,72.947,74.235,72.676,74.117,72.429z M-3.858,71.05h-0.817l3.255-10.137h3.284L5.12,71.05H4.246H-3.858z M13.552,77.57
	v1.178c0,1.404-1.199,2.546-2.674,2.546H5.506c-1.36,0-2.473-0.975-2.641-2.225h1.38c1.457,0,2.637-0.976,2.637-2.178v-1.485h1.666
	c0.819,0,1.591-0.313,2.09-0.85c0.499-0.535,0.669-1.231,0.458-1.886l-1.776-5.527c0.058,0.084,0.109,0.172,0.181,0.249
	c0.5,0.535,1.271,0.851,2.091,0.851h1.608v1.485c0,1.201,1.181,2.178,2.638,2.178h1.135C14.909,73.153,13.552,75.224,13.552,77.57z
	 M15.022,63.886l3.255-10.137h3.284l3.257,10.137H15.022z M29.133,70.954c-0.721-0.183-1.479-0.286-2.258-0.286h-0.561
	c0.167-0.287,0.269-0.603,0.269-0.941v-1.483h1.666c0.307,0,0.603-0.059,0.885-0.142L29.133,70.954L29.133,70.954z M31.771,82.788
	c-1.41,0-2.556-1.095-2.556-2.44c0-1.344,1.146-2.438,2.556-2.438c1.41,0,2.555,1.095,2.555,2.438
	C34.325,81.693,33.179,82.788,31.771,82.788z M27.439,27.388l-0.122-0.009c-0.461-0.022-0.847-0.441-0.847-0.944v-1.219h10.602
	v1.219c0,0.516-0.405,0.953-0.884,0.953H27.439z M36.665,70.668c-0.78,0-1.536,0.103-2.257,0.286v-2.854
	c0.282,0.083,0.578,0.142,0.886,0.142h1.665v1.484c0,0.339,0.102,0.655,0.269,0.941H36.665z M38.722,63.886l3.256-10.137h3.283
	l3.257,10.137H38.722z M58.032,81.293h-5.368c-1.477,0-2.677-1.142-2.677-2.546V77.57c0-2.346-1.356-4.417-3.422-5.665h1.135
	c1.457,0,2.637-0.976,2.637-2.178v-1.484h1.609c0.007,0,0.014,0,0.017,0c0.943,0,1.765-0.411,2.231-1.025l-1.752,5.453
	c-0.21,0.653-0.041,1.35,0.459,1.886c0.499,0.536,1.271,0.85,2.09,0.85h1.666v1.485c0,1.202,1.181,2.178,2.638,2.178h1.379
	C60.505,80.319,59.393,81.293,58.032,81.293z M67.397,71.05h-8.104H58.42l3.256-10.137h3.282l3.257,10.137H67.397z"/>
</svg>
