<?xml version="1.0" encoding="utf-8"?>
<!-- Generator: Adobe Illustrator 16.0.0, SVG Export Plug-In . SVG Version: 6.00 Build 0)  -->
<!DOCTYPE svg PUBLIC "-//W3C//DTD SVG 1.1//EN" "http://www.w3.org/Graphics/SVG/1.1/DTD/svg11.dtd">
<svg version="1.1" id="图层_1" xmlns="http://www.w3.org/2000/svg" xmlns:xlink="http://www.w3.org/1999/xlink" x="0px" y="0px"
	 width="110px" height="114.667px" viewBox="0 0 110 114.667" enable-background="new 0 0 110 114.667" xml:space="preserve">
<g>
	<g>
		<circle fill="#F7F7F7" stroke="#EEEEEF" stroke-miterlimit="10" cx="11.94" cy="54.876" r="88.8"/>
	</g>
</g>
<path fill="#B4B4B4" d="M65.505,58.931c0.006-0.058,0.018-0.113,0.018-0.173V17.04c0.008-0.064,0.02-0.127,0.02-0.194
	c0-0.301-0.088-0.581-0.24-0.816l-1.715-3.859c-0.242-0.542-0.779-0.891-1.371-0.891h-12.66c-0.592,0-1.129,0.349-1.369,0.89
	l-1.811,4.066c-0.004,0.006-0.004,0.012-0.006,0.018c-0.043,0.099-0.074,0.203-0.094,0.311c-0.01,0.046-0.01,0.092-0.014,0.138
	c-0.006,0.048-0.016,0.095-0.016,0.144v16.563H35.91v-5.147c0-0.829-0.672-1.5-1.5-1.5h-7.767V11.979c0-0.829-0.672-1.5-1.5-1.5
	h-6.477c-0.828,0-1.5,0.671-1.5,1.5v90.709c0,0.829,0.672,1.5,1.5,1.5h6.477c0.828,0,1.5-0.671,1.5-1.5v-53.22h7.767
	c0.828,0,1.5-0.671,1.5-1.5v-5.695h10.337v16.486c0,0.048,0.01,0.093,0.014,0.14c0.006,0.048,0.006,0.096,0.016,0.143
	c0.02,0.107,0.051,0.212,0.094,0.311c0.002,0.006,0.002,0.012,0.006,0.018l1.811,4.064c0.24,0.541,0.777,0.89,1.369,0.89h12.66
	c0.592,0,1.129-0.349,1.371-0.891l1.807-4.064c0.002-0.004,0.002-0.008,0.004-0.012c0.045-0.103,0.076-0.212,0.098-0.325
	C65.501,58.998,65.501,58.964,65.505,58.931z M49.247,18.346h13.275v38.913H49.247V18.346z M50.53,14.279h10.711l0.473,1.066H50.056
	L50.53,14.279z M23.644,101.188h-3.477V13.479h3.477v14.783v19.706V101.188z M32.91,46.468h-6.267V29.762h6.267V46.468z
	 M35.91,39.272v-2.863h10.337v2.863H35.91z M61.241,61.323H50.53l-0.475-1.064h11.658L61.241,61.323z"/>
</svg>
