<?xml version="1.0" encoding="utf-8"?>
<!-- Generator: Adobe Illustrator 16.0.0, SVG Export Plug-In . SVG Version: 6.00 Build 0)  -->
<!DOCTYPE svg PUBLIC "-//W3C//DTD SVG 1.1//EN" "http://www.w3.org/Graphics/SVG/1.1/DTD/svg11.dtd">
<svg version="1.1" id="图层_1" xmlns="http://www.w3.org/2000/svg" xmlns:xlink="http://www.w3.org/1999/xlink" x="0px" y="0px"
	 width="110px" height="114.667px" viewBox="0 0 110 114.667" enable-background="new 0 0 110 114.667" xml:space="preserve">
<g>
	<g>
		<circle fill="#F7F7F7" stroke="#EEEEEF" stroke-miterlimit="10" cx="11.94" cy="54.876" r="88.8"/>
	</g>
</g>
<g>
	<path fill="#B4B4B4" d="M45.593,20.597c-5.77,0-10.708,3.747-12.724,9.025h-0.002c-2.095,0-3.889,1.36-4.622,3.277h-1.144
		c-0.455-2.543-1.594-4.88-3.318-6.805V11.437c0-1.058-0.823-1.916-1.838-1.916h-6.17c-1.015,0-1.838,0.858-1.838,1.916v86.877
		c0,1.058,0.823,1.916,1.838,1.916h6.17c1.015,0,1.838-0.858,1.838-1.916V44.812c2.008-2.244,3.225-5.048,3.491-8.081h0.971
		c0.728,1.899,2.499,3.248,4.571,3.27c1.979,5.356,6.953,9.173,12.776,9.173c7.555,0,13.699-6.41,13.699-14.289
		C59.292,27.007,53.148,20.597,45.593,20.597z M17.614,96.399V13.353h2.495v13.501c0,0.001,0,0.002,0,0.003v17.191
		c0,0.001,0,0.002,0,0.003v52.347H17.614z M45.593,45.343c-5.526,0-10.023-4.691-10.023-10.458s4.497-10.457,10.023-10.457
		c5.527,0,10.023,4.691,10.023,10.457S51.121,45.343,45.593,45.343z"/>
	<path fill="#B4B4B4" d="M47.005,40.78c-2.456-0.11-4.694-1.487-5.986-3.683c-0.531-0.902-1.662-1.184-2.527-0.632
		c-0.866,0.553-1.137,1.732-0.607,2.634c1.934,3.284,5.283,5.343,8.965,5.507c0.026,0.001,0.053,0.002,0.079,0.002
		c0.979,0,1.792-0.804,1.835-1.833C48.806,41.719,48.019,40.826,47.005,40.78z"/>
</g>
</svg>
