<?xml version="1.0" encoding="utf-8"?>
<!-- Generator: Adobe Illustrator 16.0.0, SVG Export Plug-In . SVG Version: 6.00 Build 0)  -->
<!DOCTYPE svg PUBLIC "-//W3C//DTD SVG 1.1//EN" "http://www.w3.org/Graphics/SVG/1.1/DTD/svg11.dtd">
<svg version="1.1" id="图层_1" xmlns="http://www.w3.org/2000/svg" xmlns:xlink="http://www.w3.org/1999/xlink" x="0px" y="0px"
	 width="110px" height="114.667px" viewBox="0 0 110 114.667" enable-background="new 0 0 110 114.667" xml:space="preserve">
<g>
	<g>
		<circle fill="#F7F7F7" stroke="#C7C8C8" stroke-miterlimit="10" cx="11.939" cy="54.875" r="88.8"/>
	</g>
</g>
<linearGradient id="SVGID_1_" gradientUnits="userSpaceOnUse" x1="-0.1396" y1="56.3877" x2="79.2295" y2="56.3877" gradientTransform="matrix(1 0 0 -1 0.1401 113.7217)">
	<stop  offset="0" style="stop-color:#EEC02A"/>
	<stop  offset="1" style="stop-color:#D6372C"/>
</linearGradient>
<path fill="url(#SVGID_1_)" d="M79.248,69.618c-0.369-2.618-1.543-4.649-3.396-5.874c-0.146-0.098-0.305-0.17-0.46-0.255
	c-0.007-0.005-0.014-0.013-0.021-0.019L55.621,50.393V32.164c0-1.554-1.102-2.813-2.462-2.813h-6.943v-3.525h21.54
	c1.36,0,2.461-1.26,2.461-2.814v-8.218c0-1.554-1.101-2.814-2.461-2.814H19.755c-1.361,0-2.462,1.26-2.462,2.814v8.218
	c0,1.554,1.102,2.814,2.462,2.814h21.537v3.525H34.35c-1.359,0-2.462,1.259-2.462,2.813v2.514l-0.014-0.01
	c-0.12-0.099-0.245-0.194-0.385-0.288c-0.203-0.133-0.413-0.254-0.641-0.375c-1.07-0.552-2.295-0.832-3.641-0.832
	c-5.763,0-13.425,5.075-19.522,12.929c-5.432,6.999-8.33,14.715-7.562,20.143c0.37,2.616,1.543,4.647,3.393,5.871l44.356,29.358
	c0.001,0.001,0.003,0.001,0.005,0.002c0.004,0.003,0.007,0.003,0.012,0.006c1.212,0.799,2.65,1.205,4.276,1.205
	c5.763,0,13.426-5.075,19.522-12.93C77.118,82.759,80.016,75.041,79.248,69.618z M22.217,17.607h43.076v2.591H22.217V17.607z
	 M36.812,34.978h13.885v12.155l-13.885-9.193V34.978z M4.984,65.346c-0.433-3.066,1.373-9.05,6.385-15.509
	C17.255,42.253,23.705,38.8,27.208,38.8c0.642,0,1.184,0.111,1.595,0.324c0.077,0.041,0.154,0.083,0.213,0.128l0.098,0.08
	c0.061,0.049,0.122,0.094,0.186,0.136l2.588,1.714v15.081c-2.634,0.999-4.516,3.544-4.516,6.527c0,3.851,3.13,6.985,6.978,6.985
	c3.85,0,6.98-3.135,6.98-6.985c0-2.982-1.882-5.528-4.518-6.527V44.443l29.241,19.362c-0.031,0.014-0.064,0.031-0.096,0.046
	c-0.534,0.23-1.074,0.486-1.621,0.773c-0.057,0.031-0.116,0.066-0.174,0.098c-0.48,0.258-0.962,0.54-1.446,0.84
	c-0.129,0.08-0.26,0.16-0.39,0.244c-0.518,0.332-1.035,0.68-1.555,1.056c-0.023,0.018-0.047,0.031-0.071,0.049
	c-0.538,0.394-1.076,0.817-1.613,1.259c-0.138,0.111-0.275,0.229-0.412,0.345c-0.432,0.363-0.859,0.739-1.284,1.13
	c-0.12,0.11-0.238,0.215-0.357,0.326c-0.523,0.489-1.041,0.998-1.551,1.527c-0.107,0.11-0.21,0.224-0.314,0.336
	c-0.421,0.442-0.834,0.897-1.245,1.364c-0.136,0.156-0.271,0.308-0.406,0.466c-0.498,0.584-0.993,1.182-1.475,1.801
	c-0.04,0.051-0.076,0.104-0.115,0.155c-0.268,0.347-0.531,0.696-0.786,1.047c-0.115,0.159-0.224,0.316-0.336,0.476
	c-0.179,0.252-0.355,0.502-0.527,0.755c-0.119,0.176-0.234,0.35-0.349,0.524c-0.16,0.243-0.317,0.486-0.47,0.729
	c-0.11,0.175-0.22,0.348-0.326,0.523c-0.157,0.255-0.309,0.511-0.459,0.767c-0.091,0.159-0.188,0.317-0.276,0.476
	c-0.207,0.365-0.406,0.729-0.598,1.092c-0.067,0.128-0.131,0.255-0.195,0.38c-0.166,0.323-0.327,0.645-0.48,0.965
	c-0.078,0.161-0.15,0.322-0.225,0.485c-0.115,0.25-0.228,0.499-0.336,0.748c-0.076,0.172-0.146,0.343-0.218,0.515
	c-0.1,0.241-0.195,0.479-0.288,0.72c-0.064,0.167-0.13,0.334-0.191,0.502c-0.093,0.253-0.181,0.508-0.266,0.759
	c-0.049,0.146-0.101,0.293-0.148,0.438c-0.124,0.386-0.238,0.769-0.342,1.147c-0.022,0.083-0.04,0.161-0.06,0.242
	c-0.081,0.306-0.155,0.61-0.223,0.912c-0.031,0.142-0.057,0.28-0.085,0.42c-0.047,0.239-0.092,0.476-0.132,0.71
	c-0.024,0.148-0.047,0.297-0.067,0.443c-0.033,0.228-0.061,0.451-0.084,0.675c-0.016,0.141-0.031,0.282-0.043,0.421
	c-0.005,0.062-0.014,0.127-0.019,0.188L5.98,67.25C5.638,67.017,5.157,66.571,4.984,65.346z M34.35,61.435
	c1.254,0,2.055,0.803,2.055,1.355c0,0.554-0.801,1.357-2.055,1.357c-1.253,0-2.054-0.804-2.054-1.357
	C32.295,62.238,33.096,61.435,34.35,61.435z M68.002,86.023c-7.137,9.194-15.052,12.276-17.64,10.591
	c-0.03-0.021-0.059-0.042-0.088-0.06c-0.02-0.014-0.04-0.026-0.06-0.042c-0.005-0.005-0.01-0.011-0.016-0.014
	c-0.039-0.031-0.079-0.065-0.12-0.103c-0.011-0.012-0.022-0.024-0.035-0.036c-0.034-0.034-0.069-0.07-0.103-0.11
	c-0.014-0.019-0.028-0.035-0.042-0.055c-0.032-0.04-0.063-0.085-0.094-0.131c-0.016-0.022-0.029-0.046-0.044-0.069
	c-0.03-0.05-0.059-0.103-0.086-0.157c-0.014-0.029-0.028-0.058-0.042-0.089c-0.027-0.059-0.053-0.124-0.079-0.192
	c-0.013-0.032-0.025-0.062-0.036-0.098c-0.025-0.077-0.049-0.162-0.072-0.25c-0.008-0.032-0.018-0.062-0.026-0.097
	c-0.029-0.126-0.055-0.261-0.075-0.407c-0.351-2.482,0.768-6.879,3.868-11.891c0.728-1.178,1.563-2.387,2.517-3.615
	c0.035-0.046,0.07-0.087,0.106-0.133c0.366-0.468,0.734-0.92,1.103-1.355c0.151-0.178,0.304-0.348,0.457-0.522
	c0.258-0.294,0.516-0.586,0.772-0.866c0.17-0.182,0.339-0.359,0.509-0.535c0.246-0.257,0.492-0.508,0.737-0.751
	c0.166-0.165,0.332-0.329,0.499-0.488c0.259-0.246,0.516-0.484,0.772-0.716c0.148-0.134,0.295-0.269,0.443-0.397
	c0.32-0.278,0.639-0.544,0.957-0.801c0.078-0.063,0.156-0.133,0.234-0.194c0.831-0.657,1.646-1.236,2.435-1.738
	c0.048-0.028,0.093-0.056,0.138-0.084c0.356-0.224,0.706-0.433,1.052-0.623c0.037-0.021,0.077-0.042,0.117-0.062
	c0.366-0.203,0.728-0.389,1.078-0.555c0.006-0.002,0.011-0.004,0.015-0.005c2.602-1.229,4.745-1.493,5.968-0.9
	c0.091,0.044,0.185,0.088,0.264,0.141c0.346,0.229,0.826,0.677,1,1.9C74.82,73.581,73.014,79.566,68.002,86.023z"/>
</svg>
