<?xml version="1.0" encoding="utf-8"?>
<!-- Generator: Adobe Illustrator 16.0.0, SVG Export Plug-In . SVG Version: 6.00 Build 0)  -->
<!DOCTYPE svg PUBLIC "-//W3C//DTD SVG 1.1//EN" "http://www.w3.org/Graphics/SVG/1.1/DTD/svg11.dtd">
<svg version="1.1" id="图层_1" xmlns="http://www.w3.org/2000/svg" xmlns:xlink="http://www.w3.org/1999/xlink" x="0px" y="0px"
	 width="110px" height="114.667px" viewBox="0 0 110 114.667" enable-background="new 0 0 110 114.667" xml:space="preserve">
<g>
	<g>
		<circle fill="#F7F7F7" stroke="#EEEEEF" stroke-miterlimit="10" cx="11.94" cy="54.876" r="88.8"/>
	</g>
</g>
<g>
	<path fill="#B4B4B4" d="M72.206,51.33c0-21.698-17.801-39.351-39.684-39.351S-7.163,29.631-7.163,51.33
		c0,20.876,16.482,37.999,37.223,39.265v6.778H9.976c-1.359,0-2.461,1.19-2.461,2.657c0,1.468,1.102,2.658,2.461,2.658h45.091
		c1.36,0,2.461-1.19,2.461-2.658c0-1.467-1.102-2.657-2.461-2.657H34.984v-6.778C55.723,89.329,72.206,72.206,72.206,51.33z
		 M-2.239,51.33c0-18.767,15.594-34.034,34.761-34.034c19.168,0,34.759,15.268,34.759,34.034c0,18.765-15.591,34.033-34.759,34.033
		C13.355,85.361-2.239,70.094-2.239,51.33z"/>
	<path fill="#B4B4B4" d="M45.012,71.127c1.115-4.65-0.732-10.855-3.319-14.311c0.093-0.154,0.183-0.31,0.271-0.471
		c0.386,0.203,0.83,0.494,1.32,0.929c2.087,1.848,4.881,4.286,5.905,5.081c1.634,1.263,3.981,2.016,6.278,2.016
		c5.022,0,8.912-3.342,10.413-8.943c2.608-9.752-3.389-18.226-7.778-21.275c-4.238-2.943-9.138-3.838-13.71-2.486
		c-3.916,1.161-8.959,5.643-10.762,10.028c-0.139-0.007-0.277-0.029-0.419-0.029c-0.139,0-0.275,0.014-0.412,0.02
		c0.012-0.322,0.051-0.693,0.145-1.127c0.383-1.794,1.3-6.124,1.511-7.604c0.389-2.652-0.493-5.707-2.288-7.974
		c-1.951-2.458-4.84-3.813-8.137-3.813c-1.229,0-2.53,0.183-3.878,0.543C10.454,24.314,6.07,33.66,5.586,38.939
		c-0.485,5.286,1.224,10.032,4.814,13.365c3.188,2.96,8.433,4.284,12.21,4.284l0,0c0.693,0,1.328-0.05,1.926-0.137
		c0.06,0.111,0.125,0.221,0.191,0.331c-0.314,0.163-0.686,0.326-1.145,0.473c-1.367,0.439-5.945,1.918-7.402,2.496
		c-2.598,1.028-5.547,3.865-6.273,7.888c-0.459,2.543-0.162,6.402,3.858,10.332c4.584,4.482,10.142,5.424,13.997,5.424
		c2.965,0,5.905-0.566,8.067-1.553C40.624,79.656,43.884,75.85,45.012,71.127z M36.69,54.995c-0.221,0.201-0.451,0.375-0.693,0.531
		c-0.025,0.017-0.045,0.035-0.072,0.051c-0.189,0.119-0.391,0.211-0.587,0.301c-0.084,0.037-0.165,0.082-0.255,0.115
		c-0.111,0.043-0.225,0.073-0.342,0.107c-0.131,0.041-0.268,0.08-0.41,0.11c-0.145,0.031-0.293,0.056-0.442,0.073
		c-0.095,0.013-0.191,0.02-0.288,0.025c-1.366,0.086-2.749-0.361-3.776-1.273c-0.047-0.039-0.094-0.06-0.141-0.094
		c-0.233-0.223-0.443-0.467-0.631-0.732c-0.309-0.449-0.527-0.941-0.66-1.453c-0.008-0.034-0.009-0.068-0.015-0.101
		c-0.133-0.573-0.161-1.103-0.085-1.616c0,0,0-0.002,0-0.004c0.035-0.259,0.104-0.51,0.185-0.754
		c0.026-0.078,0.058-0.154,0.091-0.23c0.061-0.16,0.136-0.316,0.217-0.467c0.045-0.09,0.09-0.178,0.145-0.263
		c0.076-0.12,0.161-0.233,0.246-0.346c0.598-0.78,1.443-1.392,2.469-1.721c0.027-0.009,0.048-0.026,0.074-0.036
		c0.476-0.143,0.973-0.236,1.491-0.236c0.247,0,0.5,0.018,0.75,0.054c0.233,0.032,0.463,0.087,0.686,0.149
		c0.035,0.012,0.063,0.029,0.096,0.039c0.623,0.188,1.164,0.461,1.621,0.809c0.043,0.033,0.082,0.07,0.123,0.104
		c0.114,0.095,0.23,0.192,0.332,0.296c0.042,0.041,0.084,0.086,0.125,0.129c0.115,0.119,0.219,0.243,0.319,0.371
		c0.017,0.023,0.034,0.045,0.05,0.068c0.078,0.106,0.145,0.221,0.213,0.332c0.059,0.098,0.114,0.197,0.168,0.299
		c0.069,0.139,0.138,0.28,0.192,0.426c0.014,0.033,0.024,0.068,0.036,0.101c0.271,0.766,0.334,1.599,0.156,2.425
		c-0.004,0.022-0.004,0.047-0.006,0.071c-0.215,0.909-0.698,1.71-1.377,2.334C36.693,54.991,36.692,54.993,36.69,54.995z
		 M45.693,36.795c3.265-0.965,6.642-0.325,9.744,1.828c2.591,1.801,7.628,8.16,5.711,15.33c-1.128,4.217-3.711,5.102-5.681,5.102
		c-1.541,0-2.799-0.551-3.408-1.019c-0.861-0.669-3.53-2.993-5.648-4.872c-1.199-1.062-2.334-1.688-3.297-2.057
		c-0.102-1.85-0.703-3.64-1.773-5.182c-0.152-0.221-0.32-0.428-0.49-0.633c-0.021-0.027-0.041-0.055-0.061-0.08
		c-0.166-0.195-0.34-0.379-0.518-0.559c-0.08-0.083-0.154-0.17-0.238-0.25c-0.115-0.109-0.238-0.207-0.359-0.311
		c-0.139-0.121-0.273-0.251-0.418-0.365c-0.258-0.199-0.527-0.385-0.805-0.559C39.686,40.918,42.68,37.688,45.693,36.795z
		 M22.611,51.273c-3.286,0-7.158-1.29-8.998-2.999c-2.996-2.781-3.355-6.328-3.127-8.812c0.285-3.109,3.414-10.595,10.854-12.591
		c0.956-0.258,1.859-0.387,2.689-0.387c1.889,0,3.367,0.657,4.395,1.953c0.99,1.247,1.297,2.791,1.168,3.693
		c-0.13,0.883-0.697,3.721-1.447,7.229c-0.328,1.534-0.335,2.823-0.19,3.86c-0.036,0.021-0.065,0.047-0.098,0.069
		c-0.204,0.133-0.404,0.272-0.597,0.42c-0.135,0.101-0.262,0.204-0.388,0.312c-0.088,0.072-0.171,0.146-0.253,0.221
		c-0.808,0.725-1.488,1.576-2.017,2.526c-0.015,0.026-0.034,0.052-0.048,0.079c-0.111,0.205-0.215,0.417-0.314,0.631
		c-0.043,0.096-0.084,0.191-0.125,0.288c-0.074,0.181-0.149,0.362-0.214,0.55c-0.058,0.158-0.104,0.32-0.154,0.484
		c-0.042,0.143-0.087,0.283-0.124,0.43c-0.08,0.316-0.146,0.638-0.193,0.965c0,0.006-0.002,0.012-0.002,0.018
		c-0.002,0.012-0.002,0.023-0.006,0.035c-0.046,0.333-0.074,0.667-0.088,0.999C23.119,51.264,22.88,51.273,22.611,51.273
		C22.612,51.273,22.611,51.273,22.611,51.273z M27.763,78.079c-2.989,0-7.27-0.702-10.689-4.047
		c-1.861-1.821-2.646-3.63-2.328-5.376c0.336-1.868,1.863-3.41,3.133-3.913c1.054-0.417,4.488-1.548,7.111-2.391
		c1.592-0.513,2.747-1.21,3.57-1.888c1.021,0.549,2.131,0.935,3.295,1.098c0.228,0.031,0.453,0.031,0.684,0.048
		c0.061,0.005,0.119,0.01,0.177,0.012c0.174,0.011,0.344,0.036,0.517,0.036c0.859,0,1.694-0.119,2.493-0.332
		c0.039-0.01,0.079-0.018,0.119-0.027c0.303-0.085,0.602-0.184,0.893-0.296c0.035-0.014,0.07-0.021,0.106-0.035
		c0.087-0.034,0.167-0.086,0.257-0.122c0.238-0.106,0.479-0.221,0.711-0.343c0.082-0.045,0.168-0.075,0.249-0.121
		c1.487,2.133,2.882,6.521,2.187,9.418c-0.943,3.95-3.964,6.068-6.33,7.146C32.714,77.494,30.468,78.079,27.763,78.079z"/>
</g>
</svg>
