<?xml version="1.0" encoding="utf-8"?>
<!-- Generator: Adobe Illustrator 16.0.0, SVG Export Plug-In . SVG Version: 6.00 Build 0)  -->
<!DOCTYPE svg PUBLIC "-//W3C//DTD SVG 1.1//EN" "http://www.w3.org/Graphics/SVG/1.1/DTD/svg11.dtd">
<svg version="1.1" id="图层_1" xmlns="http://www.w3.org/2000/svg" xmlns:xlink="http://www.w3.org/1999/xlink" x="0px" y="0px"
	 width="110px" height="114.667px" viewBox="0 0 110 114.667" enable-background="new 0 0 110 114.667" xml:space="preserve">
<g>
	<g>
		<circle fill="#F7F7F7" stroke="#EEEEEF" stroke-miterlimit="10" cx="11.94" cy="54.876" r="88.8"/>
	</g>
</g>
<path fill="none" stroke="#B4B4B4" stroke-width="6" stroke-linecap="round" stroke-linejoin="round" stroke-miterlimit="10" d="
	M70.775,100.23H-8.843c-3.063,0-5.545-2.486-5.545-5.546V15.066c0-3.065,2.482-5.545,5.545-5.545h79.619
	c3.062,0,5.545,2.48,5.545,5.545v79.618C76.32,97.744,73.837,100.23,70.775,100.23z"/>
<path fill="none" stroke="#B4B4B4" stroke-width="6" stroke-linecap="round" stroke-linejoin="round" stroke-miterlimit="10" d="
	M23.156,82.407H5.528c-1.045,0-1.893-0.851-1.893-1.896V62.883c0-1.045,0.847-1.89,1.893-1.89h17.628
	c1.047,0,1.893,0.845,1.893,1.89v17.628C25.048,81.556,24.203,82.407,23.156,82.407z"/>
<path fill="none" stroke="#B4B4B4" stroke-width="6" stroke-miterlimit="10" d="M23.156,48.757H5.528
	c-1.045,0-1.893-0.851-1.893-1.896V29.234c0-1.045,0.847-1.89,1.893-1.89h17.628c1.047,0,1.893,0.845,1.893,1.89v17.628
	C25.048,47.907,24.203,48.757,23.156,48.757"/>
<path fill="none" stroke="#B4B4B4" stroke-width="6" stroke-linecap="round" stroke-linejoin="round" stroke-miterlimit="10" d="
	M23.156,48.757H5.528c-1.045,0-1.893-0.851-1.893-1.896V29.234c0-1.045,0.847-1.89,1.893-1.89h17.628
	c1.047,0,1.893,0.845,1.893,1.89v17.628C25.048,47.907,24.203,48.757,23.156,48.757z"/>
<path fill="#B4B4B4" stroke="#B4B4B4" stroke-width="6" stroke-linecap="round" stroke-linejoin="round" stroke-miterlimit="10" d="
	M56.404,82.407H38.776c-1.045,0-1.893-0.851-1.893-1.896V62.883c0-1.045,0.847-1.89,1.893-1.89h17.628
	c1.047,0,1.893,0.845,1.893,1.89v17.628C58.297,81.556,57.451,82.407,56.404,82.407z"/>
<path fill="none" stroke="#B4B4B4" stroke-width="6" stroke-linecap="round" stroke-linejoin="round" stroke-miterlimit="10" d="
	M56.404,48.757H38.776c-1.045,0-1.893-0.851-1.893-1.896V29.234c0-1.045,0.847-1.89,1.893-1.89h17.628
	c1.047,0,1.893,0.845,1.893,1.89v17.628C58.297,47.907,57.451,48.757,56.404,48.757z"/>
</svg>
