<?xml version="1.0" encoding="utf-8"?>
<!-- Generator: Adobe Illustrator 16.0.0, SVG Export Plug-In . SVG Version: 6.00 Build 0)  -->
<!DOCTYPE svg PUBLIC "-//W3C//DTD SVG 1.1//EN" "http://www.w3.org/Graphics/SVG/1.1/DTD/svg11.dtd">
<svg version="1.1" id="图层_1" xmlns="http://www.w3.org/2000/svg" xmlns:xlink="http://www.w3.org/1999/xlink" x="0px" y="0px"
	 width="110px" height="114.667px" viewBox="0 0 110 114.667" enable-background="new 0 0 110 114.667" xml:space="preserve">
<g>
	<g>
		<circle fill="#F7F7F7" stroke="#EEEEEF" stroke-miterlimit="10" cx="11.94" cy="54.876" r="88.8"/>
	</g>
</g>
<g>
	<path fill="none" stroke="#B4B4B4" stroke-width="6" stroke-linecap="round" stroke-linejoin="round" stroke-miterlimit="10" d="
		M66.789,102.688h-79.617c-3.063,0-5.546-2.48-5.546-5.544V17.525c0-3.062,2.482-5.546,5.546-5.546h79.617
		c3.064,0,5.546,2.483,5.546,5.546v79.619C72.335,100.208,69.854,102.688,66.789,102.688z"/>
	<path fill="none" stroke="#B4B4B4" stroke-width="6" stroke-miterlimit="10" d="M35.794,68.042H18.166
		c-1.046,0-1.892-0.852-1.892-1.895v-17.63c0-1.044,0.846-1.889,1.892-1.889h17.628c1.046,0,1.892,0.845,1.892,1.889v17.628
		C37.687,67.191,36.841,68.042,35.794,68.042"/>
	<path fill="none" stroke="#B4B4B4" stroke-width="6" stroke-linecap="round" stroke-linejoin="round" stroke-miterlimit="10" d="
		M35.794,68.042H18.166c-1.046,0-1.892-0.852-1.892-1.895v-17.63c0-1.044,0.846-1.889,1.892-1.889h17.628
		c1.046,0,1.892,0.845,1.892,1.889v17.628C37.687,67.191,36.841,68.042,35.794,68.042z"/>
</g>
</svg>
