<?xml version="1.0" encoding="utf-8"?>
<!-- Generator: Adobe Illustrator 16.0.0, SVG Export Plug-In . SVG Version: 6.00 Build 0)  -->
<!DOCTYPE svg PUBLIC "-//W3C//DTD SVG 1.1//EN" "http://www.w3.org/Graphics/SVG/1.1/DTD/svg11.dtd">
<svg version="1.1" id="图层_1" xmlns="http://www.w3.org/2000/svg" xmlns:xlink="http://www.w3.org/1999/xlink" x="0px" y="0px"
	 width="110px" height="114.667px" viewBox="0 0 110 114.667" enable-background="new 0 0 110 114.667" xml:space="preserve">
<g>
	<g>
		<circle fill="#F7F7F7" stroke="#C7C8C8" stroke-miterlimit="10" cx="11.939" cy="54.875" r="88.8"/>
	</g>
</g>
<linearGradient id="SVGID_1_" gradientUnits="userSpaceOnUse" x1="-47.7271" y1="54.875" x2="92.2676" y2="54.875">
	<stop  offset="0" style="stop-color:#EEC02A"/>
	<stop  offset="1" style="stop-color:#D6372C"/>
</linearGradient>
<path fill="url(#SVGID_1_)" d="M91.403,53.369c-0.791-1.081-1.993-2.713-16.058-2.389c-0.294,0.007-0.585,0.057-0.864,0.148
	l-30.517,9.995c-0.533-5.753-6.9-10.265-15.911-11.654c-0.633-1.412-1.734-2.568-3.108-3.263V28.399
	c6.092-1.273,10.809-6.343,11.456-12.787c0.126-1.258-0.549-2.459-1.688-3.005c-4.004-1.92-8.3-2.893-12.768-2.893
	c-4.469,0-8.765,0.974-12.767,2.893c-1.138,0.546-1.812,1.747-1.688,3.004c0.645,6.445,5.361,11.515,11.454,12.788v17.811
	c-1.391,0.703-2.506,1.873-3.135,3.309C7.69,50.851,1.786,54.741,0.475,59.775l-36.704-8.839c-0.664-0.16-1.365-0.089-1.982,0.204
	c-0.848,0.399-8.309,4.093-9.397,10.533c-1.104,6.488,5.9,13.221,6.703,13.967c0.548,0.51,1.267,0.797,2.016,0.804l40.558,0.375
	c0.778,0.977,1.937,1.96,3.619,2.873c2.339,3.021,5.433,5.344,8.956,6.727l2.127,8.234c0.239,0.93,0.91,1.688,1.803,2.04
	c0.715,0.282,7.088,2.768,10.863,3.184c1.078,0.117,2.422,0.159,3.793,0.159c3.346,0,6.854-0.25,7.061-0.265
	c0.976-0.07,1.855-0.612,2.357-1.451c0.502-0.84,0.563-1.871,0.165-2.764l-5.996-13.431c0.711-0.672,1.38-1.394,1.995-2.166
	c2.815-1.415,4.29-3.027,5.007-4.53c0.378-0.502,0.61-1.119,0.61-1.796v-1.064l44.432-9.563c0.785-0.169,1.471-0.646,1.901-1.323
	C91.354,60.117,93.447,56.174,91.403,53.369z M0.177,70.804l-37.791-0.349c-2.113-2.232-4.439-5.665-4.08-7.779
	c0.405-2.395,3.386-4.593,5.17-5.64l36.701,8.838V70.804z M13.937,17.108c5.109-1.852,10.907-1.853,16.019,0.001
	c-1.201,3.308-4.346,5.608-8.01,5.608C18.28,22.717,15.137,20.417,13.937,17.108z M9.209,74.857c2.843-1.23,7.38-2.188,12.894-2.188
	c5.356,0,9.787,0.906,12.644,2.087c-0.976,1.568-2.21,2.924-3.639,4.019c-0.079,0.052-0.152,0.106-0.225,0.164
	c-2.533,1.866-5.635,2.937-8.938,2.937C16.719,81.875,11.955,79.184,9.209,74.857z M29.688,93.913
	c-2.011-0.223-5.634-1.436-7.899-2.265l-0.985-3.816c0.379,0.021,0.759,0.043,1.142,0.043c3.371,0,6.592-0.8,9.465-2.241
	l3.734,8.365C33.18,94.054,31.063,94.062,29.688,93.913z M38.027,63.069l-3.161,1.035c-3.31-1.057-7.53-1.716-12.764-1.716
	c-7.083,0-12.33,1.196-15.926,2.976v-3.461c0-2.505,4.595-5.868,12.294-6.697c0.035-0.003,0.069-0.002,0.104-0.006
	c0.451-0.05,0.917-0.085,1.385-0.115c0.094-0.006,0.182-0.017,0.275-0.021c0.193-0.011,0.394-0.011,0.589-0.019
	c0.393-0.014,0.784-0.029,1.189-0.03c0.343,0,0.69,0.012,1.037,0.022c0.202,0.005,0.409,0.006,0.608,0.015
	c0.561,0.027,1.123,0.068,1.686,0.125c0.085,0.009,0.17,0.012,0.255,0.013c7.781,0.804,12.428,4.194,12.428,6.714V63.069z
	 M85.848,57.43l-33.053,7.114l23.129-7.575c3.588-0.068,7.735,0.05,9.984,0.327C85.889,57.34,85.868,57.385,85.848,57.43z"/>
</svg>
