<?xml version="1.0" encoding="utf-8"?>
<!-- Generator: Adobe Illustrator 16.0.0, SVG Export Plug-In . SVG Version: 6.00 Build 0)  -->
<!DOCTYPE svg PUBLIC "-//W3C//DTD SVG 1.1//EN" "http://www.w3.org/Graphics/SVG/1.1/DTD/svg11.dtd">
<svg version="1.1" id="图层_1" xmlns="http://www.w3.org/2000/svg" xmlns:xlink="http://www.w3.org/1999/xlink" x="0px" y="0px"
	 width="110px" height="114.667px" viewBox="0 0 110 114.667" enable-background="new 0 0 110 114.667" xml:space="preserve">
<g>
	<g>
		<circle fill="#F7F7F7" stroke="#C7C8C8" stroke-miterlimit="10" cx="11.939" cy="54.875" r="88.8"/>
	</g>
</g>
<linearGradient id="SVGID_1_" gradientUnits="userSpaceOnUse" x1="-5.4492" y1="54.8755" x2="74.7607" y2="54.8755">
	<stop  offset="0" style="stop-color:#EEC02A"/>
	<stop  offset="1" style="stop-color:#D6372C"/>
</linearGradient>
<path fill="url(#SVGID_1_)" d="M73.51,39.504l-9.211-6.611c1.705-2.13,2.658-4.607,2.658-7.162c0-3.771-2.034-7.394-5.58-9.939
	c-3.297-2.366-7.629-3.669-12.199-3.669c-3.748,0-7.328,0.889-10.317,2.51L28.345,7.084c-0.699-0.503-1.583-0.68-2.423-0.486
	s-1.557,0.74-1.966,1.498L4.375,44.366l-6.434,4.621c-2.156,1.547-3.392,3.788-3.391,6.146c0,2.358,1.236,4.598,3.39,6.141
	l0.179,0.129v38.826c0,1.656,1.343,3,3,3s3-1.344,3-3V65.115c1.279,0.438,2.669,0.675,4.099,0.676c2.574,0,5.03-0.746,6.916-2.1
	l6.559-4.711l50.872-14.149c1.112-0.309,1.948-1.229,2.15-2.366C74.916,41.329,74.448,40.177,73.51,39.504z M49.178,18.122
	c3.277,0,6.448,0.927,8.7,2.543c1.985,1.426,3.079,3.224,3.079,5.065c0,1.281-0.53,2.542-1.521,3.671L44.591,18.746
	C46.033,18.339,47.594,18.122,49.178,18.122z M8.218,59.791c-1.31,0-2.555-0.355-3.416-0.973l-3.363-2.417
	c-0.564-0.405-0.888-0.867-0.888-1.269c-0.001-0.402,0.323-0.865,0.89-1.271l4.976-3.573l8.548,6.137l-3.33,2.392
	C10.773,59.435,9.528,59.791,8.218,59.791z M20.572,53.064l-10.144-7.281l17.188-31.836l9.355,6.715
	c0.001,0.001,0.002,0.003,0.004,0.004l20.902,15.003c0,0,0,0,0,0l7.048,5.059L20.572,53.064z"/>
</svg>
