<?xml version="1.0" encoding="utf-8"?>
<!-- Generator: Adobe Illustrator 16.0.0, SVG Export Plug-In . SVG Version: 6.00 Build 0)  -->
<!DOCTYPE svg PUBLIC "-//W3C//DTD SVG 1.1//EN" "http://www.w3.org/Graphics/SVG/1.1/DTD/svg11.dtd">
<svg version="1.1" id="图层_1" xmlns="http://www.w3.org/2000/svg" xmlns:xlink="http://www.w3.org/1999/xlink" x="0px" y="0px"
	 width="110px" height="114.667px" viewBox="0 0 110 114.667" enable-background="new 0 0 110 114.667" xml:space="preserve">
<g>
	<g>
		<circle fill="#F7F7F7" stroke="#C7C8C8" stroke-miterlimit="10" cx="11.939" cy="54.875" r="88.8"/>
	</g>
</g>
<linearGradient id="SVGID_1_" gradientUnits="userSpaceOnUse" x1="-7" y1="54.8755" x2="83.709" y2="54.8755">
	<stop  offset="0" style="stop-color:#EEC02A"/>
	<stop  offset="1" style="stop-color:#D6372C"/>
</linearGradient>
<path fill="url(#SVGID_1_)" d="M70.397,44.771v-2.376c0-6.792-3.13-12.62-7.561-15.057c-2.171-5.814-8.179-17.818-20.854-17.818
	c-10.461,0-23.21,14.087-31.91,28.5c-0.21-5.575-3.639-10.035-7.857-10.035h-1.32C-3.458,27.985-7,32.723-7,38.547v44.958
	c0,5.823,3.542,10.562,7.896,10.562h1.32c4.354,0,7.897-4.738,7.897-10.562V62.169c1.871-6.569,7.264-16.519,13.41-24.651
	c6.992-9.251,14.065-14.999,18.46-14.999c4.738,0,7.893,3.007,9.873,6.03c-3.476,2.869-5.803,7.994-5.803,13.845v2.377
	c-7.923,5.787-13.311,17.035-13.311,29.936v4.945c0,3.59,2.176,6.5,4.859,6.5h4.246c2.903,8.392,9.257,14.076,16.378,14.076
	c7.122,0,13.476-5.685,16.376-14.076h4.248c2.684,0,4.859-2.91,4.859-6.5v-4.945C83.709,61.806,78.32,50.558,70.397,44.771z
	 M56.098,40.763c0.424-0.983,1.219-1.647,2.127-1.647c0.896,0,1.683,0.646,2.111,1.609c-0.687-0.072-1.375-0.103-2.063-0.098
	c-0.016,0-0.03-0.003-0.047-0.003c-0.003,0-0.005,0-0.008,0C57.51,40.63,56.801,40.676,56.098,40.763z M52.09,55.3
	c0.198-0.067,0.397-0.125,0.589-0.226c1.944-1.013,3.979-1.479,6.018-1.421c8.086,0.321,14.665,8.805,15.25,19.5h-2.809H45.311
	h-2.808C42.943,65.109,46.778,58.316,52.09,55.3z M54.674,86.154h7.104C59.605,87.537,56.846,87.539,54.674,86.154z"/>
</svg>
