<?xml version="1.0" encoding="utf-8"?>
<!-- Generator: Adobe Illustrator 16.0.0, SVG Export Plug-In . SVG Version: 6.00 Build 0)  -->
<!DOCTYPE svg PUBLIC "-//W3C//DTD SVG 1.1//EN" "http://www.w3.org/Graphics/SVG/1.1/DTD/svg11.dtd">
<svg version="1.1" id="图层_1" xmlns="http://www.w3.org/2000/svg" xmlns:xlink="http://www.w3.org/1999/xlink" x="0px" y="0px"
	 width="110px" height="114.667px" viewBox="0 0 110 114.667" enable-background="new 0 0 110 114.667" xml:space="preserve">
<g>
	<g>
		<circle fill="#F7F7F7" stroke="#C7C8C8" stroke-miterlimit="10" cx="11.939" cy="54.875" r="88.8"/>
	</g>
</g>
<g>
	<linearGradient id="SVGID_1_" gradientUnits="userSpaceOnUse" x1="-8.2314" y1="57.3315" x2="88.4775" y2="57.3315">
		<stop  offset="0" style="stop-color:#EEC02A"/>
		<stop  offset="1" style="stop-color:#D6372C"/>
	</linearGradient>
	<path fill="url(#SVGID_1_)" d="M85.478,42.844h-3.479c-1.657,0-3,1.343-3,3v0.525c-0.059-0.004-0.114-0.018-0.174-0.018H1.422
		c-0.06,0-0.115,0.014-0.174,0.018v-0.525c0-1.657-1.343-3-3-3h-3.479c-1.657,0-3,1.343-3,3V68.82c0,1.656,1.343,3,3,3h3.479
		c1.657,0,3-1.344,3-3v-0.529c0.059,0.004,0.114,0.018,0.174,0.018h77.402c0.06,0,0.115-0.014,0.174-0.018v0.529
		c0,1.656,1.343,3,3,3h3.479c1.657,0,3-1.344,3-3V45.844C88.478,44.187,87.135,42.844,85.478,42.844z M75.824,62.308H4.422v-0.557
		v-8.836v-0.563h71.402v0.563v8.836V62.308z"/>
	<linearGradient id="SVGID_2_" gradientUnits="userSpaceOnUse" x1="5.9287" y1="25.3862" x2="17.4268" y2="25.3862">
		<stop  offset="0" style="stop-color:#EEC02A"/>
		<stop  offset="1" style="stop-color:#D6372C"/>
	</linearGradient>
	<path fill="url(#SVGID_2_)" d="M11.538,35.969c0.372,1.323,1.576,2.188,2.886,2.188c0.27,0,0.543-0.037,0.814-0.113
		c1.595-0.448,2.524-2.104,2.075-3.7l-5.496-19.542c-0.448-1.596-2.109-2.52-3.7-2.075c-1.595,0.448-2.524,2.104-2.075,3.7
		L11.538,35.969z"/>
	<linearGradient id="SVGID_3_" gradientUnits="userSpaceOnUse" x1="20.3433" y1="24.0786" x2="30.0542" y2="24.0786">
		<stop  offset="0" style="stop-color:#EEC02A"/>
		<stop  offset="1" style="stop-color:#D6372C"/>
	</linearGradient>
	<path fill="url(#SVGID_3_)" d="M24.095,35.651c0.246,1.467,1.517,2.505,2.955,2.505c0.165,0,0.332-0.013,0.499-0.041
		c1.635-0.273,2.737-1.82,2.464-3.454l-3.71-22.154c-0.274-1.635-1.829-2.737-3.454-2.464c-1.635,0.273-2.737,1.82-2.464,3.454
		L24.095,35.651z"/>
	<linearGradient id="SVGID_4_" gradientUnits="userSpaceOnUse" x1="58.3457" y1="25.3853" x2="69.8428" y2="25.3853">
		<stop  offset="0" style="stop-color:#EEC02A"/>
		<stop  offset="1" style="stop-color:#D6372C"/>
	</linearGradient>
	<path fill="url(#SVGID_4_)" d="M60.534,38.044c0.272,0.077,0.545,0.113,0.814,0.113c1.31,0,2.514-0.865,2.886-2.188l5.495-19.542
		c0.449-1.596-0.48-3.252-2.075-3.7c-1.594-0.45-3.251,0.479-3.7,2.075l-5.495,19.542C58.01,35.939,58.939,37.596,60.534,38.044z"/>
	<linearGradient id="SVGID_5_" gradientUnits="userSpaceOnUse" x1="45.7163" y1="24.0791" x2="55.4292" y2="24.0791">
		<stop  offset="0" style="stop-color:#EEC02A"/>
		<stop  offset="1" style="stop-color:#D6372C"/>
	</linearGradient>
	<path fill="url(#SVGID_5_)" d="M48.221,38.115c0.168,0.028,0.335,0.041,0.5,0.041c1.438,0,2.709-1.038,2.955-2.504l3.712-22.154
		c0.273-1.635-0.829-3.181-2.463-3.455c-1.631-0.271-3.181,0.829-3.455,2.463L45.758,34.66
		C45.484,36.295,46.587,37.841,48.221,38.115z"/>
	<linearGradient id="SVGID_6_" gradientUnits="userSpaceOnUse" x1="35.0781" y1="23.5679" x2="41.0781" y2="23.5679">
		<stop  offset="0" style="stop-color:#EEC02A"/>
		<stop  offset="1" style="stop-color:#D6372C"/>
	</linearGradient>
	<path fill="url(#SVGID_6_)" d="M38.078,38.156c1.657,0,3-1.343,3-3V11.979c0-1.657-1.343-3-3-3s-3,1.343-3,3v23.177
		C35.078,36.813,36.421,38.156,38.078,38.156z"/>
	<linearGradient id="SVGID_7_" gradientUnits="userSpaceOnUse" x1="5.9287" y1="89.2769" x2="17.4268" y2="89.2769">
		<stop  offset="0" style="stop-color:#EEC02A"/>
		<stop  offset="1" style="stop-color:#D6372C"/>
	</linearGradient>
	<path fill="url(#SVGID_7_)" d="M15.238,76.619c-1.588-0.443-3.251,0.48-3.7,2.076L6.042,98.234
		c-0.449,1.594,0.48,3.252,2.075,3.699c0.271,0.076,0.545,0.113,0.814,0.113c1.31,0,2.514-0.865,2.886-2.188l5.496-19.539
		C17.763,78.724,16.833,77.068,15.238,76.619z"/>
	<linearGradient id="SVGID_8_" gradientUnits="userSpaceOnUse" x1="20.3433" y1="90.5835" x2="30.0542" y2="90.5835">
		<stop  offset="0" style="stop-color:#EEC02A"/>
		<stop  offset="1" style="stop-color:#D6372C"/>
	</linearGradient>
	<path fill="url(#SVGID_8_)" d="M27.549,76.548c-1.622-0.273-3.18,0.828-3.454,2.463l-3.71,22.154
		c-0.273,1.635,0.829,3.182,2.464,3.455c0.167,0.027,0.334,0.041,0.499,0.041c1.438,0,2.709-1.039,2.955-2.506l3.71-22.154
		C30.286,78.369,29.184,76.822,27.549,76.548z"/>
	<linearGradient id="SVGID_9_" gradientUnits="userSpaceOnUse" x1="58.3457" y1="89.2769" x2="69.8428" y2="89.2769">
		<stop  offset="0" style="stop-color:#EEC02A"/>
		<stop  offset="1" style="stop-color:#D6372C"/>
	</linearGradient>
	<path fill="url(#SVGID_9_)" d="M64.234,78.695c-0.448-1.596-2.107-2.52-3.7-2.076c-1.595,0.449-2.524,2.105-2.075,3.701
		l5.495,19.539c0.372,1.322,1.576,2.188,2.886,2.188c0.27,0,0.543-0.037,0.814-0.113c1.595-0.447,2.524-2.104,2.075-3.699
		L64.234,78.695z"/>
	<linearGradient id="SVGID_10_" gradientUnits="userSpaceOnUse" x1="45.7163" y1="90.5835" x2="55.4292" y2="90.5835">
		<stop  offset="0" style="stop-color:#EEC02A"/>
		<stop  offset="1" style="stop-color:#D6372C"/>
	</linearGradient>
	<path fill="url(#SVGID_10_)" d="M51.676,79.011c-0.274-1.635-1.82-2.738-3.455-2.463c-1.634,0.273-2.736,1.82-2.463,3.455
		l3.712,22.154c0.246,1.465,1.517,2.504,2.955,2.504c0.165,0,0.332-0.014,0.5-0.041c1.634-0.275,2.736-1.82,2.463-3.455
		L51.676,79.011z"/>
	<linearGradient id="SVGID_11_" gradientUnits="userSpaceOnUse" x1="35.0781" y1="91.0972" x2="41.0781" y2="91.0972">
		<stop  offset="0" style="stop-color:#EEC02A"/>
		<stop  offset="1" style="stop-color:#D6372C"/>
	</linearGradient>
	<path fill="url(#SVGID_11_)" d="M38.078,76.507c-1.657,0-3,1.342-3,3v23.18c0,1.658,1.343,3,3,3s3-1.342,3-3v-23.18
		C41.078,77.849,39.735,76.507,38.078,76.507z"/>
</g>
</svg>
