<?xml version="1.0" encoding="utf-8"?>
<!-- Generator: Adobe Illustrator 16.0.0, SVG Export Plug-In . SVG Version: 6.00 Build 0)  -->
<!DOCTYPE svg PUBLIC "-//W3C//DTD SVG 1.1//EN" "http://www.w3.org/Graphics/SVG/1.1/DTD/svg11.dtd">
<svg version="1.1" id="图层_1" xmlns="http://www.w3.org/2000/svg" xmlns:xlink="http://www.w3.org/1999/xlink" x="0px" y="0px"
	 width="110px" height="114.667px" viewBox="0 0 110 114.667" enable-background="new 0 0 110 114.667" xml:space="preserve">
<g>
	<g>
		<circle fill="#F7F7F7" stroke="#C7C8C8" stroke-miterlimit="10" cx="11.939" cy="54.875" r="88.8"/>
	</g>
</g>
<linearGradient id="SVGID_1_" gradientUnits="userSpaceOnUse" x1="-10.8789" y1="57.3335" x2="85.8496" y2="57.3335">
	<stop  offset="0" style="stop-color:#EEC02A"/>
	<stop  offset="1" style="stop-color:#D6372C"/>
</linearGradient>
<path fill="url(#SVGID_1_)" d="M85.572,59.968c0.019-0.045,0.033-0.09,0.051-0.135c0.048-0.125,0.088-0.252,0.118-0.382
	c0.012-0.049,0.024-0.098,0.034-0.147c0.032-0.177,0.053-0.355,0.054-0.535c0-0.004,0.001-0.007,0.001-0.011V17.04
	c0.004-0.065,0.02-0.127,0.02-0.194c0-0.873-0.372-1.659-0.967-2.207l-3.425-3.853c-0.569-0.64-1.385-1.007-2.242-1.007H53.897
	c-0.856,0-1.672,0.366-2.24,1.005l-3.62,4.066c-0.085,0.096-0.16,0.198-0.231,0.301c-0.005,0.007-0.011,0.013-0.016,0.02
	c-0.103,0.152-0.187,0.312-0.259,0.478c-0.013,0.029-0.022,0.059-0.034,0.088c-0.058,0.145-0.103,0.292-0.138,0.442
	c-0.007,0.033-0.016,0.065-0.022,0.099c-0.036,0.19-0.058,0.383-0.057,0.577v15.052H26.606v-3.647c0-1.657-1.343-3-3-3H8.074V11.979
	c0-1.657-1.343-3-3-3H-7.879c-1.657,0-3,1.343-3,3v90.709c0,1.657,1.343,3,3,3H5.074c1.657,0,3-1.343,3-3v-51.72h15.532
	c1.657,0,3-1.343,3-3v-4.196H47.28v14.976c-0.001,0.194,0.021,0.387,0.058,0.577c0.006,0.032,0.014,0.063,0.021,0.097
	c0.034,0.152,0.08,0.301,0.139,0.447c0.012,0.027,0.021,0.057,0.032,0.084c0.072,0.166,0.158,0.328,0.261,0.48
	c0.003,0.004,0.006,0.008,0.009,0.012c0.072,0.105,0.149,0.211,0.237,0.309l3.62,4.064c0.569,0.639,1.385,1.005,2.24,1.005h25.318
	c0.856,0,1.673-0.366,2.242-1.007l3.614-4.064c0.074-0.084,0.139-0.174,0.202-0.264c0.017-0.022,0.035-0.043,0.051-0.066
	C85.422,60.277,85.503,60.125,85.572,59.968z M53.28,55.758V19.846h26.55v35.913H53.28z M2.074,99.688h-6.953V14.979h6.953v13.283
	v19.706V99.688z M20.606,44.968H8.074V31.262h12.532V44.968z"/>
</svg>
