<?xml version="1.0" encoding="utf-8"?>
<!-- Generator: Adobe Illustrator 16.0.0, SVG Export Plug-In . SVG Version: 6.00 Build 0)  -->
<!DOCTYPE svg PUBLIC "-//W3C//DTD SVG 1.1//EN" "http://www.w3.org/Graphics/SVG/1.1/DTD/svg11.dtd">
<svg version="1.1" id="图层_1" xmlns="http://www.w3.org/2000/svg" xmlns:xlink="http://www.w3.org/1999/xlink" x="0px" y="0px"
	 width="110px" height="114.667px" viewBox="0 0 110 114.667" enable-background="new 0 0 110 114.667" xml:space="preserve">
<g>
	<g>
		<circle fill="#F7F7F7" stroke="#C7C8C8" stroke-miterlimit="10" cx="11.939" cy="54.875" r="88.8"/>
	</g>
</g>
<linearGradient id="SVGID_1_" gradientUnits="userSpaceOnUse" x1="-18.751" y1="57.3345" x2="77.958" y2="57.3345">
	<stop  offset="0" style="stop-color:#EEC02A"/>
	<stop  offset="1" style="stop-color:#D6372C"/>
</linearGradient>
<path fill="url(#SVGID_1_)" d="M74.958,8.979h-90.705c-1.657,0-3,1.343-3,3v70.729c0,0.013-0.004,0.025-0.004,0.038
	s0.004,0.025,0.004,0.038v19.904c0,1.656,1.343,3,3,3h90.705c1.657,0,3-1.344,3-3V11.979C77.958,10.323,76.615,8.979,74.958,8.979z
	 M71.958,79.747H54.841V14.979h17.117V79.747z M10.356,79.747V20.025h38.484v59.721H10.356z M4.356,14.979v64.767h-17.104V14.979
	H4.356z M-12.747,99.689V85.747h84.705v13.942H-12.747z"/>
</svg>
