<?xml version="1.0" encoding="utf-8"?>
<!-- Generator: Adobe Illustrator 16.0.0, SVG Export Plug-In . SVG Version: 6.00 Build 0)  -->
<!DOCTYPE svg PUBLIC "-//W3C//DTD SVG 1.1//EN" "http://www.w3.org/Graphics/SVG/1.1/DTD/svg11.dtd">
<svg version="1.1" id="图层_1" xmlns="http://www.w3.org/2000/svg" xmlns:xlink="http://www.w3.org/1999/xlink" x="0px" y="0px"
	 width="110px" height="114.667px" viewBox="0 0 110 114.667" enable-background="new 0 0 110 114.667" xml:space="preserve">
<g>
	<g>
		<circle fill="#F7F7F7" stroke="#C7C8C8" stroke-miterlimit="10" cx="11.939" cy="54.875" r="88.8"/>
	</g>
</g>
<linearGradient id="SVGID_1_" gradientUnits="userSpaceOnUse" x1="-10.3789" y1="57.3335" x2="86.3389" y2="57.3335">
	<stop  offset="0" style="stop-color:#EEC02A"/>
	<stop  offset="1" style="stop-color:#D6372C"/>
</linearGradient>
<path fill="url(#SVGID_1_)" d="M85.364,22.319c-0.088-0.09-0.176-0.178-0.28-0.271c-5.186-4.605-12.157-7.142-19.632-7.142
	c-2.271,0-4.521,0.239-6.71,0.713l-3.504-3.111c-2.561-2.274-5.984-3.527-9.64-3.527c-3.4,0-6.651,1.107-9.152,3.118
	c-2.756,2.214-4.317,5.248-4.398,8.542c-0.067,2.728,0.905,5.313,2.74,7.441L3.156,47.515c-1.364-0.775-2.975-1.23-4.705-1.23
	c-4.869,0-8.83,3.556-8.83,7.926s3.961,7.925,8.83,7.925c0.488,0,0.963-0.045,1.43-0.113l30.721,26.414
	c-0.825,1.205-1.311,2.619-1.311,4.135c0,3.125,2.031,5.826,4.968,7.115H17.411c-1.657,0-3,1.344-3,3c0,1.658,1.343,3,3,3h41.42
	c1.657,0,3-1.342,3-3c0-1.656-1.343-3-3-3H41.984c2.936-1.289,4.967-3.99,4.967-7.115c0-4.371-3.961-7.926-8.83-7.926
	c-0.824,0-1.619,0.109-2.377,0.299L5.511,58.951c1.106-1.324,1.771-2.96,1.771-4.74c0-0.695-0.11-1.365-0.298-2.006l31.956-19.633
	c-2.371,7.918,0.145,16.457,6.818,22.381c0.096,0.084,0.195,0.164,0.324,0.264c0.557,0.467,1.242,0.701,1.929,0.701
	c0.665,0,1.33-0.219,1.88-0.662L85.21,26.863c0.684-0.55,1.102-1.363,1.127-2.24C86.364,23.746,86.014,22.908,85.364,22.319z
	 M-4.379,54.211c0-0.912,1.162-1.926,2.83-1.926s2.83,1.015,2.83,1.926c0,0.492-0.35,1.012-0.927,1.389
	c-0.542,0.023-1.071,0.199-1.534,0.51c-0.122,0.012-0.241,0.027-0.369,0.027C-3.217,56.137-4.379,55.121-4.379,54.211z
	 M40.951,92.572c0,0.91-1.162,1.926-2.83,1.926s-2.83-1.016-2.83-1.926c0-0.912,1.162-1.926,2.83-1.926S40.951,91.66,40.951,92.572z
	 M48.19,48.925c-4.237-4.729-5.336-10.881-2.822-16.501c0.535-1.194,0.232-2.599-0.746-3.468l-4.677-4.153
	c-1.261-1.12-1.936-2.546-1.899-4.017c0.037-1.498,0.804-2.922,2.159-4.012c1.439-1.158,3.355-1.795,5.394-1.795
	c2.153,0,4.215,0.733,5.655,2.014l4.679,4.154c0.758,0.673,1.802,0.918,2.781,0.651c2.175-0.593,4.441-0.894,6.738-0.894
	c4.819,0,9.351,1.288,13.045,3.655L48.19,48.925z"/>
</svg>
