<?xml version="1.0" encoding="utf-8"?>
<!-- Generator: Adobe Illustrator 16.0.0, SVG Export Plug-In . SVG Version: 6.00 Build 0)  -->
<!DOCTYPE svg PUBLIC "-//W3C//DTD SVG 1.1//EN" "http://www.w3.org/Graphics/SVG/1.1/DTD/svg11.dtd">
<svg version="1.1" id="图层_1" xmlns="http://www.w3.org/2000/svg" xmlns:xlink="http://www.w3.org/1999/xlink" x="0px" y="0px"
	 width="110px" height="114.667px" viewBox="0 0 110 114.667" enable-background="new 0 0 110 114.667" xml:space="preserve">
<g>
	<g>
		<circle fill="#F7F7F7" stroke="#C7C8C8" stroke-miterlimit="10" cx="11.939" cy="54.875" r="88.8"/>
	</g>
</g>
<linearGradient id="SVGID_1_" gradientUnits="userSpaceOnUse" x1="-16.9224" y1="54.8755" x2="79.7861" y2="54.8755">
	<stop  offset="0" style="stop-color:#EEC02A"/>
	<stop  offset="1" style="stop-color:#D6372C"/>
</linearGradient>
<path fill="url(#SVGID_1_)" d="M79.438,79.054L52.995,29.006c-0.52-0.983-1.54-1.599-2.652-1.599H34.431V9.521c0-1.657-1.343-3-3-3
	s-3,1.343-3,3v17.886H12.518c-1.112,0-2.133,0.615-2.653,1.599l-26.44,50.048c-0.491,0.93-0.459,2.049,0.083,2.949
	c0.543,0.901,1.518,1.452,2.569,1.452H8.667c1.921,11.292,11.435,19.774,22.765,19.774c11.33,0,20.842-8.482,22.764-19.774h22.591
	c1.052,0,2.026-0.551,2.569-1.452C79.898,81.103,79.93,79.984,79.438,79.054z M31.431,97.23c-8.039,0-14.85-5.838-16.656-13.773
	h33.312C46.281,91.392,39.47,97.23,31.431,97.23z M-8.945,77.456l23.271-44.048h34.209l23.274,44.048H-8.945z"/>
</svg>
