<?xml version="1.0" encoding="utf-8"?>
<!-- Generator: Adobe Illustrator 16.0.0, SVG Export Plug-In . SVG Version: 6.00 Build 0)  -->
<!DOCTYPE svg PUBLIC "-//W3C//DTD SVG 1.1//EN" "http://www.w3.org/Graphics/SVG/1.1/DTD/svg11.dtd">
<svg version="1.1" id="图层_1" xmlns="http://www.w3.org/2000/svg" xmlns:xlink="http://www.w3.org/1999/xlink" x="0px" y="0px"
	 width="110px" height="114.667px" viewBox="0 0 110 114.667" enable-background="new 0 0 110 114.667" xml:space="preserve">
<g>
	<g>
		<circle fill="#F7F7F7" stroke="#C7C8C8" stroke-miterlimit="10" cx="11.939" cy="54.875" r="88.8"/>
	</g>
</g>
<linearGradient id="SVGID_1_" gradientUnits="userSpaceOnUse" x1="-7.585" y1="54.8755" x2="89.1436" y2="54.8755">
	<stop  offset="0" style="stop-color:#EEC02A"/>
	<stop  offset="1" style="stop-color:#D6372C"/>
</linearGradient>
<path fill="url(#SVGID_1_)" d="M87.009,21.952l-20.132-7.693c-0.343-0.131-0.705-0.198-1.071-0.198h-0.942v-0.771
	c0-0.001,0-0.003,0-0.004c-0.001-0.231-0.033-0.454-0.083-0.67c-0.015-0.065-0.04-0.126-0.06-0.19
	c-0.046-0.152-0.1-0.299-0.168-0.439c-0.033-0.07-0.07-0.136-0.109-0.203c-0.076-0.13-0.162-0.252-0.257-0.369
	c-0.047-0.058-0.09-0.117-0.142-0.171c-0.138-0.147-0.288-0.281-0.453-0.398c-0.016-0.011-0.025-0.025-0.041-0.036l-5.54-3.768
	c-0.498-0.338-1.086-0.52-1.688-0.52h-3.235c-0.602,0-1.189,0.181-1.688,0.52l-5.54,3.768c-0.015,0.01-0.025,0.025-0.04,0.036
	c-0.166,0.117-0.316,0.251-0.454,0.398c-0.052,0.055-0.095,0.114-0.142,0.171c-0.095,0.117-0.18,0.239-0.257,0.369
	c-0.039,0.067-0.076,0.133-0.109,0.203c-0.068,0.141-0.122,0.288-0.169,0.439c-0.019,0.064-0.043,0.125-0.059,0.19
	c-0.05,0.216-0.082,0.439-0.082,0.67c0,0.001-0.001,0.003-0.001,0.004v0.771h-0.942c-0.366,0-0.729,0.067-1.071,0.198l-20.318,7.765
	c-1.352,0.517-2.142,1.924-1.879,3.347s1.503,2.456,2.95,2.456H26.6l3.749,10.806H17.44c-1.265-2.015-3.271-3.834-5.949-5.368V10.87
	c0-1.657-1.343-3-3-3H-4.585c-1.657,0-3,1.343-3,3v89.36c0,1.656,1.343,3,3,3H8.491c1.657,0,3-1.344,3-3V54.55
	c2.547-1.459,4.49-3.174,5.762-5.072H34.11l0.974,2.807v3.266c0,0.192,0.021,0.379,0.057,0.562c0.012,0.062,0.032,0.12,0.047,0.18
	c0.031,0.119,0.064,0.236,0.109,0.35c0.025,0.066,0.057,0.128,0.086,0.191c0.049,0.103,0.103,0.202,0.162,0.298
	c0.037,0.059,0.075,0.116,0.116,0.172c0.068,0.095,0.143,0.183,0.222,0.269c0.043,0.047,0.085,0.095,0.131,0.139
	c0.093,0.089,0.193,0.169,0.297,0.245c0.043,0.031,0.082,0.066,0.126,0.096c0.144,0.094,0.295,0.178,0.455,0.246
	c0.01,0.005,0.018,0.011,0.027,0.015c0.159,0.067,0.325,0.122,0.499,0.161l16.562,3.77c0.22,0.051,0.442,0.075,0.666,0.075
	s0.446-0.024,0.666-0.075l16.566-3.77c0.174-0.039,0.34-0.094,0.5-0.161c0.009-0.004,0.017-0.01,0.025-0.014
	c0.161-0.069,0.312-0.153,0.456-0.247c0.044-0.029,0.083-0.064,0.126-0.096c0.104-0.076,0.204-0.156,0.297-0.245
	c0.046-0.044,0.088-0.092,0.131-0.139c0.079-0.086,0.153-0.174,0.222-0.269c0.041-0.056,0.079-0.113,0.116-0.172
	c0.06-0.096,0.113-0.196,0.162-0.298c0.029-0.063,0.061-0.125,0.086-0.191c0.045-0.114,0.078-0.231,0.109-0.351
	c0.016-0.06,0.035-0.118,0.047-0.179c0.035-0.183,0.057-0.371,0.057-0.562v-3.295l7.953-24.431h3.958c0.008,0,0.015,0.001,0.02,0
	c1.657,0,3-1.343,3-3C89.144,23.469,88.244,22.323,87.009,21.952z M44.159,20.061h3.389h14.315h3.389l4.618,1.765H39.541
	L44.159,20.061z M53.131,48.781l-2.244-20.956h7.638L56.28,48.781H53.131z M44.852,27.825l2.244,20.956h-6.877l-2.82-8.13
	c-0.025-0.074-0.046-0.15-0.077-0.222L32.95,27.825H44.852z M-1.585,97.23V13.87h7.076v21.173c0,0.008-0.003,0.015-0.003,0.023
	v17.68c0,0.008,0.003,0.015,0.003,0.023v44.46H-1.585z M11.491,47.081v-6.35c0.988,1.047,1.526,2.136,1.526,3.174
	C13.018,44.945,12.479,46.034,11.491,47.081z M69.034,48.781h-6.719l2.244-20.956h11.297L69.034,48.781z"/>
</svg>
