<?xml version="1.0" encoding="utf-8"?>
<!-- Generator: Adobe Illustrator 16.0.0, SVG Export Plug-In . SVG Version: 6.00 Build 0)  -->
<!DOCTYPE svg PUBLIC "-//W3C//DTD SVG 1.1//EN" "http://www.w3.org/Graphics/SVG/1.1/DTD/svg11.dtd">
<svg version="1.1" id="图层_1" xmlns="http://www.w3.org/2000/svg" xmlns:xlink="http://www.w3.org/1999/xlink" x="0px" y="0px"
	 width="43.25px" height="36.75px" viewBox="0 0 43.25 36.75" enable-background="new 0 0 43.25 36.75" xml:space="preserve">
<path fill="none" stroke="#B3B2B3" stroke-width="3" stroke-linecap="round" stroke-linejoin="round" stroke-miterlimit="10" d="
	M36.878,5.97h-6.6c-3.463,0-6.379,0.975-8.014,2.502C20.629,6.945,17.714,5.97,14.25,5.97h-6.6c-1.039,0-1.886,0.816-1.886,1.82
	v20.938c0,1.006,0.847,1.82,1.886,1.82h6.6c2.515,0,5.246,1.043,6.226,2.029c0.443,0.449,1.059,0.703,1.699,0.703h0.19
	c0.637,0,1.246-0.254,1.686-0.699c0.977-0.988,3.709-2.033,6.229-2.033h6.6c1.041,0,1.887-0.814,1.887-1.82V7.791
	C38.765,6.787,37.919,5.97,36.878,5.97z"/>
<line fill="none" stroke="#B3B2B3" stroke-width="3" stroke-linecap="round" stroke-linejoin="round" stroke-miterlimit="10" x1="22.265" y1="7.222" x2="22.265" y2="32.03"/>
</svg>
