<?xml version="1.0" encoding="utf-8"?>
<!-- Generator: Adobe Illustrator 16.0.0, SVG Export Plug-In . SVG Version: 6.00 Build 0)  -->
<!DOCTYPE svg PUBLIC "-//W3C//DTD SVG 1.1//EN" "http://www.w3.org/Graphics/SVG/1.1/DTD/svg11.dtd">
<svg version="1.1" id="图层_1" xmlns="http://www.w3.org/2000/svg" xmlns:xlink="http://www.w3.org/1999/xlink" x="0px" y="0px"
	 width="77px" height="77.667px" viewBox="0 0 77 77.667" enable-background="new 0 0 77 77.667" xml:space="preserve">
<path fill="none" stroke="#B5B4B5" stroke-width="4" stroke-linecap="round" stroke-linejoin="round" stroke-miterlimit="10" d="
	M33.55,65.161c-0.43,0-0.861-0.015-1.289-0.045c-1.994-0.121-3.954-0.53-5.677-1.188c-2.313-0.879-4.619-2.337-6.67-4.216
	c-2.074-1.898-3.771-4.077-5.043-6.478c-2.552-4.772-3.594-10.163-3.016-15.596c0.593-5.409,2.845-10.712,6.34-14.93
	c2.714-3.257,6.391-5.92,10.632-7.7c3.405-1.408,7.108-2.152,10.704-2.152c0.748,0,1.5,0.032,2.236,0.096
	c6.883,0.68,13.198,3.941,17.774,9.186c4.616,5.265,7.157,12.122,7.157,19.311c0,4.639-0.696,7.665-2.192,9.523
	c-1.171,1.441-2.687,2.144-4.631,2.144c-1.375,0-2.997-0.357-4.817-1.062l-0.072-0.028l-0.09-0.015l-1.1-0.434
	c-1.824-0.741-3.554-1.444-4.852-1.444c-0.062,0-0.123,0.002-0.184,0.005c-0.757,0.035-1.172,0.428-1.387,0.751
	c-0.523,0.789-0.832,2.02-0.939,3.762c-0.092,1.316-0.322,2.423-0.705,3.376c-0.976,2.604-2.842,4.544-5.553,5.781
	C38.229,64.693,35.937,65.161,33.55,65.161z"/>
<path fill="none" stroke="#B5B4B5" stroke-width="4" stroke-linecap="round" stroke-linejoin="round" stroke-miterlimit="10" d="
	M35.941,56.369c-2.887,0-5.236-2.348-5.236-5.234s2.349-5.234,5.236-5.234c2.868,0,5.201,2.348,5.201,5.234
	S38.809,56.369,35.941,56.369z"/>
<path fill="none" stroke="#B5B4B5" stroke-width="4" stroke-linecap="round" stroke-linejoin="round" stroke-miterlimit="10" d="
	M23.725,46.745c-1.41,0-2.784-0.566-3.772-1.554c-1.003-1.002-1.555-2.348-1.555-3.788c0-1.432,0.552-2.772,1.555-3.774l0.095-0.109
	c1.003-0.929,2.34-1.461,3.677-1.461c1.402,0,2.75,0.561,3.796,1.578c1.004,1.004,1.561,2.344,1.561,3.767
	c0,1.432-0.557,2.776-1.568,3.788C26.498,46.191,25.15,46.745,23.725,46.745z"/>
<path fill="none" stroke="#B5B4B5" stroke-width="4" stroke-linecap="round" stroke-linejoin="round" stroke-miterlimit="10" d="
	M53.892,40.978c-1.426,0-2.774-0.554-3.793-1.558c-0.99-1.009-1.563-2.386-1.563-3.77c0-1.402,0.571-2.777,1.567-3.775
	c1.01-1.01,2.357-1.566,3.789-1.566c1.426,0,2.758,0.556,3.756,1.564c1.002,0.976,1.57,2.348,1.57,3.777
	c0,1.434-0.556,2.773-1.564,3.77C56.646,40.424,55.312,40.978,53.892,40.978z"/>
<path fill="none" stroke="#B5B4B5" stroke-width="4" stroke-linecap="round" stroke-linejoin="round" stroke-miterlimit="10" d="
	M29.863,34.222c-1.402,0-2.736-0.562-3.758-1.584c-1.022-1.011-1.585-2.351-1.585-3.774c0-1.401,0.563-2.736,1.585-3.758l0.06-0.06
	c0.997-0.982,2.311-1.524,3.698-1.524c1.412,0,2.752,0.562,3.773,1.584c1.012,1.011,1.57,2.345,1.57,3.758
	c0,1.436-0.556,2.774-1.566,3.771C32.615,33.66,31.275,34.222,29.863,34.222z"/>
<path fill="none" stroke="#B5B4B5" stroke-width="4" stroke-linecap="round" stroke-linejoin="round" stroke-miterlimit="10" d="
	M44.39,30.859c-1.409,0-2.784-0.567-3.772-1.555c-1.002-1.002-1.554-2.347-1.554-3.787c0-1.438,0.549-2.766,1.546-3.736
	c1.004-1.016,2.378-1.593,3.78-1.593c1.422,0,2.768,0.563,3.789,1.586c1.002,1.002,1.554,2.332,1.554,3.743
	c0,1.412-0.556,2.76-1.562,3.795C47.166,30.305,45.819,30.859,44.39,30.859z"/>
</svg>
