<?xml version="1.0" encoding="utf-8"?>
<!-- Generator: Adobe Illustrator 16.0.0, SVG Export Plug-In . SVG Version: 6.00 Build 0)  -->
<!DOCTYPE svg PUBLIC "-//W3C//DTD SVG 1.1//EN" "http://www.w3.org/Graphics/SVG/1.1/DTD/svg11.dtd">
<svg version="1.1" id="图层_1" xmlns="http://www.w3.org/2000/svg" xmlns:xlink="http://www.w3.org/1999/xlink" x="0px" y="0px"
	 width="77px" height="77.667px" viewBox="0 0 77 77.667" enable-background="new 0 0 77 77.667" xml:space="preserve">
<circle fill="none" stroke="#B5B4B5" stroke-width="4" stroke-linecap="round" stroke-linejoin="round" stroke-miterlimit="10" cx="38.398" cy="39.12" r="9.785"/>
<path fill="none" stroke="#B5B4B5" stroke-width="4" stroke-linecap="round" stroke-linejoin="round" stroke-miterlimit="10" d="
	M65.898,42.033v-5.729l-2.959-0.744c-2.293-0.578-4.176-2.209-5.076-4.397c-0.008-0.022-0.018-0.044-0.026-0.067
	c-0.908-2.187-0.737-4.669,0.478-6.703l1.59-2.658l-4.051-4.051l-2.619,1.566c-2.043,1.221-4.537,1.385-6.731,0.466
	c-0.022-0.009-0.044-0.019-0.065-0.028c-2.176-0.901-3.795-2.779-4.369-5.063l-0.756-3.005h-5.729l-0.745,2.958
	c-0.577,2.295-2.209,4.177-4.397,5.076c-0.023,0.01-0.045,0.019-0.067,0.026c-2.187,0.909-4.67,0.738-6.702-0.477l-2.66-1.589
	l-4.05,4.05l1.566,2.619c1.22,2.042,1.384,4.536,0.465,6.73l-0.027,0.067c-0.902,2.175-2.781,3.793-5.064,4.368l-3.005,0.757v5.728
	l2.958,0.746c2.294,0.577,4.176,2.207,5.076,4.396c0.009,0.022,0.018,0.046,0.028,0.067c0.907,2.188,0.737,4.67-0.478,6.703
	l-1.589,2.659l4.049,4.05l2.62-1.565c2.042-1.222,4.536-1.386,6.731-0.466c0.022,0.009,0.044,0.019,0.066,0.027
	c2.175,0.902,3.794,2.78,4.369,5.064l0.757,3.005h5.727l0.745-2.959c0.578-2.294,2.209-4.176,4.398-5.075
	c0.021-0.01,0.043-0.019,0.066-0.029c2.188-0.906,4.669-0.735,6.702,0.479l2.659,1.589l4.05-4.05l-1.565-2.619
	c-1.221-2.042-1.385-4.536-0.466-6.731c0.009-0.021,0.019-0.045,0.028-0.066c0.902-2.175,2.779-3.793,5.062-4.368L65.898,42.033z"/>
</svg>
