<?xml version="1.0" encoding="utf-8"?>
<!-- Generator: Adobe Illustrator 16.0.0, SVG Export Plug-In . SVG Version: 6.00 Build 0)  -->
<!DOCTYPE svg PUBLIC "-//W3C//DTD SVG 1.1//EN" "http://www.w3.org/Graphics/SVG/1.1/DTD/svg11.dtd">
<svg version="1.1" id="图层_1" xmlns="http://www.w3.org/2000/svg" xmlns:xlink="http://www.w3.org/1999/xlink" x="0px" y="0px"
	 width="77px" height="77.667px" viewBox="0 0 77 77.667" enable-background="new 0 0 77 77.667" xml:space="preserve">
<path fill-rule="evenodd" clip-rule="evenodd" fill="#B5B4B5" d="M59.352,24.702v10.655c0,0.345,0,0.345-0.345,0.345h-6.53
	c-0.345,0-0.345,0-0.345-0.345v-2.75c0-0.344,0-0.344,0.345-0.344h3.095v-7.562c0-0.345,0-0.345,0.342-0.345h2.752
	C59.007,24.357,59.352,24.357,59.352,24.702"/>
<path fill="none" stroke="#B5B4B5" stroke-width="4" stroke-linecap="round" stroke-linejoin="round" stroke-miterlimit="10" d="
	M66.571,20.577v27.155c0,1.031-0.345,2.063-1.03,2.75c-0.689,0.688-1.72,1.031-2.408,1.031H15.352c-1.031,0-1.719-0.343-2.406-1.031
	c-1.031-0.687-1.375-1.719-1.375-2.75V20.577c0-1.031,0.344-2.063,1.031-2.75c0.688-0.688,1.719-1.031,2.406-1.031h47.783
	c1.03,0,1.717,0.343,2.405,1.031C66.226,18.514,66.571,19.202,66.571,20.577"/>
<polygon fill-rule="evenodd" clip-rule="evenodd" fill="#B5B4B5" points="33.571,55.702 38.727,61.889 43.884,55.702 "/>
<path fill-rule="evenodd" clip-rule="evenodd" fill="#B5B4B5" d="M22.283,27.832h-2.914c-0.142,0-0.257-0.115-0.257-0.257v-3.231
	c0-0.143,0.115-0.257,0.257-0.257h2.914c0.142,0,0.257,0.114,0.257,0.257v3.231C22.54,27.717,22.425,27.832,22.283,27.832"/>
<path fill-rule="evenodd" clip-rule="evenodd" fill="#B5B4B5" d="M29.438,27.832h-2.914c-0.142,0-0.257-0.115-0.257-0.257v-3.231
	c0-0.143,0.115-0.257,0.257-0.257h2.914c0.142,0,0.257,0.114,0.257,0.257v3.231C29.696,27.717,29.581,27.832,29.438,27.832"/>
<path fill-rule="evenodd" clip-rule="evenodd" fill="#B5B4B5" d="M36.594,27.832H33.68c-0.142,0-0.257-0.115-0.257-0.257v-3.231
	c0-0.143,0.115-0.257,0.257-0.257h2.914c0.142,0,0.257,0.114,0.257,0.257v3.231C36.851,27.717,36.736,27.832,36.594,27.832"/>
<path fill-rule="evenodd" clip-rule="evenodd" fill="#B5B4B5" d="M43.75,27.832h-2.914c-0.142,0-0.257-0.115-0.257-0.257v-3.231
	c0-0.143,0.115-0.257,0.257-0.257h2.914c0.143,0,0.258,0.114,0.258,0.257v3.231C44.007,27.717,43.892,27.832,43.75,27.832"/>
<path fill-rule="evenodd" clip-rule="evenodd" fill="#B5B4B5" d="M50.906,27.832h-2.914c-0.143,0-0.258-0.115-0.258-0.257v-3.231
	c0-0.143,0.115-0.257,0.258-0.257h2.914c0.142,0,0.257,0.114,0.257,0.257v3.231C51.163,27.717,51.047,27.832,50.906,27.832"/>
<path fill-rule="evenodd" clip-rule="evenodd" fill="#B5B4B5" d="M33.332,35.842h-2.914c-0.142,0-0.257-0.115-0.257-0.257v-3.232
	c0-0.142,0.115-0.257,0.257-0.257h2.914c0.142,0,0.257,0.115,0.257,0.257v3.232C33.588,35.727,33.474,35.842,33.332,35.842"/>
<path fill-rule="evenodd" clip-rule="evenodd" fill="#B5B4B5" d="M40.728,35.842h-2.914c-0.142,0-0.257-0.115-0.257-0.257v-3.232
	c0-0.142,0.115-0.257,0.257-0.257h2.914c0.143,0,0.258,0.115,0.258,0.257v3.232C40.986,35.727,40.871,35.842,40.728,35.842"/>
<path fill-rule="evenodd" clip-rule="evenodd" fill="#B5B4B5" d="M48.126,35.842h-2.914c-0.143,0-0.258-0.115-0.258-0.257v-3.232
	c0-0.142,0.115-0.257,0.258-0.257h2.914c0.141,0,0.256,0.115,0.256,0.257v3.232C48.382,35.727,48.267,35.842,48.126,35.842"/>
<path fill-rule="evenodd" clip-rule="evenodd" fill="#B5B4B5" d="M26.146,35.842h-6.801c-0.143,0-0.257-0.115-0.257-0.257v-3.232
	c0-0.142,0.115-0.257,0.257-0.257h6.801c0.142,0,0.257,0.115,0.257,0.257v3.232C26.403,35.727,26.289,35.842,26.146,35.842"/>
<path fill-rule="evenodd" clip-rule="evenodd" fill="#B5B4B5" d="M22.283,43.804h-2.914c-0.142,0-0.257-0.114-0.257-0.257v-3.231
	c0-0.142,0.115-0.257,0.257-0.257h2.914c0.142,0,0.257,0.115,0.257,0.257v3.231C22.54,43.689,22.425,43.804,22.283,43.804"/>
<path fill-rule="evenodd" clip-rule="evenodd" fill="#B5B4B5" d="M59.126,43.804h-2.914c-0.142,0-0.256-0.114-0.256-0.257v-3.231
	c0-0.142,0.114-0.257,0.256-0.257h2.914c0.143,0,0.258,0.115,0.258,0.257v3.231C59.384,43.689,59.269,43.804,59.126,43.804"/>
<path fill-rule="evenodd" clip-rule="evenodd" fill="#B5B4B5" d="M51.589,43.804H26.671c-0.141,0-0.256-0.114-0.256-0.257v-3.231
	c0-0.142,0.115-0.257,0.256-0.257h24.918c0.141,0,0.256,0.115,0.256,0.257v3.231C51.845,43.689,51.73,43.804,51.589,43.804"/>
</svg>
