<?xml version="1.0" encoding="utf-8"?>
<!-- Generator: Adobe Illustrator 16.0.0, SVG Export Plug-In . SVG Version: 6.00 Build 0)  -->
<!DOCTYPE svg PUBLIC "-//W3C//DTD SVG 1.1//EN" "http://www.w3.org/Graphics/SVG/1.1/DTD/svg11.dtd">
<svg version="1.1" id="图层_1" xmlns="http://www.w3.org/2000/svg" xmlns:xlink="http://www.w3.org/1999/xlink" x="0px" y="0px"
	 width="77px" height="77.667px" viewBox="0 0 77 77.667" enable-background="new 0 0 77 77.667" xml:space="preserve">
<path fill="none" stroke="#B5B4B5" stroke-width="4" stroke-linecap="round" stroke-linejoin="round" stroke-miterlimit="10" d="
	M10.374,43.949c0,0.063,0.004,0.128,0.008,0.187c0.643,8.893,5.581,16.961,13.204,21.584c12.987,7.852,29.943,3.681,37.798-9.299
	c3.81-6.285,4.938-13.68,3.185-20.82C62.809,28.46,58.38,22.433,52.092,18.63c-2.132-1.291-4.403-2.238-6.756-2.908"/>
<path fill="none" stroke="#B5B4B5" stroke-width="4" stroke-miterlimit="10" d="M30.242,14.617c-0.917,0.608-0.917,1.604,0,2.212
	l4.781,3.172c0.916,0.608,2.416,1.604,3.333,2.212l4.78,3.172c0.917,0.608,1.667,0.206,1.667-0.895v-6.769v-4V6.956
	c0-1.102-0.75-1.503-1.667-0.895l-4.78,3.172c-0.917,0.608-2.417,1.604-3.333,2.212L30.242,14.617z"/>
</svg>
