<?xml version="1.0" encoding="utf-8"?>
<!-- Generator: Adobe Illustrator 16.0.0, SVG Export Plug-In . SVG Version: 6.00 Build 0)  -->
<!DOCTYPE svg PUBLIC "-//W3C//DTD SVG 1.1//EN" "http://www.w3.org/Graphics/SVG/1.1/DTD/svg11.dtd">
<svg version="1.1" id="图层_1" xmlns="http://www.w3.org/2000/svg" xmlns:xlink="http://www.w3.org/1999/xlink" x="0px" y="0px"
	 width="37.667px" height="35.667px" viewBox="0 0 37.667 35.667" enable-background="new 0 0 37.667 35.667" xml:space="preserve">
<path fill="none" stroke="#595758" stroke-width="3" stroke-linecap="round" stroke-linejoin="round" stroke-miterlimit="10" d="
	M31.147,15.563v14.308c0,1.256-1.019,2.275-2.276,2.275H6.436c-1.257,0-2.276-1.02-2.276-2.275V7.435
	c0-1.257,1.02-2.275,2.276-2.275h14.828"/>
<path fill="none" stroke="#595758" stroke-width="3" stroke-linecap="round" stroke-linejoin="round" stroke-miterlimit="10" d="
	M20.448,21.434l-4.774-4.774L29.052,3.282c0.445-0.446,1.168-0.446,1.613,0l3.16,3.16c0.446,0.446,0.446,1.169,0,1.614
	L20.448,21.434z"/>
<polyline fill="none" stroke="#595758" stroke-width="3" stroke-linecap="round" stroke-linejoin="round" stroke-miterlimit="10" points="
	15.673,16.66 14.513,22.595 20.448,21.433 "/>
<line fill="none" stroke="#595758" stroke-width="3" stroke-linecap="round" stroke-linejoin="round" stroke-miterlimit="10" x1="27.6" y1="4.733" x2="32.375" y2="9.506"/>
</svg>
