<?xml version="1.0" encoding="utf-8"?>
<!-- Generator: Adobe Illustrator 16.0.0, SVG Export Plug-In . SVG Version: 6.00 Build 0)  -->
<!DOCTYPE svg PUBLIC "-//W3C//DTD SVG 1.1//EN" "http://www.w3.org/Graphics/SVG/1.1/DTD/svg11.dtd">
<svg version="1.1" id="图层_1" xmlns="http://www.w3.org/2000/svg" xmlns:xlink="http://www.w3.org/1999/xlink" x="0px" y="0px"
	 width="77px" height="77.667px" viewBox="0 0 77 77.667" enable-background="new 0 0 77 77.667" xml:space="preserve">
<path fill="none" stroke="#B5B4B5" stroke-width="4" stroke-linecap="round" stroke-linejoin="round" stroke-miterlimit="10" d="
	M49.625,13.923h-8.416H28.115h-0.58c-2.058,0-3.741,1.684-3.741,3.741v20.574v1.871v11.223v1.869v9.354
	c0,2.057,1.683,3.741,3.741,3.741h22.089c2.059,0,3.742-1.685,3.742-3.741v-9.354v-1.869V40.109v-1.871V17.664
	C53.367,15.606,51.683,13.923,49.625,13.923z"/>
<path fill="none" stroke="#B5B4B5" stroke-width="4" stroke-linecap="round" stroke-linejoin="round" stroke-miterlimit="10" d="
	M40.753,13.469c0-1.2-0.973-2.173-2.174-2.173c-1.2,0-2.173,0.973-2.173,2.173"/>
<path fill-rule="evenodd" clip-rule="evenodd" fill="#B5B4B5" d="M35.409,44.994c0,1.941-1.574,3.517-3.516,3.517
	c-1.942,0-3.516-1.575-3.516-3.517s1.574-3.516,3.516-3.516C33.835,41.479,35.409,43.053,35.409,44.994"/>
<path fill-rule="evenodd" clip-rule="evenodd" fill="#B5B4B5" d="M48.783,44.994c0,1.941-1.574,3.517-3.516,3.517
	s-3.516-1.575-3.516-3.517s1.574-3.516,3.516-3.516S48.783,43.053,48.783,44.994"/>
<path fill-rule="evenodd" clip-rule="evenodd" fill="#B5B4B5" d="M35.409,57.152c0,1.941-1.574,3.517-3.516,3.517
	c-1.942,0-3.516-1.575-3.516-3.517s1.574-3.518,3.516-3.518C33.835,53.635,35.409,55.211,35.409,57.152"/>
<path fill-rule="evenodd" clip-rule="evenodd" fill="#B5B4B5" d="M48.783,57.152c0,1.941-1.574,3.517-3.516,3.517
	s-3.516-1.575-3.516-3.517s1.574-3.518,3.516-3.518S48.783,55.211,48.783,57.152"/>
<line fill="none" stroke="#B5B4B5" stroke-width="4" stroke-linecap="round" stroke-linejoin="round" stroke-miterlimit="10" x1="24.09" y1="35.908" x2="53.062" y2="35.908"/>
</svg>
