<?xml version="1.0" encoding="utf-8"?>
<!-- Generator: Adobe Illustrator 16.0.0, SVG Export Plug-In . SVG Version: 6.00 Build 0)  -->
<!DOCTYPE svg PUBLIC "-//W3C//DTD SVG 1.1//EN" "http://www.w3.org/Graphics/SVG/1.1/DTD/svg11.dtd">
<svg version="1.1" id="图层_1" xmlns="http://www.w3.org/2000/svg" xmlns:xlink="http://www.w3.org/1999/xlink" x="0px" y="0px"
	 width="77px" height="77.667px" viewBox="0 0 77 77.667" enable-background="new 0 0 77 77.667" xml:space="preserve">
<line fill="none" stroke="#B5B4B5" stroke-width="4" stroke-linecap="round" stroke-linejoin="round" stroke-miterlimit="10" x1="38.865" y1="55.107" x2="38.865" y2="60.81"/>
<path fill="none" stroke="#B5B4B5" stroke-width="4" stroke-linecap="round" stroke-linejoin="round" stroke-miterlimit="10" d="
	M38.053,29.426V17.562c0-3.715-2.144-4.6-4.764-1.966l-13.761,13.83h-4.643c-2.021,0-3.659,1.638-3.659,3.658v11.634
	c0,2.02,1.638,3.658,3.659,3.658h4.643L33.29,62.207c2.62,2.633,4.764,1.748,4.764-1.967V48.376V29.426z"/>
<path fill="none" stroke="#B5B4B5" stroke-width="4" stroke-linecap="round" stroke-linejoin="round" stroke-miterlimit="10" d="
	M58.443,57.478c4.799-4.655,7.783-11.168,7.783-18.381c0-7.214-2.984-13.726-7.783-18.382"/>
<path fill="none" stroke="#B5B4B5" stroke-width="4" stroke-linecap="round" stroke-linejoin="round" stroke-miterlimit="10" d="
	M48.74,26.527c4.117,2.669,6.848,7.297,6.848,12.568c0,5.273-2.73,9.9-6.848,12.569"/>
</svg>
